M48
; DRILL file {KiCad 5.1.5-52549c5~84~ubuntu18.04.1} date Thu 16 Jan 2020 02:27:01 PM EET
; FORMAT={3:3/ absolute / metric / suppress leading zeros}
; #@! TF.CreationDate,2020-01-16T14:27:01+02:00
; #@! TF.GenerationSoftware,Kicad,Pcbnew,5.1.5-52549c5~84~ubuntu18.04.1
FMAT,2
METRIC,TZ
T1C0.400
T2C0.800
T3C0.900
T4C1.000
T5C1.016
T6C1.200
T7C1.500
T8C1.520
T9C3.200
%
G90
G05
T1
X1500Y-25500
X1500Y-27000
X1500Y-28500
X1500Y-30000
X1500Y-31500
X1500Y-33000
X1500Y-34500
X1500Y-36000
X1500Y-37500
X1500Y-39000
X1500Y-40500
X1500Y-42000
X1500Y-43500
X1500Y-45000
X1500Y-46500
X1500Y-48000
X1500Y-49500
X1500Y-51000
X1500Y-52500
X1500Y-54000
X1500Y-55500
X1500Y-57000
X1500Y-58500
X1500Y-60000
X1500Y-61500
X1500Y-63000
X1500Y-64500
X1500Y-66000
X1500Y-67500
X1500Y-69000
X1500Y-70500
X1500Y-72000
X1500Y-73500
X1500Y-75000
X1500Y-76500
X1500Y-78000
X1500Y-79500
X1500Y-81000
X1500Y-82500
X1500Y-84000
X1500Y-85500
X1500Y-87000
X1500Y-88500
X1500Y-90000
X1500Y-91500
X1500Y-93000
X1500Y-94500
X1500Y-96000
X1500Y-97500
X1500Y-99000
X1500Y-100500
X1500Y-102000
X1500Y-103500
X1500Y-105000
X1500Y-106500
X1500Y-108000
X1500Y-109500
X1500Y-111000
X1500Y-112500
X1500Y-114000
X1500Y-115500
X1500Y-117000
X1500Y-118500
X1500Y-120000
X1500Y-121500
X1500Y-123000
X1500Y-124500
X1500Y-126000
X1500Y-127500
X1500Y-129000
X1500Y-130500
X1500Y-132000
X1500Y-133500
X1500Y-135000
X1500Y-136500
X1500Y-138000
X1500Y-139500
X1500Y-141000
X1500Y-142500
X1500Y-144000
X1500Y-145500
X1500Y-147000
X1500Y-148500
X1500Y-150000
X1500Y-151500
X1500Y-153000
X1500Y-154500
X1500Y-156000
X1500Y-157500
X1500Y-159000
X1500Y-160500
X1500Y-162000
X1500Y-163500
X1500Y-165000
X1500Y-166500
X1500Y-168000
X1500Y-169500
X1500Y-171000
X1500Y-172500
X1500Y-174000
X1500Y-175500
X1500Y-177000
X1500Y-178500
X1500Y-180000
X1500Y-181500
X1500Y-183000
X1500Y-184500
X1500Y-186000
X1500Y-187500
X1500Y-189000
X1500Y-190500
X1500Y-192000
X1500Y-193500
X1500Y-195000
X1500Y-196500
X1500Y-198000
X1500Y-199500
X1500Y-201000
X1500Y-202500
X1500Y-204000
X1500Y-205500
X1500Y-207000
X1500Y-208500
X1500Y-210000
X1500Y-211500
X1500Y-213000
X1500Y-214500
X1500Y-216000
X1500Y-217500
X1500Y-219000
X1500Y-220500
X1500Y-222000
X1500Y-223500
X1500Y-225000
X1500Y-226500
X1500Y-228000
X1500Y-229500
X1500Y-231000
X1500Y-232500
X2500Y-95000
X2500Y-116000
X2500Y-121500
X2500Y-126500
X2500Y-142500
X2500Y-158500
X2500Y-164000
X2500Y-190000
X2500Y-233500
X3000Y-25500
X3000Y-27000
X3000Y-29000
X3000Y-31000
X3000Y-33000
X3000Y-35000
X3000Y-37000
X3000Y-39000
X3000Y-41000
X3000Y-43000
X3000Y-45000
X3000Y-47000
X3000Y-49000
X3000Y-51000
X3000Y-53500
X3000Y-58500
X3000Y-63500
X3000Y-68500
X3000Y-74000
X3000Y-79500
X3000Y-84500
X3000Y-89500
X3000Y-100500
X3000Y-105500
X3000Y-110500
X3000Y-131500
X3000Y-137000
X3000Y-148000
X3000Y-153000
X3000Y-169000
X3000Y-174000
X3000Y-179500
X3000Y-185000
X3000Y-195000
X3000Y-200500
X3000Y-206000
X3000Y-211000
X3000Y-216000
X3000Y-221000
X3000Y-223000
X3000Y-225000
X3000Y-227000
X3000Y-229000
X3000Y-231000
X4000Y-95000
X4000Y-116000
X4000Y-121500
X4000Y-126500
X4000Y-142500
X4000Y-158500
X4000Y-164000
X4000Y-190000
X4000Y-233500
X4500Y-25500
X4500Y-53500
X4500Y-58500
X4500Y-63500
X4500Y-68500
X4500Y-74000
X4500Y-79500
X4500Y-84500
X4500Y-89500
X4500Y-100500
X4500Y-105500
X4500Y-110500
X4500Y-131500
X4500Y-137000
X4500Y-148000
X4500Y-153000
X4500Y-169000
X4500Y-174000
X4500Y-179500
X4500Y-185000
X4500Y-195000
X4500Y-200500
X4500Y-206000
X4500Y-211000
X4500Y-216000
X4500Y-221000
X5000Y-27000
X5000Y-31000
X5000Y-33000
X5000Y-35000
X5000Y-37000
X5000Y-39000
X5000Y-41000
X5000Y-43000
X5000Y-45000
X5000Y-47000
X5000Y-49000
X5000Y-51000
X5000Y-223000
X5000Y-225000
X5000Y-227000
X5000Y-229000
X5000Y-231000
X5500Y-95000
X5500Y-116000
X5500Y-121500
X5500Y-126500
X5500Y-142500
X5500Y-158500
X5500Y-164000
X5500Y-190000
X5500Y-233500
X6000Y-25500
X6000Y-53500
X6000Y-58500
X6000Y-63500
X6000Y-68500
X6000Y-74000
X6000Y-79500
X6000Y-84500
X6000Y-89500
X6000Y-100500
X6000Y-105500
X6000Y-110500
X6000Y-131500
X6000Y-137000
X6000Y-148000
X6000Y-153000
X6000Y-169000
X6000Y-174000
X6000Y-179500
X6000Y-185000
X6000Y-195000
X6000Y-200500
X6000Y-206000
X6000Y-211000
X6000Y-216000
X6000Y-221000
X7000Y-33000
X7000Y-35000
X7000Y-37000
X7000Y-39000
X7000Y-41000
X7000Y-47000
X7000Y-49000
X7000Y-51000
X7000Y-95000
X7000Y-116000
X7000Y-142500
X7000Y-158500
X7000Y-164000
X7000Y-190000
X7000Y-223000
X7000Y-225000
X7000Y-231000
X7000Y-233500
X7500Y-25500
X7500Y-53500
X7500Y-58500
X7500Y-63500
X7500Y-68500
X7500Y-74000
X7500Y-79500
X7500Y-89500
X7500Y-100500
X7500Y-105500
X7500Y-110500
X7500Y-121500
X7500Y-126500
X7500Y-131500
X7500Y-137000
X7500Y-148000
X7500Y-153000
X7500Y-169000
X7500Y-174000
X7500Y-179500
X7500Y-185000
X7500Y-195000
X7500Y-200500
X7500Y-206000
X7500Y-221000
X8000Y-84500
X8000Y-211000
X8000Y-216000
X8500Y-233500
X9000Y-25500
X9000Y-37000
X9000Y-39000
X9000Y-41000
X9000Y-47000
X9000Y-49000
X9000Y-221500
X9000Y-223000
X9000Y-224500
X9000Y-226000
X9000Y-231000
X9000Y-232500
X12000Y-25500
X12000Y-32000
X12000Y-33500
X12000Y-37000
X12000Y-39000
X12000Y-41000
X12000Y-47000
X12000Y-49000
X12000Y-221500
X12000Y-223000
X12000Y-224500
X12000Y-226000
X12000Y-231000
X12000Y-232500
X13000Y-233500
X13500Y-25500
X14000Y-32000
X14000Y-34000
X14000Y-37000
X14000Y-39000
X14000Y-41000
X14000Y-47000
X14000Y-49000
X14000Y-222000
X14000Y-224000
X14000Y-226000
X14000Y-231000
X14500Y-233500
X15000Y-25500
X15900Y-59400
X16000Y-27000
X16000Y-29000
X16000Y-31000
X16000Y-39000
X16000Y-41000
X16000Y-43000
X16000Y-45000
X16000Y-47000
X16000Y-49000
X16000Y-54000
X16000Y-55500
X16000Y-69500
X16000Y-71000
X16000Y-75500
X16000Y-77000
X16000Y-90500
X16000Y-92000
X16000Y-96500
X16000Y-112000
X16000Y-113500
X16000Y-117500
X16000Y-133000
X16000Y-134500
X16000Y-139000
X16000Y-154000
X16000Y-155500
X16000Y-160000
X16000Y-175000
X16000Y-176500
X16000Y-181500
X16000Y-196000
X16000Y-197500
X16000Y-217000
X16000Y-218500
X16000Y-220000
X16000Y-221500
X16000Y-224000
X16000Y-226000
X16000Y-228000
X16000Y-230000
X16000Y-232000
X16000Y-233500
X16300Y-80300
X16300Y-185700
X16300Y-206800
X16400Y-101500
X16400Y-122500
X16400Y-164700
X16500Y-25500
X16500Y-143700
X16500Y-202500
X17000Y-61500
X17000Y-63000
X17000Y-64500
X17000Y-66000
X17500Y-54000
X17500Y-55500
X17500Y-69500
X17500Y-71000
X17500Y-75500
X17500Y-82500
X17500Y-84000
X17500Y-85500
X17500Y-87000
X17500Y-90500
X17500Y-92000
X17500Y-96500
X17500Y-104000
X17500Y-105500
X17500Y-107000
X17500Y-108500
X17500Y-112000
X17500Y-113500
X17500Y-117500
X17500Y-125000
X17500Y-126500
X17500Y-128000
X17500Y-129500
X17500Y-133000
X17500Y-134500
X17500Y-139000
X17500Y-146000
X17500Y-147500
X17500Y-149000
X17500Y-150500
X17500Y-154000
X17500Y-155500
X17500Y-160000
X17500Y-167000
X17500Y-168500
X17500Y-170000
X17500Y-171500
X17500Y-175000
X17500Y-176500
X17500Y-181500
X17500Y-188000
X17500Y-189500
X17500Y-191000
X17500Y-192500
X17500Y-196000
X17500Y-197500
X17500Y-209000
X17500Y-210500
X17500Y-212000
X17500Y-213500
X17500Y-217000
X17500Y-218500
X17500Y-220000
X17500Y-221500
X17500Y-233500
X18000Y-25500
X18000Y-27000
X18000Y-29000
X18000Y-31000
X18000Y-41000
X18000Y-43000
X18000Y-45000
X18000Y-47000
X18000Y-49000
X18000Y-202500
X18000Y-224000
X18000Y-226000
X18000Y-228000
X18000Y-230000
X18000Y-232000
X18500Y-59500
X18500Y-61500
X18500Y-63000
X18500Y-64500
X18500Y-66000
X19000Y-54000
X19000Y-55500
X19000Y-69500
X19000Y-71000
X19000Y-75500
X19000Y-82500
X19000Y-84000
X19000Y-85500
X19000Y-87000
X19000Y-90500
X19000Y-92000
X19000Y-96500
X19000Y-104000
X19000Y-105500
X19000Y-107000
X19000Y-108500
X19000Y-112000
X19000Y-113500
X19000Y-117500
X19000Y-125000
X19000Y-126500
X19000Y-128000
X19000Y-129500
X19000Y-133000
X19000Y-134500
X19000Y-139000
X19000Y-146000
X19000Y-147500
X19000Y-149000
X19000Y-150500
X19000Y-154000
X19000Y-155500
X19000Y-160000
X19000Y-167000
X19000Y-168500
X19000Y-170000
X19000Y-171500
X19000Y-175000
X19000Y-176500
X19000Y-181500
X19000Y-188000
X19000Y-189500
X19000Y-191000
X19000Y-192500
X19000Y-196000
X19000Y-197500
X19000Y-209000
X19000Y-210500
X19000Y-212000
X19000Y-213500
X19000Y-217000
X19000Y-218500
X19000Y-220000
X19000Y-221500
X19000Y-233500
X19500Y-25500
X19500Y-80000
X19500Y-122500
X19500Y-185500
X19500Y-202500
X19500Y-206500
X20000Y-27000
X20000Y-29000
X20000Y-31000
X20000Y-33000
X20000Y-41000
X20000Y-43000
X20000Y-45000
X20000Y-47000
X20000Y-49000
X20000Y-59000
X20000Y-61500
X20000Y-63000
X20000Y-64500
X20000Y-66000
X20000Y-101500
X20000Y-143500
X20000Y-164500
X20000Y-224000
X20000Y-226000
X20000Y-228000
X20000Y-230000
X20000Y-232000
X20500Y-54000
X20500Y-55500
X20500Y-71500
X20500Y-75500
X20500Y-82500
X20500Y-84000
X20500Y-85500
X20500Y-87000
X20500Y-92500
X20500Y-96500
X20500Y-104000
X20500Y-105500
X20500Y-107000
X20500Y-108500
X20500Y-117500
X20500Y-125000
X20500Y-126500
X20500Y-128000
X20500Y-129500
X20500Y-134500
X20500Y-139000
X20500Y-146000
X20500Y-147500
X20500Y-149000
X20500Y-150500
X20500Y-155500
X20500Y-160000
X20500Y-167000
X20500Y-168500
X20500Y-170000
X20500Y-171500
X20500Y-176500
X20500Y-181500
X20500Y-188000
X20500Y-189500
X20500Y-191000
X20500Y-192500
X20500Y-209000
X20500Y-210500
X20500Y-212000
X20500Y-213500
X20500Y-233500
X21000Y-25500
X22000Y-27000
X22000Y-29000
X22000Y-31000
X22000Y-33000
X22000Y-35000
X22000Y-37000
X22000Y-39000
X22000Y-41000
X22000Y-43000
X22000Y-45000
X22000Y-47000
X22000Y-49000
X22000Y-222000
X22000Y-224000
X22000Y-226000
X22000Y-228000
X22000Y-230000
X22000Y-232000
X22000Y-233500
X22500Y-25500
X23500Y-233500
X24000Y-25500
X24000Y-27000
X24000Y-29000
X24000Y-31000
X24000Y-33000
X24000Y-35000
X24000Y-37000
X24000Y-39000
X24000Y-41000
X24000Y-43000
X24000Y-45000
X24000Y-47000
X24000Y-49000
X24000Y-51000
X24000Y-68000
X24000Y-89000
X24000Y-110500
X24000Y-131500
X24000Y-152500
X24000Y-173500
X24000Y-194500
X24000Y-216000
X24000Y-222000
X24000Y-224000
X24000Y-226000
X24000Y-232000
X24350Y-62900
X24350Y-126150
X24350Y-147250
X24350Y-168300
X24350Y-189350
X24350Y-210450
X24360Y-83940
X24360Y-105040
X24500Y-73500
X24500Y-200000
X25000Y-229000
X25000Y-233500
X25500Y-25500
X25500Y-227000
X25500Y-230500
X25600Y-59650
X25600Y-62200
X25600Y-64750
X25600Y-67300
X25600Y-122900
X25600Y-125450
X25600Y-128000
X25600Y-130550
X25600Y-144000
X25600Y-146550
X25600Y-149100
X25600Y-151650
X25600Y-165050
X25600Y-167600
X25600Y-170150
X25600Y-172700
X25600Y-186100
X25600Y-188650
X25600Y-191200
X25600Y-193750
X25600Y-207200
X25600Y-209750
X25600Y-212300
X25600Y-214850
X25610Y-80690
X25610Y-83240
X25610Y-85790
X25610Y-88340
X25610Y-101790
X25610Y-104340
X25610Y-106890
X25610Y-109440
X26000Y-27000
X26000Y-29000
X26000Y-31000
X26000Y-33000
X26000Y-35000
X26000Y-37000
X26000Y-39000
X26000Y-41000
X26000Y-43000
X26000Y-45000
X26000Y-47000
X26000Y-49000
X26000Y-51000
X26000Y-53000
X26000Y-73500
X26000Y-75000
X26000Y-199500
X26000Y-201000
X26000Y-220000
X26000Y-222000
X26000Y-224000
X26000Y-232000
X26500Y-225500
X26500Y-233000
X27000Y-25500
X27500Y-26500
X27500Y-28000
X27500Y-29500
X27500Y-31000
X27500Y-32500
X27500Y-34000
X27500Y-35500
X27500Y-37000
X27500Y-38500
X27500Y-40000
X27500Y-41500
X27500Y-43000
X27500Y-44500
X27500Y-46000
X27500Y-47500
X27500Y-49000
X27500Y-50500
X27500Y-52000
X27500Y-53500
X27500Y-55000
X27500Y-56500
X27500Y-69000
X27500Y-70500
X27500Y-72000
X27500Y-73500
X27500Y-75000
X27500Y-76500
X27500Y-78000
X27500Y-89500
X27500Y-91000
X27500Y-92500
X27500Y-94000
X27500Y-95500
X27500Y-97000
X27500Y-98500
X27500Y-111000
X27500Y-112500
X27500Y-114000
X27500Y-115500
X27500Y-117000
X27500Y-118500
X27500Y-120000
X27500Y-132000
X27500Y-133500
X27500Y-135000
X27500Y-136500
X27500Y-138000
X27500Y-139500
X27500Y-141000
X27500Y-153000
X27500Y-154500
X27500Y-156000
X27500Y-157500
X27500Y-159000
X27500Y-160500
X27500Y-162000
X27500Y-174000
X27500Y-175500
X27500Y-177000
X27500Y-178500
X27500Y-180000
X27500Y-181500
X27500Y-183000
X27500Y-195000
X27500Y-196500
X27500Y-198000
X27500Y-199500
X27500Y-201000
X27500Y-202500
X27500Y-204000
X27500Y-216500
X27500Y-218000
X27500Y-219500
X27500Y-221000
X27500Y-222500
X27500Y-224000
X33500Y-46000
X33500Y-47500
X33500Y-49000
X33500Y-54500
X33500Y-56000
X33500Y-69000
X33500Y-70500
X33500Y-72000
X33500Y-73500
X33500Y-75000
X33500Y-76500
X33500Y-78000
X33500Y-90000
X33500Y-91500
X33500Y-93000
X33500Y-94500
X33500Y-96000
X33500Y-97500
X33500Y-99000
X33500Y-111000
X33500Y-112500
X33500Y-114000
X33500Y-115500
X33500Y-117000
X33500Y-118500
X33500Y-120000
X33500Y-132000
X33500Y-133500
X33500Y-135000
X33500Y-136500
X33500Y-138000
X33500Y-139500
X33500Y-141000
X33500Y-153000
X33500Y-154500
X33500Y-156000
X33500Y-157500
X33500Y-159000
X33500Y-160500
X33500Y-162000
X33500Y-174000
X33500Y-175500
X33500Y-177000
X33500Y-178500
X33500Y-180000
X33500Y-181500
X33500Y-183000
X33500Y-195000
X33500Y-196500
X33500Y-198000
X33500Y-199500
X33500Y-201000
X33500Y-202500
X33500Y-204000
X33500Y-216500
X33500Y-218000
X33500Y-219500
X33500Y-221000
X33500Y-222500
X33500Y-224000
X34000Y-40000
X35000Y-225000
X35000Y-233500
X35400Y-60900
X35400Y-63400
X35400Y-65900
X35400Y-81900
X35400Y-84440
X35400Y-86940
X35400Y-103000
X35400Y-105600
X35400Y-108100
X35400Y-124100
X35400Y-126650
X35400Y-129150
X35400Y-145200
X35400Y-147800
X35400Y-150250
X35400Y-166300
X35400Y-168800
X35400Y-171400
X35400Y-187300
X35400Y-189850
X35400Y-192400
X35400Y-208400
X35400Y-211000
X35400Y-213500
X35500Y-58300
X35500Y-121550
X35500Y-142650
X35500Y-163700
X35500Y-184750
X35500Y-205850
X35500Y-232500
X35510Y-79340
X35510Y-100440
X36000Y-40000
X36000Y-46000
X36000Y-48000
X36000Y-226500
X36000Y-231000
X36500Y-228000
X36500Y-229500
X36500Y-233500
X37000Y-91000
X37000Y-93000
X37000Y-95000
X37000Y-97000
X37000Y-99000
X37000Y-112000
X37000Y-114000
X37000Y-116000
X37000Y-118000
X37000Y-120000
X37000Y-133000
X37000Y-135000
X37000Y-137000
X37000Y-139000
X37000Y-141000
X37000Y-154000
X37000Y-156000
X37000Y-158000
X37000Y-160000
X37000Y-162000
X37000Y-175000
X37000Y-177000
X37000Y-179000
X37000Y-181000
X37000Y-183000
X37000Y-196000
X37000Y-198000
X37000Y-200000
X37000Y-202000
X37000Y-204000
X37500Y-56500
X38000Y-40000
X38000Y-42000
X38000Y-44000
X38000Y-46000
X38000Y-48000
X38000Y-233500
X39000Y-69500
X39000Y-71500
X39000Y-73500
X39000Y-75500
X39000Y-77500
X39000Y-91000
X39000Y-93000
X39000Y-95000
X39000Y-97000
X39000Y-99000
X39000Y-112000
X39000Y-114000
X39000Y-116000
X39000Y-118000
X39000Y-120000
X39000Y-133000
X39000Y-135000
X39000Y-137000
X39000Y-139000
X39000Y-141000
X39000Y-154000
X39000Y-156000
X39000Y-158000
X39000Y-160000
X39000Y-162000
X39000Y-175000
X39000Y-177000
X39000Y-179000
X39000Y-181000
X39000Y-196000
X39000Y-198000
X39000Y-200000
X39000Y-202000
X39000Y-225000
X39000Y-227000
X39000Y-229000
X39500Y-233500
X40000Y-40000
X40000Y-52000
X40000Y-54000
X40000Y-56500
X40000Y-59000
X41000Y-69500
X41000Y-71500
X41000Y-73500
X41000Y-75500
X41000Y-77500
X41000Y-91000
X41000Y-93000
X41000Y-95000
X41000Y-97000
X41000Y-99000
X41000Y-112000
X41000Y-114000
X41000Y-116000
X41000Y-118000
X41000Y-120000
X41000Y-133000
X41000Y-135000
X41000Y-137000
X41000Y-139000
X41000Y-141000
X41000Y-154000
X41000Y-156000
X41000Y-158000
X41000Y-160000
X41000Y-162000
X41000Y-175000
X41000Y-177000
X41000Y-179000
X41000Y-196000
X41000Y-198000
X41000Y-200000
X41000Y-215000
X41000Y-225000
X41000Y-227000
X41000Y-229000
X41000Y-233500
X42000Y-40000
X42500Y-56500
X42500Y-59000
X42500Y-233500
X43000Y-225000
X43000Y-227000
X43000Y-229000
X44000Y-233500
X44300Y-75100
X44300Y-95700
X44300Y-117100
X44300Y-137500
X44300Y-157400
X44300Y-173900
X44800Y-218800
X45000Y-40000
X45000Y-56000
X45000Y-225000
X45000Y-227000
X45000Y-229000
X45500Y-233500
X45600Y-190000
X45800Y-209100
X47000Y-233500
X47500Y-40000
X47500Y-42500
X47500Y-69500
X47500Y-71000
X47500Y-72500
X48500Y-233500
X49000Y-69500
X49500Y-62000
X49900Y-210900
X49900Y-212300
X50000Y-40000
X50000Y-42500
X50000Y-45000
X50000Y-233500
X50490Y-218790
X51000Y-60500
X51000Y-62000
X51500Y-233500
X52400Y-203300
X52500Y-40000
X52500Y-42500
X52900Y-172600
X53000Y-233500
X53100Y-88200
X53100Y-108700
X53200Y-70600
X53500Y-74000
X53600Y-130100
X53600Y-170300
X53700Y-215100
X53700Y-216300
X53800Y-150500
X54000Y-55000
X54400Y-94100
X54400Y-115600
X54400Y-223000
X54500Y-53000
X54500Y-233500
X55000Y-40000
X55000Y-42500
X55000Y-50000
X55400Y-56100
X55400Y-94100
X55400Y-115600
X55700Y-59600
X55700Y-60900
X55700Y-62100
X55700Y-77100
X55700Y-78400
X55700Y-79600
X55700Y-97600
X55700Y-98900
X55700Y-100100
X55700Y-119100
X55700Y-120400
X55700Y-121600
X55700Y-139600
X55700Y-140900
X55700Y-142100
X55700Y-159400
X55700Y-160700
X55700Y-161900
X55700Y-175800
X55700Y-177100
X55700Y-178300
X55700Y-192300
X55700Y-193600
X55700Y-194800
X55800Y-67300
X56000Y-233500
X56300Y-63700
X56300Y-64900
X56300Y-66100
X56300Y-101200
X56300Y-102500
X56300Y-103700
X56300Y-104900
X56300Y-122800
X56300Y-143200
X56300Y-144500
X56300Y-145700
X56300Y-146900
X56300Y-163000
X56300Y-164300
X56300Y-165500
X56300Y-166700
X56300Y-179400
X56300Y-180700
X56300Y-181900
X56300Y-183100
X56300Y-195900
X56300Y-197200
X56300Y-198400
X56300Y-199600
X56400Y-81100
X56400Y-82300
X56400Y-83500
X57000Y-54700
X57000Y-92900
X57000Y-114400
X57000Y-134900
X57000Y-154700
X57500Y-40000
X57500Y-42500
X57500Y-50000
X57500Y-233500
X57700Y-187600
X58100Y-203300
X58300Y-70700
X58400Y-150900
X58400Y-170600
X58700Y-130500
X58800Y-88600
X58900Y-187600
X59000Y-233500
X59390Y-218790
X59400Y-54700
X59400Y-92900
X59400Y-114400
X59400Y-134900
X59400Y-154700
X59500Y-1500
X59500Y-21200
X59600Y-211700
X60000Y-40000
X60000Y-42500
X60000Y-50000
X60050Y-9550
X60500Y-233500
X60600Y-61200
X60700Y-148700
X60700Y-168500
X60700Y-184900
X60800Y-211700
X61000Y-1500
X61100Y-76000
X61100Y-96500
X61100Y-118000
X61100Y-138500
X61100Y-158300
X61100Y-174700
X61100Y-191200
X61200Y-33700
X61200Y-36300
X61200Y-38900
X61200Y-41500
X61490Y-17040
X61490Y-17040
X61600Y-215800
X62000Y-233500
X62100Y-50100
X62450Y-21100
X62500Y-1500
X62500Y-32400
X62500Y-35000
X62500Y-37600
X62500Y-70000
X62500Y-87500
X62500Y-107500
X62500Y-217200
X62700Y-148700
X62700Y-168500
X62700Y-184900
X63000Y-129000
X63400Y-223600
X63500Y-233500
X63700Y-205100
X63800Y-38900
X64000Y-1500
X64000Y-151000
X64000Y-153000
X64000Y-155000
X64000Y-157000
X64000Y-170000
X64000Y-172000
X64000Y-187000
X64000Y-189000
X64100Y-43300
X64400Y-12000
X64700Y-148700
X64700Y-168500
X64700Y-184900
X65000Y-70000
X65000Y-72500
X65000Y-87500
X65000Y-90000
X65000Y-95000
X65000Y-107500
X65000Y-110000
X65000Y-112500
X65000Y-115000
X65000Y-129000
X65000Y-131000
X65000Y-133000
X65000Y-135000
X65000Y-137000
X65000Y-233500
X65200Y-38900
X65300Y-43300
X65500Y-1500
X65500Y-18700
X65500Y-196200
X66000Y-151000
X66000Y-153000
X66000Y-155000
X66000Y-157000
X66000Y-170000
X66000Y-172000
X66000Y-187000
X66000Y-189000
X66200Y-23600
X66400Y-38900
X66500Y-43300
X66500Y-233500
X67000Y-1500
X67000Y-53500
X67000Y-129000
X67000Y-131000
X67000Y-133000
X67000Y-135000
X67000Y-137000
X67500Y-70000
X67500Y-72500
X67500Y-87500
X67500Y-90000
X67500Y-95000
X67500Y-107500
X67500Y-110000
X67500Y-112500
X67500Y-115000
X67600Y-33400
X67700Y-43300
X67900Y-63500
X67900Y-65300
X67900Y-81000
X67900Y-82800
X67900Y-101500
X67900Y-103300
X68000Y-151000
X68000Y-153000
X68000Y-155000
X68000Y-157000
X68000Y-170000
X68000Y-172000
X68000Y-187000
X68000Y-189000
X68000Y-202000
X68000Y-204000
X68000Y-233500
X68090Y-218790
X68500Y-1500
X68900Y-43300
X68900Y-123100
X68900Y-124900
X68900Y-143500
X68900Y-145300
X68900Y-163300
X68900Y-165100
X68900Y-179700
X68900Y-181500
X68990Y-17040
X69000Y-129000
X69000Y-131000
X69000Y-133000
X69000Y-135000
X69000Y-137000
X69100Y-198000
X69400Y-212100
X69500Y-233500
X70000Y-1500
X70000Y-21300
X70000Y-202000
X70000Y-204000
X70000Y-206000
X70100Y-43300
X70700Y-212100
X71000Y-233500
X71200Y-215600
X71200Y-216800
X71500Y-1500
X71575Y-65325
X71575Y-82775
X71575Y-103325
X71575Y-124925
X71575Y-145325
X71575Y-165125
X71600Y-48500
X71600Y-181500
X71600Y-198000
X71700Y-33200
X72000Y-202000
X72000Y-204000
X72000Y-206000
X72000Y-208000
X72000Y-212100
X72400Y-12200
X72500Y-233500
X72800Y-196200
X72845Y-63545
X72845Y-81045
X72845Y-101555
X72845Y-123045
X72845Y-143555
X72845Y-163245
X72900Y-48500
X72900Y-179700
X73000Y-1500
X73500Y-19300
X74000Y-233500
X74100Y-48500
X74200Y-42500
X74200Y-43700
X74500Y-1500
X74500Y-52500
X75000Y-187500
X75200Y-10700
X75400Y-42500
X75400Y-43700
X75400Y-57100
X75500Y-233500
X75790Y-218790
X75900Y-39000
X75900Y-202800
X75900Y-205400
X76000Y-1500
X76990Y-17040
X77000Y-52000
X77000Y-233500
X77300Y-200300
X77500Y-1500
X77500Y-60000
X77500Y-65000
X77500Y-67500
X77500Y-70000
X77500Y-72500
X77500Y-82500
X77500Y-85000
X77500Y-87500
X77500Y-90000
X77500Y-105000
X77500Y-107500
X77500Y-110000
X77500Y-112500
X77500Y-125000
X77500Y-127500
X77500Y-130000
X77500Y-132500
X77500Y-145000
X77500Y-147500
X77500Y-150000
X77500Y-152500
X77500Y-165000
X77500Y-167500
X77500Y-170000
X77500Y-172500
X77500Y-187500
X78000Y-21300
X78200Y-38600
X78500Y-233500
X78800Y-53700
X78800Y-197700
X79000Y-1500
X79000Y-210000
X79000Y-212000
X79000Y-214000
X79300Y-38600
X79500Y-58000
X80000Y-52100
X80000Y-65000
X80000Y-67500
X80000Y-70000
X80000Y-82500
X80000Y-85000
X80000Y-87500
X80000Y-90000
X80000Y-105000
X80000Y-107500
X80000Y-110000
X80000Y-112500
X80000Y-125000
X80000Y-127500
X80000Y-130000
X80000Y-132500
X80000Y-145000
X80000Y-147500
X80000Y-150000
X80000Y-152500
X80000Y-165000
X80000Y-167500
X80000Y-170000
X80000Y-172500
X80000Y-187500
X80000Y-190000
X80000Y-192500
X80000Y-195000
X80000Y-229000
X80000Y-231000
X80000Y-233500
X80400Y-12400
X80400Y-38600
X80500Y-1500
X81000Y-210000
X81000Y-212000
X81000Y-214000
X81500Y-18700
X81500Y-233500
X82000Y-1500
X82000Y-229000
X82000Y-231000
X82200Y-46000
X82500Y-65000
X82500Y-67500
X82500Y-70000
X82500Y-82500
X82500Y-85000
X82500Y-87500
X82500Y-90000
X82500Y-105000
X82500Y-107500
X82500Y-107500
X82500Y-110000
X82500Y-125000
X82500Y-127500
X82500Y-130000
X82500Y-132500
X82500Y-145000
X82500Y-147500
X82500Y-150000
X82500Y-152500
X82500Y-165000
X82500Y-167500
X82500Y-170000
X82500Y-172500
X82500Y-187500
X82500Y-190000
X82500Y-192500
X82500Y-195000
X83000Y-210000
X83000Y-212000
X83000Y-214000
X83000Y-233500
X83500Y-1500
X83900Y-176600
X83900Y-179200
X84000Y-181800
X84000Y-229000
X84000Y-231000
X84100Y-71200
X84100Y-73800
X84100Y-76300
X84100Y-78900
X84100Y-184300
X84150Y-17050
X84150Y-36850
X84200Y-57800
X84200Y-142100
X84200Y-155500
X84200Y-158100
X84200Y-160600
X84200Y-163100
X84300Y-50200
X84300Y-113400
X84300Y-139500
X84400Y-116000
X84400Y-118500
X84400Y-121000
X84400Y-134400
X84400Y-137000
X84500Y-233500
X84600Y-92700
X84600Y-94900
X84600Y-97500
X84600Y-100100
X85000Y-1500
X85000Y-62500
X85000Y-65000
X85000Y-67500
X85000Y-82500
X85000Y-85000
X85000Y-87500
X85000Y-90000
X85000Y-105000
X85000Y-107500
X85000Y-110000
X85000Y-125000
X85000Y-127500
X85000Y-130000
X85000Y-145000
X85000Y-147500
X85000Y-150000
X85000Y-152500
X85000Y-167500
X85000Y-170000
X85000Y-172500
X85000Y-187500
X85000Y-190000
X85000Y-192500
X85000Y-195000
X85000Y-210000
X85000Y-212000
X85000Y-214000
X85700Y-7800
X86000Y-233500
X86500Y-1500
X87500Y-62500
X87500Y-65000
X87500Y-67500
X87500Y-82500
X87500Y-85000
X87500Y-87500
X87500Y-90000
X87500Y-105000
X87500Y-107500
X87500Y-110000
X87500Y-125000
X87500Y-127500
X87500Y-130000
X87500Y-147500
X87500Y-150000
X87500Y-152500
X87500Y-167500
X87500Y-170000
X87500Y-172500
X87500Y-228000
X87500Y-230000
X87500Y-233500
X88000Y-1500
X88000Y-226000
X88000Y-232000
X88390Y-177960
X88390Y-180460
X88390Y-183060
X88390Y-185560
X88390Y-199060
X88390Y-201560
X88390Y-204160
X88390Y-206660
X88400Y-12400
X88400Y-51500
X88400Y-54000
X88400Y-56600
X88400Y-59100
X88400Y-72550
X88400Y-75050
X88400Y-77650
X88400Y-80150
X88400Y-93650
X88400Y-96150
X88400Y-98750
X88400Y-101250
X88400Y-114700
X88400Y-117200
X88400Y-119800
X88400Y-122300
X88400Y-135750
X88400Y-138250
X88400Y-140850
X88400Y-143350
X88400Y-156850
X88400Y-159350
X88400Y-161950
X88400Y-164450
X89000Y-225000
X89000Y-233500
X89500Y-1500
X90500Y-2000
X90500Y-3500
X90500Y-5000
X90500Y-6500
X90500Y-8000
X90500Y-9500
X90500Y-11000
X90500Y-12500
X90500Y-14000
X90500Y-15500
X90500Y-17000
X90500Y-18500
X90500Y-20000
X90500Y-21500
X90500Y-23000
X90500Y-24500
X90500Y-26000
X90500Y-27500
X90500Y-29000
X90500Y-30500
X90500Y-32000
X90500Y-33500
X90500Y-35000
X90500Y-36500
X90500Y-38000
X90500Y-39500
X90500Y-41000
X90500Y-42500
X90500Y-44000
X90500Y-45500
X90500Y-47000
X90500Y-48500
X90500Y-60500
X90500Y-62000
X90500Y-63500
X90500Y-65000
X90500Y-66500
X90500Y-68000
X90500Y-69500
X90500Y-81500
X90500Y-83000
X90500Y-84500
X90500Y-86000
X90500Y-87500
X90500Y-89000
X90500Y-90500
X90500Y-102500
X90500Y-104000
X90500Y-105500
X90500Y-107000
X90500Y-108500
X90500Y-110000
X90500Y-111500
X90500Y-124000
X90500Y-125500
X90500Y-127000
X90500Y-128500
X90500Y-130000
X90500Y-131500
X90500Y-133000
X90500Y-145000
X90500Y-146500
X90500Y-148000
X90500Y-149500
X90500Y-151000
X90500Y-152500
X90500Y-154000
X90500Y-166000
X90500Y-167500
X90500Y-169000
X90500Y-170500
X90500Y-172000
X90500Y-173500
X90500Y-175000
X90500Y-187500
X90500Y-189000
X90500Y-190500
X90500Y-192000
X90500Y-193500
X90500Y-195000
X90500Y-196500
X90500Y-209000
X90500Y-210500
X90500Y-212000
X90500Y-213500
X90500Y-215000
X90500Y-216500
X90500Y-218000
X90500Y-219500
X90500Y-221000
X90500Y-222500
X90500Y-224000
X96500Y-19000
X96500Y-20500
X96500Y-22000
X96500Y-23500
X96500Y-23500
X96500Y-25000
X96500Y-26500
X96500Y-28000
X96500Y-29500
X96500Y-31000
X96500Y-32500
X96500Y-34000
X96500Y-35500
X96500Y-37000
X96500Y-38500
X96500Y-40000
X96500Y-41500
X96500Y-43000
X96500Y-44500
X96500Y-46000
X96500Y-47500
X96500Y-49000
X96500Y-61000
X96500Y-62500
X96500Y-64000
X96500Y-65500
X96500Y-67000
X96500Y-68500
X96500Y-70000
X96500Y-82000
X96500Y-83500
X96500Y-85000
X96500Y-86500
X96500Y-88000
X96500Y-89500
X96500Y-91000
X96500Y-103000
X96500Y-104500
X96500Y-106000
X96500Y-107500
X96500Y-109000
X96500Y-110500
X96500Y-112000
X96500Y-124000
X96500Y-125500
X96500Y-127000
X96500Y-128500
X96500Y-130000
X96500Y-131500
X96500Y-133000
X96500Y-145000
X96500Y-146500
X96500Y-148000
X96500Y-149500
X96500Y-151000
X96500Y-152500
X96500Y-154000
X96500Y-166000
X96500Y-167500
X96500Y-169000
X96500Y-170500
X96500Y-172000
X96500Y-173500
X96500Y-175000
X96500Y-187000
X96500Y-188500
X96500Y-190000
X96500Y-191500
X96500Y-193000
X96500Y-194500
X96500Y-196000
X98000Y-19000
X98000Y-212000
X98000Y-214000
X98000Y-216000
X98000Y-218000
X98000Y-220000
X98000Y-222000
X98000Y-224000
X98290Y-176560
X98290Y-179110
X98290Y-181660
X98290Y-184210
X98290Y-197660
X98290Y-200210
X98290Y-202760
X98290Y-205310
X98300Y-50100
X98300Y-52650
X98300Y-55200
X98300Y-57750
X98300Y-71150
X98300Y-73700
X98300Y-76250
X98300Y-78800
X98300Y-92250
X98300Y-94800
X98300Y-97350
X98300Y-99900
X98300Y-113300
X98300Y-115850
X98300Y-118400
X98300Y-120950
X98300Y-134350
X98300Y-136900
X98300Y-139450
X98300Y-142000
X98300Y-155450
X98300Y-158000
X98300Y-160550
X98300Y-163100
X99500Y-19000
X99540Y-180960
X99540Y-202060
X99550Y-54500
X99550Y-75550
X99550Y-96650
X99550Y-117700
X99550Y-138750
X99550Y-159850
X100000Y-22500
X100000Y-25000
X100000Y-26000
X100000Y-28000
X100000Y-30000
X100000Y-32000
X100000Y-34000
X100000Y-36000
X100000Y-38000
X100000Y-40000
X100000Y-42000
X100000Y-133500
X100000Y-154500
X100000Y-175500
X100000Y-197000
X100000Y-214000
X100000Y-216000
X100000Y-218000
X100000Y-220000
X100000Y-222000
X100000Y-224000
X100000Y-226000
X100000Y-228000
X100000Y-230000
X100000Y-232000
X101000Y-19000
X102000Y-32000
X102000Y-34000
X102000Y-36000
X102000Y-38000
X102000Y-40000
X102000Y-42000
X102000Y-216000
X102000Y-218000
X102000Y-220000
X102000Y-222000
X102000Y-224000
X102000Y-226000
X102000Y-228000
X102000Y-230000
X102000Y-232000
X102500Y-19000
X102500Y-22500
X102500Y-25000
X103500Y-184500
X103500Y-206000
X103900Y-58100
X104000Y-19000
X104000Y-32000
X104000Y-34000
X104000Y-36000
X104000Y-38000
X104000Y-40000
X104000Y-52000
X104000Y-55000
X104000Y-63000
X104000Y-67000
X104000Y-72000
X104000Y-74000
X104000Y-76000
X104000Y-79300
X104000Y-83000
X104000Y-89000
X104000Y-93000
X104000Y-95000
X104000Y-97000
X104000Y-104000
X104000Y-110000
X104000Y-114000
X104000Y-116000
X104000Y-118000
X104000Y-121500
X104000Y-126000
X104000Y-130000
X104000Y-135000
X104000Y-137000
X104000Y-139000
X104000Y-142500
X104000Y-147000
X104000Y-151000
X104000Y-157000
X104000Y-159000
X104000Y-161000
X104000Y-163500
X104000Y-168000
X104000Y-172000
X104000Y-178000
X104000Y-180000
X104000Y-182000
X104000Y-189000
X104000Y-193000
X104000Y-199000
X104000Y-201000
X104000Y-203000
X104000Y-210000
X104000Y-216000
X104000Y-218000
X104000Y-220000
X104000Y-222000
X104000Y-224000
X104000Y-226000
X104000Y-228000
X104000Y-230000
X104000Y-232000
X104500Y-152500
X104500Y-173500
X104500Y-194500
X105000Y-22500
X105000Y-25000
X105000Y-47000
X105000Y-84000
X105000Y-121500
X105000Y-163500
X105000Y-184500
X105000Y-205500
X105400Y-58100
X105500Y-19000
X105500Y-79300
X106000Y-32000
X106000Y-34000
X106000Y-36000
X106000Y-38000
X106000Y-40000
X106000Y-52000
X106000Y-55000
X106000Y-63000
X106000Y-67000
X106000Y-68600
X106000Y-72000
X106000Y-74000
X106000Y-76000
X106000Y-83000
X106000Y-89000
X106000Y-93000
X106000Y-95000
X106000Y-97000
X106000Y-104000
X106000Y-110000
X106000Y-114000
X106000Y-116000
X106000Y-118000
X106000Y-126000
X106000Y-130000
X106000Y-132000
X106000Y-135000
X106000Y-137000
X106000Y-139000
X106000Y-147000
X106000Y-151000
X106000Y-153000
X106000Y-157000
X106000Y-159000
X106000Y-161000
X106000Y-168000
X106000Y-172000
X106000Y-174000
X106000Y-178000
X106000Y-180000
X106000Y-182000
X106000Y-189000
X106000Y-193000
X106000Y-195000
X106000Y-199000
X106000Y-201000
X106000Y-203000
X106000Y-210000
X106000Y-216000
X106000Y-218000
X106000Y-220000
X106000Y-222000
X106000Y-224000
X106000Y-226000
X106000Y-228000
X106000Y-230000
X106000Y-232000
X107000Y-19000
X107000Y-47000
X107000Y-84000
X107400Y-163500
X107400Y-184600
X107500Y-22500
X107500Y-25000
X107500Y-100300
X107500Y-121300
X107500Y-142400
X107500Y-205700
X107600Y-79200
X108000Y-30000
X108000Y-32000
X108000Y-34000
X108000Y-38000
X108000Y-40000
X108000Y-58000
X108000Y-63000
X108000Y-67000
X108000Y-83000
X108000Y-89000
X108000Y-104000
X108000Y-110000
X108000Y-126000
X108000Y-130000
X108000Y-132000
X108000Y-147000
X108000Y-151000
X108000Y-153000
X108000Y-168000
X108000Y-172000
X108000Y-174000
X108000Y-189000
X108000Y-193000
X108000Y-195000
X108000Y-210000
X108000Y-216000
X108000Y-218000
X108000Y-224000
X108000Y-226000
X108000Y-228000
X108000Y-230000
X108000Y-232000
X108500Y-19000
X110000Y-19000
X110000Y-30000
X110000Y-32000
X110000Y-40000
X110000Y-224000
X110000Y-226000
X110000Y-228000
X110000Y-230000
X110000Y-232000
X111500Y-19000
X111500Y-24500
X111500Y-26000
X111500Y-30000
X111500Y-31500
X111500Y-33000
X111500Y-38500
X111500Y-40000
X114500Y-19000
X114500Y-54000
X114500Y-75000
X114500Y-96000
X114500Y-107000
X114500Y-117500
X114500Y-138500
X114500Y-159500
X114500Y-180500
X114500Y-201500
X114650Y-24650
X115000Y-27000
X115000Y-29000
X115000Y-31000
X115000Y-33000
X115000Y-39000
X115000Y-41000
X115000Y-43000
X115000Y-212000
X115000Y-214000
X115000Y-216000
X115000Y-218000
X115000Y-224000
X115000Y-226000
X115000Y-228000
X115000Y-230000
X115000Y-232000
X116000Y-19000
X116000Y-49000
X116000Y-54000
X116000Y-59000
X116000Y-64500
X116000Y-70000
X116000Y-75000
X116000Y-80500
X116000Y-86000
X116000Y-91000
X116000Y-96000
X116000Y-101500
X116000Y-107000
X116000Y-117500
X116000Y-122500
X116000Y-128000
X116000Y-133000
X116000Y-138500
X116000Y-143500
X116000Y-149000
X116000Y-154500
X116000Y-159500
X116000Y-164500
X116000Y-170000
X116000Y-175500
X116000Y-180500
X116000Y-185500
X116000Y-191000
X116000Y-196500
X116000Y-201500
X116000Y-206500
X117000Y-25000
X117000Y-27000
X117000Y-29000
X117000Y-31000
X117000Y-33000
X117000Y-39000
X117000Y-41000
X117000Y-43000
X117000Y-212000
X117000Y-214000
X117000Y-216000
X117000Y-218000
X117000Y-224000
X117000Y-226000
X117000Y-228000
X117000Y-230000
X117000Y-232000
X117500Y-19000
X117500Y-49000
X117500Y-54000
X117500Y-59000
X117500Y-64500
X117500Y-70000
X117500Y-75000
X117500Y-80500
X117500Y-86000
X117500Y-91000
X117500Y-96000
X117500Y-101500
X117500Y-107000
X117500Y-112500
X117500Y-117500
X117500Y-122500
X117500Y-128000
X117500Y-133000
X117500Y-138500
X117500Y-143500
X117500Y-149000
X117500Y-154500
X117500Y-159500
X117500Y-164500
X117500Y-170000
X117500Y-175500
X117500Y-180500
X117500Y-185500
X117500Y-191000
X117500Y-196500
X117500Y-201500
X117500Y-206500
X119000Y-19000
X119000Y-21000
X119000Y-23000
X119000Y-25000
X119000Y-27000
X119000Y-29000
X119000Y-31000
X119000Y-33000
X119000Y-35000
X119000Y-37000
X119000Y-41000
X119000Y-43000
X119000Y-49000
X119000Y-54000
X119000Y-59000
X119000Y-64500
X119000Y-70000
X119000Y-75000
X119000Y-80500
X119000Y-86000
X119000Y-91000
X119000Y-96000
X119000Y-101500
X119000Y-107000
X119000Y-112500
X119000Y-117500
X119000Y-122500
X119000Y-128000
X119000Y-133000
X119000Y-138500
X119000Y-143500
X119000Y-149000
X119000Y-154500
X119000Y-159500
X119000Y-164500
X119000Y-170000
X119000Y-175500
X119000Y-180500
X119000Y-185500
X119000Y-191000
X119000Y-196500
X119000Y-201500
X119000Y-206500
X119000Y-212000
X119000Y-214000
X119000Y-216000
X119000Y-218000
X119000Y-220000
X119000Y-222000
X119000Y-224000
X119000Y-226000
X119000Y-228000
X119000Y-230000
X119000Y-232000
X120500Y-19000
X120500Y-49000
X120500Y-54000
X120500Y-59000
X120500Y-64500
X120500Y-70000
X120500Y-75000
X120500Y-80500
X120500Y-86000
X120500Y-91000
X120500Y-96000
X120500Y-101500
X120500Y-107000
X120500Y-112500
X120500Y-117500
X120500Y-122500
X120500Y-128000
X120500Y-133000
X120500Y-138500
X120500Y-143500
X120500Y-149000
X120500Y-154500
X120500Y-159500
X120500Y-164500
X120500Y-170000
X120500Y-175500
X120500Y-180500
X120500Y-185500
X120500Y-191000
X120500Y-196500
X120500Y-201500
X120500Y-206500
X121000Y-21000
X121000Y-23000
X121000Y-25000
X121000Y-27000
X121000Y-29000
X121000Y-31000
X121000Y-33000
X121000Y-35000
X121000Y-37000
X121000Y-39000
X121000Y-41000
X121000Y-43000
X121000Y-212000
X121000Y-214000
X121000Y-216000
X121000Y-218000
X121000Y-220000
X121000Y-222000
X121000Y-224000
X121000Y-226000
X121000Y-228000
X121000Y-230000
X121000Y-232000
X122000Y-49000
X122000Y-54000
X122000Y-59000
X122000Y-64500
X122000Y-70000
X122000Y-75000
X122000Y-80500
X122000Y-86000
X122000Y-91000
X122000Y-96000
X122000Y-101500
X122000Y-107000
X122000Y-112500
X122000Y-117500
X122000Y-122500
X122000Y-128000
X122000Y-133000
X122000Y-138500
X122000Y-143500
X122000Y-149000
X122000Y-154500
X122000Y-159500
X122000Y-164500
X122000Y-170000
X122000Y-175500
X122000Y-180500
X122000Y-185500
X122000Y-191000
X122000Y-196500
X122000Y-201500
X122000Y-206500
X122500Y-19000
X122500Y-20500
X122500Y-22000
X122500Y-23500
X122500Y-25000
X122500Y-26500
X122500Y-28000
X122500Y-29500
X122500Y-31000
X122500Y-32500
X122500Y-34000
X122500Y-35500
X122500Y-37000
X122500Y-38500
X122500Y-40000
X122500Y-41500
X122500Y-43000
X122500Y-44500
X122500Y-46000
X122500Y-47500
X122500Y-50000
X122500Y-51500
X122500Y-53000
X122500Y-55000
X122500Y-56500
X122500Y-58000
X122500Y-60500
X122500Y-62000
X122500Y-63500
X122500Y-65500
X122500Y-67000
X122500Y-68500
X122500Y-71500
X122500Y-73000
X122500Y-76500
X122500Y-78000
X122500Y-79500
X122500Y-81500
X122500Y-83000
X122500Y-84500
X122500Y-87000
X122500Y-88500
X122500Y-90000
X122500Y-92000
X122500Y-93500
X122500Y-95000
X122500Y-97000
X122500Y-98500
X122500Y-100000
X122500Y-103000
X122500Y-104500
X122500Y-106000
X122500Y-108500
X122500Y-110000
X122500Y-111500
X122500Y-113500
X122500Y-115000
X122500Y-116500
X122500Y-119000
X122500Y-120500
X122500Y-124000
X122500Y-125500
X122500Y-127000
X122500Y-129000
X122500Y-130500
X122500Y-132000
X122500Y-134500
X122500Y-136000
X122500Y-137500
X122500Y-139500
X122500Y-141000
X122500Y-142500
X122500Y-145000
X122500Y-146500
X122500Y-148000
X122500Y-150500
X122500Y-152000
X122500Y-153500
X122500Y-156000
X122500Y-157500
X122500Y-160500
X122500Y-162000
X122500Y-163500
X122500Y-165500
X122500Y-167000
X122500Y-168500
X122500Y-171000
X122500Y-172500
X122500Y-174000
X122500Y-176500
X122500Y-178000
X122500Y-179500
X122500Y-181500
X122500Y-183000
X122500Y-184500
X122500Y-186500
X122500Y-188000
X122500Y-189500
X122500Y-192000
X122500Y-193500
X122500Y-195000
X122500Y-197500
X122500Y-199000
X122500Y-200500
X122500Y-202500
X122500Y-204000
X122500Y-205500
X122500Y-208000
X122500Y-209500
X122500Y-211000
T2
X13650Y-180620
X13650Y-183160
X13650Y-185700
X13650Y-188240
X13650Y-190780
X13650Y-193320
X13650Y-195860
X13650Y-198400
X22450Y-180620
X22450Y-183160
X22450Y-185700
X22450Y-188240
X22450Y-190780
X22450Y-193320
X22450Y-195860
X22450Y-198400
X13650Y-54170
X13650Y-56710
X13650Y-59250
X13650Y-61790
X13650Y-64330
X13650Y-66870
X13650Y-69410
X13650Y-71950
X22450Y-54170
X22450Y-56710
X22450Y-59250
X22450Y-61790
X22450Y-64330
X22450Y-66870
X22450Y-69410
X22450Y-71950
X13660Y-96310
X13660Y-98850
X13660Y-101390
X13660Y-103930
X13660Y-106470
X13660Y-109010
X13660Y-111550
X13660Y-114090
X22460Y-96310
X22460Y-98850
X22460Y-101390
X22460Y-103930
X22460Y-106470
X22460Y-109010
X22460Y-111550
X22460Y-114090
X13650Y-159570
X13650Y-162110
X13650Y-164650
X13650Y-167190
X13650Y-169730
X13650Y-172270
X13650Y-174810
X13650Y-177350
X22450Y-159570
X22450Y-162110
X22450Y-164650
X22450Y-167190
X22450Y-169730
X22450Y-172270
X22450Y-174810
X22450Y-177350
X101440Y-193010
X101440Y-195550
X101440Y-198090
X101440Y-200630
X101440Y-203170
X101440Y-205710
X101440Y-208250
X101440Y-210790
X110240Y-193010
X110240Y-195550
X110240Y-198090
X110240Y-200630
X110240Y-203170
X110240Y-205710
X110240Y-208250
X110240Y-210790
X101450Y-108650
X101450Y-111190
X101450Y-113730
X101450Y-116270
X101450Y-118810
X101450Y-121350
X101450Y-123890
X101450Y-126430
X110250Y-108650
X110250Y-111190
X110250Y-113730
X110250Y-116270
X110250Y-118810
X110250Y-121350
X110250Y-123890
X110250Y-126430
X13650Y-138520
X13650Y-141060
X13650Y-143600
X13650Y-146140
X13650Y-148680
X13650Y-151220
X13650Y-153760
X13650Y-156300
X22450Y-138520
X22450Y-141060
X22450Y-143600
X22450Y-146140
X22450Y-148680
X22450Y-151220
X22450Y-153760
X22450Y-156300
X13650Y-117420
X13650Y-119960
X13650Y-122500
X13650Y-125040
X13650Y-127580
X13650Y-130120
X13650Y-132660
X13650Y-135200
X22450Y-117420
X22450Y-119960
X22450Y-122500
X22450Y-125040
X22450Y-127580
X22450Y-130120
X22450Y-132660
X22450Y-135200
X101450Y-129700
X101450Y-132240
X101450Y-134780
X101450Y-137320
X101450Y-139860
X101450Y-142400
X101450Y-144940
X101450Y-147480
X110250Y-129700
X110250Y-132240
X110250Y-134780
X110250Y-137320
X110250Y-139860
X110250Y-142400
X110250Y-144940
X110250Y-147480
X101440Y-171910
X101440Y-174450
X101440Y-176990
X101440Y-179530
X101440Y-182070
X101440Y-184610
X101440Y-187150
X101440Y-189690
X110240Y-171910
X110240Y-174450
X110240Y-176990
X110240Y-179530
X110240Y-182070
X110240Y-184610
X110240Y-187150
X110240Y-189690
X101450Y-87600
X101450Y-90140
X101450Y-92680
X101450Y-95220
X101450Y-97760
X101450Y-100300
X101450Y-102840
X101450Y-105380
X110250Y-87600
X110250Y-90140
X110250Y-92680
X110250Y-95220
X110250Y-97760
X110250Y-100300
X110250Y-102840
X110250Y-105380
X101450Y-150800
X101450Y-153340
X101450Y-155880
X101450Y-158420
X101450Y-160960
X101450Y-163500
X101450Y-166040
X101450Y-168580
X110250Y-150800
X110250Y-153340
X110250Y-155880
X110250Y-158420
X110250Y-160960
X110250Y-163500
X110250Y-166040
X110250Y-168580
X101450Y-66500
X101450Y-69040
X101450Y-71580
X101450Y-74120
X101450Y-76660
X101450Y-79200
X101450Y-81740
X101450Y-84280
X110250Y-66500
X110250Y-69040
X110250Y-71580
X110250Y-74120
X110250Y-76660
X110250Y-79200
X110250Y-81740
X110250Y-84280
X13660Y-75210
X13660Y-77750
X13660Y-80290
X13660Y-82830
X13660Y-85370
X13660Y-87910
X13660Y-90450
X13660Y-92990
X22460Y-75210
X22460Y-77750
X22460Y-80290
X22460Y-82830
X22460Y-85370
X22460Y-87910
X22460Y-90450
X22460Y-92990
X13650Y-201720
X13650Y-204260
X13650Y-206800
X13650Y-209340
X13650Y-211880
X13650Y-214420
X13650Y-216960
X13650Y-219500
X22450Y-201720
X22450Y-204260
X22450Y-206800
X22450Y-209340
X22450Y-211880
X22450Y-214420
X22450Y-216960
X22450Y-219500
X101450Y-45450
X101450Y-47990
X101450Y-50530
X101450Y-53070
X101450Y-55610
X101450Y-58150
X101450Y-60690
X101450Y-63230
X110250Y-45450
X110250Y-47990
X110250Y-50530
X110250Y-53070
X110250Y-55610
X110250Y-58150
X110250Y-60690
X110250Y-63230
T3
X17160Y-36700
X19700Y-36700
X102760Y-28900
X105300Y-28900
X35300Y-50360
X35300Y-52900
T4
X48100Y-58800
X62450Y-27190
X62450Y-29730
X64990Y-27190
X64990Y-29730
X67530Y-27190
X67530Y-29730
X70070Y-27190
X70070Y-29730
X72610Y-27190
X72610Y-29730
X75150Y-27190
X75150Y-29730
X77690Y-27190
X77690Y-29730
X52480Y-209500
X55020Y-209500
X57560Y-209500
X60100Y-209500
X62640Y-209500
X65180Y-209500
X67720Y-209500
T5
X68940Y-3500
X68940Y-6040
X71480Y-3500
X71480Y-6040
X74020Y-3500
X74020Y-6040
X76560Y-3500
X76560Y-6040
X79100Y-3500
X79100Y-6040
X58300Y-228960
X58300Y-231500
X60840Y-228960
X60840Y-231500
X63380Y-228960
X63380Y-231500
X65920Y-228960
X65920Y-231500
X68460Y-228960
X68460Y-231500
T6
X3650Y-124083
X7460Y-124083
X116440Y-124850
X120250Y-124850
X116440Y-93633
X120250Y-93633
X116440Y-140817
X120250Y-140817
X116440Y-72533
X120250Y-72533
X110200Y-221100
X115200Y-221100
X116440Y-56567
X120250Y-56567
X116430Y-177943
X120240Y-177943
X3650Y-161150
X7460Y-161150
X116440Y-46400
X120250Y-46400
X3650Y-145183
X7460Y-145183
X3660Y-76790
X7470Y-76790
X116430Y-188110
X120240Y-188110
X8000Y-44600
X13000Y-44600
X116440Y-109600
X120250Y-109600
X116440Y-51483
X120250Y-51483
X116440Y-167000
X120250Y-167000
X116440Y-61650
X120250Y-61650
X3650Y-182200
X7460Y-182200
X3650Y-140100
X7460Y-140100
X3650Y-171317
X7460Y-171317
X3650Y-134250
X7460Y-134250
X3660Y-92040
X7470Y-92040
X3650Y-60833
X7460Y-60833
X116440Y-145900
X120250Y-145900
X7900Y-228400
X12900Y-228400
X116440Y-156833
X120250Y-156833
X3660Y-102973
X7470Y-102973
X116430Y-172860
X120240Y-172860
X3650Y-218550
X7460Y-218550
X3650Y-187283
X7460Y-187283
X116430Y-209210
X120240Y-209210
X3660Y-113140
X7470Y-113140
X116440Y-98717
X120250Y-98717
X116440Y-119767
X120250Y-119767
X116440Y-130650
X120250Y-130650
X3650Y-213467
X7460Y-213467
X3650Y-192367
X7460Y-192367
X116430Y-193960
X120240Y-193960
X3660Y-108057
X7470Y-108057
X116440Y-103800
X120250Y-103800
X3650Y-208383
X7460Y-208383
X3650Y-65917
X7460Y-65917
X3650Y-155350
X7460Y-155350
X116440Y-114683
X120250Y-114683
X3650Y-150267
X7460Y-150267
X3650Y-71000
X7460Y-71000
X3660Y-86957
X7470Y-86957
X116440Y-151750
X120250Y-151750
X116430Y-183027
X120240Y-183027
X116440Y-88550
X120250Y-88550
X3650Y-119000
X7460Y-119000
X3650Y-129167
X7460Y-129167
X3650Y-55750
X7460Y-55750
X116440Y-67450
X120250Y-67450
X3650Y-176400
X7460Y-176400
X3660Y-97890
X7470Y-97890
X3660Y-81873
X7470Y-81873
X116440Y-77617
X120250Y-77617
X116430Y-199043
X120240Y-199043
X116430Y-204127
X120240Y-204127
X110300Y-35900
X115300Y-35900
X3650Y-166233
X7460Y-166233
X116440Y-161917
X120250Y-161917
X3650Y-197450
X7460Y-197450
X3650Y-203300
X7460Y-203300
X116440Y-82700
X120250Y-82700
X116440Y-135733
X120250Y-135733
T7
X34500Y-4800
X34500Y-43300
X42500Y-43300
X45250Y-4800
T8
X7820Y-29000
X12900Y-29000
X110320Y-22000
X115400Y-22000
X25400Y-3600
X25400Y-8680
T9
X9000Y-9000
X115000Y-9000
X31000Y-229000
X93000Y-229000
T0
M30
