G04 #@! TF.GenerationSoftware,KiCad,Pcbnew,(5.1.7)-1*
G04 #@! TF.CreationDate,2020-12-02T21:57:12+01:00*
G04 #@! TF.ProjectId,TonOfSteppers,546f6e4f-6653-4746-9570-706572732e6b,rev?*
G04 #@! TF.SameCoordinates,Original*
G04 #@! TF.FileFunction,Legend,Top*
G04 #@! TF.FilePolarity,Positive*
%FSLAX46Y46*%
G04 Gerber Fmt 4.6, Leading zero omitted, Abs format (unit mm)*
G04 Created by KiCad (PCBNEW (5.1.7)-1) date 2020-12-02 21:57:12*
%MOMM*%
%LPD*%
G01*
G04 APERTURE LIST*
%ADD10C,0.300000*%
%ADD11C,0.150000*%
%ADD12C,0.200000*%
%ADD13C,0.120000*%
G04 APERTURE END LIST*
D10*
X120274856Y-153610571D02*
X120774856Y-155110571D01*
X121274856Y-153610571D01*
X121417713Y-155253428D02*
X122560571Y-155253428D01*
X122917713Y-155110571D02*
X122917713Y-153610571D01*
X123417713Y-154682000D01*
X123917713Y-153610571D01*
X123917713Y-155110571D01*
X124917713Y-153610571D02*
X125203428Y-153610571D01*
X125346285Y-153682000D01*
X125489142Y-153824857D01*
X125560571Y-154110571D01*
X125560571Y-154610571D01*
X125489142Y-154896285D01*
X125346285Y-155039142D01*
X125203428Y-155110571D01*
X124917713Y-155110571D01*
X124774856Y-155039142D01*
X124631999Y-154896285D01*
X124560571Y-154610571D01*
X124560571Y-154110571D01*
X124631999Y-153824857D01*
X124774856Y-153682000D01*
X124917713Y-153610571D01*
X125989142Y-153610571D02*
X126846285Y-153610571D01*
X126417713Y-155110571D02*
X126417713Y-153610571D01*
X180218856Y-141164571D02*
X180718856Y-142664571D01*
X181218856Y-141164571D01*
X181361713Y-142807428D02*
X182504571Y-142807428D01*
X182861713Y-142664571D02*
X182861713Y-141164571D01*
X183361713Y-142236000D01*
X183861713Y-141164571D01*
X183861713Y-142664571D01*
X184861713Y-141164571D02*
X185147428Y-141164571D01*
X185290285Y-141236000D01*
X185433142Y-141378857D01*
X185504571Y-141664571D01*
X185504571Y-142164571D01*
X185433142Y-142450285D01*
X185290285Y-142593142D01*
X185147428Y-142664571D01*
X184861713Y-142664571D01*
X184718856Y-142593142D01*
X184575999Y-142450285D01*
X184504571Y-142164571D01*
X184504571Y-141664571D01*
X184575999Y-141378857D01*
X184718856Y-141236000D01*
X184861713Y-141164571D01*
X185933142Y-141164571D02*
X186790285Y-141164571D01*
X186361713Y-142664571D02*
X186361713Y-141164571D01*
X74554856Y-132020571D02*
X75054856Y-133520571D01*
X75554856Y-132020571D01*
X75697713Y-133663428D02*
X76840571Y-133663428D01*
X77197713Y-133520571D02*
X77197713Y-132020571D01*
X77697713Y-133092000D01*
X78197713Y-132020571D01*
X78197713Y-133520571D01*
X79197713Y-132020571D02*
X79483428Y-132020571D01*
X79626285Y-132092000D01*
X79769142Y-132234857D01*
X79840571Y-132520571D01*
X79840571Y-133020571D01*
X79769142Y-133306285D01*
X79626285Y-133449142D01*
X79483428Y-133520571D01*
X79197713Y-133520571D01*
X79054856Y-133449142D01*
X78911999Y-133306285D01*
X78840571Y-133020571D01*
X78840571Y-132520571D01*
X78911999Y-132234857D01*
X79054856Y-132092000D01*
X79197713Y-132020571D01*
X80269142Y-132020571D02*
X81126285Y-132020571D01*
X80697713Y-133520571D02*
X80697713Y-132020571D01*
X23500856Y-64964571D02*
X24000856Y-66464571D01*
X24500856Y-64964571D01*
X24643713Y-66607428D02*
X25786571Y-66607428D01*
X26143713Y-66464571D02*
X26143713Y-64964571D01*
X26643713Y-66036000D01*
X27143713Y-64964571D01*
X27143713Y-66464571D01*
X28143713Y-64964571D02*
X28429428Y-64964571D01*
X28572285Y-65036000D01*
X28715142Y-65178857D01*
X28786571Y-65464571D01*
X28786571Y-65964571D01*
X28715142Y-66250285D01*
X28572285Y-66393142D01*
X28429428Y-66464571D01*
X28143713Y-66464571D01*
X28000856Y-66393142D01*
X27857999Y-66250285D01*
X27786571Y-65964571D01*
X27786571Y-65464571D01*
X27857999Y-65178857D01*
X28000856Y-65036000D01*
X28143713Y-64964571D01*
X29215142Y-64964571D02*
X30072285Y-64964571D01*
X29643713Y-66464571D02*
X29643713Y-64964571D01*
X83190856Y-43628571D02*
X83690856Y-45128571D01*
X84190856Y-43628571D01*
X84333713Y-45271428D02*
X85476571Y-45271428D01*
X85833713Y-45128571D02*
X85833713Y-43628571D01*
X86333713Y-44700000D01*
X86833713Y-43628571D01*
X86833713Y-45128571D01*
X87833713Y-43628571D02*
X88119428Y-43628571D01*
X88262285Y-43700000D01*
X88405142Y-43842857D01*
X88476571Y-44128571D01*
X88476571Y-44628571D01*
X88405142Y-44914285D01*
X88262285Y-45057142D01*
X88119428Y-45128571D01*
X87833713Y-45128571D01*
X87690856Y-45057142D01*
X87547999Y-44914285D01*
X87476571Y-44628571D01*
X87476571Y-44128571D01*
X87547999Y-43842857D01*
X87690856Y-43700000D01*
X87833713Y-43628571D01*
X88905142Y-43628571D02*
X89762285Y-43628571D01*
X89333713Y-45128571D02*
X89333713Y-43628571D01*
X180227713Y-43628571D02*
X180727713Y-45128571D01*
X181227713Y-43628571D01*
X181370570Y-45271428D02*
X182513428Y-45271428D01*
X182870570Y-45128571D02*
X182870570Y-43628571D01*
X183370570Y-44700000D01*
X183870570Y-43628571D01*
X183870570Y-45128571D01*
X184870570Y-43628571D02*
X185156285Y-43628571D01*
X185299142Y-43700000D01*
X185441999Y-43842857D01*
X185513428Y-44128571D01*
X185513428Y-44628571D01*
X185441999Y-44914285D01*
X185299142Y-45057142D01*
X185156285Y-45128571D01*
X184870570Y-45128571D01*
X184727713Y-45057142D01*
X184584856Y-44914285D01*
X184513428Y-44628571D01*
X184513428Y-44128571D01*
X184584856Y-43842857D01*
X184727713Y-43700000D01*
X184870570Y-43628571D01*
X185941999Y-43628571D02*
X186799142Y-43628571D01*
X186370570Y-45128571D02*
X186370570Y-43628571D01*
X120274856Y-64710571D02*
X120774856Y-66210571D01*
X121274856Y-64710571D01*
X121417713Y-66353428D02*
X122560571Y-66353428D01*
X122917713Y-66210571D02*
X122917713Y-64710571D01*
X123417713Y-65782000D01*
X123917713Y-64710571D01*
X123917713Y-66210571D01*
X124917713Y-64710571D02*
X125203428Y-64710571D01*
X125346285Y-64782000D01*
X125489142Y-64924857D01*
X125560571Y-65210571D01*
X125560571Y-65710571D01*
X125489142Y-65996285D01*
X125346285Y-66139142D01*
X125203428Y-66210571D01*
X124917713Y-66210571D01*
X124774856Y-66139142D01*
X124631999Y-65996285D01*
X124560571Y-65710571D01*
X124560571Y-65210571D01*
X124631999Y-64924857D01*
X124774856Y-64782000D01*
X124917713Y-64710571D01*
X125989142Y-64710571D02*
X126846285Y-64710571D01*
X126417713Y-66210571D02*
X126417713Y-64710571D01*
D11*
X20746285Y-108392285D02*
X20079619Y-108392285D01*
X21127238Y-108154190D02*
X20412952Y-107916095D01*
X20412952Y-108535142D01*
X21079619Y-109106571D02*
X21079619Y-109201809D01*
X21032000Y-109297047D01*
X20984380Y-109344666D01*
X20889142Y-109392285D01*
X20698666Y-109439904D01*
X20460571Y-109439904D01*
X20270095Y-109392285D01*
X20174857Y-109344666D01*
X20127238Y-109297047D01*
X20079619Y-109201809D01*
X20079619Y-109106571D01*
X20127238Y-109011333D01*
X20174857Y-108963714D01*
X20270095Y-108916095D01*
X20460571Y-108868476D01*
X20698666Y-108868476D01*
X20889142Y-108916095D01*
X20984380Y-108963714D01*
X21032000Y-109011333D01*
X21079619Y-109106571D01*
X20746285Y-120792285D02*
X20079619Y-120792285D01*
X21127238Y-120554190D02*
X20412952Y-120316095D01*
X20412952Y-120935142D01*
X21079619Y-121506571D02*
X21079619Y-121601809D01*
X21032000Y-121697047D01*
X20984380Y-121744666D01*
X20889142Y-121792285D01*
X20698666Y-121839904D01*
X20460571Y-121839904D01*
X20270095Y-121792285D01*
X20174857Y-121744666D01*
X20127238Y-121697047D01*
X20079619Y-121601809D01*
X20079619Y-121506571D01*
X20127238Y-121411333D01*
X20174857Y-121363714D01*
X20270095Y-121316095D01*
X20460571Y-121268476D01*
X20698666Y-121268476D01*
X20889142Y-121316095D01*
X20984380Y-121363714D01*
X21032000Y-121411333D01*
X21079619Y-121506571D01*
D12*
X177768571Y-22198000D02*
X177625714Y-22126571D01*
X177411428Y-22126571D01*
X177197142Y-22198000D01*
X177054285Y-22340857D01*
X176982857Y-22483714D01*
X176911428Y-22769428D01*
X176911428Y-22983714D01*
X176982857Y-23269428D01*
X177054285Y-23412285D01*
X177197142Y-23555142D01*
X177411428Y-23626571D01*
X177554285Y-23626571D01*
X177768571Y-23555142D01*
X177840000Y-23483714D01*
X177840000Y-22983714D01*
X177554285Y-22983714D01*
X179125714Y-22626571D02*
X179125714Y-23626571D01*
X178768571Y-22055142D02*
X178411428Y-23126571D01*
X179340000Y-23126571D01*
X164168571Y-22198000D02*
X164025714Y-22126571D01*
X163811428Y-22126571D01*
X163597142Y-22198000D01*
X163454285Y-22340857D01*
X163382857Y-22483714D01*
X163311428Y-22769428D01*
X163311428Y-22983714D01*
X163382857Y-23269428D01*
X163454285Y-23412285D01*
X163597142Y-23555142D01*
X163811428Y-23626571D01*
X163954285Y-23626571D01*
X164168571Y-23555142D01*
X164240000Y-23483714D01*
X164240000Y-22983714D01*
X163954285Y-22983714D01*
X165525714Y-22626571D02*
X165525714Y-23626571D01*
X165168571Y-22055142D02*
X164811428Y-23126571D01*
X165740000Y-23126571D01*
X150568571Y-22198000D02*
X150425714Y-22126571D01*
X150211428Y-22126571D01*
X149997142Y-22198000D01*
X149854285Y-22340857D01*
X149782857Y-22483714D01*
X149711428Y-22769428D01*
X149711428Y-22983714D01*
X149782857Y-23269428D01*
X149854285Y-23412285D01*
X149997142Y-23555142D01*
X150211428Y-23626571D01*
X150354285Y-23626571D01*
X150568571Y-23555142D01*
X150640000Y-23483714D01*
X150640000Y-22983714D01*
X150354285Y-22983714D01*
X151925714Y-22126571D02*
X151640000Y-22126571D01*
X151497142Y-22198000D01*
X151425714Y-22269428D01*
X151282857Y-22483714D01*
X151211428Y-22769428D01*
X151211428Y-23340857D01*
X151282857Y-23483714D01*
X151354285Y-23555142D01*
X151497142Y-23626571D01*
X151782857Y-23626571D01*
X151925714Y-23555142D01*
X151997142Y-23483714D01*
X152068571Y-23340857D01*
X152068571Y-22983714D01*
X151997142Y-22840857D01*
X151925714Y-22769428D01*
X151782857Y-22698000D01*
X151497142Y-22698000D01*
X151354285Y-22769428D01*
X151282857Y-22840857D01*
X151211428Y-22983714D01*
X136968571Y-22198000D02*
X136825714Y-22126571D01*
X136611428Y-22126571D01*
X136397142Y-22198000D01*
X136254285Y-22340857D01*
X136182857Y-22483714D01*
X136111428Y-22769428D01*
X136111428Y-22983714D01*
X136182857Y-23269428D01*
X136254285Y-23412285D01*
X136397142Y-23555142D01*
X136611428Y-23626571D01*
X136754285Y-23626571D01*
X136968571Y-23555142D01*
X137040000Y-23483714D01*
X137040000Y-22983714D01*
X136754285Y-22983714D01*
X138397142Y-22126571D02*
X137682857Y-22126571D01*
X137611428Y-22840857D01*
X137682857Y-22769428D01*
X137825714Y-22698000D01*
X138182857Y-22698000D01*
X138325714Y-22769428D01*
X138397142Y-22840857D01*
X138468571Y-22983714D01*
X138468571Y-23340857D01*
X138397142Y-23483714D01*
X138325714Y-23555142D01*
X138182857Y-23626571D01*
X137825714Y-23626571D01*
X137682857Y-23555142D01*
X137611428Y-23483714D01*
X123370571Y-22198000D02*
X123227714Y-22126571D01*
X123013428Y-22126571D01*
X122799142Y-22198000D01*
X122656285Y-22340857D01*
X122584857Y-22483714D01*
X122513428Y-22769428D01*
X122513428Y-22983714D01*
X122584857Y-23269428D01*
X122656285Y-23412285D01*
X122799142Y-23555142D01*
X123013428Y-23626571D01*
X123156285Y-23626571D01*
X123370571Y-23555142D01*
X123442000Y-23483714D01*
X123442000Y-22983714D01*
X123156285Y-22983714D01*
X124013428Y-22269428D02*
X124084857Y-22198000D01*
X124227714Y-22126571D01*
X124584857Y-22126571D01*
X124727714Y-22198000D01*
X124799142Y-22269428D01*
X124870571Y-22412285D01*
X124870571Y-22555142D01*
X124799142Y-22769428D01*
X123942000Y-23626571D01*
X124870571Y-23626571D01*
X91570571Y-22198000D02*
X91427714Y-22126571D01*
X91213428Y-22126571D01*
X90999142Y-22198000D01*
X90856285Y-22340857D01*
X90784857Y-22483714D01*
X90713428Y-22769428D01*
X90713428Y-22983714D01*
X90784857Y-23269428D01*
X90856285Y-23412285D01*
X90999142Y-23555142D01*
X91213428Y-23626571D01*
X91356285Y-23626571D01*
X91570571Y-23555142D01*
X91642000Y-23483714D01*
X91642000Y-22983714D01*
X91356285Y-22983714D01*
X92213428Y-22269428D02*
X92284857Y-22198000D01*
X92427714Y-22126571D01*
X92784857Y-22126571D01*
X92927714Y-22198000D01*
X92999142Y-22269428D01*
X93070571Y-22412285D01*
X93070571Y-22555142D01*
X92999142Y-22769428D01*
X92142000Y-23626571D01*
X93070571Y-23626571D01*
X77870571Y-22198000D02*
X77727714Y-22126571D01*
X77513428Y-22126571D01*
X77299142Y-22198000D01*
X77156285Y-22340857D01*
X77084857Y-22483714D01*
X77013428Y-22769428D01*
X77013428Y-22983714D01*
X77084857Y-23269428D01*
X77156285Y-23412285D01*
X77299142Y-23555142D01*
X77513428Y-23626571D01*
X77656285Y-23626571D01*
X77870571Y-23555142D01*
X77942000Y-23483714D01*
X77942000Y-22983714D01*
X77656285Y-22983714D01*
X78442000Y-22126571D02*
X79370571Y-22126571D01*
X78870571Y-22698000D01*
X79084857Y-22698000D01*
X79227714Y-22769428D01*
X79299142Y-22840857D01*
X79370571Y-22983714D01*
X79370571Y-23340857D01*
X79299142Y-23483714D01*
X79227714Y-23555142D01*
X79084857Y-23626571D01*
X78656285Y-23626571D01*
X78513428Y-23555142D01*
X78442000Y-23483714D01*
X64268571Y-22198000D02*
X64125714Y-22126571D01*
X63911428Y-22126571D01*
X63697142Y-22198000D01*
X63554285Y-22340857D01*
X63482857Y-22483714D01*
X63411428Y-22769428D01*
X63411428Y-22983714D01*
X63482857Y-23269428D01*
X63554285Y-23412285D01*
X63697142Y-23555142D01*
X63911428Y-23626571D01*
X64054285Y-23626571D01*
X64268571Y-23555142D01*
X64340000Y-23483714D01*
X64340000Y-22983714D01*
X64054285Y-22983714D01*
X65768571Y-23626571D02*
X64911428Y-23626571D01*
X65340000Y-23626571D02*
X65340000Y-22126571D01*
X65197142Y-22340857D01*
X65054285Y-22483714D01*
X64911428Y-22555142D01*
X50670571Y-22198000D02*
X50527714Y-22126571D01*
X50313428Y-22126571D01*
X50099142Y-22198000D01*
X49956285Y-22340857D01*
X49884857Y-22483714D01*
X49813428Y-22769428D01*
X49813428Y-22983714D01*
X49884857Y-23269428D01*
X49956285Y-23412285D01*
X50099142Y-23555142D01*
X50313428Y-23626571D01*
X50456285Y-23626571D01*
X50670571Y-23555142D01*
X50742000Y-23483714D01*
X50742000Y-22983714D01*
X50456285Y-22983714D01*
X52170571Y-23626571D02*
X51313428Y-23626571D01*
X51742000Y-23626571D02*
X51742000Y-22126571D01*
X51599142Y-22340857D01*
X51456285Y-22483714D01*
X51313428Y-22555142D01*
X37070571Y-22198000D02*
X36927714Y-22126571D01*
X36713428Y-22126571D01*
X36499142Y-22198000D01*
X36356285Y-22340857D01*
X36284857Y-22483714D01*
X36213428Y-22769428D01*
X36213428Y-22983714D01*
X36284857Y-23269428D01*
X36356285Y-23412285D01*
X36499142Y-23555142D01*
X36713428Y-23626571D01*
X36856285Y-23626571D01*
X37070571Y-23555142D01*
X37142000Y-23483714D01*
X37142000Y-22983714D01*
X36856285Y-22983714D01*
X38570571Y-23626571D02*
X37713428Y-23626571D01*
X38142000Y-23626571D02*
X38142000Y-22126571D01*
X37999142Y-22340857D01*
X37856285Y-22483714D01*
X37713428Y-22555142D01*
X23470571Y-22198000D02*
X23327714Y-22126571D01*
X23113428Y-22126571D01*
X22899142Y-22198000D01*
X22756285Y-22340857D01*
X22684857Y-22483714D01*
X22613428Y-22769428D01*
X22613428Y-22983714D01*
X22684857Y-23269428D01*
X22756285Y-23412285D01*
X22899142Y-23555142D01*
X23113428Y-23626571D01*
X23256285Y-23626571D01*
X23470571Y-23555142D01*
X23542000Y-23483714D01*
X23542000Y-22983714D01*
X23256285Y-22983714D01*
X24970571Y-23626571D02*
X24113428Y-23626571D01*
X24542000Y-23626571D02*
X24542000Y-22126571D01*
X24399142Y-22340857D01*
X24256285Y-22483714D01*
X24113428Y-22555142D01*
X39729142Y-92575142D02*
X40872000Y-92575142D01*
X41586285Y-92575142D02*
X42729142Y-92575142D01*
X43443428Y-92575142D02*
X44586285Y-92575142D01*
X45300571Y-92575142D02*
X46443428Y-92575142D01*
X47157714Y-92575142D02*
X48300571Y-92575142D01*
X49014857Y-92575142D02*
X50157714Y-92575142D01*
X50872000Y-92575142D02*
X52014857Y-92575142D01*
X62353428Y-95160142D02*
X62567714Y-95231571D01*
X62924857Y-95231571D01*
X63067714Y-95160142D01*
X63139142Y-95088714D01*
X63210571Y-94945857D01*
X63210571Y-94803000D01*
X63139142Y-94660142D01*
X63067714Y-94588714D01*
X62924857Y-94517285D01*
X62639142Y-94445857D01*
X62496285Y-94374428D01*
X62424857Y-94303000D01*
X62353428Y-94160142D01*
X62353428Y-94017285D01*
X62424857Y-93874428D01*
X62496285Y-93803000D01*
X62639142Y-93731571D01*
X62996285Y-93731571D01*
X63210571Y-93803000D01*
X63639142Y-93731571D02*
X64496285Y-93731571D01*
X64067714Y-95231571D02*
X64067714Y-93731571D01*
X64996285Y-94445857D02*
X65496285Y-94445857D01*
X65710571Y-95231571D02*
X64996285Y-95231571D01*
X64996285Y-93731571D01*
X65710571Y-93731571D01*
X66353428Y-95231571D02*
X66353428Y-93731571D01*
X66924857Y-93731571D01*
X67067714Y-93803000D01*
X67139142Y-93874428D01*
X67210571Y-94017285D01*
X67210571Y-94231571D01*
X67139142Y-94374428D01*
X67067714Y-94445857D01*
X66924857Y-94517285D01*
X66353428Y-94517285D01*
X63139142Y-98181571D02*
X62782000Y-98181571D01*
X62782000Y-96038714D01*
X63139142Y-96038714D01*
X63567714Y-96181571D02*
X64496285Y-96181571D01*
X63996285Y-96753000D01*
X64210571Y-96753000D01*
X64353428Y-96824428D01*
X64424857Y-96895857D01*
X64496285Y-97038714D01*
X64496285Y-97395857D01*
X64424857Y-97538714D01*
X64353428Y-97610142D01*
X64210571Y-97681571D01*
X63782000Y-97681571D01*
X63639142Y-97610142D01*
X63567714Y-97538714D01*
X65067714Y-96324428D02*
X65139142Y-96253000D01*
X65282000Y-96181571D01*
X65639142Y-96181571D01*
X65782000Y-96253000D01*
X65853428Y-96324428D01*
X65924857Y-96467285D01*
X65924857Y-96610142D01*
X65853428Y-96824428D01*
X64996285Y-97681571D01*
X65924857Y-97681571D01*
X66424857Y-98181571D02*
X66782000Y-98181571D01*
X66782000Y-96038714D01*
X66424857Y-96038714D01*
X71942000Y-95231571D02*
X71942000Y-93731571D01*
X72299142Y-93731571D01*
X72513428Y-93803000D01*
X72656285Y-93945857D01*
X72727714Y-94088714D01*
X72799142Y-94374428D01*
X72799142Y-94588714D01*
X72727714Y-94874428D01*
X72656285Y-95017285D01*
X72513428Y-95160142D01*
X72299142Y-95231571D01*
X71942000Y-95231571D01*
X73442000Y-95231571D02*
X73442000Y-93731571D01*
X75013428Y-95231571D02*
X74513428Y-94517285D01*
X74156285Y-95231571D02*
X74156285Y-93731571D01*
X74727714Y-93731571D01*
X74870571Y-93803000D01*
X74942000Y-93874428D01*
X75013428Y-94017285D01*
X75013428Y-94231571D01*
X74942000Y-94374428D01*
X74870571Y-94445857D01*
X74727714Y-94517285D01*
X74156285Y-94517285D01*
X71799142Y-98181571D02*
X71442000Y-98181571D01*
X71442000Y-96038714D01*
X71799142Y-96038714D01*
X72227714Y-96181571D02*
X73156285Y-96181571D01*
X72656285Y-96753000D01*
X72870571Y-96753000D01*
X73013428Y-96824428D01*
X73084857Y-96895857D01*
X73156285Y-97038714D01*
X73156285Y-97395857D01*
X73084857Y-97538714D01*
X73013428Y-97610142D01*
X72870571Y-97681571D01*
X72442000Y-97681571D01*
X72299142Y-97610142D01*
X72227714Y-97538714D01*
X74584857Y-97681571D02*
X73727714Y-97681571D01*
X74156285Y-97681571D02*
X74156285Y-96181571D01*
X74013428Y-96395857D01*
X73870571Y-96538714D01*
X73727714Y-96610142D01*
X75084857Y-98181571D02*
X75442000Y-98181571D01*
X75442000Y-96038714D01*
X75084857Y-96038714D01*
X57557714Y-90068000D02*
X57414857Y-89996571D01*
X57200571Y-89996571D01*
X56986285Y-90068000D01*
X56843428Y-90210857D01*
X56772000Y-90353714D01*
X56700571Y-90639428D01*
X56700571Y-90853714D01*
X56772000Y-91139428D01*
X56843428Y-91282285D01*
X56986285Y-91425142D01*
X57200571Y-91496571D01*
X57343428Y-91496571D01*
X57557714Y-91425142D01*
X57629142Y-91353714D01*
X57629142Y-90853714D01*
X57343428Y-90853714D01*
X59129142Y-91496571D02*
X58629142Y-90782285D01*
X58272000Y-91496571D02*
X58272000Y-89996571D01*
X58843428Y-89996571D01*
X58986285Y-90068000D01*
X59057714Y-90139428D01*
X59129142Y-90282285D01*
X59129142Y-90496571D01*
X59057714Y-90639428D01*
X58986285Y-90710857D01*
X58843428Y-90782285D01*
X58272000Y-90782285D01*
X60057714Y-89996571D02*
X60343428Y-89996571D01*
X60486285Y-90068000D01*
X60629142Y-90210857D01*
X60700571Y-90496571D01*
X60700571Y-90996571D01*
X60629142Y-91282285D01*
X60486285Y-91425142D01*
X60343428Y-91496571D01*
X60057714Y-91496571D01*
X59914857Y-91425142D01*
X59772000Y-91282285D01*
X59700571Y-90996571D01*
X59700571Y-90496571D01*
X59772000Y-90210857D01*
X59914857Y-90068000D01*
X60057714Y-89996571D01*
X61343428Y-89996571D02*
X61343428Y-91210857D01*
X61414857Y-91353714D01*
X61486285Y-91425142D01*
X61629142Y-91496571D01*
X61914857Y-91496571D01*
X62057714Y-91425142D01*
X62129142Y-91353714D01*
X62200571Y-91210857D01*
X62200571Y-89996571D01*
X62914857Y-91496571D02*
X62914857Y-89996571D01*
X63486285Y-89996571D01*
X63629142Y-90068000D01*
X63700571Y-90139428D01*
X63772000Y-90282285D01*
X63772000Y-90496571D01*
X63700571Y-90639428D01*
X63629142Y-90710857D01*
X63486285Y-90782285D01*
X62914857Y-90782285D01*
X66272000Y-89996571D02*
X65557714Y-89996571D01*
X65486285Y-90710857D01*
X65557714Y-90639428D01*
X65700571Y-90568000D01*
X66057714Y-90568000D01*
X66200571Y-90639428D01*
X66272000Y-90710857D01*
X66343428Y-90853714D01*
X66343428Y-91210857D01*
X66272000Y-91353714D01*
X66200571Y-91425142D01*
X66057714Y-91496571D01*
X65700571Y-91496571D01*
X65557714Y-91425142D01*
X65486285Y-91353714D01*
X56222000Y-95231571D02*
X56222000Y-93731571D01*
X56579142Y-93731571D01*
X56793428Y-93803000D01*
X56936285Y-93945857D01*
X57007714Y-94088714D01*
X57079142Y-94374428D01*
X57079142Y-94588714D01*
X57007714Y-94874428D01*
X56936285Y-95017285D01*
X56793428Y-95160142D01*
X56579142Y-95231571D01*
X56222000Y-95231571D01*
X57722000Y-95231571D02*
X57722000Y-93731571D01*
X59293428Y-95231571D02*
X58793428Y-94517285D01*
X58436285Y-95231571D02*
X58436285Y-93731571D01*
X59007714Y-93731571D01*
X59150571Y-93803000D01*
X59222000Y-93874428D01*
X59293428Y-94017285D01*
X59293428Y-94231571D01*
X59222000Y-94374428D01*
X59150571Y-94445857D01*
X59007714Y-94517285D01*
X58436285Y-94517285D01*
X56079142Y-98181571D02*
X55722000Y-98181571D01*
X55722000Y-96038714D01*
X56079142Y-96038714D01*
X56579142Y-96324428D02*
X56650571Y-96253000D01*
X56793428Y-96181571D01*
X57150571Y-96181571D01*
X57293428Y-96253000D01*
X57364857Y-96324428D01*
X57436285Y-96467285D01*
X57436285Y-96610142D01*
X57364857Y-96824428D01*
X56507714Y-97681571D01*
X57436285Y-97681571D01*
X58150571Y-97681571D02*
X58436285Y-97681571D01*
X58579142Y-97610142D01*
X58650571Y-97538714D01*
X58793428Y-97324428D01*
X58864857Y-97038714D01*
X58864857Y-96467285D01*
X58793428Y-96324428D01*
X58722000Y-96253000D01*
X58579142Y-96181571D01*
X58293428Y-96181571D01*
X58150571Y-96253000D01*
X58079142Y-96324428D01*
X58007714Y-96467285D01*
X58007714Y-96824428D01*
X58079142Y-96967285D01*
X58150571Y-97038714D01*
X58293428Y-97110142D01*
X58579142Y-97110142D01*
X58722000Y-97038714D01*
X58793428Y-96967285D01*
X58864857Y-96824428D01*
X59364857Y-98181571D02*
X59722000Y-98181571D01*
X59722000Y-96038714D01*
X59364857Y-96038714D01*
X55329142Y-92585142D02*
X56472000Y-92585142D01*
X57186285Y-92585142D02*
X58329142Y-92585142D01*
X59043428Y-92585142D02*
X60186285Y-92585142D01*
X60900571Y-92585142D02*
X62043428Y-92585142D01*
X62757714Y-92585142D02*
X63900571Y-92585142D01*
X64614857Y-92585142D02*
X65757714Y-92585142D01*
X66472000Y-92585142D02*
X67614857Y-92585142D01*
X78073428Y-95160142D02*
X78287714Y-95231571D01*
X78644857Y-95231571D01*
X78787714Y-95160142D01*
X78859142Y-95088714D01*
X78930571Y-94945857D01*
X78930571Y-94803000D01*
X78859142Y-94660142D01*
X78787714Y-94588714D01*
X78644857Y-94517285D01*
X78359142Y-94445857D01*
X78216285Y-94374428D01*
X78144857Y-94303000D01*
X78073428Y-94160142D01*
X78073428Y-94017285D01*
X78144857Y-93874428D01*
X78216285Y-93803000D01*
X78359142Y-93731571D01*
X78716285Y-93731571D01*
X78930571Y-93803000D01*
X79359142Y-93731571D02*
X80216285Y-93731571D01*
X79787714Y-95231571D02*
X79787714Y-93731571D01*
X80716285Y-94445857D02*
X81216285Y-94445857D01*
X81430571Y-95231571D02*
X80716285Y-95231571D01*
X80716285Y-93731571D01*
X81430571Y-93731571D01*
X82073428Y-95231571D02*
X82073428Y-93731571D01*
X82644857Y-93731571D01*
X82787714Y-93803000D01*
X82859142Y-93874428D01*
X82930571Y-94017285D01*
X82930571Y-94231571D01*
X82859142Y-94374428D01*
X82787714Y-94445857D01*
X82644857Y-94517285D01*
X82073428Y-94517285D01*
X78859142Y-98181571D02*
X78502000Y-98181571D01*
X78502000Y-96038714D01*
X78859142Y-96038714D01*
X79287714Y-96181571D02*
X80216285Y-96181571D01*
X79716285Y-96753000D01*
X79930571Y-96753000D01*
X80073428Y-96824428D01*
X80144857Y-96895857D01*
X80216285Y-97038714D01*
X80216285Y-97395857D01*
X80144857Y-97538714D01*
X80073428Y-97610142D01*
X79930571Y-97681571D01*
X79502000Y-97681571D01*
X79359142Y-97610142D01*
X79287714Y-97538714D01*
X80787714Y-96324428D02*
X80859142Y-96253000D01*
X81002000Y-96181571D01*
X81359142Y-96181571D01*
X81502000Y-96253000D01*
X81573428Y-96324428D01*
X81644857Y-96467285D01*
X81644857Y-96610142D01*
X81573428Y-96824428D01*
X80716285Y-97681571D01*
X81644857Y-97681571D01*
X82144857Y-98181571D02*
X82502000Y-98181571D01*
X82502000Y-96038714D01*
X82144857Y-96038714D01*
X71049142Y-92585142D02*
X72192000Y-92585142D01*
X72906285Y-92585142D02*
X74049142Y-92585142D01*
X74763428Y-92585142D02*
X75906285Y-92585142D01*
X76620571Y-92585142D02*
X77763428Y-92585142D01*
X78477714Y-92585142D02*
X79620571Y-92585142D01*
X80334857Y-92585142D02*
X81477714Y-92585142D01*
X82192000Y-92585142D02*
X83334857Y-92585142D01*
X73277714Y-90068000D02*
X73134857Y-89996571D01*
X72920571Y-89996571D01*
X72706285Y-90068000D01*
X72563428Y-90210857D01*
X72492000Y-90353714D01*
X72420571Y-90639428D01*
X72420571Y-90853714D01*
X72492000Y-91139428D01*
X72563428Y-91282285D01*
X72706285Y-91425142D01*
X72920571Y-91496571D01*
X73063428Y-91496571D01*
X73277714Y-91425142D01*
X73349142Y-91353714D01*
X73349142Y-90853714D01*
X73063428Y-90853714D01*
X74849142Y-91496571D02*
X74349142Y-90782285D01*
X73992000Y-91496571D02*
X73992000Y-89996571D01*
X74563428Y-89996571D01*
X74706285Y-90068000D01*
X74777714Y-90139428D01*
X74849142Y-90282285D01*
X74849142Y-90496571D01*
X74777714Y-90639428D01*
X74706285Y-90710857D01*
X74563428Y-90782285D01*
X73992000Y-90782285D01*
X75777714Y-89996571D02*
X76063428Y-89996571D01*
X76206285Y-90068000D01*
X76349142Y-90210857D01*
X76420571Y-90496571D01*
X76420571Y-90996571D01*
X76349142Y-91282285D01*
X76206285Y-91425142D01*
X76063428Y-91496571D01*
X75777714Y-91496571D01*
X75634857Y-91425142D01*
X75492000Y-91282285D01*
X75420571Y-90996571D01*
X75420571Y-90496571D01*
X75492000Y-90210857D01*
X75634857Y-90068000D01*
X75777714Y-89996571D01*
X77063428Y-89996571D02*
X77063428Y-91210857D01*
X77134857Y-91353714D01*
X77206285Y-91425142D01*
X77349142Y-91496571D01*
X77634857Y-91496571D01*
X77777714Y-91425142D01*
X77849142Y-91353714D01*
X77920571Y-91210857D01*
X77920571Y-89996571D01*
X78634857Y-91496571D02*
X78634857Y-89996571D01*
X79206285Y-89996571D01*
X79349142Y-90068000D01*
X79420571Y-90139428D01*
X79492000Y-90282285D01*
X79492000Y-90496571D01*
X79420571Y-90639428D01*
X79349142Y-90710857D01*
X79206285Y-90782285D01*
X78634857Y-90782285D01*
X81920571Y-89996571D02*
X81634857Y-89996571D01*
X81492000Y-90068000D01*
X81420571Y-90139428D01*
X81277714Y-90353714D01*
X81206285Y-90639428D01*
X81206285Y-91210857D01*
X81277714Y-91353714D01*
X81349142Y-91425142D01*
X81492000Y-91496571D01*
X81777714Y-91496571D01*
X81920571Y-91425142D01*
X81992000Y-91353714D01*
X82063428Y-91210857D01*
X82063428Y-90853714D01*
X81992000Y-90710857D01*
X81920571Y-90639428D01*
X81777714Y-90568000D01*
X81492000Y-90568000D01*
X81349142Y-90639428D01*
X81277714Y-90710857D01*
X81206285Y-90853714D01*
D11*
X70582000Y-89358000D02*
X83912000Y-89358000D01*
X70592000Y-98618000D02*
X70582000Y-91198000D01*
X83912000Y-89358000D02*
X83912000Y-98608000D01*
X83912000Y-98608000D02*
X70592000Y-98618000D01*
X54862000Y-91198000D02*
X54862000Y-89358000D01*
X39262000Y-91188000D02*
X39262000Y-89348000D01*
X54862000Y-89358000D02*
X68192000Y-89358000D01*
X54872000Y-98618000D02*
X54862000Y-91198000D01*
X68192000Y-89358000D02*
X68192000Y-98608000D01*
X39262000Y-89348000D02*
X52592000Y-89348000D01*
X68192000Y-98608000D02*
X54872000Y-98618000D01*
X39272000Y-98608000D02*
X39262000Y-91188000D01*
X52592000Y-89348000D02*
X52592000Y-98598000D01*
X70582000Y-91198000D02*
X70582000Y-89358000D01*
X52592000Y-98598000D02*
X39272000Y-98608000D01*
D12*
X46753428Y-95150142D02*
X46967714Y-95221571D01*
X47324857Y-95221571D01*
X47467714Y-95150142D01*
X47539142Y-95078714D01*
X47610571Y-94935857D01*
X47610571Y-94793000D01*
X47539142Y-94650142D01*
X47467714Y-94578714D01*
X47324857Y-94507285D01*
X47039142Y-94435857D01*
X46896285Y-94364428D01*
X46824857Y-94293000D01*
X46753428Y-94150142D01*
X46753428Y-94007285D01*
X46824857Y-93864428D01*
X46896285Y-93793000D01*
X47039142Y-93721571D01*
X47396285Y-93721571D01*
X47610571Y-93793000D01*
X48039142Y-93721571D02*
X48896285Y-93721571D01*
X48467714Y-95221571D02*
X48467714Y-93721571D01*
X49396285Y-94435857D02*
X49896285Y-94435857D01*
X50110571Y-95221571D02*
X49396285Y-95221571D01*
X49396285Y-93721571D01*
X50110571Y-93721571D01*
X50753428Y-95221571D02*
X50753428Y-93721571D01*
X51324857Y-93721571D01*
X51467714Y-93793000D01*
X51539142Y-93864428D01*
X51610571Y-94007285D01*
X51610571Y-94221571D01*
X51539142Y-94364428D01*
X51467714Y-94435857D01*
X51324857Y-94507285D01*
X50753428Y-94507285D01*
X47539142Y-98171571D02*
X47182000Y-98171571D01*
X47182000Y-96028714D01*
X47539142Y-96028714D01*
X48039142Y-96314428D02*
X48110571Y-96243000D01*
X48253428Y-96171571D01*
X48610571Y-96171571D01*
X48753428Y-96243000D01*
X48824857Y-96314428D01*
X48896285Y-96457285D01*
X48896285Y-96600142D01*
X48824857Y-96814428D01*
X47967714Y-97671571D01*
X48896285Y-97671571D01*
X49396285Y-96171571D02*
X50324857Y-96171571D01*
X49824857Y-96743000D01*
X50039142Y-96743000D01*
X50182000Y-96814428D01*
X50253428Y-96885857D01*
X50324857Y-97028714D01*
X50324857Y-97385857D01*
X50253428Y-97528714D01*
X50182000Y-97600142D01*
X50039142Y-97671571D01*
X49610571Y-97671571D01*
X49467714Y-97600142D01*
X49396285Y-97528714D01*
X50824857Y-98171571D02*
X51182000Y-98171571D01*
X51182000Y-96028714D01*
X50824857Y-96028714D01*
X41957714Y-90058000D02*
X41814857Y-89986571D01*
X41600571Y-89986571D01*
X41386285Y-90058000D01*
X41243428Y-90200857D01*
X41172000Y-90343714D01*
X41100571Y-90629428D01*
X41100571Y-90843714D01*
X41172000Y-91129428D01*
X41243428Y-91272285D01*
X41386285Y-91415142D01*
X41600571Y-91486571D01*
X41743428Y-91486571D01*
X41957714Y-91415142D01*
X42029142Y-91343714D01*
X42029142Y-90843714D01*
X41743428Y-90843714D01*
X43529142Y-91486571D02*
X43029142Y-90772285D01*
X42672000Y-91486571D02*
X42672000Y-89986571D01*
X43243428Y-89986571D01*
X43386285Y-90058000D01*
X43457714Y-90129428D01*
X43529142Y-90272285D01*
X43529142Y-90486571D01*
X43457714Y-90629428D01*
X43386285Y-90700857D01*
X43243428Y-90772285D01*
X42672000Y-90772285D01*
X44457714Y-89986571D02*
X44743428Y-89986571D01*
X44886285Y-90058000D01*
X45029142Y-90200857D01*
X45100571Y-90486571D01*
X45100571Y-90986571D01*
X45029142Y-91272285D01*
X44886285Y-91415142D01*
X44743428Y-91486571D01*
X44457714Y-91486571D01*
X44314857Y-91415142D01*
X44172000Y-91272285D01*
X44100571Y-90986571D01*
X44100571Y-90486571D01*
X44172000Y-90200857D01*
X44314857Y-90058000D01*
X44457714Y-89986571D01*
X45743428Y-89986571D02*
X45743428Y-91200857D01*
X45814857Y-91343714D01*
X45886285Y-91415142D01*
X46029142Y-91486571D01*
X46314857Y-91486571D01*
X46457714Y-91415142D01*
X46529142Y-91343714D01*
X46600571Y-91200857D01*
X46600571Y-89986571D01*
X47314857Y-91486571D02*
X47314857Y-89986571D01*
X47886285Y-89986571D01*
X48029142Y-90058000D01*
X48100571Y-90129428D01*
X48172000Y-90272285D01*
X48172000Y-90486571D01*
X48100571Y-90629428D01*
X48029142Y-90700857D01*
X47886285Y-90772285D01*
X47314857Y-90772285D01*
X50600571Y-90486571D02*
X50600571Y-91486571D01*
X50243428Y-89915142D02*
X49886285Y-90986571D01*
X50814857Y-90986571D01*
X40622000Y-95221571D02*
X40622000Y-93721571D01*
X40979142Y-93721571D01*
X41193428Y-93793000D01*
X41336285Y-93935857D01*
X41407714Y-94078714D01*
X41479142Y-94364428D01*
X41479142Y-94578714D01*
X41407714Y-94864428D01*
X41336285Y-95007285D01*
X41193428Y-95150142D01*
X40979142Y-95221571D01*
X40622000Y-95221571D01*
X42122000Y-95221571D02*
X42122000Y-93721571D01*
X43693428Y-95221571D02*
X43193428Y-94507285D01*
X42836285Y-95221571D02*
X42836285Y-93721571D01*
X43407714Y-93721571D01*
X43550571Y-93793000D01*
X43622000Y-93864428D01*
X43693428Y-94007285D01*
X43693428Y-94221571D01*
X43622000Y-94364428D01*
X43550571Y-94435857D01*
X43407714Y-94507285D01*
X42836285Y-94507285D01*
X40479142Y-98171571D02*
X40122000Y-98171571D01*
X40122000Y-96028714D01*
X40479142Y-96028714D01*
X40979142Y-96314428D02*
X41050571Y-96243000D01*
X41193428Y-96171571D01*
X41550571Y-96171571D01*
X41693428Y-96243000D01*
X41764857Y-96314428D01*
X41836285Y-96457285D01*
X41836285Y-96600142D01*
X41764857Y-96814428D01*
X40907714Y-97671571D01*
X41836285Y-97671571D01*
X43264857Y-97671571D02*
X42407714Y-97671571D01*
X42836285Y-97671571D02*
X42836285Y-96171571D01*
X42693428Y-96385857D01*
X42550571Y-96528714D01*
X42407714Y-96600142D01*
X43764857Y-98171571D02*
X44122000Y-98171571D01*
X44122000Y-96028714D01*
X43764857Y-96028714D01*
X71049142Y-79885142D02*
X72192000Y-79885142D01*
X72906285Y-79885142D02*
X74049142Y-79885142D01*
X74763428Y-79885142D02*
X75906285Y-79885142D01*
X76620571Y-79885142D02*
X77763428Y-79885142D01*
X78477714Y-79885142D02*
X79620571Y-79885142D01*
X80334857Y-79885142D02*
X81477714Y-79885142D01*
X82192000Y-79885142D02*
X83334857Y-79885142D01*
D11*
X70582000Y-78498000D02*
X70582000Y-76658000D01*
X70582000Y-76658000D02*
X83912000Y-76658000D01*
X70592000Y-85918000D02*
X70582000Y-78498000D01*
X83912000Y-76658000D02*
X83912000Y-85908000D01*
X83912000Y-85908000D02*
X70592000Y-85918000D01*
D12*
X78073428Y-82460142D02*
X78287714Y-82531571D01*
X78644857Y-82531571D01*
X78787714Y-82460142D01*
X78859142Y-82388714D01*
X78930571Y-82245857D01*
X78930571Y-82103000D01*
X78859142Y-81960142D01*
X78787714Y-81888714D01*
X78644857Y-81817285D01*
X78359142Y-81745857D01*
X78216285Y-81674428D01*
X78144857Y-81603000D01*
X78073428Y-81460142D01*
X78073428Y-81317285D01*
X78144857Y-81174428D01*
X78216285Y-81103000D01*
X78359142Y-81031571D01*
X78716285Y-81031571D01*
X78930571Y-81103000D01*
X79359142Y-81031571D02*
X80216285Y-81031571D01*
X79787714Y-82531571D02*
X79787714Y-81031571D01*
X80716285Y-81745857D02*
X81216285Y-81745857D01*
X81430571Y-82531571D02*
X80716285Y-82531571D01*
X80716285Y-81031571D01*
X81430571Y-81031571D01*
X82073428Y-82531571D02*
X82073428Y-81031571D01*
X82644857Y-81031571D01*
X82787714Y-81103000D01*
X82859142Y-81174428D01*
X82930571Y-81317285D01*
X82930571Y-81531571D01*
X82859142Y-81674428D01*
X82787714Y-81745857D01*
X82644857Y-81817285D01*
X82073428Y-81817285D01*
X78859142Y-85481571D02*
X78502000Y-85481571D01*
X78502000Y-83338714D01*
X78859142Y-83338714D01*
X80216285Y-84981571D02*
X79359142Y-84981571D01*
X79787714Y-84981571D02*
X79787714Y-83481571D01*
X79644857Y-83695857D01*
X79502000Y-83838714D01*
X79359142Y-83910142D01*
X80930571Y-84981571D02*
X81216285Y-84981571D01*
X81359142Y-84910142D01*
X81430571Y-84838714D01*
X81573428Y-84624428D01*
X81644857Y-84338714D01*
X81644857Y-83767285D01*
X81573428Y-83624428D01*
X81502000Y-83553000D01*
X81359142Y-83481571D01*
X81073428Y-83481571D01*
X80930571Y-83553000D01*
X80859142Y-83624428D01*
X80787714Y-83767285D01*
X80787714Y-84124428D01*
X80859142Y-84267285D01*
X80930571Y-84338714D01*
X81073428Y-84410142D01*
X81359142Y-84410142D01*
X81502000Y-84338714D01*
X81573428Y-84267285D01*
X81644857Y-84124428D01*
X82144857Y-85481571D02*
X82502000Y-85481571D01*
X82502000Y-83338714D01*
X82144857Y-83338714D01*
X73277714Y-77368000D02*
X73134857Y-77296571D01*
X72920571Y-77296571D01*
X72706285Y-77368000D01*
X72563428Y-77510857D01*
X72492000Y-77653714D01*
X72420571Y-77939428D01*
X72420571Y-78153714D01*
X72492000Y-78439428D01*
X72563428Y-78582285D01*
X72706285Y-78725142D01*
X72920571Y-78796571D01*
X73063428Y-78796571D01*
X73277714Y-78725142D01*
X73349142Y-78653714D01*
X73349142Y-78153714D01*
X73063428Y-78153714D01*
X74849142Y-78796571D02*
X74349142Y-78082285D01*
X73992000Y-78796571D02*
X73992000Y-77296571D01*
X74563428Y-77296571D01*
X74706285Y-77368000D01*
X74777714Y-77439428D01*
X74849142Y-77582285D01*
X74849142Y-77796571D01*
X74777714Y-77939428D01*
X74706285Y-78010857D01*
X74563428Y-78082285D01*
X73992000Y-78082285D01*
X75777714Y-77296571D02*
X76063428Y-77296571D01*
X76206285Y-77368000D01*
X76349142Y-77510857D01*
X76420571Y-77796571D01*
X76420571Y-78296571D01*
X76349142Y-78582285D01*
X76206285Y-78725142D01*
X76063428Y-78796571D01*
X75777714Y-78796571D01*
X75634857Y-78725142D01*
X75492000Y-78582285D01*
X75420571Y-78296571D01*
X75420571Y-77796571D01*
X75492000Y-77510857D01*
X75634857Y-77368000D01*
X75777714Y-77296571D01*
X77063428Y-77296571D02*
X77063428Y-78510857D01*
X77134857Y-78653714D01*
X77206285Y-78725142D01*
X77349142Y-78796571D01*
X77634857Y-78796571D01*
X77777714Y-78725142D01*
X77849142Y-78653714D01*
X77920571Y-78510857D01*
X77920571Y-77296571D01*
X78634857Y-78796571D02*
X78634857Y-77296571D01*
X79206285Y-77296571D01*
X79349142Y-77368000D01*
X79420571Y-77439428D01*
X79492000Y-77582285D01*
X79492000Y-77796571D01*
X79420571Y-77939428D01*
X79349142Y-78010857D01*
X79206285Y-78082285D01*
X78634857Y-78082285D01*
X81134857Y-77296571D02*
X82063428Y-77296571D01*
X81563428Y-77868000D01*
X81777714Y-77868000D01*
X81920571Y-77939428D01*
X81992000Y-78010857D01*
X82063428Y-78153714D01*
X82063428Y-78510857D01*
X81992000Y-78653714D01*
X81920571Y-78725142D01*
X81777714Y-78796571D01*
X81349142Y-78796571D01*
X81206285Y-78725142D01*
X81134857Y-78653714D01*
X71942000Y-82531571D02*
X71942000Y-81031571D01*
X72299142Y-81031571D01*
X72513428Y-81103000D01*
X72656285Y-81245857D01*
X72727714Y-81388714D01*
X72799142Y-81674428D01*
X72799142Y-81888714D01*
X72727714Y-82174428D01*
X72656285Y-82317285D01*
X72513428Y-82460142D01*
X72299142Y-82531571D01*
X71942000Y-82531571D01*
X73442000Y-82531571D02*
X73442000Y-81031571D01*
X75013428Y-82531571D02*
X74513428Y-81817285D01*
X74156285Y-82531571D02*
X74156285Y-81031571D01*
X74727714Y-81031571D01*
X74870571Y-81103000D01*
X74942000Y-81174428D01*
X75013428Y-81317285D01*
X75013428Y-81531571D01*
X74942000Y-81674428D01*
X74870571Y-81745857D01*
X74727714Y-81817285D01*
X74156285Y-81817285D01*
X71799142Y-85481571D02*
X71442000Y-85481571D01*
X71442000Y-83338714D01*
X71799142Y-83338714D01*
X73156285Y-84981571D02*
X72299142Y-84981571D01*
X72727714Y-84981571D02*
X72727714Y-83481571D01*
X72584857Y-83695857D01*
X72442000Y-83838714D01*
X72299142Y-83910142D01*
X74084857Y-83481571D02*
X74227714Y-83481571D01*
X74370571Y-83553000D01*
X74442000Y-83624428D01*
X74513428Y-83767285D01*
X74584857Y-84053000D01*
X74584857Y-84410142D01*
X74513428Y-84695857D01*
X74442000Y-84838714D01*
X74370571Y-84910142D01*
X74227714Y-84981571D01*
X74084857Y-84981571D01*
X73942000Y-84910142D01*
X73870571Y-84838714D01*
X73799142Y-84695857D01*
X73727714Y-84410142D01*
X73727714Y-84053000D01*
X73799142Y-83767285D01*
X73870571Y-83624428D01*
X73942000Y-83553000D01*
X74084857Y-83481571D01*
X75084857Y-85481571D02*
X75442000Y-85481571D01*
X75442000Y-83338714D01*
X75084857Y-83338714D01*
X55329142Y-79885142D02*
X56472000Y-79885142D01*
X57186285Y-79885142D02*
X58329142Y-79885142D01*
X59043428Y-79885142D02*
X60186285Y-79885142D01*
X60900571Y-79885142D02*
X62043428Y-79885142D01*
X62757714Y-79885142D02*
X63900571Y-79885142D01*
X64614857Y-79885142D02*
X65757714Y-79885142D01*
X66472000Y-79885142D02*
X67614857Y-79885142D01*
D11*
X54862000Y-78498000D02*
X54862000Y-76658000D01*
X54862000Y-76658000D02*
X68192000Y-76658000D01*
X54872000Y-85918000D02*
X54862000Y-78498000D01*
X68192000Y-76658000D02*
X68192000Y-85908000D01*
X68192000Y-85908000D02*
X54872000Y-85918000D01*
D12*
X62353428Y-82460142D02*
X62567714Y-82531571D01*
X62924857Y-82531571D01*
X63067714Y-82460142D01*
X63139142Y-82388714D01*
X63210571Y-82245857D01*
X63210571Y-82103000D01*
X63139142Y-81960142D01*
X63067714Y-81888714D01*
X62924857Y-81817285D01*
X62639142Y-81745857D01*
X62496285Y-81674428D01*
X62424857Y-81603000D01*
X62353428Y-81460142D01*
X62353428Y-81317285D01*
X62424857Y-81174428D01*
X62496285Y-81103000D01*
X62639142Y-81031571D01*
X62996285Y-81031571D01*
X63210571Y-81103000D01*
X63639142Y-81031571D02*
X64496285Y-81031571D01*
X64067714Y-82531571D02*
X64067714Y-81031571D01*
X64996285Y-81745857D02*
X65496285Y-81745857D01*
X65710571Y-82531571D02*
X64996285Y-82531571D01*
X64996285Y-81031571D01*
X65710571Y-81031571D01*
X66353428Y-82531571D02*
X66353428Y-81031571D01*
X66924857Y-81031571D01*
X67067714Y-81103000D01*
X67139142Y-81174428D01*
X67210571Y-81317285D01*
X67210571Y-81531571D01*
X67139142Y-81674428D01*
X67067714Y-81745857D01*
X66924857Y-81817285D01*
X66353428Y-81817285D01*
X63853428Y-85481571D02*
X63496285Y-85481571D01*
X63496285Y-83338714D01*
X63853428Y-83338714D01*
X64639142Y-84124428D02*
X64496285Y-84053000D01*
X64424857Y-83981571D01*
X64353428Y-83838714D01*
X64353428Y-83767285D01*
X64424857Y-83624428D01*
X64496285Y-83553000D01*
X64639142Y-83481571D01*
X64924857Y-83481571D01*
X65067714Y-83553000D01*
X65139142Y-83624428D01*
X65210571Y-83767285D01*
X65210571Y-83838714D01*
X65139142Y-83981571D01*
X65067714Y-84053000D01*
X64924857Y-84124428D01*
X64639142Y-84124428D01*
X64496285Y-84195857D01*
X64424857Y-84267285D01*
X64353428Y-84410142D01*
X64353428Y-84695857D01*
X64424857Y-84838714D01*
X64496285Y-84910142D01*
X64639142Y-84981571D01*
X64924857Y-84981571D01*
X65067714Y-84910142D01*
X65139142Y-84838714D01*
X65210571Y-84695857D01*
X65210571Y-84410142D01*
X65139142Y-84267285D01*
X65067714Y-84195857D01*
X64924857Y-84124428D01*
X65710571Y-85481571D02*
X66067714Y-85481571D01*
X66067714Y-83338714D01*
X65710571Y-83338714D01*
X57557714Y-77368000D02*
X57414857Y-77296571D01*
X57200571Y-77296571D01*
X56986285Y-77368000D01*
X56843428Y-77510857D01*
X56772000Y-77653714D01*
X56700571Y-77939428D01*
X56700571Y-78153714D01*
X56772000Y-78439428D01*
X56843428Y-78582285D01*
X56986285Y-78725142D01*
X57200571Y-78796571D01*
X57343428Y-78796571D01*
X57557714Y-78725142D01*
X57629142Y-78653714D01*
X57629142Y-78153714D01*
X57343428Y-78153714D01*
X59129142Y-78796571D02*
X58629142Y-78082285D01*
X58272000Y-78796571D02*
X58272000Y-77296571D01*
X58843428Y-77296571D01*
X58986285Y-77368000D01*
X59057714Y-77439428D01*
X59129142Y-77582285D01*
X59129142Y-77796571D01*
X59057714Y-77939428D01*
X58986285Y-78010857D01*
X58843428Y-78082285D01*
X58272000Y-78082285D01*
X60057714Y-77296571D02*
X60343428Y-77296571D01*
X60486285Y-77368000D01*
X60629142Y-77510857D01*
X60700571Y-77796571D01*
X60700571Y-78296571D01*
X60629142Y-78582285D01*
X60486285Y-78725142D01*
X60343428Y-78796571D01*
X60057714Y-78796571D01*
X59914857Y-78725142D01*
X59772000Y-78582285D01*
X59700571Y-78296571D01*
X59700571Y-77796571D01*
X59772000Y-77510857D01*
X59914857Y-77368000D01*
X60057714Y-77296571D01*
X61343428Y-77296571D02*
X61343428Y-78510857D01*
X61414857Y-78653714D01*
X61486285Y-78725142D01*
X61629142Y-78796571D01*
X61914857Y-78796571D01*
X62057714Y-78725142D01*
X62129142Y-78653714D01*
X62200571Y-78510857D01*
X62200571Y-77296571D01*
X62914857Y-78796571D02*
X62914857Y-77296571D01*
X63486285Y-77296571D01*
X63629142Y-77368000D01*
X63700571Y-77439428D01*
X63772000Y-77582285D01*
X63772000Y-77796571D01*
X63700571Y-77939428D01*
X63629142Y-78010857D01*
X63486285Y-78082285D01*
X62914857Y-78082285D01*
X65486285Y-77439428D02*
X65557714Y-77368000D01*
X65700571Y-77296571D01*
X66057714Y-77296571D01*
X66200571Y-77368000D01*
X66272000Y-77439428D01*
X66343428Y-77582285D01*
X66343428Y-77725142D01*
X66272000Y-77939428D01*
X65414857Y-78796571D01*
X66343428Y-78796571D01*
X56222000Y-82531571D02*
X56222000Y-81031571D01*
X56579142Y-81031571D01*
X56793428Y-81103000D01*
X56936285Y-81245857D01*
X57007714Y-81388714D01*
X57079142Y-81674428D01*
X57079142Y-81888714D01*
X57007714Y-82174428D01*
X56936285Y-82317285D01*
X56793428Y-82460142D01*
X56579142Y-82531571D01*
X56222000Y-82531571D01*
X57722000Y-82531571D02*
X57722000Y-81031571D01*
X59293428Y-82531571D02*
X58793428Y-81817285D01*
X58436285Y-82531571D02*
X58436285Y-81031571D01*
X59007714Y-81031571D01*
X59150571Y-81103000D01*
X59222000Y-81174428D01*
X59293428Y-81317285D01*
X59293428Y-81531571D01*
X59222000Y-81674428D01*
X59150571Y-81745857D01*
X59007714Y-81817285D01*
X58436285Y-81817285D01*
X56793428Y-85481571D02*
X56436285Y-85481571D01*
X56436285Y-83338714D01*
X56793428Y-83338714D01*
X57222000Y-83481571D02*
X58222000Y-83481571D01*
X57579142Y-84981571D01*
X58650571Y-85481571D02*
X59007714Y-85481571D01*
X59007714Y-83338714D01*
X58650571Y-83338714D01*
X39729142Y-79875142D02*
X40872000Y-79875142D01*
X41586285Y-79875142D02*
X42729142Y-79875142D01*
X43443428Y-79875142D02*
X44586285Y-79875142D01*
X45300571Y-79875142D02*
X46443428Y-79875142D01*
X47157714Y-79875142D02*
X48300571Y-79875142D01*
X49014857Y-79875142D02*
X50157714Y-79875142D01*
X50872000Y-79875142D02*
X52014857Y-79875142D01*
D11*
X39262000Y-76648000D02*
X52592000Y-76648000D01*
X39262000Y-78488000D02*
X39262000Y-76648000D01*
X39272000Y-85908000D02*
X39262000Y-78488000D01*
X52592000Y-85898000D02*
X39272000Y-85908000D01*
X52592000Y-76648000D02*
X52592000Y-85898000D01*
D12*
X46753428Y-82450142D02*
X46967714Y-82521571D01*
X47324857Y-82521571D01*
X47467714Y-82450142D01*
X47539142Y-82378714D01*
X47610571Y-82235857D01*
X47610571Y-82093000D01*
X47539142Y-81950142D01*
X47467714Y-81878714D01*
X47324857Y-81807285D01*
X47039142Y-81735857D01*
X46896285Y-81664428D01*
X46824857Y-81593000D01*
X46753428Y-81450142D01*
X46753428Y-81307285D01*
X46824857Y-81164428D01*
X46896285Y-81093000D01*
X47039142Y-81021571D01*
X47396285Y-81021571D01*
X47610571Y-81093000D01*
X48039142Y-81021571D02*
X48896285Y-81021571D01*
X48467714Y-82521571D02*
X48467714Y-81021571D01*
X49396285Y-81735857D02*
X49896285Y-81735857D01*
X50110571Y-82521571D02*
X49396285Y-82521571D01*
X49396285Y-81021571D01*
X50110571Y-81021571D01*
X50753428Y-82521571D02*
X50753428Y-81021571D01*
X51324857Y-81021571D01*
X51467714Y-81093000D01*
X51539142Y-81164428D01*
X51610571Y-81307285D01*
X51610571Y-81521571D01*
X51539142Y-81664428D01*
X51467714Y-81735857D01*
X51324857Y-81807285D01*
X50753428Y-81807285D01*
X48253428Y-85471571D02*
X47896285Y-85471571D01*
X47896285Y-83328714D01*
X48253428Y-83328714D01*
X49539142Y-83471571D02*
X48824857Y-83471571D01*
X48753428Y-84185857D01*
X48824857Y-84114428D01*
X48967714Y-84043000D01*
X49324857Y-84043000D01*
X49467714Y-84114428D01*
X49539142Y-84185857D01*
X49610571Y-84328714D01*
X49610571Y-84685857D01*
X49539142Y-84828714D01*
X49467714Y-84900142D01*
X49324857Y-84971571D01*
X48967714Y-84971571D01*
X48824857Y-84900142D01*
X48753428Y-84828714D01*
X50110571Y-85471571D02*
X50467714Y-85471571D01*
X50467714Y-83328714D01*
X50110571Y-83328714D01*
X40622000Y-82521571D02*
X40622000Y-81021571D01*
X40979142Y-81021571D01*
X41193428Y-81093000D01*
X41336285Y-81235857D01*
X41407714Y-81378714D01*
X41479142Y-81664428D01*
X41479142Y-81878714D01*
X41407714Y-82164428D01*
X41336285Y-82307285D01*
X41193428Y-82450142D01*
X40979142Y-82521571D01*
X40622000Y-82521571D01*
X42122000Y-82521571D02*
X42122000Y-81021571D01*
X43693428Y-82521571D02*
X43193428Y-81807285D01*
X42836285Y-82521571D02*
X42836285Y-81021571D01*
X43407714Y-81021571D01*
X43550571Y-81093000D01*
X43622000Y-81164428D01*
X43693428Y-81307285D01*
X43693428Y-81521571D01*
X43622000Y-81664428D01*
X43550571Y-81735857D01*
X43407714Y-81807285D01*
X42836285Y-81807285D01*
X41193428Y-85471571D02*
X40836285Y-85471571D01*
X40836285Y-83328714D01*
X41193428Y-83328714D01*
X41622000Y-83471571D02*
X42550571Y-83471571D01*
X42050571Y-84043000D01*
X42264857Y-84043000D01*
X42407714Y-84114428D01*
X42479142Y-84185857D01*
X42550571Y-84328714D01*
X42550571Y-84685857D01*
X42479142Y-84828714D01*
X42407714Y-84900142D01*
X42264857Y-84971571D01*
X41836285Y-84971571D01*
X41693428Y-84900142D01*
X41622000Y-84828714D01*
X43050571Y-85471571D02*
X43407714Y-85471571D01*
X43407714Y-83328714D01*
X43050571Y-83328714D01*
X41957714Y-77358000D02*
X41814857Y-77286571D01*
X41600571Y-77286571D01*
X41386285Y-77358000D01*
X41243428Y-77500857D01*
X41172000Y-77643714D01*
X41100571Y-77929428D01*
X41100571Y-78143714D01*
X41172000Y-78429428D01*
X41243428Y-78572285D01*
X41386285Y-78715142D01*
X41600571Y-78786571D01*
X41743428Y-78786571D01*
X41957714Y-78715142D01*
X42029142Y-78643714D01*
X42029142Y-78143714D01*
X41743428Y-78143714D01*
X43529142Y-78786571D02*
X43029142Y-78072285D01*
X42672000Y-78786571D02*
X42672000Y-77286571D01*
X43243428Y-77286571D01*
X43386285Y-77358000D01*
X43457714Y-77429428D01*
X43529142Y-77572285D01*
X43529142Y-77786571D01*
X43457714Y-77929428D01*
X43386285Y-78000857D01*
X43243428Y-78072285D01*
X42672000Y-78072285D01*
X44457714Y-77286571D02*
X44743428Y-77286571D01*
X44886285Y-77358000D01*
X45029142Y-77500857D01*
X45100571Y-77786571D01*
X45100571Y-78286571D01*
X45029142Y-78572285D01*
X44886285Y-78715142D01*
X44743428Y-78786571D01*
X44457714Y-78786571D01*
X44314857Y-78715142D01*
X44172000Y-78572285D01*
X44100571Y-78286571D01*
X44100571Y-77786571D01*
X44172000Y-77500857D01*
X44314857Y-77358000D01*
X44457714Y-77286571D01*
X45743428Y-77286571D02*
X45743428Y-78500857D01*
X45814857Y-78643714D01*
X45886285Y-78715142D01*
X46029142Y-78786571D01*
X46314857Y-78786571D01*
X46457714Y-78715142D01*
X46529142Y-78643714D01*
X46600571Y-78500857D01*
X46600571Y-77286571D01*
X47314857Y-78786571D02*
X47314857Y-77286571D01*
X47886285Y-77286571D01*
X48029142Y-77358000D01*
X48100571Y-77429428D01*
X48172000Y-77572285D01*
X48172000Y-77786571D01*
X48100571Y-77929428D01*
X48029142Y-78000857D01*
X47886285Y-78072285D01*
X47314857Y-78072285D01*
X50743428Y-78786571D02*
X49886285Y-78786571D01*
X50314857Y-78786571D02*
X50314857Y-77286571D01*
X50172000Y-77500857D01*
X50029142Y-77643714D01*
X49886285Y-77715142D01*
D11*
X30178666Y-94427761D02*
X30321523Y-94475380D01*
X30559619Y-94475380D01*
X30654857Y-94427761D01*
X30702476Y-94380142D01*
X30750095Y-94284904D01*
X30750095Y-94189666D01*
X30702476Y-94094428D01*
X30654857Y-94046809D01*
X30559619Y-93999190D01*
X30369142Y-93951571D01*
X30273904Y-93903952D01*
X30226285Y-93856333D01*
X30178666Y-93761095D01*
X30178666Y-93665857D01*
X30226285Y-93570619D01*
X30273904Y-93523000D01*
X30369142Y-93475380D01*
X30607238Y-93475380D01*
X30750095Y-93523000D01*
X31083428Y-93475380D02*
X31321523Y-94475380D01*
X31512000Y-93761095D01*
X31702476Y-94475380D01*
X31940571Y-93475380D01*
X32845333Y-94475380D02*
X32273904Y-94475380D01*
X32559619Y-94475380D02*
X32559619Y-93475380D01*
X32464380Y-93618238D01*
X32369142Y-93713476D01*
X32273904Y-93761095D01*
X30416761Y-96458714D02*
X30178666Y-96458714D01*
X30178666Y-95030142D01*
X30416761Y-95030142D01*
X30702476Y-95125380D02*
X31321523Y-95125380D01*
X30988190Y-95506333D01*
X31131047Y-95506333D01*
X31226285Y-95553952D01*
X31273904Y-95601571D01*
X31321523Y-95696809D01*
X31321523Y-95934904D01*
X31273904Y-96030142D01*
X31226285Y-96077761D01*
X31131047Y-96125380D01*
X30845333Y-96125380D01*
X30750095Y-96077761D01*
X30702476Y-96030142D01*
X31654857Y-95125380D02*
X32321523Y-95125380D01*
X31892952Y-96125380D01*
X32607238Y-96458714D02*
X32845333Y-96458714D01*
X32845333Y-95030142D01*
X32607238Y-95030142D01*
X30178666Y-86902761D02*
X30321523Y-86950380D01*
X30559619Y-86950380D01*
X30654857Y-86902761D01*
X30702476Y-86855142D01*
X30750095Y-86759904D01*
X30750095Y-86664666D01*
X30702476Y-86569428D01*
X30654857Y-86521809D01*
X30559619Y-86474190D01*
X30369142Y-86426571D01*
X30273904Y-86378952D01*
X30226285Y-86331333D01*
X30178666Y-86236095D01*
X30178666Y-86140857D01*
X30226285Y-86045619D01*
X30273904Y-85998000D01*
X30369142Y-85950380D01*
X30607238Y-85950380D01*
X30750095Y-85998000D01*
X31083428Y-85950380D02*
X31321523Y-86950380D01*
X31512000Y-86236095D01*
X31702476Y-86950380D01*
X31940571Y-85950380D01*
X32273904Y-86045619D02*
X32321523Y-85998000D01*
X32416761Y-85950380D01*
X32654857Y-85950380D01*
X32750095Y-85998000D01*
X32797714Y-86045619D01*
X32845333Y-86140857D01*
X32845333Y-86236095D01*
X32797714Y-86378952D01*
X32226285Y-86950380D01*
X32845333Y-86950380D01*
X30416761Y-88933714D02*
X30178666Y-88933714D01*
X30178666Y-87505142D01*
X30416761Y-87505142D01*
X30702476Y-87600380D02*
X31321523Y-87600380D01*
X30988190Y-87981333D01*
X31131047Y-87981333D01*
X31226285Y-88028952D01*
X31273904Y-88076571D01*
X31321523Y-88171809D01*
X31321523Y-88409904D01*
X31273904Y-88505142D01*
X31226285Y-88552761D01*
X31131047Y-88600380D01*
X30845333Y-88600380D01*
X30750095Y-88552761D01*
X30702476Y-88505142D01*
X32178666Y-87600380D02*
X31988190Y-87600380D01*
X31892952Y-87648000D01*
X31845333Y-87695619D01*
X31750095Y-87838476D01*
X31702476Y-88028952D01*
X31702476Y-88409904D01*
X31750095Y-88505142D01*
X31797714Y-88552761D01*
X31892952Y-88600380D01*
X32083428Y-88600380D01*
X32178666Y-88552761D01*
X32226285Y-88505142D01*
X32273904Y-88409904D01*
X32273904Y-88171809D01*
X32226285Y-88076571D01*
X32178666Y-88028952D01*
X32083428Y-87981333D01*
X31892952Y-87981333D01*
X31797714Y-88028952D01*
X31750095Y-88076571D01*
X31702476Y-88171809D01*
X32607238Y-88933714D02*
X32845333Y-88933714D01*
X32845333Y-87505142D01*
X32607238Y-87505142D01*
X30178666Y-79377761D02*
X30321523Y-79425380D01*
X30559619Y-79425380D01*
X30654857Y-79377761D01*
X30702476Y-79330142D01*
X30750095Y-79234904D01*
X30750095Y-79139666D01*
X30702476Y-79044428D01*
X30654857Y-78996809D01*
X30559619Y-78949190D01*
X30369142Y-78901571D01*
X30273904Y-78853952D01*
X30226285Y-78806333D01*
X30178666Y-78711095D01*
X30178666Y-78615857D01*
X30226285Y-78520619D01*
X30273904Y-78473000D01*
X30369142Y-78425380D01*
X30607238Y-78425380D01*
X30750095Y-78473000D01*
X31083428Y-78425380D02*
X31321523Y-79425380D01*
X31512000Y-78711095D01*
X31702476Y-79425380D01*
X31940571Y-78425380D01*
X32845333Y-79425380D02*
X32273904Y-79425380D01*
X32559619Y-79425380D02*
X32559619Y-78425380D01*
X32464380Y-78568238D01*
X32369142Y-78663476D01*
X32273904Y-78711095D01*
X30416761Y-81408714D02*
X30178666Y-81408714D01*
X30178666Y-79980142D01*
X30416761Y-79980142D01*
X30702476Y-80075380D02*
X31321523Y-80075380D01*
X30988190Y-80456333D01*
X31131047Y-80456333D01*
X31226285Y-80503952D01*
X31273904Y-80551571D01*
X31321523Y-80646809D01*
X31321523Y-80884904D01*
X31273904Y-80980142D01*
X31226285Y-81027761D01*
X31131047Y-81075380D01*
X30845333Y-81075380D01*
X30750095Y-81027761D01*
X30702476Y-80980142D01*
X32226285Y-80075380D02*
X31750095Y-80075380D01*
X31702476Y-80551571D01*
X31750095Y-80503952D01*
X31845333Y-80456333D01*
X32083428Y-80456333D01*
X32178666Y-80503952D01*
X32226285Y-80551571D01*
X32273904Y-80646809D01*
X32273904Y-80884904D01*
X32226285Y-80980142D01*
X32178666Y-81027761D01*
X32083428Y-81075380D01*
X31845333Y-81075380D01*
X31750095Y-81027761D01*
X31702476Y-80980142D01*
X32607238Y-81408714D02*
X32845333Y-81408714D01*
X32845333Y-79980142D01*
X32607238Y-79980142D01*
X29252000Y-91768000D02*
X29252000Y-98658000D01*
X29252000Y-84208000D02*
X29252000Y-91098000D01*
X29252000Y-76648000D02*
X29252000Y-83538000D01*
D13*
X100582000Y-72408000D02*
G75*
G03*
X100582000Y-72408000I-1200000J0D01*
G01*
X115312000Y-72408000D02*
G75*
G03*
X115312000Y-72408000I-1200000J0D01*
G01*
X141882000Y-121288000D02*
G75*
G03*
X141882000Y-121288000I-1200000J0D01*
G01*
X135822000Y-121288000D02*
G75*
G03*
X135822000Y-121288000I-1200000J0D01*
G01*
X145962000Y-103128000D02*
G75*
G03*
X145962000Y-103128000I-1200000J0D01*
G01*
X145962000Y-92528000D02*
G75*
G03*
X145962000Y-92528000I-1200000J0D01*
G01*
X122962000Y-87668000D02*
G75*
G03*
X122962000Y-87668000I-1750000J0D01*
G01*
X117727000Y-87668000D02*
G75*
G03*
X117727000Y-87668000I-1750000J0D01*
G01*
X112492000Y-87668000D02*
G75*
G03*
X112492000Y-87668000I-1750000J0D01*
G01*
X159330000Y-19030000D02*
X159330000Y-21230000D01*
X159330000Y-21230000D02*
X158110000Y-21230000D01*
X158110000Y-21230000D02*
X158110000Y-12810000D01*
X158110000Y-12810000D02*
X170830000Y-12810000D01*
X170830000Y-12810000D02*
X170830000Y-21230000D01*
X170830000Y-21230000D02*
X169610000Y-21230000D01*
X169610000Y-21230000D02*
X169610000Y-19030000D01*
X158110000Y-14030000D02*
X159330000Y-14030000D01*
X159330000Y-14030000D02*
X159330000Y-19030000D01*
X159330000Y-19030000D02*
X158110000Y-19030000D01*
X170830000Y-14030000D02*
X169610000Y-14030000D01*
X169610000Y-14030000D02*
X169610000Y-19030000D01*
X169610000Y-19030000D02*
X170830000Y-19030000D01*
X159330000Y-18030000D02*
X169610000Y-18030000D01*
X160720000Y-18030000D02*
X160400000Y-18030000D01*
X160400000Y-18030000D02*
X160400000Y-14610000D01*
X160400000Y-14610000D02*
X160720000Y-14530000D01*
X160720000Y-14530000D02*
X161040000Y-14610000D01*
X161040000Y-14610000D02*
X161040000Y-18030000D01*
X161040000Y-18030000D02*
X160720000Y-18030000D01*
X161890000Y-19030000D02*
X162050000Y-19030000D01*
X163220000Y-18030000D02*
X162900000Y-18030000D01*
X162900000Y-18030000D02*
X162900000Y-14610000D01*
X162900000Y-14610000D02*
X163220000Y-14530000D01*
X163220000Y-14530000D02*
X163540000Y-14610000D01*
X163540000Y-14610000D02*
X163540000Y-18030000D01*
X163540000Y-18030000D02*
X163220000Y-18030000D01*
X164390000Y-19030000D02*
X164550000Y-19030000D01*
X165720000Y-18030000D02*
X165400000Y-18030000D01*
X165400000Y-18030000D02*
X165400000Y-14610000D01*
X165400000Y-14610000D02*
X165720000Y-14530000D01*
X165720000Y-14530000D02*
X166040000Y-14610000D01*
X166040000Y-14610000D02*
X166040000Y-18030000D01*
X166040000Y-18030000D02*
X165720000Y-18030000D01*
X166890000Y-19030000D02*
X167050000Y-19030000D01*
X168220000Y-18030000D02*
X167900000Y-18030000D01*
X167900000Y-18030000D02*
X167900000Y-14610000D01*
X167900000Y-14610000D02*
X168220000Y-14530000D01*
X168220000Y-14530000D02*
X168540000Y-14610000D01*
X168540000Y-14610000D02*
X168540000Y-18030000D01*
X168540000Y-18030000D02*
X168220000Y-18030000D01*
X160720000Y-21120000D02*
X160420000Y-21720000D01*
X160420000Y-21720000D02*
X161020000Y-21720000D01*
X161020000Y-21720000D02*
X160720000Y-21120000D01*
X172930000Y-19030000D02*
X172930000Y-21230000D01*
X172930000Y-21230000D02*
X171710000Y-21230000D01*
X171710000Y-21230000D02*
X171710000Y-12810000D01*
X171710000Y-12810000D02*
X184430000Y-12810000D01*
X184430000Y-12810000D02*
X184430000Y-21230000D01*
X184430000Y-21230000D02*
X183210000Y-21230000D01*
X183210000Y-21230000D02*
X183210000Y-19030000D01*
X171710000Y-14030000D02*
X172930000Y-14030000D01*
X172930000Y-14030000D02*
X172930000Y-19030000D01*
X172930000Y-19030000D02*
X171710000Y-19030000D01*
X184430000Y-14030000D02*
X183210000Y-14030000D01*
X183210000Y-14030000D02*
X183210000Y-19030000D01*
X183210000Y-19030000D02*
X184430000Y-19030000D01*
X172930000Y-18030000D02*
X183210000Y-18030000D01*
X174320000Y-18030000D02*
X174000000Y-18030000D01*
X174000000Y-18030000D02*
X174000000Y-14610000D01*
X174000000Y-14610000D02*
X174320000Y-14530000D01*
X174320000Y-14530000D02*
X174640000Y-14610000D01*
X174640000Y-14610000D02*
X174640000Y-18030000D01*
X174640000Y-18030000D02*
X174320000Y-18030000D01*
X175490000Y-19030000D02*
X175650000Y-19030000D01*
X176820000Y-18030000D02*
X176500000Y-18030000D01*
X176500000Y-18030000D02*
X176500000Y-14610000D01*
X176500000Y-14610000D02*
X176820000Y-14530000D01*
X176820000Y-14530000D02*
X177140000Y-14610000D01*
X177140000Y-14610000D02*
X177140000Y-18030000D01*
X177140000Y-18030000D02*
X176820000Y-18030000D01*
X177990000Y-19030000D02*
X178150000Y-19030000D01*
X179320000Y-18030000D02*
X179000000Y-18030000D01*
X179000000Y-18030000D02*
X179000000Y-14610000D01*
X179000000Y-14610000D02*
X179320000Y-14530000D01*
X179320000Y-14530000D02*
X179640000Y-14610000D01*
X179640000Y-14610000D02*
X179640000Y-18030000D01*
X179640000Y-18030000D02*
X179320000Y-18030000D01*
X180490000Y-19030000D02*
X180650000Y-19030000D01*
X181820000Y-18030000D02*
X181500000Y-18030000D01*
X181500000Y-18030000D02*
X181500000Y-14610000D01*
X181500000Y-14610000D02*
X181820000Y-14530000D01*
X181820000Y-14530000D02*
X182140000Y-14610000D01*
X182140000Y-14610000D02*
X182140000Y-18030000D01*
X182140000Y-18030000D02*
X181820000Y-18030000D01*
X174320000Y-21120000D02*
X174020000Y-21720000D01*
X174020000Y-21720000D02*
X174620000Y-21720000D01*
X174620000Y-21720000D02*
X174320000Y-21120000D01*
X133820000Y-21720000D02*
X133520000Y-21120000D01*
X133220000Y-21720000D02*
X133820000Y-21720000D01*
X133520000Y-21120000D02*
X133220000Y-21720000D01*
X141340000Y-18030000D02*
X141020000Y-18030000D01*
X141340000Y-14610000D02*
X141340000Y-18030000D01*
X141020000Y-14530000D02*
X141340000Y-14610000D01*
X140700000Y-14610000D02*
X141020000Y-14530000D01*
X140700000Y-18030000D02*
X140700000Y-14610000D01*
X141020000Y-18030000D02*
X140700000Y-18030000D01*
X139690000Y-19030000D02*
X139850000Y-19030000D01*
X138840000Y-18030000D02*
X138520000Y-18030000D01*
X138840000Y-14610000D02*
X138840000Y-18030000D01*
X138520000Y-14530000D02*
X138840000Y-14610000D01*
X138200000Y-14610000D02*
X138520000Y-14530000D01*
X138200000Y-18030000D02*
X138200000Y-14610000D01*
X138520000Y-18030000D02*
X138200000Y-18030000D01*
X137190000Y-19030000D02*
X137350000Y-19030000D01*
X136340000Y-18030000D02*
X136020000Y-18030000D01*
X136340000Y-14610000D02*
X136340000Y-18030000D01*
X136020000Y-14530000D02*
X136340000Y-14610000D01*
X135700000Y-14610000D02*
X136020000Y-14530000D01*
X135700000Y-18030000D02*
X135700000Y-14610000D01*
X136020000Y-18030000D02*
X135700000Y-18030000D01*
X134690000Y-19030000D02*
X134850000Y-19030000D01*
X133840000Y-18030000D02*
X133520000Y-18030000D01*
X133840000Y-14610000D02*
X133840000Y-18030000D01*
X133520000Y-14530000D02*
X133840000Y-14610000D01*
X133200000Y-14610000D02*
X133520000Y-14530000D01*
X133200000Y-18030000D02*
X133200000Y-14610000D01*
X133520000Y-18030000D02*
X133200000Y-18030000D01*
X132130000Y-18030000D02*
X142410000Y-18030000D01*
X142410000Y-19030000D02*
X143630000Y-19030000D01*
X142410000Y-14030000D02*
X142410000Y-19030000D01*
X143630000Y-14030000D02*
X142410000Y-14030000D01*
X132130000Y-19030000D02*
X130910000Y-19030000D01*
X132130000Y-14030000D02*
X132130000Y-19030000D01*
X130910000Y-14030000D02*
X132130000Y-14030000D01*
X142410000Y-21230000D02*
X142410000Y-19030000D01*
X143630000Y-21230000D02*
X142410000Y-21230000D01*
X143630000Y-12810000D02*
X143630000Y-21230000D01*
X130910000Y-12810000D02*
X143630000Y-12810000D01*
X130910000Y-21230000D02*
X130910000Y-12810000D01*
X132130000Y-21230000D02*
X130910000Y-21230000D01*
X132130000Y-19030000D02*
X132130000Y-21230000D01*
X59430000Y-19030000D02*
X59430000Y-21230000D01*
X59430000Y-21230000D02*
X58210000Y-21230000D01*
X58210000Y-21230000D02*
X58210000Y-12810000D01*
X58210000Y-12810000D02*
X70930000Y-12810000D01*
X70930000Y-12810000D02*
X70930000Y-21230000D01*
X70930000Y-21230000D02*
X69710000Y-21230000D01*
X69710000Y-21230000D02*
X69710000Y-19030000D01*
X58210000Y-14030000D02*
X59430000Y-14030000D01*
X59430000Y-14030000D02*
X59430000Y-19030000D01*
X59430000Y-19030000D02*
X58210000Y-19030000D01*
X70930000Y-14030000D02*
X69710000Y-14030000D01*
X69710000Y-14030000D02*
X69710000Y-19030000D01*
X69710000Y-19030000D02*
X70930000Y-19030000D01*
X59430000Y-18030000D02*
X69710000Y-18030000D01*
X60820000Y-18030000D02*
X60500000Y-18030000D01*
X60500000Y-18030000D02*
X60500000Y-14610000D01*
X60500000Y-14610000D02*
X60820000Y-14530000D01*
X60820000Y-14530000D02*
X61140000Y-14610000D01*
X61140000Y-14610000D02*
X61140000Y-18030000D01*
X61140000Y-18030000D02*
X60820000Y-18030000D01*
X61990000Y-19030000D02*
X62150000Y-19030000D01*
X63320000Y-18030000D02*
X63000000Y-18030000D01*
X63000000Y-18030000D02*
X63000000Y-14610000D01*
X63000000Y-14610000D02*
X63320000Y-14530000D01*
X63320000Y-14530000D02*
X63640000Y-14610000D01*
X63640000Y-14610000D02*
X63640000Y-18030000D01*
X63640000Y-18030000D02*
X63320000Y-18030000D01*
X64490000Y-19030000D02*
X64650000Y-19030000D01*
X65820000Y-18030000D02*
X65500000Y-18030000D01*
X65500000Y-18030000D02*
X65500000Y-14610000D01*
X65500000Y-14610000D02*
X65820000Y-14530000D01*
X65820000Y-14530000D02*
X66140000Y-14610000D01*
X66140000Y-14610000D02*
X66140000Y-18030000D01*
X66140000Y-18030000D02*
X65820000Y-18030000D01*
X66990000Y-19030000D02*
X67150000Y-19030000D01*
X68320000Y-18030000D02*
X68000000Y-18030000D01*
X68000000Y-18030000D02*
X68000000Y-14610000D01*
X68000000Y-14610000D02*
X68320000Y-14530000D01*
X68320000Y-14530000D02*
X68640000Y-14610000D01*
X68640000Y-14610000D02*
X68640000Y-18030000D01*
X68640000Y-18030000D02*
X68320000Y-18030000D01*
X60820000Y-21120000D02*
X60520000Y-21720000D01*
X60520000Y-21720000D02*
X61120000Y-21720000D01*
X61120000Y-21720000D02*
X60820000Y-21120000D01*
X147420000Y-21720000D02*
X147120000Y-21120000D01*
X146820000Y-21720000D02*
X147420000Y-21720000D01*
X147120000Y-21120000D02*
X146820000Y-21720000D01*
X154940000Y-18030000D02*
X154620000Y-18030000D01*
X154940000Y-14610000D02*
X154940000Y-18030000D01*
X154620000Y-14530000D02*
X154940000Y-14610000D01*
X154300000Y-14610000D02*
X154620000Y-14530000D01*
X154300000Y-18030000D02*
X154300000Y-14610000D01*
X154620000Y-18030000D02*
X154300000Y-18030000D01*
X153290000Y-19030000D02*
X153450000Y-19030000D01*
X152440000Y-18030000D02*
X152120000Y-18030000D01*
X152440000Y-14610000D02*
X152440000Y-18030000D01*
X152120000Y-14530000D02*
X152440000Y-14610000D01*
X151800000Y-14610000D02*
X152120000Y-14530000D01*
X151800000Y-18030000D02*
X151800000Y-14610000D01*
X152120000Y-18030000D02*
X151800000Y-18030000D01*
X150790000Y-19030000D02*
X150950000Y-19030000D01*
X149940000Y-18030000D02*
X149620000Y-18030000D01*
X149940000Y-14610000D02*
X149940000Y-18030000D01*
X149620000Y-14530000D02*
X149940000Y-14610000D01*
X149300000Y-14610000D02*
X149620000Y-14530000D01*
X149300000Y-18030000D02*
X149300000Y-14610000D01*
X149620000Y-18030000D02*
X149300000Y-18030000D01*
X148290000Y-19030000D02*
X148450000Y-19030000D01*
X147440000Y-18030000D02*
X147120000Y-18030000D01*
X147440000Y-14610000D02*
X147440000Y-18030000D01*
X147120000Y-14530000D02*
X147440000Y-14610000D01*
X146800000Y-14610000D02*
X147120000Y-14530000D01*
X146800000Y-18030000D02*
X146800000Y-14610000D01*
X147120000Y-18030000D02*
X146800000Y-18030000D01*
X145730000Y-18030000D02*
X156010000Y-18030000D01*
X156010000Y-19030000D02*
X157230000Y-19030000D01*
X156010000Y-14030000D02*
X156010000Y-19030000D01*
X157230000Y-14030000D02*
X156010000Y-14030000D01*
X145730000Y-19030000D02*
X144510000Y-19030000D01*
X145730000Y-14030000D02*
X145730000Y-19030000D01*
X144510000Y-14030000D02*
X145730000Y-14030000D01*
X156010000Y-21230000D02*
X156010000Y-19030000D01*
X157230000Y-21230000D02*
X156010000Y-21230000D01*
X157230000Y-12810000D02*
X157230000Y-21230000D01*
X144510000Y-12810000D02*
X157230000Y-12810000D01*
X144510000Y-21230000D02*
X144510000Y-12810000D01*
X145730000Y-21230000D02*
X144510000Y-21230000D01*
X145730000Y-19030000D02*
X145730000Y-21230000D01*
X144522000Y-37938000D02*
X123942000Y-37938000D01*
X141852000Y-27778000D02*
X123942000Y-27778000D01*
X144522000Y-26508000D02*
X144522000Y-25108000D01*
X144522000Y-25108000D02*
X143122000Y-25108000D01*
X144522000Y-27778000D02*
X141852000Y-27778000D01*
X141852000Y-27778000D02*
X141852000Y-25108000D01*
X141852000Y-25108000D02*
X123942000Y-25108000D01*
X123942000Y-25108000D02*
X123942000Y-40608000D01*
X123942000Y-40608000D02*
X144522000Y-40608000D01*
X144522000Y-40608000D02*
X144522000Y-27778000D01*
X167022000Y-37938000D02*
X146442000Y-37938000D01*
X164352000Y-27778000D02*
X146442000Y-27778000D01*
X167022000Y-26508000D02*
X167022000Y-25108000D01*
X167022000Y-25108000D02*
X165622000Y-25108000D01*
X167022000Y-27778000D02*
X164352000Y-27778000D01*
X164352000Y-27778000D02*
X164352000Y-25108000D01*
X164352000Y-25108000D02*
X146442000Y-25108000D01*
X146442000Y-25108000D02*
X146442000Y-40608000D01*
X146442000Y-40608000D02*
X167022000Y-40608000D01*
X167022000Y-40608000D02*
X167022000Y-27778000D01*
X164597000Y-95383000D02*
X177427000Y-95383000D01*
X164597000Y-74803000D02*
X164597000Y-95383000D01*
X180097000Y-74803000D02*
X164597000Y-74803000D01*
X180097000Y-92713000D02*
X180097000Y-74803000D01*
X177427000Y-92713000D02*
X180097000Y-92713000D01*
X177427000Y-95383000D02*
X177427000Y-92713000D01*
X180097000Y-95383000D02*
X180097000Y-93983000D01*
X178697000Y-95383000D02*
X180097000Y-95383000D01*
X177427000Y-92713000D02*
X177427000Y-74803000D01*
X167267000Y-95383000D02*
X167267000Y-74803000D01*
X164597000Y-116633000D02*
X177427000Y-116633000D01*
X164597000Y-96053000D02*
X164597000Y-116633000D01*
X180097000Y-96053000D02*
X164597000Y-96053000D01*
X180097000Y-113963000D02*
X180097000Y-96053000D01*
X177427000Y-113963000D02*
X180097000Y-113963000D01*
X177427000Y-116633000D02*
X177427000Y-113963000D01*
X180097000Y-116633000D02*
X180097000Y-115233000D01*
X178697000Y-116633000D02*
X180097000Y-116633000D01*
X177427000Y-113963000D02*
X177427000Y-96053000D01*
X167267000Y-116633000D02*
X167267000Y-96053000D01*
X147603250Y-30441750D02*
X147603250Y-31229250D01*
X147209500Y-30835500D02*
X147997000Y-30835500D01*
X148237000Y-35028563D02*
X149301437Y-36093000D01*
X148237000Y-30337437D02*
X149301437Y-29273000D01*
X148237000Y-30337437D02*
X148237000Y-31623000D01*
X148237000Y-35028563D02*
X148237000Y-33743000D01*
X149301437Y-36093000D02*
X155057000Y-36093000D01*
X149301437Y-29273000D02*
X155057000Y-29273000D01*
X155057000Y-29273000D02*
X155057000Y-31623000D01*
X155057000Y-36093000D02*
X155057000Y-33743000D01*
X132407000Y-36093000D02*
X132407000Y-33743000D01*
X132407000Y-29273000D02*
X132407000Y-31623000D01*
X126651437Y-29273000D02*
X132407000Y-29273000D01*
X126651437Y-36093000D02*
X132407000Y-36093000D01*
X125587000Y-35028563D02*
X125587000Y-33743000D01*
X125587000Y-30337437D02*
X125587000Y-31623000D01*
X125587000Y-30337437D02*
X126651437Y-29273000D01*
X125587000Y-35028563D02*
X126651437Y-36093000D01*
X124559500Y-30835500D02*
X125347000Y-30835500D01*
X124953250Y-30441750D02*
X124953250Y-31229250D01*
X168612000Y-82948000D02*
X170962000Y-82948000D01*
X175432000Y-82948000D02*
X173082000Y-82948000D01*
X175432000Y-77192437D02*
X175432000Y-82948000D01*
X168612000Y-77192437D02*
X168612000Y-82948000D01*
X169676437Y-76128000D02*
X170962000Y-76128000D01*
X174367563Y-76128000D02*
X173082000Y-76128000D01*
X174367563Y-76128000D02*
X175432000Y-77192437D01*
X169676437Y-76128000D02*
X168612000Y-77192437D01*
X173869500Y-75100500D02*
X173869500Y-75888000D01*
X174263250Y-75494250D02*
X173475750Y-75494250D01*
X170090750Y-105021750D02*
X170878250Y-105021750D01*
X170484500Y-105415500D02*
X170484500Y-104628000D01*
X174677563Y-104388000D02*
X175742000Y-103323563D01*
X169986437Y-104388000D02*
X168922000Y-103323563D01*
X169986437Y-104388000D02*
X171272000Y-104388000D01*
X174677563Y-104388000D02*
X173392000Y-104388000D01*
X175742000Y-103323563D02*
X175742000Y-97568000D01*
X168922000Y-103323563D02*
X168922000Y-97568000D01*
X168922000Y-97568000D02*
X171272000Y-97568000D01*
X175742000Y-97568000D02*
X173392000Y-97568000D01*
X103172000Y-121518000D02*
X103172000Y-121018000D01*
X103422000Y-121268000D02*
X102922000Y-121268000D01*
X102682000Y-118512437D02*
X101617563Y-117448000D01*
X102682000Y-120903563D02*
X101617563Y-121968000D01*
X102682000Y-120903563D02*
X102682000Y-120768000D01*
X102682000Y-118512437D02*
X102682000Y-118648000D01*
X101617563Y-117448000D02*
X98162000Y-117448000D01*
X101617563Y-121968000D02*
X98162000Y-121968000D01*
X98162000Y-121968000D02*
X98162000Y-120768000D01*
X98162000Y-117448000D02*
X98162000Y-118648000D01*
X98162000Y-112473000D02*
X98162000Y-113673000D01*
X98162000Y-116993000D02*
X98162000Y-115793000D01*
X101617563Y-116993000D02*
X98162000Y-116993000D01*
X101617563Y-112473000D02*
X98162000Y-112473000D01*
X102682000Y-113537437D02*
X102682000Y-113673000D01*
X102682000Y-115928563D02*
X102682000Y-115793000D01*
X102682000Y-115928563D02*
X101617563Y-116993000D01*
X102682000Y-113537437D02*
X101617563Y-112473000D01*
X103422000Y-116293000D02*
X102922000Y-116293000D01*
X103172000Y-116543000D02*
X103172000Y-116043000D01*
X103147000Y-111568000D02*
X103147000Y-111068000D01*
X103397000Y-111318000D02*
X102897000Y-111318000D01*
X102657000Y-108562437D02*
X101592563Y-107498000D01*
X102657000Y-110953563D02*
X101592563Y-112018000D01*
X102657000Y-110953563D02*
X102657000Y-110818000D01*
X102657000Y-108562437D02*
X102657000Y-108698000D01*
X101592563Y-107498000D02*
X98137000Y-107498000D01*
X101592563Y-112018000D02*
X98137000Y-112018000D01*
X98137000Y-112018000D02*
X98137000Y-110818000D01*
X98137000Y-107498000D02*
X98137000Y-108698000D01*
X100158252Y-106993000D02*
X99635748Y-106993000D01*
X100158252Y-105523000D02*
X99635748Y-105523000D01*
X105590750Y-103824250D02*
X105590750Y-103036750D01*
X105984500Y-103430500D02*
X105197000Y-103430500D01*
X104957000Y-99237437D02*
X103892563Y-98173000D01*
X104957000Y-103928563D02*
X103892563Y-104993000D01*
X104957000Y-103928563D02*
X104957000Y-102643000D01*
X104957000Y-99237437D02*
X104957000Y-100523000D01*
X103892563Y-98173000D02*
X98137000Y-98173000D01*
X103892563Y-104993000D02*
X98137000Y-104993000D01*
X98137000Y-104993000D02*
X98137000Y-102643000D01*
X98137000Y-98173000D02*
X98137000Y-100523000D01*
X98112000Y-90923000D02*
X98112000Y-93273000D01*
X98112000Y-97743000D02*
X98112000Y-95393000D01*
X103867563Y-97743000D02*
X98112000Y-97743000D01*
X103867563Y-90923000D02*
X98112000Y-90923000D01*
X104932000Y-91987437D02*
X104932000Y-93273000D01*
X104932000Y-96678563D02*
X104932000Y-95393000D01*
X104932000Y-96678563D02*
X103867563Y-97743000D01*
X104932000Y-91987437D02*
X103867563Y-90923000D01*
X105959500Y-96180500D02*
X105172000Y-96180500D01*
X105565750Y-96574250D02*
X105565750Y-95786750D01*
X123697000Y-104708000D02*
X123697000Y-115908000D01*
X117197000Y-104708000D02*
X117197000Y-115908000D01*
X117197000Y-104708000D02*
X123697000Y-104708000D01*
X24972000Y-120983000D02*
X23952000Y-120983000D01*
X24972000Y-115783000D02*
X23952000Y-115783000D01*
X27512000Y-120983000D02*
X26492000Y-120983000D01*
X27512000Y-115783000D02*
X26492000Y-115783000D01*
X30052000Y-120983000D02*
X29032000Y-120983000D01*
X30052000Y-115783000D02*
X29032000Y-115783000D01*
X32592000Y-120983000D02*
X31572000Y-120983000D01*
X32592000Y-115783000D02*
X31572000Y-115783000D01*
X35132000Y-120983000D02*
X34112000Y-120983000D01*
X35132000Y-115783000D02*
X34112000Y-115783000D01*
X37672000Y-120983000D02*
X36652000Y-120983000D01*
X37672000Y-115783000D02*
X36652000Y-115783000D01*
X40212000Y-120983000D02*
X39192000Y-120983000D01*
X40212000Y-115783000D02*
X39192000Y-115783000D01*
X42752000Y-120983000D02*
X41732000Y-120983000D01*
X42752000Y-115783000D02*
X41732000Y-115783000D01*
X45292000Y-120983000D02*
X44272000Y-120983000D01*
X45292000Y-115783000D02*
X44272000Y-115783000D01*
X47832000Y-120983000D02*
X46812000Y-120983000D01*
X47832000Y-115783000D02*
X46812000Y-115783000D01*
X50372000Y-120983000D02*
X49352000Y-120983000D01*
X50372000Y-115783000D02*
X49352000Y-115783000D01*
X52912000Y-120983000D02*
X51892000Y-120983000D01*
X52912000Y-115783000D02*
X51892000Y-115783000D01*
X55452000Y-120983000D02*
X54432000Y-120983000D01*
X55452000Y-115783000D02*
X54432000Y-115783000D01*
X57992000Y-120983000D02*
X56972000Y-120983000D01*
X57992000Y-115783000D02*
X56972000Y-115783000D01*
X60532000Y-120983000D02*
X59512000Y-120983000D01*
X60532000Y-115783000D02*
X59512000Y-115783000D01*
X63072000Y-120983000D02*
X62052000Y-120983000D01*
X63072000Y-115783000D02*
X62052000Y-115783000D01*
X65612000Y-120983000D02*
X64592000Y-120983000D01*
X65612000Y-115783000D02*
X64592000Y-115783000D01*
X68152000Y-120983000D02*
X67132000Y-120983000D01*
X68152000Y-115783000D02*
X67132000Y-115783000D01*
X70692000Y-120983000D02*
X69672000Y-120983000D01*
X70692000Y-115783000D02*
X69672000Y-115783000D01*
X22432000Y-120983000D02*
X21862000Y-120983000D01*
X22432000Y-115783000D02*
X21862000Y-115783000D01*
X72782000Y-120983000D02*
X72212000Y-120983000D01*
X72782000Y-115783000D02*
X72212000Y-115783000D01*
X72212000Y-114343000D02*
X72212000Y-115783000D01*
X21862000Y-115783000D02*
X21862000Y-120983000D01*
X72782000Y-115783000D02*
X72782000Y-120983000D01*
X72782000Y-103258000D02*
X72782000Y-108458000D01*
X21862000Y-103258000D02*
X21862000Y-108458000D01*
X72212000Y-101818000D02*
X72212000Y-103258000D01*
X72782000Y-103258000D02*
X72212000Y-103258000D01*
X72782000Y-108458000D02*
X72212000Y-108458000D01*
X22432000Y-103258000D02*
X21862000Y-103258000D01*
X22432000Y-108458000D02*
X21862000Y-108458000D01*
X70692000Y-103258000D02*
X69672000Y-103258000D01*
X70692000Y-108458000D02*
X69672000Y-108458000D01*
X68152000Y-103258000D02*
X67132000Y-103258000D01*
X68152000Y-108458000D02*
X67132000Y-108458000D01*
X65612000Y-103258000D02*
X64592000Y-103258000D01*
X65612000Y-108458000D02*
X64592000Y-108458000D01*
X63072000Y-103258000D02*
X62052000Y-103258000D01*
X63072000Y-108458000D02*
X62052000Y-108458000D01*
X60532000Y-103258000D02*
X59512000Y-103258000D01*
X60532000Y-108458000D02*
X59512000Y-108458000D01*
X57992000Y-103258000D02*
X56972000Y-103258000D01*
X57992000Y-108458000D02*
X56972000Y-108458000D01*
X55452000Y-103258000D02*
X54432000Y-103258000D01*
X55452000Y-108458000D02*
X54432000Y-108458000D01*
X52912000Y-103258000D02*
X51892000Y-103258000D01*
X52912000Y-108458000D02*
X51892000Y-108458000D01*
X50372000Y-103258000D02*
X49352000Y-103258000D01*
X50372000Y-108458000D02*
X49352000Y-108458000D01*
X47832000Y-103258000D02*
X46812000Y-103258000D01*
X47832000Y-108458000D02*
X46812000Y-108458000D01*
X45292000Y-103258000D02*
X44272000Y-103258000D01*
X45292000Y-108458000D02*
X44272000Y-108458000D01*
X42752000Y-103258000D02*
X41732000Y-103258000D01*
X42752000Y-108458000D02*
X41732000Y-108458000D01*
X40212000Y-103258000D02*
X39192000Y-103258000D01*
X40212000Y-108458000D02*
X39192000Y-108458000D01*
X37672000Y-103258000D02*
X36652000Y-103258000D01*
X37672000Y-108458000D02*
X36652000Y-108458000D01*
X35132000Y-103258000D02*
X34112000Y-103258000D01*
X35132000Y-108458000D02*
X34112000Y-108458000D01*
X32592000Y-103258000D02*
X31572000Y-103258000D01*
X32592000Y-108458000D02*
X31572000Y-108458000D01*
X30052000Y-103258000D02*
X29032000Y-103258000D01*
X30052000Y-108458000D02*
X29032000Y-108458000D01*
X27512000Y-103258000D02*
X26492000Y-103258000D01*
X27512000Y-108458000D02*
X26492000Y-108458000D01*
X24972000Y-103258000D02*
X23952000Y-103258000D01*
X24972000Y-108458000D02*
X23952000Y-108458000D01*
X89862000Y-51978000D02*
X29152000Y-51978000D01*
X89862000Y-51978000D02*
X89862000Y-45628000D01*
X29152000Y-45628000D02*
X29152000Y-51978000D01*
X29152000Y-45628000D02*
X89862000Y-45628000D01*
X23232000Y-67188000D02*
X83942000Y-67188000D01*
X23232000Y-67188000D02*
X23232000Y-73538000D01*
X83942000Y-73538000D02*
X83942000Y-67188000D01*
X83942000Y-73538000D02*
X23232000Y-73538000D01*
X126132000Y-45628000D02*
X186842000Y-45628000D01*
X126132000Y-45628000D02*
X126132000Y-51978000D01*
X186842000Y-51978000D02*
X186842000Y-45628000D01*
X186842000Y-51978000D02*
X126132000Y-51978000D01*
X120232000Y-67188000D02*
X180942000Y-67188000D01*
X120232000Y-67188000D02*
X120232000Y-73538000D01*
X180942000Y-73538000D02*
X180942000Y-67188000D01*
X180942000Y-73538000D02*
X120232000Y-73538000D01*
X186872000Y-140458000D02*
X126162000Y-140458000D01*
X186872000Y-140458000D02*
X186872000Y-134108000D01*
X126162000Y-134108000D02*
X126162000Y-140458000D01*
X126162000Y-134108000D02*
X186872000Y-134108000D01*
X180942000Y-162038000D02*
X120232000Y-162038000D01*
X180942000Y-162038000D02*
X180942000Y-155688000D01*
X120232000Y-155688000D02*
X120232000Y-162038000D01*
X120232000Y-155688000D02*
X180942000Y-155688000D01*
X20392000Y-134128000D02*
X81102000Y-134128000D01*
X20392000Y-134128000D02*
X20392000Y-140478000D01*
X81102000Y-140478000D02*
X81102000Y-134128000D01*
X81102000Y-140478000D02*
X20392000Y-140478000D01*
X182662000Y-116968000D02*
X182062000Y-116968000D01*
X182662000Y-118568000D02*
X182662000Y-116968000D01*
X182062000Y-118568000D02*
X182662000Y-118568000D01*
X182662000Y-119508000D02*
X182062000Y-119508000D01*
X182662000Y-121108000D02*
X182662000Y-119508000D01*
X182062000Y-121108000D02*
X182662000Y-121108000D01*
X182662000Y-122048000D02*
X182062000Y-122048000D01*
X182662000Y-123648000D02*
X182662000Y-122048000D01*
X182062000Y-123648000D02*
X182662000Y-123648000D01*
X188082000Y-118018000D02*
X187082000Y-118018000D01*
X188082000Y-122598000D02*
X187082000Y-122598000D01*
X186552000Y-118018000D02*
X187082000Y-117768000D01*
X186552000Y-122598000D02*
X186552000Y-118018000D01*
X187082000Y-122848000D02*
X186552000Y-122598000D01*
X187082000Y-117768000D02*
X188082000Y-117768000D01*
X187082000Y-122848000D02*
X187082000Y-117768000D01*
X188082000Y-122848000D02*
X187082000Y-122848000D01*
X183092000Y-124518000D02*
X187092000Y-124518000D01*
X182062000Y-116388000D02*
X182062000Y-124228000D01*
X188082000Y-116388000D02*
X182062000Y-116388000D01*
X188082000Y-124228000D02*
X188082000Y-116388000D01*
X182062000Y-124228000D02*
X188082000Y-124228000D01*
X182022000Y-133048000D02*
X188042000Y-133048000D01*
X188042000Y-133048000D02*
X188042000Y-125208000D01*
X188042000Y-125208000D02*
X182022000Y-125208000D01*
X182022000Y-125208000D02*
X182022000Y-133048000D01*
X183052000Y-133338000D02*
X187052000Y-133338000D01*
X188042000Y-131668000D02*
X187042000Y-131668000D01*
X187042000Y-131668000D02*
X187042000Y-126588000D01*
X187042000Y-126588000D02*
X188042000Y-126588000D01*
X187042000Y-131668000D02*
X186512000Y-131418000D01*
X186512000Y-131418000D02*
X186512000Y-126838000D01*
X186512000Y-126838000D02*
X187042000Y-126588000D01*
X188042000Y-131418000D02*
X187042000Y-131418000D01*
X188042000Y-126838000D02*
X187042000Y-126838000D01*
X182022000Y-132468000D02*
X182622000Y-132468000D01*
X182622000Y-132468000D02*
X182622000Y-130868000D01*
X182622000Y-130868000D02*
X182022000Y-130868000D01*
X182022000Y-129928000D02*
X182622000Y-129928000D01*
X182622000Y-129928000D02*
X182622000Y-128328000D01*
X182622000Y-128328000D02*
X182022000Y-128328000D01*
X182022000Y-127388000D02*
X182622000Y-127388000D01*
X182622000Y-127388000D02*
X182622000Y-125788000D01*
X182622000Y-125788000D02*
X182022000Y-125788000D01*
X94887000Y-132348000D02*
X97297000Y-132348000D01*
X94887000Y-134758000D02*
X94887000Y-132348000D01*
X104197000Y-134258000D02*
X95797000Y-134258000D01*
X104197000Y-140758000D02*
X104197000Y-134258000D01*
X101597000Y-140758000D02*
X104197000Y-140758000D01*
X101597000Y-139758000D02*
X101597000Y-140758000D01*
X100697000Y-139758000D02*
X101597000Y-139758000D01*
X100697000Y-140758000D02*
X100697000Y-139758000D01*
X98097000Y-140758000D02*
X100697000Y-140758000D01*
X98097000Y-139758000D02*
X98097000Y-140758000D01*
X95797000Y-139758000D02*
X98097000Y-139758000D01*
X95797000Y-134258000D02*
X95797000Y-139758000D01*
X104807000Y-132648000D02*
X95187000Y-132648000D01*
X104807000Y-141368000D02*
X104807000Y-132648000D01*
X95187000Y-141368000D02*
X104807000Y-141368000D01*
X95187000Y-132648000D02*
X95187000Y-141368000D01*
X122497000Y-91258000D02*
X122497000Y-94858000D01*
X109497000Y-91258000D02*
X122497000Y-91258000D01*
X109497000Y-94858000D02*
X109497000Y-91258000D01*
X122497000Y-104258000D02*
X122497000Y-100658000D01*
X109497000Y-104258000D02*
X122497000Y-104258000D01*
X109497000Y-100658000D02*
X109497000Y-104258000D01*
X104642000Y-66048000D02*
X105952000Y-66048000D01*
X105952000Y-66048000D02*
X105952000Y-68768000D01*
X101462000Y-69908000D02*
X101462000Y-68768000D01*
X101232000Y-66048000D02*
X102542000Y-66048000D01*
X101232000Y-68768000D02*
X101232000Y-66048000D01*
X101232000Y-68768000D02*
X101462000Y-68768000D01*
X105952000Y-68768000D02*
X105722000Y-68768000D01*
X111332000Y-68768000D02*
X111102000Y-68768000D01*
X106612000Y-68768000D02*
X106842000Y-68768000D01*
X106612000Y-68768000D02*
X106612000Y-66048000D01*
X106612000Y-66048000D02*
X107922000Y-66048000D01*
X106842000Y-69908000D02*
X106842000Y-68768000D01*
X111332000Y-66048000D02*
X111332000Y-68768000D01*
X110022000Y-66048000D02*
X111332000Y-66048000D01*
X132232000Y-127758000D02*
X132462000Y-127758000D01*
X136952000Y-127758000D02*
X136722000Y-127758000D01*
X136952000Y-127758000D02*
X136952000Y-130478000D01*
X136952000Y-130478000D02*
X135642000Y-130478000D01*
X136722000Y-126618000D02*
X136722000Y-127758000D01*
X132232000Y-130478000D02*
X132232000Y-127758000D01*
X133542000Y-130478000D02*
X132232000Y-130478000D01*
X139592000Y-130498000D02*
X138282000Y-130498000D01*
X138282000Y-130498000D02*
X138282000Y-127778000D01*
X142772000Y-126638000D02*
X142772000Y-127778000D01*
X143002000Y-130498000D02*
X141692000Y-130498000D01*
X143002000Y-127778000D02*
X143002000Y-130498000D01*
X143002000Y-127778000D02*
X142772000Y-127778000D01*
X138282000Y-127778000D02*
X138512000Y-127778000D01*
X148452000Y-101578000D02*
X148452000Y-101348000D01*
X148452000Y-96858000D02*
X148452000Y-97088000D01*
X148452000Y-96858000D02*
X151172000Y-96858000D01*
X151172000Y-96858000D02*
X151172000Y-98168000D01*
X147312000Y-97088000D02*
X148452000Y-97088000D01*
X151172000Y-101578000D02*
X148452000Y-101578000D01*
X151172000Y-100268000D02*
X151172000Y-101578000D01*
X151212000Y-89698000D02*
X151212000Y-91008000D01*
X151212000Y-91008000D02*
X148492000Y-91008000D01*
X147352000Y-86518000D02*
X148492000Y-86518000D01*
X151212000Y-86288000D02*
X151212000Y-87598000D01*
X148492000Y-86288000D02*
X151212000Y-86288000D01*
X148492000Y-86288000D02*
X148492000Y-86518000D01*
X148492000Y-91008000D02*
X148492000Y-90778000D01*
X103819064Y-73143000D02*
X103364936Y-73143000D01*
X103819064Y-71673000D02*
X103364936Y-71673000D01*
X109199064Y-71673000D02*
X108744936Y-71673000D01*
X109199064Y-73143000D02*
X108744936Y-73143000D01*
X134394936Y-124693000D02*
X134849064Y-124693000D01*
X134394936Y-123223000D02*
X134849064Y-123223000D01*
X140414936Y-123243000D02*
X140869064Y-123243000D01*
X140414936Y-124713000D02*
X140869064Y-124713000D01*
X145427000Y-99445064D02*
X145427000Y-98990936D01*
X143957000Y-99445064D02*
X143957000Y-98990936D01*
X144007000Y-88875064D02*
X144007000Y-88420936D01*
X145477000Y-88875064D02*
X145477000Y-88420936D01*
X107923000Y-128550936D02*
X107923000Y-129005064D01*
X106453000Y-128550936D02*
X106453000Y-129005064D01*
X106612000Y-109983000D02*
X106612000Y-108883000D01*
X105922000Y-109983000D02*
X106612000Y-109983000D01*
X105922000Y-111483000D02*
X105922000Y-109983000D01*
X115632000Y-109983000D02*
X115632000Y-104858000D01*
X116322000Y-109983000D02*
X115632000Y-109983000D01*
X116322000Y-111483000D02*
X116322000Y-109983000D01*
X26027000Y-81653000D02*
X23167000Y-81653000D01*
X26027000Y-83573000D02*
X26027000Y-81653000D01*
X23167000Y-83573000D02*
X26027000Y-83573000D01*
X26072000Y-89053000D02*
X23212000Y-89053000D01*
X26072000Y-90973000D02*
X26072000Y-89053000D01*
X23212000Y-90973000D02*
X26072000Y-90973000D01*
X23212000Y-98468000D02*
X26072000Y-98468000D01*
X26072000Y-98468000D02*
X26072000Y-96548000D01*
X26072000Y-96548000D02*
X23212000Y-96548000D01*
X18632000Y-19030000D02*
X18632000Y-21230000D01*
X18632000Y-21230000D02*
X17412000Y-21230000D01*
X17412000Y-21230000D02*
X17412000Y-12810000D01*
X17412000Y-12810000D02*
X30132000Y-12810000D01*
X30132000Y-12810000D02*
X30132000Y-21230000D01*
X30132000Y-21230000D02*
X28912000Y-21230000D01*
X28912000Y-21230000D02*
X28912000Y-19030000D01*
X17412000Y-14030000D02*
X18632000Y-14030000D01*
X18632000Y-14030000D02*
X18632000Y-19030000D01*
X18632000Y-19030000D02*
X17412000Y-19030000D01*
X30132000Y-14030000D02*
X28912000Y-14030000D01*
X28912000Y-14030000D02*
X28912000Y-19030000D01*
X28912000Y-19030000D02*
X30132000Y-19030000D01*
X18632000Y-18030000D02*
X28912000Y-18030000D01*
X20022000Y-18030000D02*
X19702000Y-18030000D01*
X19702000Y-18030000D02*
X19702000Y-14610000D01*
X19702000Y-14610000D02*
X20022000Y-14530000D01*
X20022000Y-14530000D02*
X20342000Y-14610000D01*
X20342000Y-14610000D02*
X20342000Y-18030000D01*
X20342000Y-18030000D02*
X20022000Y-18030000D01*
X21192000Y-19030000D02*
X21352000Y-19030000D01*
X22522000Y-18030000D02*
X22202000Y-18030000D01*
X22202000Y-18030000D02*
X22202000Y-14610000D01*
X22202000Y-14610000D02*
X22522000Y-14530000D01*
X22522000Y-14530000D02*
X22842000Y-14610000D01*
X22842000Y-14610000D02*
X22842000Y-18030000D01*
X22842000Y-18030000D02*
X22522000Y-18030000D01*
X23692000Y-19030000D02*
X23852000Y-19030000D01*
X25022000Y-18030000D02*
X24702000Y-18030000D01*
X24702000Y-18030000D02*
X24702000Y-14610000D01*
X24702000Y-14610000D02*
X25022000Y-14530000D01*
X25022000Y-14530000D02*
X25342000Y-14610000D01*
X25342000Y-14610000D02*
X25342000Y-18030000D01*
X25342000Y-18030000D02*
X25022000Y-18030000D01*
X26192000Y-19030000D02*
X26352000Y-19030000D01*
X27522000Y-18030000D02*
X27202000Y-18030000D01*
X27202000Y-18030000D02*
X27202000Y-14610000D01*
X27202000Y-14610000D02*
X27522000Y-14530000D01*
X27522000Y-14530000D02*
X27842000Y-14610000D01*
X27842000Y-14610000D02*
X27842000Y-18030000D01*
X27842000Y-18030000D02*
X27522000Y-18030000D01*
X20022000Y-21120000D02*
X19722000Y-21720000D01*
X19722000Y-21720000D02*
X20322000Y-21720000D01*
X20322000Y-21720000D02*
X20022000Y-21120000D01*
X32232000Y-19030000D02*
X32232000Y-21230000D01*
X32232000Y-21230000D02*
X31012000Y-21230000D01*
X31012000Y-21230000D02*
X31012000Y-12810000D01*
X31012000Y-12810000D02*
X43732000Y-12810000D01*
X43732000Y-12810000D02*
X43732000Y-21230000D01*
X43732000Y-21230000D02*
X42512000Y-21230000D01*
X42512000Y-21230000D02*
X42512000Y-19030000D01*
X31012000Y-14030000D02*
X32232000Y-14030000D01*
X32232000Y-14030000D02*
X32232000Y-19030000D01*
X32232000Y-19030000D02*
X31012000Y-19030000D01*
X43732000Y-14030000D02*
X42512000Y-14030000D01*
X42512000Y-14030000D02*
X42512000Y-19030000D01*
X42512000Y-19030000D02*
X43732000Y-19030000D01*
X32232000Y-18030000D02*
X42512000Y-18030000D01*
X33622000Y-18030000D02*
X33302000Y-18030000D01*
X33302000Y-18030000D02*
X33302000Y-14610000D01*
X33302000Y-14610000D02*
X33622000Y-14530000D01*
X33622000Y-14530000D02*
X33942000Y-14610000D01*
X33942000Y-14610000D02*
X33942000Y-18030000D01*
X33942000Y-18030000D02*
X33622000Y-18030000D01*
X34792000Y-19030000D02*
X34952000Y-19030000D01*
X36122000Y-18030000D02*
X35802000Y-18030000D01*
X35802000Y-18030000D02*
X35802000Y-14610000D01*
X35802000Y-14610000D02*
X36122000Y-14530000D01*
X36122000Y-14530000D02*
X36442000Y-14610000D01*
X36442000Y-14610000D02*
X36442000Y-18030000D01*
X36442000Y-18030000D02*
X36122000Y-18030000D01*
X37292000Y-19030000D02*
X37452000Y-19030000D01*
X38622000Y-18030000D02*
X38302000Y-18030000D01*
X38302000Y-18030000D02*
X38302000Y-14610000D01*
X38302000Y-14610000D02*
X38622000Y-14530000D01*
X38622000Y-14530000D02*
X38942000Y-14610000D01*
X38942000Y-14610000D02*
X38942000Y-18030000D01*
X38942000Y-18030000D02*
X38622000Y-18030000D01*
X39792000Y-19030000D02*
X39952000Y-19030000D01*
X41122000Y-18030000D02*
X40802000Y-18030000D01*
X40802000Y-18030000D02*
X40802000Y-14610000D01*
X40802000Y-14610000D02*
X41122000Y-14530000D01*
X41122000Y-14530000D02*
X41442000Y-14610000D01*
X41442000Y-14610000D02*
X41442000Y-18030000D01*
X41442000Y-18030000D02*
X41122000Y-18030000D01*
X33622000Y-21120000D02*
X33322000Y-21720000D01*
X33322000Y-21720000D02*
X33922000Y-21720000D01*
X33922000Y-21720000D02*
X33622000Y-21120000D01*
X47522000Y-21720000D02*
X47222000Y-21120000D01*
X46922000Y-21720000D02*
X47522000Y-21720000D01*
X47222000Y-21120000D02*
X46922000Y-21720000D01*
X55042000Y-18030000D02*
X54722000Y-18030000D01*
X55042000Y-14610000D02*
X55042000Y-18030000D01*
X54722000Y-14530000D02*
X55042000Y-14610000D01*
X54402000Y-14610000D02*
X54722000Y-14530000D01*
X54402000Y-18030000D02*
X54402000Y-14610000D01*
X54722000Y-18030000D02*
X54402000Y-18030000D01*
X53392000Y-19030000D02*
X53552000Y-19030000D01*
X52542000Y-18030000D02*
X52222000Y-18030000D01*
X52542000Y-14610000D02*
X52542000Y-18030000D01*
X52222000Y-14530000D02*
X52542000Y-14610000D01*
X51902000Y-14610000D02*
X52222000Y-14530000D01*
X51902000Y-18030000D02*
X51902000Y-14610000D01*
X52222000Y-18030000D02*
X51902000Y-18030000D01*
X50892000Y-19030000D02*
X51052000Y-19030000D01*
X50042000Y-18030000D02*
X49722000Y-18030000D01*
X50042000Y-14610000D02*
X50042000Y-18030000D01*
X49722000Y-14530000D02*
X50042000Y-14610000D01*
X49402000Y-14610000D02*
X49722000Y-14530000D01*
X49402000Y-18030000D02*
X49402000Y-14610000D01*
X49722000Y-18030000D02*
X49402000Y-18030000D01*
X48392000Y-19030000D02*
X48552000Y-19030000D01*
X47542000Y-18030000D02*
X47222000Y-18030000D01*
X47542000Y-14610000D02*
X47542000Y-18030000D01*
X47222000Y-14530000D02*
X47542000Y-14610000D01*
X46902000Y-14610000D02*
X47222000Y-14530000D01*
X46902000Y-18030000D02*
X46902000Y-14610000D01*
X47222000Y-18030000D02*
X46902000Y-18030000D01*
X45832000Y-18030000D02*
X56112000Y-18030000D01*
X56112000Y-19030000D02*
X57332000Y-19030000D01*
X56112000Y-14030000D02*
X56112000Y-19030000D01*
X57332000Y-14030000D02*
X56112000Y-14030000D01*
X45832000Y-19030000D02*
X44612000Y-19030000D01*
X45832000Y-14030000D02*
X45832000Y-19030000D01*
X44612000Y-14030000D02*
X45832000Y-14030000D01*
X56112000Y-21230000D02*
X56112000Y-19030000D01*
X57332000Y-21230000D02*
X56112000Y-21230000D01*
X57332000Y-12810000D02*
X57332000Y-21230000D01*
X44612000Y-12810000D02*
X57332000Y-12810000D01*
X44612000Y-21230000D02*
X44612000Y-12810000D01*
X45832000Y-21230000D02*
X44612000Y-21230000D01*
X45832000Y-19030000D02*
X45832000Y-21230000D01*
X120222000Y-21720000D02*
X119922000Y-21120000D01*
X119622000Y-21720000D02*
X120222000Y-21720000D01*
X119922000Y-21120000D02*
X119622000Y-21720000D01*
X127742000Y-18030000D02*
X127422000Y-18030000D01*
X127742000Y-14610000D02*
X127742000Y-18030000D01*
X127422000Y-14530000D02*
X127742000Y-14610000D01*
X127102000Y-14610000D02*
X127422000Y-14530000D01*
X127102000Y-18030000D02*
X127102000Y-14610000D01*
X127422000Y-18030000D02*
X127102000Y-18030000D01*
X126092000Y-19030000D02*
X126252000Y-19030000D01*
X125242000Y-18030000D02*
X124922000Y-18030000D01*
X125242000Y-14610000D02*
X125242000Y-18030000D01*
X124922000Y-14530000D02*
X125242000Y-14610000D01*
X124602000Y-14610000D02*
X124922000Y-14530000D01*
X124602000Y-18030000D02*
X124602000Y-14610000D01*
X124922000Y-18030000D02*
X124602000Y-18030000D01*
X123592000Y-19030000D02*
X123752000Y-19030000D01*
X122742000Y-18030000D02*
X122422000Y-18030000D01*
X122742000Y-14610000D02*
X122742000Y-18030000D01*
X122422000Y-14530000D02*
X122742000Y-14610000D01*
X122102000Y-14610000D02*
X122422000Y-14530000D01*
X122102000Y-18030000D02*
X122102000Y-14610000D01*
X122422000Y-18030000D02*
X122102000Y-18030000D01*
X121092000Y-19030000D02*
X121252000Y-19030000D01*
X120242000Y-18030000D02*
X119922000Y-18030000D01*
X120242000Y-14610000D02*
X120242000Y-18030000D01*
X119922000Y-14530000D02*
X120242000Y-14610000D01*
X119602000Y-14610000D02*
X119922000Y-14530000D01*
X119602000Y-18030000D02*
X119602000Y-14610000D01*
X119922000Y-18030000D02*
X119602000Y-18030000D01*
X118532000Y-18030000D02*
X128812000Y-18030000D01*
X128812000Y-19030000D02*
X130032000Y-19030000D01*
X128812000Y-14030000D02*
X128812000Y-19030000D01*
X130032000Y-14030000D02*
X128812000Y-14030000D01*
X118532000Y-19030000D02*
X117312000Y-19030000D01*
X118532000Y-14030000D02*
X118532000Y-19030000D01*
X117312000Y-14030000D02*
X118532000Y-14030000D01*
X128812000Y-21230000D02*
X128812000Y-19030000D01*
X130032000Y-21230000D02*
X128812000Y-21230000D01*
X130032000Y-12810000D02*
X130032000Y-21230000D01*
X117312000Y-12810000D02*
X130032000Y-12810000D01*
X117312000Y-21230000D02*
X117312000Y-12810000D01*
X118532000Y-21230000D02*
X117312000Y-21230000D01*
X118532000Y-19030000D02*
X118532000Y-21230000D01*
X86732000Y-19030000D02*
X86732000Y-21230000D01*
X86732000Y-21230000D02*
X85512000Y-21230000D01*
X85512000Y-21230000D02*
X85512000Y-12810000D01*
X85512000Y-12810000D02*
X98232000Y-12810000D01*
X98232000Y-12810000D02*
X98232000Y-21230000D01*
X98232000Y-21230000D02*
X97012000Y-21230000D01*
X97012000Y-21230000D02*
X97012000Y-19030000D01*
X85512000Y-14030000D02*
X86732000Y-14030000D01*
X86732000Y-14030000D02*
X86732000Y-19030000D01*
X86732000Y-19030000D02*
X85512000Y-19030000D01*
X98232000Y-14030000D02*
X97012000Y-14030000D01*
X97012000Y-14030000D02*
X97012000Y-19030000D01*
X97012000Y-19030000D02*
X98232000Y-19030000D01*
X86732000Y-18030000D02*
X97012000Y-18030000D01*
X88122000Y-18030000D02*
X87802000Y-18030000D01*
X87802000Y-18030000D02*
X87802000Y-14610000D01*
X87802000Y-14610000D02*
X88122000Y-14530000D01*
X88122000Y-14530000D02*
X88442000Y-14610000D01*
X88442000Y-14610000D02*
X88442000Y-18030000D01*
X88442000Y-18030000D02*
X88122000Y-18030000D01*
X89292000Y-19030000D02*
X89452000Y-19030000D01*
X90622000Y-18030000D02*
X90302000Y-18030000D01*
X90302000Y-18030000D02*
X90302000Y-14610000D01*
X90302000Y-14610000D02*
X90622000Y-14530000D01*
X90622000Y-14530000D02*
X90942000Y-14610000D01*
X90942000Y-14610000D02*
X90942000Y-18030000D01*
X90942000Y-18030000D02*
X90622000Y-18030000D01*
X91792000Y-19030000D02*
X91952000Y-19030000D01*
X93122000Y-18030000D02*
X92802000Y-18030000D01*
X92802000Y-18030000D02*
X92802000Y-14610000D01*
X92802000Y-14610000D02*
X93122000Y-14530000D01*
X93122000Y-14530000D02*
X93442000Y-14610000D01*
X93442000Y-14610000D02*
X93442000Y-18030000D01*
X93442000Y-18030000D02*
X93122000Y-18030000D01*
X94292000Y-19030000D02*
X94452000Y-19030000D01*
X95622000Y-18030000D02*
X95302000Y-18030000D01*
X95302000Y-18030000D02*
X95302000Y-14610000D01*
X95302000Y-14610000D02*
X95622000Y-14530000D01*
X95622000Y-14530000D02*
X95942000Y-14610000D01*
X95942000Y-14610000D02*
X95942000Y-18030000D01*
X95942000Y-18030000D02*
X95622000Y-18030000D01*
X88122000Y-21120000D02*
X87822000Y-21720000D01*
X87822000Y-21720000D02*
X88422000Y-21720000D01*
X88422000Y-21720000D02*
X88122000Y-21120000D01*
X74722000Y-21720000D02*
X74422000Y-21120000D01*
X74122000Y-21720000D02*
X74722000Y-21720000D01*
X74422000Y-21120000D02*
X74122000Y-21720000D01*
X82242000Y-18030000D02*
X81922000Y-18030000D01*
X82242000Y-14610000D02*
X82242000Y-18030000D01*
X81922000Y-14530000D02*
X82242000Y-14610000D01*
X81602000Y-14610000D02*
X81922000Y-14530000D01*
X81602000Y-18030000D02*
X81602000Y-14610000D01*
X81922000Y-18030000D02*
X81602000Y-18030000D01*
X80592000Y-19030000D02*
X80752000Y-19030000D01*
X79742000Y-18030000D02*
X79422000Y-18030000D01*
X79742000Y-14610000D02*
X79742000Y-18030000D01*
X79422000Y-14530000D02*
X79742000Y-14610000D01*
X79102000Y-14610000D02*
X79422000Y-14530000D01*
X79102000Y-18030000D02*
X79102000Y-14610000D01*
X79422000Y-18030000D02*
X79102000Y-18030000D01*
X78092000Y-19030000D02*
X78252000Y-19030000D01*
X77242000Y-18030000D02*
X76922000Y-18030000D01*
X77242000Y-14610000D02*
X77242000Y-18030000D01*
X76922000Y-14530000D02*
X77242000Y-14610000D01*
X76602000Y-14610000D02*
X76922000Y-14530000D01*
X76602000Y-18030000D02*
X76602000Y-14610000D01*
X76922000Y-18030000D02*
X76602000Y-18030000D01*
X75592000Y-19030000D02*
X75752000Y-19030000D01*
X74742000Y-18030000D02*
X74422000Y-18030000D01*
X74742000Y-14610000D02*
X74742000Y-18030000D01*
X74422000Y-14530000D02*
X74742000Y-14610000D01*
X74102000Y-14610000D02*
X74422000Y-14530000D01*
X74102000Y-18030000D02*
X74102000Y-14610000D01*
X74422000Y-18030000D02*
X74102000Y-18030000D01*
X73032000Y-18030000D02*
X83312000Y-18030000D01*
X83312000Y-19030000D02*
X84532000Y-19030000D01*
X83312000Y-14030000D02*
X83312000Y-19030000D01*
X84532000Y-14030000D02*
X83312000Y-14030000D01*
X73032000Y-19030000D02*
X71812000Y-19030000D01*
X73032000Y-14030000D02*
X73032000Y-19030000D01*
X71812000Y-14030000D02*
X73032000Y-14030000D01*
X83312000Y-21230000D02*
X83312000Y-19030000D01*
X84532000Y-21230000D02*
X83312000Y-21230000D01*
X84532000Y-12810000D02*
X84532000Y-21230000D01*
X71812000Y-12810000D02*
X84532000Y-12810000D01*
X71812000Y-21230000D02*
X71812000Y-12810000D01*
X73032000Y-21230000D02*
X71812000Y-21230000D01*
X73032000Y-19030000D02*
X73032000Y-21230000D01*
X16902000Y-83218000D02*
X21622000Y-83218000D01*
X21622000Y-83218000D02*
X21622000Y-77098000D01*
X21622000Y-77098000D02*
X16902000Y-77098000D01*
X16902000Y-77098000D02*
X16902000Y-83218000D01*
X16902000Y-81458000D02*
X16702000Y-81458000D01*
X16702000Y-81458000D02*
X16702000Y-81758000D01*
X16702000Y-81758000D02*
X16902000Y-81758000D01*
X16802000Y-81458000D02*
X16802000Y-81758000D01*
X16902000Y-80658000D02*
X17512000Y-80658000D01*
X17512000Y-80658000D02*
X17512000Y-82608000D01*
X17512000Y-82608000D02*
X21012000Y-82608000D01*
X21012000Y-82608000D02*
X21012000Y-77708000D01*
X21012000Y-77708000D02*
X17512000Y-77708000D01*
X17512000Y-77708000D02*
X17512000Y-79658000D01*
X17512000Y-79658000D02*
X16902000Y-79658000D01*
X18212000Y-83218000D02*
X18212000Y-82608000D01*
X19512000Y-83218000D02*
X19512000Y-82608000D01*
X18212000Y-77098000D02*
X18212000Y-77708000D01*
X19512000Y-77098000D02*
X19512000Y-77708000D01*
X21012000Y-80258000D02*
X20512000Y-80258000D01*
X20512000Y-80258000D02*
X20512000Y-80058000D01*
X20512000Y-80058000D02*
X21012000Y-80058000D01*
X21012000Y-80158000D02*
X20512000Y-80158000D01*
X16602000Y-82268000D02*
X16602000Y-83518000D01*
X16602000Y-83518000D02*
X17852000Y-83518000D01*
X16602000Y-90918000D02*
X17852000Y-90918000D01*
X16602000Y-89668000D02*
X16602000Y-90918000D01*
X21012000Y-87558000D02*
X20512000Y-87558000D01*
X20512000Y-87458000D02*
X21012000Y-87458000D01*
X20512000Y-87658000D02*
X20512000Y-87458000D01*
X21012000Y-87658000D02*
X20512000Y-87658000D01*
X19512000Y-84498000D02*
X19512000Y-85108000D01*
X18212000Y-84498000D02*
X18212000Y-85108000D01*
X19512000Y-90618000D02*
X19512000Y-90008000D01*
X18212000Y-90618000D02*
X18212000Y-90008000D01*
X17512000Y-87058000D02*
X16902000Y-87058000D01*
X17512000Y-85108000D02*
X17512000Y-87058000D01*
X21012000Y-85108000D02*
X17512000Y-85108000D01*
X21012000Y-90008000D02*
X21012000Y-85108000D01*
X17512000Y-90008000D02*
X21012000Y-90008000D01*
X17512000Y-88058000D02*
X17512000Y-90008000D01*
X16902000Y-88058000D02*
X17512000Y-88058000D01*
X16802000Y-88858000D02*
X16802000Y-89158000D01*
X16702000Y-89158000D02*
X16902000Y-89158000D01*
X16702000Y-88858000D02*
X16702000Y-89158000D01*
X16902000Y-88858000D02*
X16702000Y-88858000D01*
X16902000Y-84498000D02*
X16902000Y-90618000D01*
X21622000Y-84498000D02*
X16902000Y-84498000D01*
X21622000Y-90618000D02*
X21622000Y-84498000D01*
X16902000Y-90618000D02*
X21622000Y-90618000D01*
X16602000Y-98418000D02*
X17852000Y-98418000D01*
X16602000Y-97168000D02*
X16602000Y-98418000D01*
X21012000Y-95058000D02*
X20512000Y-95058000D01*
X20512000Y-94958000D02*
X21012000Y-94958000D01*
X20512000Y-95158000D02*
X20512000Y-94958000D01*
X21012000Y-95158000D02*
X20512000Y-95158000D01*
X19512000Y-91998000D02*
X19512000Y-92608000D01*
X18212000Y-91998000D02*
X18212000Y-92608000D01*
X19512000Y-98118000D02*
X19512000Y-97508000D01*
X18212000Y-98118000D02*
X18212000Y-97508000D01*
X17512000Y-94558000D02*
X16902000Y-94558000D01*
X17512000Y-92608000D02*
X17512000Y-94558000D01*
X21012000Y-92608000D02*
X17512000Y-92608000D01*
X21012000Y-97508000D02*
X21012000Y-92608000D01*
X17512000Y-97508000D02*
X21012000Y-97508000D01*
X17512000Y-95558000D02*
X17512000Y-97508000D01*
X16902000Y-95558000D02*
X17512000Y-95558000D01*
X16802000Y-96358000D02*
X16802000Y-96658000D01*
X16702000Y-96658000D02*
X16902000Y-96658000D01*
X16702000Y-96358000D02*
X16702000Y-96658000D01*
X16902000Y-96358000D02*
X16702000Y-96358000D01*
X16902000Y-91998000D02*
X16902000Y-98118000D01*
X21622000Y-91998000D02*
X16902000Y-91998000D01*
X21622000Y-98118000D02*
X21622000Y-91998000D01*
X16902000Y-98118000D02*
X21622000Y-98118000D01*
X23962436Y-79423000D02*
X24416564Y-79423000D01*
X23962436Y-80893000D02*
X24416564Y-80893000D01*
X24416564Y-76923000D02*
X23962436Y-76923000D01*
X24416564Y-78393000D02*
X23962436Y-78393000D01*
X23962436Y-86823000D02*
X24416564Y-86823000D01*
X23962436Y-88293000D02*
X24416564Y-88293000D01*
X24416564Y-84323000D02*
X23962436Y-84323000D01*
X24416564Y-85793000D02*
X23962436Y-85793000D01*
X23962436Y-95793000D02*
X24416564Y-95793000D01*
X23962436Y-94323000D02*
X24416564Y-94323000D01*
X24416564Y-93293000D02*
X23962436Y-93293000D01*
X24416564Y-91823000D02*
X23962436Y-91823000D01*
D11*
X94956666Y-70556380D02*
X94956666Y-69556380D01*
X95194761Y-69556380D01*
X95337619Y-69604000D01*
X95432857Y-69699238D01*
X95480476Y-69794476D01*
X95528095Y-69984952D01*
X95528095Y-70127809D01*
X95480476Y-70318285D01*
X95432857Y-70413523D01*
X95337619Y-70508761D01*
X95194761Y-70556380D01*
X94956666Y-70556380D01*
X95956666Y-70556380D02*
X95956666Y-69556380D01*
X97004285Y-70556380D02*
X96670952Y-70080190D01*
X96432857Y-70556380D02*
X96432857Y-69556380D01*
X96813809Y-69556380D01*
X96909047Y-69604000D01*
X96956666Y-69651619D01*
X97004285Y-69746857D01*
X97004285Y-69889714D01*
X96956666Y-69984952D01*
X96909047Y-70032571D01*
X96813809Y-70080190D01*
X96432857Y-70080190D01*
X97956666Y-70556380D02*
X97385238Y-70556380D01*
X97670952Y-70556380D02*
X97670952Y-69556380D01*
X97575714Y-69699238D01*
X97480476Y-69794476D01*
X97385238Y-69842095D01*
X98147142Y-70651619D02*
X98909047Y-70651619D01*
X99147142Y-70032571D02*
X99480476Y-70032571D01*
X99623333Y-70556380D02*
X99147142Y-70556380D01*
X99147142Y-69556380D01*
X99623333Y-69556380D01*
X100051904Y-70556380D02*
X100051904Y-69556380D01*
X100623333Y-70556380D01*
X100623333Y-69556380D01*
X112625619Y-70372761D02*
X112768476Y-70420380D01*
X113006571Y-70420380D01*
X113101809Y-70372761D01*
X113149428Y-70325142D01*
X113197047Y-70229904D01*
X113197047Y-70134666D01*
X113149428Y-70039428D01*
X113101809Y-69991809D01*
X113006571Y-69944190D01*
X112816095Y-69896571D01*
X112720857Y-69848952D01*
X112673238Y-69801333D01*
X112625619Y-69706095D01*
X112625619Y-69610857D01*
X112673238Y-69515619D01*
X112720857Y-69468000D01*
X112816095Y-69420380D01*
X113054190Y-69420380D01*
X113197047Y-69468000D01*
X113482761Y-69420380D02*
X114054190Y-69420380D01*
X113768476Y-70420380D02*
X113768476Y-69420380D01*
X114387523Y-69896571D02*
X114720857Y-69896571D01*
X114863714Y-70420380D02*
X114387523Y-70420380D01*
X114387523Y-69420380D01*
X114863714Y-69420380D01*
X115292285Y-70420380D02*
X115292285Y-69420380D01*
X115673238Y-69420380D01*
X115768476Y-69468000D01*
X115816095Y-69515619D01*
X115863714Y-69610857D01*
X115863714Y-69753714D01*
X115816095Y-69848952D01*
X115768476Y-69896571D01*
X115673238Y-69944190D01*
X115292285Y-69944190D01*
X116816095Y-70420380D02*
X116244666Y-70420380D01*
X116530380Y-70420380D02*
X116530380Y-69420380D01*
X116435142Y-69563238D01*
X116339904Y-69658476D01*
X116244666Y-69706095D01*
X117006571Y-70515619D02*
X117768476Y-70515619D01*
X118006571Y-69896571D02*
X118339904Y-69896571D01*
X118482761Y-70420380D02*
X118006571Y-70420380D01*
X118006571Y-69420380D01*
X118482761Y-69420380D01*
X118911333Y-70420380D02*
X118911333Y-69420380D01*
X119482761Y-70420380D01*
X119482761Y-69420380D01*
X139329619Y-119292761D02*
X139472476Y-119340380D01*
X139710571Y-119340380D01*
X139805809Y-119292761D01*
X139853428Y-119245142D01*
X139901047Y-119149904D01*
X139901047Y-119054666D01*
X139853428Y-118959428D01*
X139805809Y-118911809D01*
X139710571Y-118864190D01*
X139520095Y-118816571D01*
X139424857Y-118768952D01*
X139377238Y-118721333D01*
X139329619Y-118626095D01*
X139329619Y-118530857D01*
X139377238Y-118435619D01*
X139424857Y-118388000D01*
X139520095Y-118340380D01*
X139758190Y-118340380D01*
X139901047Y-118388000D01*
X140186761Y-118340380D02*
X140758190Y-118340380D01*
X140472476Y-119340380D02*
X140472476Y-118340380D01*
X141091523Y-118816571D02*
X141424857Y-118816571D01*
X141567714Y-119340380D02*
X141091523Y-119340380D01*
X141091523Y-118340380D01*
X141567714Y-118340380D01*
X141996285Y-119340380D02*
X141996285Y-118340380D01*
X142377238Y-118340380D01*
X142472476Y-118388000D01*
X142520095Y-118435619D01*
X142567714Y-118530857D01*
X142567714Y-118673714D01*
X142520095Y-118768952D01*
X142472476Y-118816571D01*
X142377238Y-118864190D01*
X141996285Y-118864190D01*
X142948666Y-118435619D02*
X142996285Y-118388000D01*
X143091523Y-118340380D01*
X143329619Y-118340380D01*
X143424857Y-118388000D01*
X143472476Y-118435619D01*
X143520095Y-118530857D01*
X143520095Y-118626095D01*
X143472476Y-118768952D01*
X142901047Y-119340380D01*
X143520095Y-119340380D01*
X143710571Y-119435619D02*
X144472476Y-119435619D01*
X144710571Y-118816571D02*
X145043904Y-118816571D01*
X145186761Y-119340380D02*
X144710571Y-119340380D01*
X144710571Y-118340380D01*
X145186761Y-118340380D01*
X145615333Y-119340380D02*
X145615333Y-118340380D01*
X146186761Y-119340380D01*
X146186761Y-118340380D01*
X130198666Y-119340380D02*
X130198666Y-118340380D01*
X130436761Y-118340380D01*
X130579619Y-118388000D01*
X130674857Y-118483238D01*
X130722476Y-118578476D01*
X130770095Y-118768952D01*
X130770095Y-118911809D01*
X130722476Y-119102285D01*
X130674857Y-119197523D01*
X130579619Y-119292761D01*
X130436761Y-119340380D01*
X130198666Y-119340380D01*
X131198666Y-119340380D02*
X131198666Y-118340380D01*
X132246285Y-119340380D02*
X131912952Y-118864190D01*
X131674857Y-119340380D02*
X131674857Y-118340380D01*
X132055809Y-118340380D01*
X132151047Y-118388000D01*
X132198666Y-118435619D01*
X132246285Y-118530857D01*
X132246285Y-118673714D01*
X132198666Y-118768952D01*
X132151047Y-118816571D01*
X132055809Y-118864190D01*
X131674857Y-118864190D01*
X132627238Y-118435619D02*
X132674857Y-118388000D01*
X132770095Y-118340380D01*
X133008190Y-118340380D01*
X133103428Y-118388000D01*
X133151047Y-118435619D01*
X133198666Y-118530857D01*
X133198666Y-118626095D01*
X133151047Y-118768952D01*
X132579619Y-119340380D01*
X133198666Y-119340380D01*
X133389142Y-119435619D02*
X134151047Y-119435619D01*
X134389142Y-118816571D02*
X134722476Y-118816571D01*
X134865333Y-119340380D02*
X134389142Y-119340380D01*
X134389142Y-118340380D01*
X134865333Y-118340380D01*
X135293904Y-119340380D02*
X135293904Y-118340380D01*
X135865333Y-119340380D01*
X135865333Y-118340380D01*
X146718666Y-103512880D02*
X146718666Y-102512880D01*
X146956761Y-102512880D01*
X147099619Y-102560500D01*
X147194857Y-102655738D01*
X147242476Y-102750976D01*
X147290095Y-102941452D01*
X147290095Y-103084309D01*
X147242476Y-103274785D01*
X147194857Y-103370023D01*
X147099619Y-103465261D01*
X146956761Y-103512880D01*
X146718666Y-103512880D01*
X147718666Y-103512880D02*
X147718666Y-102512880D01*
X148766285Y-103512880D02*
X148432952Y-103036690D01*
X148194857Y-103512880D02*
X148194857Y-102512880D01*
X148575809Y-102512880D01*
X148671047Y-102560500D01*
X148718666Y-102608119D01*
X148766285Y-102703357D01*
X148766285Y-102846214D01*
X148718666Y-102941452D01*
X148671047Y-102989071D01*
X148575809Y-103036690D01*
X148194857Y-103036690D01*
X149623428Y-102846214D02*
X149623428Y-103512880D01*
X149385333Y-102465261D02*
X149147238Y-103179547D01*
X149766285Y-103179547D01*
X149909142Y-103608119D02*
X150671047Y-103608119D01*
X150909142Y-102989071D02*
X151242476Y-102989071D01*
X151385333Y-103512880D02*
X150909142Y-103512880D01*
X150909142Y-102512880D01*
X151385333Y-102512880D01*
X151813904Y-103512880D02*
X151813904Y-102512880D01*
X152385333Y-103512880D01*
X152385333Y-102512880D01*
X146679619Y-92865261D02*
X146822476Y-92912880D01*
X147060571Y-92912880D01*
X147155809Y-92865261D01*
X147203428Y-92817642D01*
X147251047Y-92722404D01*
X147251047Y-92627166D01*
X147203428Y-92531928D01*
X147155809Y-92484309D01*
X147060571Y-92436690D01*
X146870095Y-92389071D01*
X146774857Y-92341452D01*
X146727238Y-92293833D01*
X146679619Y-92198595D01*
X146679619Y-92103357D01*
X146727238Y-92008119D01*
X146774857Y-91960500D01*
X146870095Y-91912880D01*
X147108190Y-91912880D01*
X147251047Y-91960500D01*
X147536761Y-91912880D02*
X148108190Y-91912880D01*
X147822476Y-92912880D02*
X147822476Y-91912880D01*
X148441523Y-92389071D02*
X148774857Y-92389071D01*
X148917714Y-92912880D02*
X148441523Y-92912880D01*
X148441523Y-91912880D01*
X148917714Y-91912880D01*
X149346285Y-92912880D02*
X149346285Y-91912880D01*
X149727238Y-91912880D01*
X149822476Y-91960500D01*
X149870095Y-92008119D01*
X149917714Y-92103357D01*
X149917714Y-92246214D01*
X149870095Y-92341452D01*
X149822476Y-92389071D01*
X149727238Y-92436690D01*
X149346285Y-92436690D01*
X150774857Y-92246214D02*
X150774857Y-92912880D01*
X150536761Y-91865261D02*
X150298666Y-92579547D01*
X150917714Y-92579547D01*
X151060571Y-93008119D02*
X151822476Y-93008119D01*
X152060571Y-92389071D02*
X152393904Y-92389071D01*
X152536761Y-92912880D02*
X152060571Y-92912880D01*
X152060571Y-91912880D01*
X152536761Y-91912880D01*
X152965333Y-92912880D02*
X152965333Y-91912880D01*
X153536761Y-92912880D01*
X153536761Y-91912880D01*
D12*
X118883428Y-83860857D02*
X119283428Y-85060857D01*
X119683428Y-83860857D01*
X119797714Y-85175142D02*
X120712000Y-85175142D01*
X120997714Y-85060857D02*
X120997714Y-83860857D01*
X121397714Y-84718000D01*
X121797714Y-83860857D01*
X121797714Y-85060857D01*
X122597714Y-83860857D02*
X122826285Y-83860857D01*
X122940571Y-83918000D01*
X123054857Y-84032285D01*
X123112000Y-84260857D01*
X123112000Y-84660857D01*
X123054857Y-84889428D01*
X122940571Y-85003714D01*
X122826285Y-85060857D01*
X122597714Y-85060857D01*
X122483428Y-85003714D01*
X122369142Y-84889428D01*
X122312000Y-84660857D01*
X122312000Y-84260857D01*
X122369142Y-84032285D01*
X122483428Y-83918000D01*
X122597714Y-83860857D01*
X123454857Y-83860857D02*
X124140571Y-83860857D01*
X123797714Y-85060857D02*
X123797714Y-83860857D01*
X115032713Y-83918000D02*
X114918427Y-83860857D01*
X114746999Y-83860857D01*
X114575570Y-83918000D01*
X114461284Y-84032285D01*
X114404141Y-84146571D01*
X114346999Y-84375142D01*
X114346999Y-84546571D01*
X114404141Y-84775142D01*
X114461284Y-84889428D01*
X114575570Y-85003714D01*
X114746999Y-85060857D01*
X114861284Y-85060857D01*
X115032713Y-85003714D01*
X115089856Y-84946571D01*
X115089856Y-84546571D01*
X114861284Y-84546571D01*
X115604141Y-85060857D02*
X115604141Y-83860857D01*
X116289856Y-85060857D01*
X116289856Y-83860857D01*
X116861284Y-85060857D02*
X116861284Y-83860857D01*
X117146999Y-83860857D01*
X117318427Y-83918000D01*
X117432713Y-84032285D01*
X117489856Y-84146571D01*
X117546999Y-84375142D01*
X117546999Y-84546571D01*
X117489856Y-84775142D01*
X117432713Y-84889428D01*
X117318427Y-85003714D01*
X117146999Y-85060857D01*
X116861284Y-85060857D01*
X108153428Y-83860857D02*
X108553428Y-85060857D01*
X108953428Y-83860857D01*
X109067714Y-85175142D02*
X109982000Y-85175142D01*
X110267714Y-85060857D02*
X110267714Y-83860857D01*
X110553428Y-83860857D01*
X110724857Y-83918000D01*
X110839142Y-84032285D01*
X110896285Y-84146571D01*
X110953428Y-84375142D01*
X110953428Y-84546571D01*
X110896285Y-84775142D01*
X110839142Y-84889428D01*
X110724857Y-85003714D01*
X110553428Y-85060857D01*
X110267714Y-85060857D01*
X111410571Y-84718000D02*
X111982000Y-84718000D01*
X111296285Y-85060857D02*
X111696285Y-83860857D01*
X112096285Y-85060857D01*
X112324857Y-83860857D02*
X113010571Y-83860857D01*
X112667714Y-85060857D02*
X112667714Y-83860857D01*
D11*
X143383904Y-28188000D02*
X143288666Y-28140380D01*
X143145809Y-28140380D01*
X143002952Y-28188000D01*
X142907714Y-28283238D01*
X142860095Y-28378476D01*
X142812476Y-28568952D01*
X142812476Y-28711809D01*
X142860095Y-28902285D01*
X142907714Y-28997523D01*
X143002952Y-29092761D01*
X143145809Y-29140380D01*
X143241047Y-29140380D01*
X143383904Y-29092761D01*
X143431523Y-29045142D01*
X143431523Y-28711809D01*
X143241047Y-28711809D01*
X165893904Y-28188000D02*
X165798666Y-28140380D01*
X165655809Y-28140380D01*
X165512952Y-28188000D01*
X165417714Y-28283238D01*
X165370095Y-28378476D01*
X165322476Y-28568952D01*
X165322476Y-28711809D01*
X165370095Y-28902285D01*
X165417714Y-28997523D01*
X165512952Y-29092761D01*
X165655809Y-29140380D01*
X165751047Y-29140380D01*
X165893904Y-29092761D01*
X165941523Y-29045142D01*
X165941523Y-28711809D01*
X165751047Y-28711809D01*
X176853904Y-93478000D02*
X176758666Y-93430380D01*
X176615809Y-93430380D01*
X176472952Y-93478000D01*
X176377714Y-93573238D01*
X176330095Y-93668476D01*
X176282476Y-93858952D01*
X176282476Y-94001809D01*
X176330095Y-94192285D01*
X176377714Y-94287523D01*
X176472952Y-94382761D01*
X176615809Y-94430380D01*
X176711047Y-94430380D01*
X176853904Y-94382761D01*
X176901523Y-94335142D01*
X176901523Y-94001809D01*
X176711047Y-94001809D01*
X176853904Y-114708000D02*
X176758666Y-114660380D01*
X176615809Y-114660380D01*
X176472952Y-114708000D01*
X176377714Y-114803238D01*
X176330095Y-114898476D01*
X176282476Y-115088952D01*
X176282476Y-115231809D01*
X176330095Y-115422285D01*
X176377714Y-115517523D01*
X176472952Y-115612761D01*
X176615809Y-115660380D01*
X176711047Y-115660380D01*
X176853904Y-115612761D01*
X176901523Y-115565142D01*
X176901523Y-115231809D01*
X176711047Y-115231809D01*
X158845333Y-33125142D02*
X158797714Y-33172761D01*
X158654857Y-33220380D01*
X158559619Y-33220380D01*
X158416761Y-33172761D01*
X158321523Y-33077523D01*
X158273904Y-32982285D01*
X158226285Y-32791809D01*
X158226285Y-32648952D01*
X158273904Y-32458476D01*
X158321523Y-32363238D01*
X158416761Y-32268000D01*
X158559619Y-32220380D01*
X158654857Y-32220380D01*
X158797714Y-32268000D01*
X158845333Y-32315619D01*
X159797714Y-33220380D02*
X159226285Y-33220380D01*
X159512000Y-33220380D02*
X159512000Y-32220380D01*
X159416761Y-32363238D01*
X159321523Y-32458476D01*
X159226285Y-32506095D01*
X136265333Y-33125142D02*
X136217714Y-33172761D01*
X136074857Y-33220380D01*
X135979619Y-33220380D01*
X135836761Y-33172761D01*
X135741523Y-33077523D01*
X135693904Y-32982285D01*
X135646285Y-32791809D01*
X135646285Y-32648952D01*
X135693904Y-32458476D01*
X135741523Y-32363238D01*
X135836761Y-32268000D01*
X135979619Y-32220380D01*
X136074857Y-32220380D01*
X136217714Y-32268000D01*
X136265333Y-32315619D01*
X136646285Y-32315619D02*
X136693904Y-32268000D01*
X136789142Y-32220380D01*
X137027238Y-32220380D01*
X137122476Y-32268000D01*
X137170095Y-32315619D01*
X137217714Y-32410857D01*
X137217714Y-32506095D01*
X137170095Y-32648952D01*
X136598666Y-33220380D01*
X137217714Y-33220380D01*
X171875333Y-87205142D02*
X171827714Y-87252761D01*
X171684857Y-87300380D01*
X171589619Y-87300380D01*
X171446761Y-87252761D01*
X171351523Y-87157523D01*
X171303904Y-87062285D01*
X171256285Y-86871809D01*
X171256285Y-86728952D01*
X171303904Y-86538476D01*
X171351523Y-86443238D01*
X171446761Y-86348000D01*
X171589619Y-86300380D01*
X171684857Y-86300380D01*
X171827714Y-86348000D01*
X171875333Y-86395619D01*
X172208666Y-86300380D02*
X172827714Y-86300380D01*
X172494380Y-86681333D01*
X172637238Y-86681333D01*
X172732476Y-86728952D01*
X172780095Y-86776571D01*
X172827714Y-86871809D01*
X172827714Y-87109904D01*
X172780095Y-87205142D01*
X172732476Y-87252761D01*
X172637238Y-87300380D01*
X172351523Y-87300380D01*
X172256285Y-87252761D01*
X172208666Y-87205142D01*
X171875333Y-106825142D02*
X171827714Y-106872761D01*
X171684857Y-106920380D01*
X171589619Y-106920380D01*
X171446761Y-106872761D01*
X171351523Y-106777523D01*
X171303904Y-106682285D01*
X171256285Y-106491809D01*
X171256285Y-106348952D01*
X171303904Y-106158476D01*
X171351523Y-106063238D01*
X171446761Y-105968000D01*
X171589619Y-105920380D01*
X171684857Y-105920380D01*
X171827714Y-105968000D01*
X171875333Y-106015619D01*
X172732476Y-106253714D02*
X172732476Y-106920380D01*
X172494380Y-105872761D02*
X172256285Y-106587047D01*
X172875333Y-106587047D01*
X94579142Y-120065142D02*
X94531523Y-120112761D01*
X94388666Y-120160380D01*
X94293428Y-120160380D01*
X94150570Y-120112761D01*
X94055332Y-120017523D01*
X94007713Y-119922285D01*
X93960094Y-119731809D01*
X93960094Y-119588952D01*
X94007713Y-119398476D01*
X94055332Y-119303238D01*
X94150570Y-119208000D01*
X94293428Y-119160380D01*
X94388666Y-119160380D01*
X94531523Y-119208000D01*
X94579142Y-119255619D01*
X95483904Y-119160380D02*
X95007713Y-119160380D01*
X94960094Y-119636571D01*
X95007713Y-119588952D01*
X95102951Y-119541333D01*
X95341047Y-119541333D01*
X95436285Y-119588952D01*
X95483904Y-119636571D01*
X95531523Y-119731809D01*
X95531523Y-119969904D01*
X95483904Y-120065142D01*
X95436285Y-120112761D01*
X95341047Y-120160380D01*
X95102951Y-120160380D01*
X95007713Y-120112761D01*
X94960094Y-120065142D01*
X94579142Y-115025142D02*
X94531523Y-115072761D01*
X94388666Y-115120380D01*
X94293428Y-115120380D01*
X94150570Y-115072761D01*
X94055332Y-114977523D01*
X94007713Y-114882285D01*
X93960094Y-114691809D01*
X93960094Y-114548952D01*
X94007713Y-114358476D01*
X94055332Y-114263238D01*
X94150570Y-114168000D01*
X94293428Y-114120380D01*
X94388666Y-114120380D01*
X94531523Y-114168000D01*
X94579142Y-114215619D01*
X95436285Y-114120380D02*
X95245809Y-114120380D01*
X95150570Y-114168000D01*
X95102951Y-114215619D01*
X95007713Y-114358476D01*
X94960094Y-114548952D01*
X94960094Y-114929904D01*
X95007713Y-115025142D01*
X95055332Y-115072761D01*
X95150570Y-115120380D01*
X95341047Y-115120380D01*
X95436285Y-115072761D01*
X95483904Y-115025142D01*
X95531523Y-114929904D01*
X95531523Y-114691809D01*
X95483904Y-114596571D01*
X95436285Y-114548952D01*
X95341047Y-114501333D01*
X95150570Y-114501333D01*
X95055332Y-114548952D01*
X95007713Y-114596571D01*
X94960094Y-114691809D01*
X94579142Y-110235142D02*
X94531523Y-110282761D01*
X94388666Y-110330380D01*
X94293428Y-110330380D01*
X94150570Y-110282761D01*
X94055332Y-110187523D01*
X94007713Y-110092285D01*
X93960094Y-109901809D01*
X93960094Y-109758952D01*
X94007713Y-109568476D01*
X94055332Y-109473238D01*
X94150570Y-109378000D01*
X94293428Y-109330380D01*
X94388666Y-109330380D01*
X94531523Y-109378000D01*
X94579142Y-109425619D01*
X94912475Y-109330380D02*
X95579142Y-109330380D01*
X95150570Y-110330380D01*
X94579142Y-106665142D02*
X94531523Y-106712761D01*
X94388666Y-106760380D01*
X94293428Y-106760380D01*
X94150570Y-106712761D01*
X94055332Y-106617523D01*
X94007713Y-106522285D01*
X93960094Y-106331809D01*
X93960094Y-106188952D01*
X94007713Y-105998476D01*
X94055332Y-105903238D01*
X94150570Y-105808000D01*
X94293428Y-105760380D01*
X94388666Y-105760380D01*
X94531523Y-105808000D01*
X94579142Y-105855619D01*
X95150570Y-106188952D02*
X95055332Y-106141333D01*
X95007713Y-106093714D01*
X94960094Y-105998476D01*
X94960094Y-105950857D01*
X95007713Y-105855619D01*
X95055332Y-105808000D01*
X95150570Y-105760380D01*
X95341047Y-105760380D01*
X95436285Y-105808000D01*
X95483904Y-105855619D01*
X95531523Y-105950857D01*
X95531523Y-105998476D01*
X95483904Y-106093714D01*
X95436285Y-106141333D01*
X95341047Y-106188952D01*
X95150570Y-106188952D01*
X95055332Y-106236571D01*
X95007713Y-106284190D01*
X94960094Y-106379428D01*
X94960094Y-106569904D01*
X95007713Y-106665142D01*
X95055332Y-106712761D01*
X95150570Y-106760380D01*
X95341047Y-106760380D01*
X95436285Y-106712761D01*
X95483904Y-106665142D01*
X95531523Y-106569904D01*
X95531523Y-106379428D01*
X95483904Y-106284190D01*
X95436285Y-106236571D01*
X95341047Y-106188952D01*
X94579142Y-102015142D02*
X94531523Y-102062761D01*
X94388666Y-102110380D01*
X94293428Y-102110380D01*
X94150571Y-102062761D01*
X94055333Y-101967523D01*
X94007714Y-101872285D01*
X93960095Y-101681809D01*
X93960095Y-101538952D01*
X94007714Y-101348476D01*
X94055333Y-101253238D01*
X94150571Y-101158000D01*
X94293428Y-101110380D01*
X94388666Y-101110380D01*
X94531523Y-101158000D01*
X94579142Y-101205619D01*
X95531523Y-102110380D02*
X94960095Y-102110380D01*
X95245809Y-102110380D02*
X95245809Y-101110380D01*
X95150571Y-101253238D01*
X95055333Y-101348476D01*
X94960095Y-101396095D01*
X96150571Y-101110380D02*
X96245809Y-101110380D01*
X96341047Y-101158000D01*
X96388666Y-101205619D01*
X96436285Y-101300857D01*
X96483904Y-101491333D01*
X96483904Y-101729428D01*
X96436285Y-101919904D01*
X96388666Y-102015142D01*
X96341047Y-102062761D01*
X96245809Y-102110380D01*
X96150571Y-102110380D01*
X96055333Y-102062761D01*
X96007714Y-102015142D01*
X95960095Y-101919904D01*
X95912476Y-101729428D01*
X95912476Y-101491333D01*
X95960095Y-101300857D01*
X96007714Y-101205619D01*
X96055333Y-101158000D01*
X96150571Y-101110380D01*
X94579142Y-94675142D02*
X94531523Y-94722761D01*
X94388666Y-94770380D01*
X94293428Y-94770380D01*
X94150571Y-94722761D01*
X94055333Y-94627523D01*
X94007714Y-94532285D01*
X93960095Y-94341809D01*
X93960095Y-94198952D01*
X94007714Y-94008476D01*
X94055333Y-93913238D01*
X94150571Y-93818000D01*
X94293428Y-93770380D01*
X94388666Y-93770380D01*
X94531523Y-93818000D01*
X94579142Y-93865619D01*
X95531523Y-94770380D02*
X94960095Y-94770380D01*
X95245809Y-94770380D02*
X95245809Y-93770380D01*
X95150571Y-93913238D01*
X95055333Y-94008476D01*
X94960095Y-94056095D01*
X96483904Y-94770380D02*
X95912476Y-94770380D01*
X96198190Y-94770380D02*
X96198190Y-93770380D01*
X96102952Y-93913238D01*
X96007714Y-94008476D01*
X95912476Y-94056095D01*
X124153904Y-105730380D02*
X124153904Y-104730380D01*
X124392000Y-104730380D01*
X124534857Y-104778000D01*
X124630095Y-104873238D01*
X124677714Y-104968476D01*
X124725333Y-105158952D01*
X124725333Y-105301809D01*
X124677714Y-105492285D01*
X124630095Y-105587523D01*
X124534857Y-105682761D01*
X124392000Y-105730380D01*
X124153904Y-105730380D01*
X125106285Y-104825619D02*
X125153904Y-104778000D01*
X125249142Y-104730380D01*
X125487238Y-104730380D01*
X125582476Y-104778000D01*
X125630095Y-104825619D01*
X125677714Y-104920857D01*
X125677714Y-105016095D01*
X125630095Y-105158952D01*
X125058666Y-105730380D01*
X125677714Y-105730380D01*
X73569619Y-116103714D02*
X73569619Y-115532285D01*
X73569619Y-115818000D02*
X74569619Y-115818000D01*
X74426761Y-115722761D01*
X74331523Y-115627523D01*
X74283904Y-115532285D01*
X73569619Y-103553714D02*
X73569619Y-102982285D01*
X73569619Y-103268000D02*
X74569619Y-103268000D01*
X74426761Y-103172761D01*
X74331523Y-103077523D01*
X74283904Y-102982285D01*
D12*
X176803428Y-120320857D02*
X176303428Y-120320857D01*
X176303428Y-121106571D02*
X176303428Y-119606571D01*
X177017714Y-119606571D01*
X177517714Y-120678000D02*
X178232000Y-120678000D01*
X177374857Y-121106571D02*
X177874857Y-119606571D01*
X178374857Y-121106571D01*
X178874857Y-121106571D02*
X178874857Y-119606571D01*
X179732000Y-121106571D01*
X179732000Y-119606571D01*
X181232000Y-121106571D02*
X180374857Y-121106571D01*
X180803428Y-121106571D02*
X180803428Y-119606571D01*
X180660571Y-119820857D01*
X180517714Y-119963714D01*
X180374857Y-120035142D01*
D11*
X176803428Y-129050857D02*
X176303428Y-129050857D01*
X176303428Y-129836571D02*
X176303428Y-128336571D01*
X177017714Y-128336571D01*
X177517714Y-129408000D02*
X178232000Y-129408000D01*
X177374857Y-129836571D02*
X177874857Y-128336571D01*
X178374857Y-129836571D01*
X178874857Y-129836571D02*
X178874857Y-128336571D01*
X179732000Y-129836571D01*
X179732000Y-128336571D01*
X180374857Y-128479428D02*
X180446285Y-128408000D01*
X180589142Y-128336571D01*
X180946285Y-128336571D01*
X181089142Y-128408000D01*
X181160571Y-128479428D01*
X181232000Y-128622285D01*
X181232000Y-128765142D01*
X181160571Y-128979428D01*
X180303428Y-129836571D01*
X181232000Y-129836571D01*
D12*
X105692000Y-141346571D02*
X105692000Y-139846571D01*
X106263428Y-139846571D01*
X106406285Y-139918000D01*
X106477714Y-139989428D01*
X106549142Y-140132285D01*
X106549142Y-140346571D01*
X106477714Y-140489428D01*
X106406285Y-140560857D01*
X106263428Y-140632285D01*
X105692000Y-140632285D01*
X107049142Y-139846571D02*
X107406285Y-141346571D01*
X107692000Y-140275142D01*
X107977714Y-141346571D01*
X108334857Y-139846571D01*
X109763428Y-141346571D02*
X109263428Y-140632285D01*
X108906285Y-141346571D02*
X108906285Y-139846571D01*
X109477714Y-139846571D01*
X109620571Y-139918000D01*
X109692000Y-139989428D01*
X109763428Y-140132285D01*
X109763428Y-140346571D01*
X109692000Y-140489428D01*
X109620571Y-140560857D01*
X109477714Y-140632285D01*
X108906285Y-140632285D01*
D11*
X124495333Y-92180380D02*
X124019142Y-92180380D01*
X124019142Y-91180380D01*
X125352476Y-92180380D02*
X124781047Y-92180380D01*
X125066761Y-92180380D02*
X125066761Y-91180380D01*
X124971523Y-91323238D01*
X124876285Y-91418476D01*
X124781047Y-91466095D01*
X103606761Y-63885619D02*
X103511523Y-63838000D01*
X103416285Y-63742761D01*
X103273428Y-63599904D01*
X103178190Y-63552285D01*
X103082952Y-63552285D01*
X103130571Y-63790380D02*
X103035333Y-63742761D01*
X102940095Y-63647523D01*
X102892476Y-63457047D01*
X102892476Y-63123714D01*
X102940095Y-62933238D01*
X103035333Y-62838000D01*
X103130571Y-62790380D01*
X103321047Y-62790380D01*
X103416285Y-62838000D01*
X103511523Y-62933238D01*
X103559142Y-63123714D01*
X103559142Y-63457047D01*
X103511523Y-63647523D01*
X103416285Y-63742761D01*
X103321047Y-63790380D01*
X103130571Y-63790380D01*
X104511523Y-63790380D02*
X103940095Y-63790380D01*
X104225809Y-63790380D02*
X104225809Y-62790380D01*
X104130571Y-62933238D01*
X104035333Y-63028476D01*
X103940095Y-63076095D01*
X108956761Y-63885619D02*
X108861523Y-63838000D01*
X108766285Y-63742761D01*
X108623428Y-63599904D01*
X108528190Y-63552285D01*
X108432952Y-63552285D01*
X108480571Y-63790380D02*
X108385333Y-63742761D01*
X108290095Y-63647523D01*
X108242476Y-63457047D01*
X108242476Y-63123714D01*
X108290095Y-62933238D01*
X108385333Y-62838000D01*
X108480571Y-62790380D01*
X108671047Y-62790380D01*
X108766285Y-62838000D01*
X108861523Y-62933238D01*
X108909142Y-63123714D01*
X108909142Y-63457047D01*
X108861523Y-63647523D01*
X108766285Y-63742761D01*
X108671047Y-63790380D01*
X108480571Y-63790380D01*
X109290095Y-62885619D02*
X109337714Y-62838000D01*
X109432952Y-62790380D01*
X109671047Y-62790380D01*
X109766285Y-62838000D01*
X109813904Y-62885619D01*
X109861523Y-62980857D01*
X109861523Y-63076095D01*
X109813904Y-63218952D01*
X109242476Y-63790380D01*
X109861523Y-63790380D01*
X134546761Y-133725619D02*
X134451523Y-133678000D01*
X134356285Y-133582761D01*
X134213428Y-133439904D01*
X134118190Y-133392285D01*
X134022952Y-133392285D01*
X134070571Y-133630380D02*
X133975333Y-133582761D01*
X133880095Y-133487523D01*
X133832476Y-133297047D01*
X133832476Y-132963714D01*
X133880095Y-132773238D01*
X133975333Y-132678000D01*
X134070571Y-132630380D01*
X134261047Y-132630380D01*
X134356285Y-132678000D01*
X134451523Y-132773238D01*
X134499142Y-132963714D01*
X134499142Y-133297047D01*
X134451523Y-133487523D01*
X134356285Y-133582761D01*
X134261047Y-133630380D01*
X134070571Y-133630380D01*
X134832476Y-132630380D02*
X135451523Y-132630380D01*
X135118190Y-133011333D01*
X135261047Y-133011333D01*
X135356285Y-133058952D01*
X135403904Y-133106571D01*
X135451523Y-133201809D01*
X135451523Y-133439904D01*
X135403904Y-133535142D01*
X135356285Y-133582761D01*
X135261047Y-133630380D01*
X134975333Y-133630380D01*
X134880095Y-133582761D01*
X134832476Y-133535142D01*
X140646761Y-133725619D02*
X140551523Y-133678000D01*
X140456285Y-133582761D01*
X140313428Y-133439904D01*
X140218190Y-133392285D01*
X140122952Y-133392285D01*
X140170571Y-133630380D02*
X140075333Y-133582761D01*
X139980095Y-133487523D01*
X139932476Y-133297047D01*
X139932476Y-132963714D01*
X139980095Y-132773238D01*
X140075333Y-132678000D01*
X140170571Y-132630380D01*
X140361047Y-132630380D01*
X140456285Y-132678000D01*
X140551523Y-132773238D01*
X140599142Y-132963714D01*
X140599142Y-133297047D01*
X140551523Y-133487523D01*
X140456285Y-133582761D01*
X140361047Y-133630380D01*
X140170571Y-133630380D01*
X141456285Y-132963714D02*
X141456285Y-133630380D01*
X141218190Y-132582761D02*
X140980095Y-133297047D01*
X141599142Y-133297047D01*
X149716761Y-96265619D02*
X149621523Y-96218000D01*
X149526285Y-96122761D01*
X149383428Y-95979904D01*
X149288190Y-95932285D01*
X149192952Y-95932285D01*
X149240571Y-96170380D02*
X149145333Y-96122761D01*
X149050095Y-96027523D01*
X149002476Y-95837047D01*
X149002476Y-95503714D01*
X149050095Y-95313238D01*
X149145333Y-95218000D01*
X149240571Y-95170380D01*
X149431047Y-95170380D01*
X149526285Y-95218000D01*
X149621523Y-95313238D01*
X149669142Y-95503714D01*
X149669142Y-95837047D01*
X149621523Y-96027523D01*
X149526285Y-96122761D01*
X149431047Y-96170380D01*
X149240571Y-96170380D01*
X150573904Y-95170380D02*
X150097714Y-95170380D01*
X150050095Y-95646571D01*
X150097714Y-95598952D01*
X150192952Y-95551333D01*
X150431047Y-95551333D01*
X150526285Y-95598952D01*
X150573904Y-95646571D01*
X150621523Y-95741809D01*
X150621523Y-95979904D01*
X150573904Y-96075142D01*
X150526285Y-96122761D01*
X150431047Y-96170380D01*
X150192952Y-96170380D01*
X150097714Y-96122761D01*
X150050095Y-96075142D01*
X149756761Y-85695619D02*
X149661523Y-85648000D01*
X149566285Y-85552761D01*
X149423428Y-85409904D01*
X149328190Y-85362285D01*
X149232952Y-85362285D01*
X149280571Y-85600380D02*
X149185333Y-85552761D01*
X149090095Y-85457523D01*
X149042476Y-85267047D01*
X149042476Y-84933714D01*
X149090095Y-84743238D01*
X149185333Y-84648000D01*
X149280571Y-84600380D01*
X149471047Y-84600380D01*
X149566285Y-84648000D01*
X149661523Y-84743238D01*
X149709142Y-84933714D01*
X149709142Y-85267047D01*
X149661523Y-85457523D01*
X149566285Y-85552761D01*
X149471047Y-85600380D01*
X149280571Y-85600380D01*
X150566285Y-84600380D02*
X150375809Y-84600380D01*
X150280571Y-84648000D01*
X150232952Y-84695619D01*
X150137714Y-84838476D01*
X150090095Y-85028952D01*
X150090095Y-85409904D01*
X150137714Y-85505142D01*
X150185333Y-85552761D01*
X150280571Y-85600380D01*
X150471047Y-85600380D01*
X150566285Y-85552761D01*
X150613904Y-85505142D01*
X150661523Y-85409904D01*
X150661523Y-85171809D01*
X150613904Y-85076571D01*
X150566285Y-85028952D01*
X150471047Y-84981333D01*
X150280571Y-84981333D01*
X150185333Y-85028952D01*
X150137714Y-85076571D01*
X150090095Y-85171809D01*
X103425333Y-74510380D02*
X103092000Y-74034190D01*
X102853904Y-74510380D02*
X102853904Y-73510380D01*
X103234857Y-73510380D01*
X103330095Y-73558000D01*
X103377714Y-73605619D01*
X103425333Y-73700857D01*
X103425333Y-73843714D01*
X103377714Y-73938952D01*
X103330095Y-73986571D01*
X103234857Y-74034190D01*
X102853904Y-74034190D01*
X104377714Y-74510380D02*
X103806285Y-74510380D01*
X104092000Y-74510380D02*
X104092000Y-73510380D01*
X103996761Y-73653238D01*
X103901523Y-73748476D01*
X103806285Y-73796095D01*
X108805333Y-74510380D02*
X108472000Y-74034190D01*
X108233904Y-74510380D02*
X108233904Y-73510380D01*
X108614857Y-73510380D01*
X108710095Y-73558000D01*
X108757714Y-73605619D01*
X108805333Y-73700857D01*
X108805333Y-73843714D01*
X108757714Y-73938952D01*
X108710095Y-73986571D01*
X108614857Y-74034190D01*
X108233904Y-74034190D01*
X109186285Y-73605619D02*
X109233904Y-73558000D01*
X109329142Y-73510380D01*
X109567238Y-73510380D01*
X109662476Y-73558000D01*
X109710095Y-73605619D01*
X109757714Y-73700857D01*
X109757714Y-73796095D01*
X109710095Y-73938952D01*
X109138666Y-74510380D01*
X109757714Y-74510380D01*
X137247333Y-122880380D02*
X136914000Y-122404190D01*
X136675904Y-122880380D02*
X136675904Y-121880380D01*
X137056857Y-121880380D01*
X137152095Y-121928000D01*
X137199714Y-121975619D01*
X137247333Y-122070857D01*
X137247333Y-122213714D01*
X137199714Y-122308952D01*
X137152095Y-122356571D01*
X137056857Y-122404190D01*
X136675904Y-122404190D01*
X137580666Y-121880380D02*
X138199714Y-121880380D01*
X137866380Y-122261333D01*
X138009238Y-122261333D01*
X138104476Y-122308952D01*
X138152095Y-122356571D01*
X138199714Y-122451809D01*
X138199714Y-122689904D01*
X138152095Y-122785142D01*
X138104476Y-122832761D01*
X138009238Y-122880380D01*
X137723523Y-122880380D01*
X137628285Y-122832761D01*
X137580666Y-122785142D01*
X143343333Y-122880380D02*
X143010000Y-122404190D01*
X142771904Y-122880380D02*
X142771904Y-121880380D01*
X143152857Y-121880380D01*
X143248095Y-121928000D01*
X143295714Y-121975619D01*
X143343333Y-122070857D01*
X143343333Y-122213714D01*
X143295714Y-122308952D01*
X143248095Y-122356571D01*
X143152857Y-122404190D01*
X142771904Y-122404190D01*
X144200476Y-122213714D02*
X144200476Y-122880380D01*
X143962380Y-121832761D02*
X143724285Y-122547047D01*
X144343333Y-122547047D01*
X144535333Y-97120380D02*
X144202000Y-96644190D01*
X143963904Y-97120380D02*
X143963904Y-96120380D01*
X144344857Y-96120380D01*
X144440095Y-96168000D01*
X144487714Y-96215619D01*
X144535333Y-96310857D01*
X144535333Y-96453714D01*
X144487714Y-96548952D01*
X144440095Y-96596571D01*
X144344857Y-96644190D01*
X143963904Y-96644190D01*
X145440095Y-96120380D02*
X144963904Y-96120380D01*
X144916285Y-96596571D01*
X144963904Y-96548952D01*
X145059142Y-96501333D01*
X145297238Y-96501333D01*
X145392476Y-96548952D01*
X145440095Y-96596571D01*
X145487714Y-96691809D01*
X145487714Y-96929904D01*
X145440095Y-97025142D01*
X145392476Y-97072761D01*
X145297238Y-97120380D01*
X145059142Y-97120380D01*
X144963904Y-97072761D01*
X144916285Y-97025142D01*
X144535333Y-86460380D02*
X144202000Y-85984190D01*
X143963904Y-86460380D02*
X143963904Y-85460380D01*
X144344857Y-85460380D01*
X144440095Y-85508000D01*
X144487714Y-85555619D01*
X144535333Y-85650857D01*
X144535333Y-85793714D01*
X144487714Y-85888952D01*
X144440095Y-85936571D01*
X144344857Y-85984190D01*
X143963904Y-85984190D01*
X145392476Y-85460380D02*
X145202000Y-85460380D01*
X145106761Y-85508000D01*
X145059142Y-85555619D01*
X144963904Y-85698476D01*
X144916285Y-85888952D01*
X144916285Y-86269904D01*
X144963904Y-86365142D01*
X145011523Y-86412761D01*
X145106761Y-86460380D01*
X145297238Y-86460380D01*
X145392476Y-86412761D01*
X145440095Y-86365142D01*
X145487714Y-86269904D01*
X145487714Y-86031809D01*
X145440095Y-85936571D01*
X145392476Y-85888952D01*
X145297238Y-85841333D01*
X145106761Y-85841333D01*
X145011523Y-85888952D01*
X144963904Y-85936571D01*
X144916285Y-86031809D01*
X107605380Y-131809666D02*
X107129190Y-132143000D01*
X107605380Y-132381095D02*
X106605380Y-132381095D01*
X106605380Y-132000142D01*
X106653000Y-131904904D01*
X106700619Y-131857285D01*
X106795857Y-131809666D01*
X106938714Y-131809666D01*
X107033952Y-131857285D01*
X107081571Y-131904904D01*
X107129190Y-132000142D01*
X107129190Y-132381095D01*
X106605380Y-131476333D02*
X106605380Y-130809666D01*
X107605380Y-131238238D01*
X114930095Y-121700380D02*
X114930095Y-122509904D01*
X114977714Y-122605142D01*
X115025333Y-122652761D01*
X115120571Y-122700380D01*
X115311047Y-122700380D01*
X115406285Y-122652761D01*
X115453904Y-122605142D01*
X115501523Y-122509904D01*
X115501523Y-121700380D01*
X116501523Y-122700380D02*
X115930095Y-122700380D01*
X116215809Y-122700380D02*
X116215809Y-121700380D01*
X116120571Y-121843238D01*
X116025333Y-121938476D01*
X115930095Y-121986095D01*
X27261404Y-83104754D02*
X27261404Y-82104754D01*
X27499500Y-82104754D01*
X27642357Y-82152374D01*
X27737595Y-82247612D01*
X27785214Y-82342850D01*
X27832833Y-82533326D01*
X27832833Y-82676183D01*
X27785214Y-82866659D01*
X27737595Y-82961897D01*
X27642357Y-83057135D01*
X27499500Y-83104754D01*
X27261404Y-83104754D01*
X28166166Y-82104754D02*
X28785214Y-82104754D01*
X28451880Y-82485707D01*
X28594738Y-82485707D01*
X28689976Y-82533326D01*
X28737595Y-82580945D01*
X28785214Y-82676183D01*
X28785214Y-82914278D01*
X28737595Y-83009516D01*
X28689976Y-83057135D01*
X28594738Y-83104754D01*
X28309023Y-83104754D01*
X28213785Y-83057135D01*
X28166166Y-83009516D01*
X27261404Y-90637565D02*
X27261404Y-89637565D01*
X27499500Y-89637565D01*
X27642357Y-89685185D01*
X27737595Y-89780423D01*
X27785214Y-89875661D01*
X27832833Y-90066137D01*
X27832833Y-90208994D01*
X27785214Y-90399470D01*
X27737595Y-90494708D01*
X27642357Y-90589946D01*
X27499500Y-90637565D01*
X27261404Y-90637565D01*
X28689976Y-89970899D02*
X28689976Y-90637565D01*
X28451880Y-89589946D02*
X28213785Y-90304232D01*
X28832833Y-90304232D01*
X27261404Y-98170380D02*
X27261404Y-97170380D01*
X27499500Y-97170380D01*
X27642357Y-97218000D01*
X27737595Y-97313238D01*
X27785214Y-97408476D01*
X27832833Y-97598952D01*
X27832833Y-97741809D01*
X27785214Y-97932285D01*
X27737595Y-98027523D01*
X27642357Y-98122761D01*
X27499500Y-98170380D01*
X27261404Y-98170380D01*
X28737595Y-97170380D02*
X28261404Y-97170380D01*
X28213785Y-97646571D01*
X28261404Y-97598952D01*
X28356642Y-97551333D01*
X28594738Y-97551333D01*
X28689976Y-97598952D01*
X28737595Y-97646571D01*
X28785214Y-97741809D01*
X28785214Y-97979904D01*
X28737595Y-98075142D01*
X28689976Y-98122761D01*
X28594738Y-98170380D01*
X28356642Y-98170380D01*
X28261404Y-98122761D01*
X28213785Y-98075142D01*
X27832833Y-80593817D02*
X27499500Y-80117627D01*
X27261404Y-80593817D02*
X27261404Y-79593817D01*
X27642357Y-79593817D01*
X27737595Y-79641437D01*
X27785214Y-79689056D01*
X27832833Y-79784294D01*
X27832833Y-79927151D01*
X27785214Y-80022389D01*
X27737595Y-80070008D01*
X27642357Y-80117627D01*
X27261404Y-80117627D01*
X28404261Y-80022389D02*
X28309023Y-79974770D01*
X28261404Y-79927151D01*
X28213785Y-79831913D01*
X28213785Y-79784294D01*
X28261404Y-79689056D01*
X28309023Y-79641437D01*
X28404261Y-79593817D01*
X28594738Y-79593817D01*
X28689976Y-79641437D01*
X28737595Y-79689056D01*
X28785214Y-79784294D01*
X28785214Y-79831913D01*
X28737595Y-79927151D01*
X28689976Y-79974770D01*
X28594738Y-80022389D01*
X28404261Y-80022389D01*
X28309023Y-80070008D01*
X28261404Y-80117627D01*
X28213785Y-80212865D01*
X28213785Y-80403341D01*
X28261404Y-80498579D01*
X28309023Y-80546198D01*
X28404261Y-80593817D01*
X28594738Y-80593817D01*
X28689976Y-80546198D01*
X28737595Y-80498579D01*
X28785214Y-80403341D01*
X28785214Y-80212865D01*
X28737595Y-80117627D01*
X28689976Y-80070008D01*
X28594738Y-80022389D01*
X27832833Y-78082880D02*
X27499500Y-77606690D01*
X27261404Y-78082880D02*
X27261404Y-77082880D01*
X27642357Y-77082880D01*
X27737595Y-77130500D01*
X27785214Y-77178119D01*
X27832833Y-77273357D01*
X27832833Y-77416214D01*
X27785214Y-77511452D01*
X27737595Y-77559071D01*
X27642357Y-77606690D01*
X27261404Y-77606690D01*
X28309023Y-78082880D02*
X28499500Y-78082880D01*
X28594738Y-78035261D01*
X28642357Y-77987642D01*
X28737595Y-77844785D01*
X28785214Y-77654309D01*
X28785214Y-77273357D01*
X28737595Y-77178119D01*
X28689976Y-77130500D01*
X28594738Y-77082880D01*
X28404261Y-77082880D01*
X28309023Y-77130500D01*
X28261404Y-77178119D01*
X28213785Y-77273357D01*
X28213785Y-77511452D01*
X28261404Y-77606690D01*
X28309023Y-77654309D01*
X28404261Y-77701928D01*
X28594738Y-77701928D01*
X28689976Y-77654309D01*
X28737595Y-77606690D01*
X28785214Y-77511452D01*
X26880452Y-88126628D02*
X26547119Y-87650438D01*
X26309024Y-88126628D02*
X26309024Y-87126628D01*
X26689976Y-87126628D01*
X26785214Y-87174248D01*
X26832833Y-87221867D01*
X26880452Y-87317105D01*
X26880452Y-87459962D01*
X26832833Y-87555200D01*
X26785214Y-87602819D01*
X26689976Y-87650438D01*
X26309024Y-87650438D01*
X27832833Y-88126628D02*
X27261405Y-88126628D01*
X27547119Y-88126628D02*
X27547119Y-87126628D01*
X27451881Y-87269486D01*
X27356643Y-87364724D01*
X27261405Y-87412343D01*
X28451881Y-87126628D02*
X28547119Y-87126628D01*
X28642357Y-87174248D01*
X28689976Y-87221867D01*
X28737595Y-87317105D01*
X28785214Y-87507581D01*
X28785214Y-87745676D01*
X28737595Y-87936152D01*
X28689976Y-88031390D01*
X28642357Y-88079009D01*
X28547119Y-88126628D01*
X28451881Y-88126628D01*
X28356643Y-88079009D01*
X28309024Y-88031390D01*
X28261405Y-87936152D01*
X28213786Y-87745676D01*
X28213786Y-87507581D01*
X28261405Y-87317105D01*
X28309024Y-87221867D01*
X28356643Y-87174248D01*
X28451881Y-87126628D01*
X26880452Y-85615691D02*
X26547119Y-85139501D01*
X26309024Y-85615691D02*
X26309024Y-84615691D01*
X26689976Y-84615691D01*
X26785214Y-84663311D01*
X26832833Y-84710930D01*
X26880452Y-84806168D01*
X26880452Y-84949025D01*
X26832833Y-85044263D01*
X26785214Y-85091882D01*
X26689976Y-85139501D01*
X26309024Y-85139501D01*
X27832833Y-85615691D02*
X27261405Y-85615691D01*
X27547119Y-85615691D02*
X27547119Y-84615691D01*
X27451881Y-84758549D01*
X27356643Y-84853787D01*
X27261405Y-84901406D01*
X28785214Y-85615691D02*
X28213786Y-85615691D01*
X28499500Y-85615691D02*
X28499500Y-84615691D01*
X28404262Y-84758549D01*
X28309024Y-84853787D01*
X28213786Y-84901406D01*
X26880452Y-95659439D02*
X26547119Y-95183249D01*
X26309024Y-95659439D02*
X26309024Y-94659439D01*
X26689976Y-94659439D01*
X26785214Y-94707059D01*
X26832833Y-94754678D01*
X26880452Y-94849916D01*
X26880452Y-94992773D01*
X26832833Y-95088011D01*
X26785214Y-95135630D01*
X26689976Y-95183249D01*
X26309024Y-95183249D01*
X27832833Y-95659439D02*
X27261405Y-95659439D01*
X27547119Y-95659439D02*
X27547119Y-94659439D01*
X27451881Y-94802297D01*
X27356643Y-94897535D01*
X27261405Y-94945154D01*
X28213786Y-94754678D02*
X28261405Y-94707059D01*
X28356643Y-94659439D01*
X28594738Y-94659439D01*
X28689976Y-94707059D01*
X28737595Y-94754678D01*
X28785214Y-94849916D01*
X28785214Y-94945154D01*
X28737595Y-95088011D01*
X28166167Y-95659439D01*
X28785214Y-95659439D01*
X26880452Y-93148502D02*
X26547119Y-92672312D01*
X26309024Y-93148502D02*
X26309024Y-92148502D01*
X26689976Y-92148502D01*
X26785214Y-92196122D01*
X26832833Y-92243741D01*
X26880452Y-92338979D01*
X26880452Y-92481836D01*
X26832833Y-92577074D01*
X26785214Y-92624693D01*
X26689976Y-92672312D01*
X26309024Y-92672312D01*
X27832833Y-93148502D02*
X27261405Y-93148502D01*
X27547119Y-93148502D02*
X27547119Y-92148502D01*
X27451881Y-92291360D01*
X27356643Y-92386598D01*
X27261405Y-92434217D01*
X28166167Y-92148502D02*
X28785214Y-92148502D01*
X28451881Y-92529455D01*
X28594738Y-92529455D01*
X28689976Y-92577074D01*
X28737595Y-92624693D01*
X28785214Y-92719931D01*
X28785214Y-92958026D01*
X28737595Y-93053264D01*
X28689976Y-93100883D01*
X28594738Y-93148502D01*
X28309024Y-93148502D01*
X28213786Y-93100883D01*
X28166167Y-93053264D01*
M02*
