G04 #@! TF.GenerationSoftware,KiCad,Pcbnew,(5.1.9)-1*
G04 #@! TF.CreationDate,2021-03-21T20:16:28+01:00*
G04 #@! TF.ProjectId,TonOfSteppers,546f6e4f-6653-4746-9570-706572732e6b,rev?*
G04 #@! TF.SameCoordinates,Original*
G04 #@! TF.FileFunction,Paste,Top*
G04 #@! TF.FilePolarity,Positive*
%FSLAX46Y46*%
G04 Gerber Fmt 4.6, Leading zero omitted, Abs format (unit mm)*
G04 Created by KiCad (PCBNEW (5.1.9)-1) date 2021-03-21 20:16:28*
%MOMM*%
%LPD*%
G01*
G04 APERTURE LIST*
%ADD10R,3.300000X4.500000*%
%ADD11R,1.000000X3.150000*%
%ADD12R,4.500000X5.000000*%
%ADD13C,0.100000*%
%ADD14R,0.900000X2.300000*%
%ADD15R,2.300000X0.900000*%
%ADD16R,0.800000X4.600000*%
%ADD17R,5.250000X4.550000*%
%ADD18R,2.500000X1.100000*%
%ADD19R,4.600000X1.100000*%
%ADD20R,4.550000X5.250000*%
G04 APERTURE END LIST*
G36*
G01*
X147197000Y-33233000D02*
X147197000Y-32133000D01*
G75*
G02*
X147447000Y-31883000I250000J0D01*
G01*
X150447000Y-31883000D01*
G75*
G02*
X150697000Y-32133000I0J-250000D01*
G01*
X150697000Y-33233000D01*
G75*
G02*
X150447000Y-33483000I-250000J0D01*
G01*
X147447000Y-33483000D01*
G75*
G02*
X147197000Y-33233000I0J250000D01*
G01*
G37*
G36*
G01*
X152597000Y-33233000D02*
X152597000Y-32133000D01*
G75*
G02*
X152847000Y-31883000I250000J0D01*
G01*
X155847000Y-31883000D01*
G75*
G02*
X156097000Y-32133000I0J-250000D01*
G01*
X156097000Y-33233000D01*
G75*
G02*
X155847000Y-33483000I-250000J0D01*
G01*
X152847000Y-33483000D01*
G75*
G02*
X152597000Y-33233000I0J250000D01*
G01*
G37*
G36*
G01*
X129947000Y-33233000D02*
X129947000Y-32133000D01*
G75*
G02*
X130197000Y-31883000I250000J0D01*
G01*
X133197000Y-31883000D01*
G75*
G02*
X133447000Y-32133000I0J-250000D01*
G01*
X133447000Y-33233000D01*
G75*
G02*
X133197000Y-33483000I-250000J0D01*
G01*
X130197000Y-33483000D01*
G75*
G02*
X129947000Y-33233000I0J250000D01*
G01*
G37*
G36*
G01*
X124547000Y-33233000D02*
X124547000Y-32133000D01*
G75*
G02*
X124797000Y-31883000I250000J0D01*
G01*
X127797000Y-31883000D01*
G75*
G02*
X128047000Y-32133000I0J-250000D01*
G01*
X128047000Y-33233000D01*
G75*
G02*
X127797000Y-33483000I-250000J0D01*
G01*
X124797000Y-33483000D01*
G75*
G02*
X124547000Y-33233000I0J250000D01*
G01*
G37*
G36*
G01*
X171472000Y-80488000D02*
X172572000Y-80488000D01*
G75*
G02*
X172822000Y-80738000I0J-250000D01*
G01*
X172822000Y-83738000D01*
G75*
G02*
X172572000Y-83988000I-250000J0D01*
G01*
X171472000Y-83988000D01*
G75*
G02*
X171222000Y-83738000I0J250000D01*
G01*
X171222000Y-80738000D01*
G75*
G02*
X171472000Y-80488000I250000J0D01*
G01*
G37*
G36*
G01*
X171472000Y-75088000D02*
X172572000Y-75088000D01*
G75*
G02*
X172822000Y-75338000I0J-250000D01*
G01*
X172822000Y-78338000D01*
G75*
G02*
X172572000Y-78588000I-250000J0D01*
G01*
X171472000Y-78588000D01*
G75*
G02*
X171222000Y-78338000I0J250000D01*
G01*
X171222000Y-75338000D01*
G75*
G02*
X171472000Y-75088000I250000J0D01*
G01*
G37*
G36*
G01*
X172882000Y-105428000D02*
X171782000Y-105428000D01*
G75*
G02*
X171532000Y-105178000I0J250000D01*
G01*
X171532000Y-102178000D01*
G75*
G02*
X171782000Y-101928000I250000J0D01*
G01*
X172882000Y-101928000D01*
G75*
G02*
X173132000Y-102178000I0J-250000D01*
G01*
X173132000Y-105178000D01*
G75*
G02*
X172882000Y-105428000I-250000J0D01*
G01*
G37*
G36*
G01*
X172882000Y-100028000D02*
X171782000Y-100028000D01*
G75*
G02*
X171532000Y-99778000I0J250000D01*
G01*
X171532000Y-96778000D01*
G75*
G02*
X171782000Y-96528000I250000J0D01*
G01*
X172882000Y-96528000D01*
G75*
G02*
X173132000Y-96778000I0J-250000D01*
G01*
X173132000Y-99778000D01*
G75*
G02*
X172882000Y-100028000I-250000J0D01*
G01*
G37*
G36*
G01*
X103522000Y-119158000D02*
X103522000Y-120258000D01*
G75*
G02*
X103272000Y-120508000I-250000J0D01*
G01*
X101172000Y-120508000D01*
G75*
G02*
X100922000Y-120258000I0J250000D01*
G01*
X100922000Y-119158000D01*
G75*
G02*
X101172000Y-118908000I250000J0D01*
G01*
X103272000Y-118908000D01*
G75*
G02*
X103522000Y-119158000I0J-250000D01*
G01*
G37*
G36*
G01*
X99922000Y-119158000D02*
X99922000Y-120258000D01*
G75*
G02*
X99672000Y-120508000I-250000J0D01*
G01*
X97572000Y-120508000D01*
G75*
G02*
X97322000Y-120258000I0J250000D01*
G01*
X97322000Y-119158000D01*
G75*
G02*
X97572000Y-118908000I250000J0D01*
G01*
X99672000Y-118908000D01*
G75*
G02*
X99922000Y-119158000I0J-250000D01*
G01*
G37*
G36*
G01*
X99922000Y-114183000D02*
X99922000Y-115283000D01*
G75*
G02*
X99672000Y-115533000I-250000J0D01*
G01*
X97572000Y-115533000D01*
G75*
G02*
X97322000Y-115283000I0J250000D01*
G01*
X97322000Y-114183000D01*
G75*
G02*
X97572000Y-113933000I250000J0D01*
G01*
X99672000Y-113933000D01*
G75*
G02*
X99922000Y-114183000I0J-250000D01*
G01*
G37*
G36*
G01*
X103522000Y-114183000D02*
X103522000Y-115283000D01*
G75*
G02*
X103272000Y-115533000I-250000J0D01*
G01*
X101172000Y-115533000D01*
G75*
G02*
X100922000Y-115283000I0J250000D01*
G01*
X100922000Y-114183000D01*
G75*
G02*
X101172000Y-113933000I250000J0D01*
G01*
X103272000Y-113933000D01*
G75*
G02*
X103522000Y-114183000I0J-250000D01*
G01*
G37*
G36*
G01*
X103497000Y-109208000D02*
X103497000Y-110308000D01*
G75*
G02*
X103247000Y-110558000I-250000J0D01*
G01*
X101147000Y-110558000D01*
G75*
G02*
X100897000Y-110308000I0J250000D01*
G01*
X100897000Y-109208000D01*
G75*
G02*
X101147000Y-108958000I250000J0D01*
G01*
X103247000Y-108958000D01*
G75*
G02*
X103497000Y-109208000I0J-250000D01*
G01*
G37*
G36*
G01*
X99897000Y-109208000D02*
X99897000Y-110308000D01*
G75*
G02*
X99647000Y-110558000I-250000J0D01*
G01*
X97547000Y-110558000D01*
G75*
G02*
X97297000Y-110308000I0J250000D01*
G01*
X97297000Y-109208000D01*
G75*
G02*
X97547000Y-108958000I250000J0D01*
G01*
X99647000Y-108958000D01*
G75*
G02*
X99897000Y-109208000I0J-250000D01*
G01*
G37*
G36*
G01*
X99447000Y-105783000D02*
X99447000Y-106733000D01*
G75*
G02*
X99197000Y-106983000I-250000J0D01*
G01*
X98522000Y-106983000D01*
G75*
G02*
X98272000Y-106733000I0J250000D01*
G01*
X98272000Y-105783000D01*
G75*
G02*
X98522000Y-105533000I250000J0D01*
G01*
X99197000Y-105533000D01*
G75*
G02*
X99447000Y-105783000I0J-250000D01*
G01*
G37*
G36*
G01*
X101522000Y-105783000D02*
X101522000Y-106733000D01*
G75*
G02*
X101272000Y-106983000I-250000J0D01*
G01*
X100597000Y-106983000D01*
G75*
G02*
X100347000Y-106733000I0J250000D01*
G01*
X100347000Y-105783000D01*
G75*
G02*
X100597000Y-105533000I250000J0D01*
G01*
X101272000Y-105533000D01*
G75*
G02*
X101522000Y-105783000I0J-250000D01*
G01*
G37*
G36*
G01*
X105997000Y-101033000D02*
X105997000Y-102133000D01*
G75*
G02*
X105747000Y-102383000I-250000J0D01*
G01*
X102747000Y-102383000D01*
G75*
G02*
X102497000Y-102133000I0J250000D01*
G01*
X102497000Y-101033000D01*
G75*
G02*
X102747000Y-100783000I250000J0D01*
G01*
X105747000Y-100783000D01*
G75*
G02*
X105997000Y-101033000I0J-250000D01*
G01*
G37*
G36*
G01*
X100597000Y-101033000D02*
X100597000Y-102133000D01*
G75*
G02*
X100347000Y-102383000I-250000J0D01*
G01*
X97347000Y-102383000D01*
G75*
G02*
X97097000Y-102133000I0J250000D01*
G01*
X97097000Y-101033000D01*
G75*
G02*
X97347000Y-100783000I250000J0D01*
G01*
X100347000Y-100783000D01*
G75*
G02*
X100597000Y-101033000I0J-250000D01*
G01*
G37*
G36*
G01*
X100572000Y-93783000D02*
X100572000Y-94883000D01*
G75*
G02*
X100322000Y-95133000I-250000J0D01*
G01*
X97322000Y-95133000D01*
G75*
G02*
X97072000Y-94883000I0J250000D01*
G01*
X97072000Y-93783000D01*
G75*
G02*
X97322000Y-93533000I250000J0D01*
G01*
X100322000Y-93533000D01*
G75*
G02*
X100572000Y-93783000I0J-250000D01*
G01*
G37*
G36*
G01*
X105972000Y-93783000D02*
X105972000Y-94883000D01*
G75*
G02*
X105722000Y-95133000I-250000J0D01*
G01*
X102722000Y-95133000D01*
G75*
G02*
X102472000Y-94883000I0J250000D01*
G01*
X102472000Y-93783000D01*
G75*
G02*
X102722000Y-93533000I250000J0D01*
G01*
X105722000Y-93533000D01*
G75*
G02*
X105972000Y-93783000I0J-250000D01*
G01*
G37*
D10*
X120447000Y-107108000D03*
X120447000Y-115908000D03*
D11*
X66502000Y-111434000D03*
X66502000Y-116484000D03*
X63962000Y-111434000D03*
X63962000Y-116484000D03*
X61422000Y-111434000D03*
X61422000Y-116484000D03*
X58882000Y-111434000D03*
X58882000Y-116484000D03*
X56342000Y-111434000D03*
X56342000Y-116484000D03*
X53802000Y-111434000D03*
X53802000Y-116484000D03*
X51262000Y-111434000D03*
X51262000Y-116484000D03*
X48722000Y-111434000D03*
X48722000Y-116484000D03*
X46182000Y-111434000D03*
X46182000Y-116484000D03*
X43642000Y-111434000D03*
X43642000Y-116484000D03*
X41102000Y-111434000D03*
X41102000Y-116484000D03*
X38562000Y-111434000D03*
X38562000Y-116484000D03*
X36022000Y-111434000D03*
X36022000Y-116484000D03*
X33482000Y-111434000D03*
X33482000Y-116484000D03*
X30942000Y-111434000D03*
X30942000Y-116484000D03*
X28402000Y-111434000D03*
X28402000Y-116484000D03*
X25862000Y-111434000D03*
X25862000Y-116484000D03*
X23322000Y-111434000D03*
X23322000Y-116484000D03*
X20782000Y-111434000D03*
X20782000Y-116484000D03*
X18242000Y-111434000D03*
X18242000Y-116484000D03*
X18242000Y-103959000D03*
X18242000Y-98909000D03*
X20782000Y-103959000D03*
X20782000Y-98909000D03*
X23322000Y-103959000D03*
X23322000Y-98909000D03*
X25862000Y-103959000D03*
X25862000Y-98909000D03*
X28402000Y-103959000D03*
X28402000Y-98909000D03*
X30942000Y-103959000D03*
X30942000Y-98909000D03*
X33482000Y-103959000D03*
X33482000Y-98909000D03*
X36022000Y-103959000D03*
X36022000Y-98909000D03*
X38562000Y-103959000D03*
X38562000Y-98909000D03*
X41102000Y-103959000D03*
X41102000Y-98909000D03*
X43642000Y-103959000D03*
X43642000Y-98909000D03*
X46182000Y-103959000D03*
X46182000Y-98909000D03*
X48722000Y-103959000D03*
X48722000Y-98909000D03*
X51262000Y-103959000D03*
X51262000Y-98909000D03*
X53802000Y-103959000D03*
X53802000Y-98909000D03*
X56342000Y-103959000D03*
X56342000Y-98909000D03*
X58882000Y-103959000D03*
X58882000Y-98909000D03*
X61422000Y-103959000D03*
X61422000Y-98909000D03*
X63962000Y-103959000D03*
X63962000Y-98909000D03*
X66502000Y-103959000D03*
X66502000Y-98909000D03*
D12*
X110747000Y-97758000D03*
X121247000Y-97758000D03*
D13*
G36*
X104458500Y-64408000D02*
G01*
X104458500Y-68533000D01*
X104042000Y-68533000D01*
X104042000Y-71008000D01*
X103142000Y-71008000D01*
X103142000Y-68533000D01*
X102725500Y-68533000D01*
X102725500Y-64408000D01*
X104458500Y-64408000D01*
G37*
D14*
X105092000Y-69858000D03*
X102092000Y-69858000D03*
X107472000Y-69858000D03*
X110472000Y-69858000D03*
D13*
G36*
X109838500Y-64408000D02*
G01*
X109838500Y-68533000D01*
X109422000Y-68533000D01*
X109422000Y-71008000D01*
X108522000Y-71008000D01*
X108522000Y-68533000D01*
X108105500Y-68533000D01*
X108105500Y-64408000D01*
X109838500Y-64408000D01*
G37*
D14*
X136092000Y-126668000D03*
X133092000Y-126668000D03*
D13*
G36*
X133725500Y-132118000D02*
G01*
X133725500Y-127993000D01*
X134142000Y-127993000D01*
X134142000Y-125518000D01*
X135042000Y-125518000D01*
X135042000Y-127993000D01*
X135458500Y-127993000D01*
X135458500Y-132118000D01*
X133725500Y-132118000D01*
G37*
G36*
X139775500Y-132138000D02*
G01*
X139775500Y-128013000D01*
X140192000Y-128013000D01*
X140192000Y-125538000D01*
X141092000Y-125538000D01*
X141092000Y-128013000D01*
X141508500Y-128013000D01*
X141508500Y-132138000D01*
X139775500Y-132138000D01*
G37*
D14*
X139142000Y-126688000D03*
X142142000Y-126688000D03*
D15*
X147456000Y-97560000D03*
X147456000Y-100560000D03*
D13*
G36*
X152906000Y-99926500D02*
G01*
X148781000Y-99926500D01*
X148781000Y-99510000D01*
X146306000Y-99510000D01*
X146306000Y-98610000D01*
X148781000Y-98610000D01*
X148781000Y-98193500D01*
X152906000Y-98193500D01*
X152906000Y-99926500D01*
G37*
G36*
X152852000Y-89514500D02*
G01*
X148727000Y-89514500D01*
X148727000Y-89098000D01*
X146252000Y-89098000D01*
X146252000Y-88198000D01*
X148727000Y-88198000D01*
X148727000Y-87781500D01*
X152852000Y-87781500D01*
X152852000Y-89514500D01*
G37*
D15*
X147402000Y-90148000D03*
X147402000Y-87148000D03*
G36*
G01*
X103192000Y-71957999D02*
X103192000Y-72858001D01*
G75*
G02*
X102942001Y-73108000I-249999J0D01*
G01*
X102241999Y-73108000D01*
G75*
G02*
X101992000Y-72858001I0J249999D01*
G01*
X101992000Y-71957999D01*
G75*
G02*
X102241999Y-71708000I249999J0D01*
G01*
X102942001Y-71708000D01*
G75*
G02*
X103192000Y-71957999I0J-249999D01*
G01*
G37*
G36*
G01*
X105192000Y-71957999D02*
X105192000Y-72858001D01*
G75*
G02*
X104942001Y-73108000I-249999J0D01*
G01*
X104241999Y-73108000D01*
G75*
G02*
X103992000Y-72858001I0J249999D01*
G01*
X103992000Y-71957999D01*
G75*
G02*
X104241999Y-71708000I249999J0D01*
G01*
X104942001Y-71708000D01*
G75*
G02*
X105192000Y-71957999I0J-249999D01*
G01*
G37*
G36*
G01*
X110572000Y-71957999D02*
X110572000Y-72858001D01*
G75*
G02*
X110322001Y-73108000I-249999J0D01*
G01*
X109621999Y-73108000D01*
G75*
G02*
X109372000Y-72858001I0J249999D01*
G01*
X109372000Y-71957999D01*
G75*
G02*
X109621999Y-71708000I249999J0D01*
G01*
X110322001Y-71708000D01*
G75*
G02*
X110572000Y-71957999I0J-249999D01*
G01*
G37*
G36*
G01*
X108572000Y-71957999D02*
X108572000Y-72858001D01*
G75*
G02*
X108322001Y-73108000I-249999J0D01*
G01*
X107621999Y-73108000D01*
G75*
G02*
X107372000Y-72858001I0J249999D01*
G01*
X107372000Y-71957999D01*
G75*
G02*
X107621999Y-71708000I249999J0D01*
G01*
X108322001Y-71708000D01*
G75*
G02*
X108572000Y-71957999I0J-249999D01*
G01*
G37*
G36*
G01*
X133022000Y-124408001D02*
X133022000Y-123507999D01*
G75*
G02*
X133271999Y-123258000I249999J0D01*
G01*
X133972001Y-123258000D01*
G75*
G02*
X134222000Y-123507999I0J-249999D01*
G01*
X134222000Y-124408001D01*
G75*
G02*
X133972001Y-124658000I-249999J0D01*
G01*
X133271999Y-124658000D01*
G75*
G02*
X133022000Y-124408001I0J249999D01*
G01*
G37*
G36*
G01*
X135022000Y-124408001D02*
X135022000Y-123507999D01*
G75*
G02*
X135271999Y-123258000I249999J0D01*
G01*
X135972001Y-123258000D01*
G75*
G02*
X136222000Y-123507999I0J-249999D01*
G01*
X136222000Y-124408001D01*
G75*
G02*
X135972001Y-124658000I-249999J0D01*
G01*
X135271999Y-124658000D01*
G75*
G02*
X135022000Y-124408001I0J249999D01*
G01*
G37*
G36*
G01*
X141042000Y-124428001D02*
X141042000Y-123527999D01*
G75*
G02*
X141291999Y-123278000I249999J0D01*
G01*
X141992001Y-123278000D01*
G75*
G02*
X142242000Y-123527999I0J-249999D01*
G01*
X142242000Y-124428001D01*
G75*
G02*
X141992001Y-124678000I-249999J0D01*
G01*
X141291999Y-124678000D01*
G75*
G02*
X141042000Y-124428001I0J249999D01*
G01*
G37*
G36*
G01*
X139042000Y-124428001D02*
X139042000Y-123527999D01*
G75*
G02*
X139291999Y-123278000I249999J0D01*
G01*
X139992001Y-123278000D01*
G75*
G02*
X140242000Y-123527999I0J-249999D01*
G01*
X140242000Y-124428001D01*
G75*
G02*
X139992001Y-124678000I-249999J0D01*
G01*
X139291999Y-124678000D01*
G75*
G02*
X139042000Y-124428001I0J249999D01*
G01*
G37*
G36*
G01*
X145142001Y-100818000D02*
X144241999Y-100818000D01*
G75*
G02*
X143992000Y-100568001I0J249999D01*
G01*
X143992000Y-99867999D01*
G75*
G02*
X144241999Y-99618000I249999J0D01*
G01*
X145142001Y-99618000D01*
G75*
G02*
X145392000Y-99867999I0J-249999D01*
G01*
X145392000Y-100568001D01*
G75*
G02*
X145142001Y-100818000I-249999J0D01*
G01*
G37*
G36*
G01*
X145142001Y-98818000D02*
X144241999Y-98818000D01*
G75*
G02*
X143992000Y-98568001I0J249999D01*
G01*
X143992000Y-97867999D01*
G75*
G02*
X144241999Y-97618000I249999J0D01*
G01*
X145142001Y-97618000D01*
G75*
G02*
X145392000Y-97867999I0J-249999D01*
G01*
X145392000Y-98568001D01*
G75*
G02*
X145142001Y-98818000I-249999J0D01*
G01*
G37*
G36*
G01*
X145192001Y-88248000D02*
X144291999Y-88248000D01*
G75*
G02*
X144042000Y-87998001I0J249999D01*
G01*
X144042000Y-87297999D01*
G75*
G02*
X144291999Y-87048000I249999J0D01*
G01*
X145192001Y-87048000D01*
G75*
G02*
X145442000Y-87297999I0J-249999D01*
G01*
X145442000Y-87998001D01*
G75*
G02*
X145192001Y-88248000I-249999J0D01*
G01*
G37*
G36*
G01*
X145192001Y-90248000D02*
X144291999Y-90248000D01*
G75*
G02*
X144042000Y-89998001I0J249999D01*
G01*
X144042000Y-89297999D01*
G75*
G02*
X144291999Y-89048000I249999J0D01*
G01*
X145192001Y-89048000D01*
G75*
G02*
X145442000Y-89297999I0J-249999D01*
G01*
X145442000Y-89998001D01*
G75*
G02*
X145192001Y-90248000I-249999J0D01*
G01*
G37*
G36*
G01*
X106737999Y-129178000D02*
X107638001Y-129178000D01*
G75*
G02*
X107888000Y-129427999I0J-249999D01*
G01*
X107888000Y-130128001D01*
G75*
G02*
X107638001Y-130378000I-249999J0D01*
G01*
X106737999Y-130378000D01*
G75*
G02*
X106488000Y-130128001I0J249999D01*
G01*
X106488000Y-129427999D01*
G75*
G02*
X106737999Y-129178000I249999J0D01*
G01*
G37*
G36*
G01*
X106737999Y-127178000D02*
X107638001Y-127178000D01*
G75*
G02*
X107888000Y-127427999I0J-249999D01*
G01*
X107888000Y-128128001D01*
G75*
G02*
X107638001Y-128378000I-249999J0D01*
G01*
X106737999Y-128378000D01*
G75*
G02*
X106488000Y-128128001I0J249999D01*
G01*
X106488000Y-127427999D01*
G75*
G02*
X106737999Y-127178000I249999J0D01*
G01*
G37*
D16*
X114932000Y-107158000D03*
X113662000Y-107158000D03*
X112392000Y-107158000D03*
X111122000Y-107158000D03*
X109852000Y-107158000D03*
X108582000Y-107158000D03*
X107312000Y-107158000D03*
D17*
X108347000Y-118733000D03*
X113897000Y-113883000D03*
X113897000Y-118733000D03*
X108347000Y-113883000D03*
G36*
G01*
X25767000Y-79114999D02*
X25767000Y-80015001D01*
G75*
G02*
X25517001Y-80265000I-249999J0D01*
G01*
X24866999Y-80265000D01*
G75*
G02*
X24617000Y-80015001I0J249999D01*
G01*
X24617000Y-79114999D01*
G75*
G02*
X24866999Y-78865000I249999J0D01*
G01*
X25517001Y-78865000D01*
G75*
G02*
X25767000Y-79114999I0J-249999D01*
G01*
G37*
G36*
G01*
X23717000Y-79114999D02*
X23717000Y-80015001D01*
G75*
G02*
X23467001Y-80265000I-249999J0D01*
G01*
X22816999Y-80265000D01*
G75*
G02*
X22567000Y-80015001I0J249999D01*
G01*
X22567000Y-79114999D01*
G75*
G02*
X22816999Y-78865000I249999J0D01*
G01*
X23467001Y-78865000D01*
G75*
G02*
X23717000Y-79114999I0J-249999D01*
G01*
G37*
G36*
G01*
X25812000Y-86514999D02*
X25812000Y-87415001D01*
G75*
G02*
X25562001Y-87665000I-249999J0D01*
G01*
X24911999Y-87665000D01*
G75*
G02*
X24662000Y-87415001I0J249999D01*
G01*
X24662000Y-86514999D01*
G75*
G02*
X24911999Y-86265000I249999J0D01*
G01*
X25562001Y-86265000D01*
G75*
G02*
X25812000Y-86514999I0J-249999D01*
G01*
G37*
G36*
G01*
X23762000Y-86514999D02*
X23762000Y-87415001D01*
G75*
G02*
X23512001Y-87665000I-249999J0D01*
G01*
X22861999Y-87665000D01*
G75*
G02*
X22612000Y-87415001I0J249999D01*
G01*
X22612000Y-86514999D01*
G75*
G02*
X22861999Y-86265000I249999J0D01*
G01*
X23512001Y-86265000D01*
G75*
G02*
X23762000Y-86514999I0J-249999D01*
G01*
G37*
G36*
G01*
X23762000Y-94009999D02*
X23762000Y-94910001D01*
G75*
G02*
X23512001Y-95160000I-249999J0D01*
G01*
X22861999Y-95160000D01*
G75*
G02*
X22612000Y-94910001I0J249999D01*
G01*
X22612000Y-94009999D01*
G75*
G02*
X22861999Y-93760000I249999J0D01*
G01*
X23512001Y-93760000D01*
G75*
G02*
X23762000Y-94009999I0J-249999D01*
G01*
G37*
G36*
G01*
X25812000Y-94009999D02*
X25812000Y-94910001D01*
G75*
G02*
X25562001Y-95160000I-249999J0D01*
G01*
X24911999Y-95160000D01*
G75*
G02*
X24662000Y-94910001I0J249999D01*
G01*
X24662000Y-94009999D01*
G75*
G02*
X24911999Y-93760000I249999J0D01*
G01*
X25562001Y-93760000D01*
G75*
G02*
X25812000Y-94009999I0J-249999D01*
G01*
G37*
G36*
G01*
X24589500Y-77560001D02*
X24589500Y-76659999D01*
G75*
G02*
X24839499Y-76410000I249999J0D01*
G01*
X25539501Y-76410000D01*
G75*
G02*
X25789500Y-76659999I0J-249999D01*
G01*
X25789500Y-77560001D01*
G75*
G02*
X25539501Y-77810000I-249999J0D01*
G01*
X24839499Y-77810000D01*
G75*
G02*
X24589500Y-77560001I0J249999D01*
G01*
G37*
G36*
G01*
X22589500Y-77560001D02*
X22589500Y-76659999D01*
G75*
G02*
X22839499Y-76410000I249999J0D01*
G01*
X23539501Y-76410000D01*
G75*
G02*
X23789500Y-76659999I0J-249999D01*
G01*
X23789500Y-77560001D01*
G75*
G02*
X23539501Y-77810000I-249999J0D01*
G01*
X22839499Y-77810000D01*
G75*
G02*
X22589500Y-77560001I0J249999D01*
G01*
G37*
G36*
G01*
X25789500Y-74159999D02*
X25789500Y-75060001D01*
G75*
G02*
X25539501Y-75310000I-249999J0D01*
G01*
X24839499Y-75310000D01*
G75*
G02*
X24589500Y-75060001I0J249999D01*
G01*
X24589500Y-74159999D01*
G75*
G02*
X24839499Y-73910000I249999J0D01*
G01*
X25539501Y-73910000D01*
G75*
G02*
X25789500Y-74159999I0J-249999D01*
G01*
G37*
G36*
G01*
X23789500Y-74159999D02*
X23789500Y-75060001D01*
G75*
G02*
X23539501Y-75310000I-249999J0D01*
G01*
X22839499Y-75310000D01*
G75*
G02*
X22589500Y-75060001I0J249999D01*
G01*
X22589500Y-74159999D01*
G75*
G02*
X22839499Y-73910000I249999J0D01*
G01*
X23539501Y-73910000D01*
G75*
G02*
X23789500Y-74159999I0J-249999D01*
G01*
G37*
G36*
G01*
X24589500Y-84960001D02*
X24589500Y-84059999D01*
G75*
G02*
X24839499Y-83810000I249999J0D01*
G01*
X25539501Y-83810000D01*
G75*
G02*
X25789500Y-84059999I0J-249999D01*
G01*
X25789500Y-84960001D01*
G75*
G02*
X25539501Y-85210000I-249999J0D01*
G01*
X24839499Y-85210000D01*
G75*
G02*
X24589500Y-84960001I0J249999D01*
G01*
G37*
G36*
G01*
X22589500Y-84960001D02*
X22589500Y-84059999D01*
G75*
G02*
X22839499Y-83810000I249999J0D01*
G01*
X23539501Y-83810000D01*
G75*
G02*
X23789500Y-84059999I0J-249999D01*
G01*
X23789500Y-84960001D01*
G75*
G02*
X23539501Y-85210000I-249999J0D01*
G01*
X22839499Y-85210000D01*
G75*
G02*
X22589500Y-84960001I0J249999D01*
G01*
G37*
G36*
G01*
X25789500Y-81559999D02*
X25789500Y-82460001D01*
G75*
G02*
X25539501Y-82710000I-249999J0D01*
G01*
X24839499Y-82710000D01*
G75*
G02*
X24589500Y-82460001I0J249999D01*
G01*
X24589500Y-81559999D01*
G75*
G02*
X24839499Y-81310000I249999J0D01*
G01*
X25539501Y-81310000D01*
G75*
G02*
X25789500Y-81559999I0J-249999D01*
G01*
G37*
G36*
G01*
X23789500Y-81559999D02*
X23789500Y-82460001D01*
G75*
G02*
X23539501Y-82710000I-249999J0D01*
G01*
X22839499Y-82710000D01*
G75*
G02*
X22589500Y-82460001I0J249999D01*
G01*
X22589500Y-81559999D01*
G75*
G02*
X22839499Y-81310000I249999J0D01*
G01*
X23539501Y-81310000D01*
G75*
G02*
X23789500Y-81559999I0J-249999D01*
G01*
G37*
G36*
G01*
X22589500Y-92460001D02*
X22589500Y-91559999D01*
G75*
G02*
X22839499Y-91310000I249999J0D01*
G01*
X23539501Y-91310000D01*
G75*
G02*
X23789500Y-91559999I0J-249999D01*
G01*
X23789500Y-92460001D01*
G75*
G02*
X23539501Y-92710000I-249999J0D01*
G01*
X22839499Y-92710000D01*
G75*
G02*
X22589500Y-92460001I0J249999D01*
G01*
G37*
G36*
G01*
X24589500Y-92460001D02*
X24589500Y-91559999D01*
G75*
G02*
X24839499Y-91310000I249999J0D01*
G01*
X25539501Y-91310000D01*
G75*
G02*
X25789500Y-91559999I0J-249999D01*
G01*
X25789500Y-92460001D01*
G75*
G02*
X25539501Y-92710000I-249999J0D01*
G01*
X24839499Y-92710000D01*
G75*
G02*
X24589500Y-92460001I0J249999D01*
G01*
G37*
G36*
G01*
X23789500Y-89059999D02*
X23789500Y-89960001D01*
G75*
G02*
X23539501Y-90210000I-249999J0D01*
G01*
X22839499Y-90210000D01*
G75*
G02*
X22589500Y-89960001I0J249999D01*
G01*
X22589500Y-89059999D01*
G75*
G02*
X22839499Y-88810000I249999J0D01*
G01*
X23539501Y-88810000D01*
G75*
G02*
X23789500Y-89059999I0J-249999D01*
G01*
G37*
G36*
G01*
X25789500Y-89059999D02*
X25789500Y-89960001D01*
G75*
G02*
X25539501Y-90210000I-249999J0D01*
G01*
X24839499Y-90210000D01*
G75*
G02*
X24589500Y-89960001I0J249999D01*
G01*
X24589500Y-89059999D01*
G75*
G02*
X24839499Y-88810000I249999J0D01*
G01*
X25539501Y-88810000D01*
G75*
G02*
X25789500Y-89059999I0J-249999D01*
G01*
G37*
G36*
G01*
X59072000Y-130068000D02*
X59072000Y-128968000D01*
G75*
G02*
X59322000Y-128718000I250000J0D01*
G01*
X62322000Y-128718000D01*
G75*
G02*
X62572000Y-128968000I0J-250000D01*
G01*
X62572000Y-130068000D01*
G75*
G02*
X62322000Y-130318000I-250000J0D01*
G01*
X59322000Y-130318000D01*
G75*
G02*
X59072000Y-130068000I0J250000D01*
G01*
G37*
G36*
G01*
X64472000Y-130068000D02*
X64472000Y-128968000D01*
G75*
G02*
X64722000Y-128718000I250000J0D01*
G01*
X67722000Y-128718000D01*
G75*
G02*
X67972000Y-128968000I0J-250000D01*
G01*
X67972000Y-130068000D01*
G75*
G02*
X67722000Y-130318000I-250000J0D01*
G01*
X64722000Y-130318000D01*
G75*
G02*
X64472000Y-130068000I0J250000D01*
G01*
G37*
G36*
G01*
X59935173Y-123943076D02*
X60606924Y-124614827D01*
G75*
G02*
X60606924Y-124968381I-176777J-176777D01*
G01*
X60129627Y-125445678D01*
G75*
G02*
X59776073Y-125445678I-176777J176777D01*
G01*
X59104322Y-124773927D01*
G75*
G02*
X59104322Y-124420373I176777J176777D01*
G01*
X59581619Y-123943076D01*
G75*
G02*
X59935173Y-123943076I176777J-176777D01*
G01*
G37*
G36*
G01*
X58467927Y-125410322D02*
X59139678Y-126082073D01*
G75*
G02*
X59139678Y-126435627I-176777J-176777D01*
G01*
X58662381Y-126912924D01*
G75*
G02*
X58308827Y-126912924I-176777J176777D01*
G01*
X57637076Y-126241173D01*
G75*
G02*
X57637076Y-125887619I176777J176777D01*
G01*
X58114373Y-125410322D01*
G75*
G02*
X58467927Y-125410322I176777J-176777D01*
G01*
G37*
G36*
G01*
X31155740Y-130122282D02*
X31815666Y-129438909D01*
G75*
G02*
X32169166Y-129432739I179835J-173665D01*
G01*
X32654720Y-129901634D01*
G75*
G02*
X32660890Y-130255134I-173665J-179835D01*
G01*
X32000964Y-130938507D01*
G75*
G02*
X31647464Y-130944677I-179835J173665D01*
G01*
X31161910Y-130475782D01*
G75*
G02*
X31155740Y-130122282I173665J179835D01*
G01*
G37*
G36*
G01*
X29663110Y-128680866D02*
X30323036Y-127997493D01*
G75*
G02*
X30676536Y-127991323I179835J-173665D01*
G01*
X31162090Y-128460218D01*
G75*
G02*
X31168260Y-128813718I-173665J-179835D01*
G01*
X30508334Y-129497091D01*
G75*
G02*
X30154834Y-129503261I-179835J173665D01*
G01*
X29669280Y-129034366D01*
G75*
G02*
X29663110Y-128680866I173665J179835D01*
G01*
G37*
G36*
G01*
X35852000Y-124288000D02*
X34752000Y-124288000D01*
G75*
G02*
X34502000Y-124038000I0J250000D01*
G01*
X34502000Y-121038000D01*
G75*
G02*
X34752000Y-120788000I250000J0D01*
G01*
X35852000Y-120788000D01*
G75*
G02*
X36102000Y-121038000I0J-250000D01*
G01*
X36102000Y-124038000D01*
G75*
G02*
X35852000Y-124288000I-250000J0D01*
G01*
G37*
G36*
G01*
X35852000Y-129688000D02*
X34752000Y-129688000D01*
G75*
G02*
X34502000Y-129438000I0J250000D01*
G01*
X34502000Y-126438000D01*
G75*
G02*
X34752000Y-126188000I250000J0D01*
G01*
X35852000Y-126188000D01*
G75*
G02*
X36102000Y-126438000I0J-250000D01*
G01*
X36102000Y-129438000D01*
G75*
G02*
X35852000Y-129688000I-250000J0D01*
G01*
G37*
D18*
X27092000Y-127188000D03*
X27092000Y-125188000D03*
X27092000Y-129688000D03*
X27092000Y-122688000D03*
D19*
X53187000Y-129928000D03*
X53187000Y-127388000D03*
X53187000Y-124848000D03*
D20*
X41612000Y-124613000D03*
X46462000Y-130163000D03*
X41612000Y-130163000D03*
X46462000Y-124613000D03*
M02*
