G04 #@! TF.GenerationSoftware,KiCad,Pcbnew,(5.1.7)-1*
G04 #@! TF.CreationDate,2020-12-02T21:57:12+01:00*
G04 #@! TF.ProjectId,TonOfSteppers,546f6e4f-6653-4746-9570-706572732e6b,rev?*
G04 #@! TF.SameCoordinates,Original*
G04 #@! TF.FileFunction,Paste,Bot*
G04 #@! TF.FilePolarity,Positive*
%FSLAX46Y46*%
G04 Gerber Fmt 4.6, Leading zero omitted, Abs format (unit mm)*
G04 Created by KiCad (PCBNEW (5.1.7)-1) date 2020-12-02 21:57:12*
%MOMM*%
%LPD*%
G01*
G04 APERTURE LIST*
%ADD10R,3.500000X2.300000*%
%ADD11R,2.200000X1.200000*%
%ADD12R,3.050000X2.750000*%
G04 APERTURE END LIST*
D10*
X96868000Y-123444000D03*
X102268000Y-123444000D03*
D11*
X104530000Y-127120000D03*
X104530000Y-129400000D03*
X104530000Y-131680000D03*
D12*
X96555000Y-130925000D03*
X99905000Y-127875000D03*
X96555000Y-127875000D03*
X99905000Y-130925000D03*
G36*
G01*
X115297000Y-102708000D02*
X115297000Y-101758000D01*
G75*
G02*
X115547000Y-101508000I250000J0D01*
G01*
X116222000Y-101508000D01*
G75*
G02*
X116472000Y-101758000I0J-250000D01*
G01*
X116472000Y-102708000D01*
G75*
G02*
X116222000Y-102958000I-250000J0D01*
G01*
X115547000Y-102958000D01*
G75*
G02*
X115297000Y-102708000I0J250000D01*
G01*
G37*
G36*
G01*
X117372000Y-102708000D02*
X117372000Y-101758000D01*
G75*
G02*
X117622000Y-101508000I250000J0D01*
G01*
X118297000Y-101508000D01*
G75*
G02*
X118547000Y-101758000I0J-250000D01*
G01*
X118547000Y-102708000D01*
G75*
G02*
X118297000Y-102958000I-250000J0D01*
G01*
X117622000Y-102958000D01*
G75*
G02*
X117372000Y-102708000I0J250000D01*
G01*
G37*
G36*
G01*
X97397000Y-134737000D02*
X97397000Y-133487000D01*
G75*
G02*
X97647000Y-133237000I250000J0D01*
G01*
X98572000Y-133237000D01*
G75*
G02*
X98822000Y-133487000I0J-250000D01*
G01*
X98822000Y-134737000D01*
G75*
G02*
X98572000Y-134987000I-250000J0D01*
G01*
X97647000Y-134987000D01*
G75*
G02*
X97397000Y-134737000I0J250000D01*
G01*
G37*
G36*
G01*
X100372000Y-134737000D02*
X100372000Y-133487000D01*
G75*
G02*
X100622000Y-133237000I250000J0D01*
G01*
X101547000Y-133237000D01*
G75*
G02*
X101797000Y-133487000I0J-250000D01*
G01*
X101797000Y-134737000D01*
G75*
G02*
X101547000Y-134987000I-250000J0D01*
G01*
X100622000Y-134987000D01*
G75*
G02*
X100372000Y-134737000I0J250000D01*
G01*
G37*
M02*
