M48
; DRILL file {KiCad (5.1.7)-1} date 12/02/20 21:57:34
; FORMAT={-:-/ absolute / inch / decimal}
; #@! TF.CreationDate,2020-12-02T21:57:34+01:00
; #@! TF.GenerationSoftware,Kicad,Pcbnew,(5.1.7)-1
; #@! TF.FileFunction,Plated,1,2,PTH
FMAT,2
INCH
T1C0.0157
T2C0.0295
T3C0.0315
T4C0.0374
T5C0.0394
T6C0.0469
T7C0.0630
%
G90
G05
T1
X0.8619Y-3.057
X0.8623Y-3.6444
X0.8627Y-3.3491
X1.0461Y-3.2523
X1.0461Y-3.544
X1.0461Y-3.8389
X1.2135Y-4.4665
X1.3123Y-4.6684
X1.3131Y-4.372
X1.4123Y-4.4653
X1.9954Y-5.4334
X2.6123Y-4.3554
X2.6259Y-3.5781
X2.6391Y-3.6212
X2.6615Y-3.9507
X2.7643Y-3.9523
X2.9299Y-1.3398
X2.93Y-1.6715
X3.0111Y-2.8739
X3.0283Y-1.3398
X3.0284Y-1.6715
X3.1268Y-1.3398
X3.1269Y-1.6715
X3.2052Y-3.1228
X3.2252Y-1.3398
X3.2253Y-1.6715
X3.2635Y-3.1235
X3.3481Y-2.9798
X3.3517Y-5.0361
X3.3841Y-5.0118
X3.4532Y-5.3043
X3.4544Y-2.9326
X3.4654Y-1.3398
X3.4654Y-1.6714
X3.5056Y-5.3054
X3.5154Y-5.5377
X3.5524Y-5.4995
X3.5638Y-1.3398
X3.5638Y-1.6714
X3.6622Y-1.3398
X3.6622Y-1.6714
X3.7606Y-1.3398
X3.7606Y-1.6714
X3.8143Y-2.9326
X3.8198Y-2.9798
X3.82Y-4.8
X3.82Y-4.84
X3.82Y-4.8794
X3.8594Y-4.8
X3.8594Y-4.84
X3.8594Y-4.8794
X3.8987Y-4.8
X3.8987Y-4.84
X3.8987Y-4.8794
X4.1379Y-2.7507
X4.19Y-4.97
X4.3493Y-2.7515
X4.4969Y-4.0249
X4.6091Y-1.2385
X4.6091Y-1.7976
X4.6485Y-1.2385
X4.6485Y-1.8438
X4.6879Y-1.2385
X4.6879Y-1.8783
X4.6957Y-4.0249
X4.7253Y-1.9206
X4.7272Y-1.2385
X4.9772Y-2.8562
X5.2572Y-4.8794
X5.3812Y-3.5294
X5.4839Y-1.6956
X5.4969Y-4.8846
X5.6418Y-3.9456
X6.0434Y-3.5491
X6.0434Y-3.9653
X6.2505Y-5.9346
X6.3335Y-5.9751
X7.2308Y-2.0531
X7.2316Y-1.743
X7.2591Y-2.1263
X7.2755Y-1.7661
T2
X0.7367Y-3.4078
X0.7367Y-3.4865
X0.7367Y-3.7031
X0.7367Y-3.7818
X0.7367Y-3.1165
X0.7367Y-3.1952
T3
X6.5353Y-3.0001
X6.5353Y-3.1001
X6.5353Y-3.2001
X6.5353Y-3.3001
X6.5353Y-3.4001
X6.5353Y-3.5001
X6.5353Y-3.6001
X6.5353Y-3.7001
X7.0353Y-3.0001
X7.0353Y-3.1001
X7.0353Y-3.2001
X7.0353Y-3.3001
X7.0353Y-3.4001
X7.0353Y-3.5001
X7.0353Y-3.6001
X7.0353Y-3.7001
X6.5353Y-3.8367
X6.5353Y-3.9367
X6.5353Y-4.0367
X6.5353Y-4.1367
X6.5353Y-4.2367
X6.5353Y-4.3367
X6.5353Y-4.4367
X6.5353Y-4.5367
X7.0353Y-3.8367
X7.0353Y-3.9367
X7.0353Y-4.0367
X7.0353Y-4.1367
X7.0353Y-4.2367
X7.0353Y-4.3367
X7.0353Y-4.4367
X7.0353Y-4.5367
X5.8206Y-1.0436
X5.8206Y-1.5436
X5.9206Y-1.0436
X5.9206Y-1.5436
X6.0206Y-1.0436
X6.0206Y-1.5436
X6.1206Y-1.0436
X6.1206Y-1.5436
X6.2206Y-1.0436
X6.2206Y-1.5436
X6.3206Y-1.0436
X6.3206Y-1.5436
X6.4206Y-1.0436
X6.4206Y-1.5436
X6.5206Y-1.0436
X6.5206Y-1.5436
X4.9347Y-1.0436
X4.9347Y-1.5436
X5.0347Y-1.0436
X5.0347Y-1.5436
X5.1347Y-1.0436
X5.1347Y-1.5436
X5.2347Y-1.0436
X5.2347Y-1.5436
X5.3347Y-1.0436
X5.3347Y-1.5436
X5.4347Y-1.0436
X5.4347Y-1.5436
X5.5347Y-1.0436
X5.5347Y-1.5436
X5.6347Y-1.0436
X5.6347Y-1.5436
T4
X5.2567Y-0.7724
X5.3551Y-0.7724
X5.4535Y-0.7724
X5.552Y-0.7724
X3.4694Y-0.7724
X3.5678Y-0.7724
X3.6662Y-0.7724
X3.7646Y-0.7724
X2.3945Y-0.7724
X2.4929Y-0.7724
X2.5913Y-0.7724
X2.6898Y-0.7724
X1.8591Y-0.7724
X1.9576Y-0.7724
X2.056Y-0.7724
X2.1544Y-0.7724
X6.863Y-0.7724
X6.9614Y-0.7724
X7.0598Y-0.7724
X7.1583Y-0.7724
X4.7213Y-0.7724
X4.8198Y-0.7724
X4.9182Y-0.7724
X5.0166Y-0.7724
X0.7883Y-0.7724
X0.8867Y-0.7724
X0.9851Y-0.7724
X1.0835Y-0.7724
X1.3237Y-0.7724
X1.4221Y-0.7724
X1.5206Y-0.7724
X1.619Y-0.7724
X6.3276Y-0.7724
X6.426Y-0.7724
X6.5244Y-0.7724
X6.6228Y-0.7724
X2.93Y-0.7724
X3.0284Y-0.7724
X3.1269Y-0.7724
X3.2253Y-0.7724
X5.7921Y-0.7724
X5.8906Y-0.7724
X5.989Y-0.7724
X6.0874Y-0.7724
T5
X2.0438Y-2.37
X2.7174Y-4.9373
X2.9182Y-4.2011
X2.9182Y-4.268
X2.9182Y-4.335
X2.9851Y-4.2011
X2.9851Y-4.268
X2.9851Y-4.335
X3.052Y-4.2011
X3.052Y-4.268
X3.052Y-4.335
X3.9979Y-4.0682
X4.0363Y-3.3783
X4.0363Y-3.4452
X4.0363Y-3.5121
X4.1032Y-3.3783
X4.1032Y-3.4452
X4.1032Y-3.5121
X4.1698Y-1.2586
X4.1702Y-3.3783
X4.1702Y-3.4452
X4.1702Y-3.5121
X4.1713Y-1.6857
X4.1721Y-1.3176
X4.1737Y-1.7448
X4.2046Y-4.4285
X4.2046Y-4.6568
X4.2046Y-4.7326
X4.2056Y-4.5121
X4.2056Y-4.585
X4.2296Y-1.2586
X4.2312Y-1.6857
X4.2314Y-1.3176
X4.233Y-1.7448
X4.2731Y-4.4285
X4.2731Y-4.6568
X4.2731Y-4.7326
X4.2741Y-4.5121
X4.2741Y-4.585
X4.2898Y-1.2586
X4.2906Y-1.3176
X4.2914Y-1.6857
X4.2922Y-1.7448
X4.3416Y-4.4285
X4.3416Y-4.6568
X4.3416Y-4.7326
X4.3426Y-4.5121
X4.3426Y-4.585
X4.3503Y-4.0682
X4.4101Y-4.4285
X4.4101Y-4.6568
X4.4101Y-4.7326
X4.4111Y-4.5121
X4.4111Y-4.585
X4.4786Y-4.4285
X4.4786Y-4.6568
X4.4786Y-4.7326
X4.4796Y-4.5121
X4.4796Y-4.585
X4.5471Y-4.4285
X4.5471Y-4.6568
X4.5471Y-4.7326
X4.5481Y-4.5121
X4.5481Y-4.585
X4.9457Y-4.67
X4.9457Y-4.7369
X4.9457Y-4.8039
X5.0127Y-4.67
X5.0127Y-4.7369
X5.0127Y-4.8039
X5.0796Y-4.67
X5.0796Y-4.7369
X5.0796Y-4.8039
X5.1202Y-3.692
X5.1202Y-3.759
X5.1316Y-1.1279
X5.1871Y-3.692
X5.1871Y-3.759
X5.2946Y-1.2865
X5.3957Y-3.692
X5.3957Y-3.759
X5.4627Y-3.692
X5.4627Y-3.759
X5.7044Y-1.1275
X6.0288Y-1.1267
X6.1875Y-1.2877
X6.7717Y-3.3594
X6.7847Y-3.7448
X6.878Y-3.0019
X7.4152Y-1.3909
T6
X7.2855Y-4.9838
X7.2855Y-5.0838
X7.2855Y-5.1838
X7.2871Y-4.6365
X7.2871Y-4.7365
X7.2871Y-4.8365
T7
X4.8257Y-2.77
X5.0257Y-2.77
X5.2257Y-2.77
X5.4257Y-2.77
X5.6257Y-2.77
X5.8257Y-2.77
X6.0257Y-2.77
X6.2257Y-2.77
X6.4257Y-2.77
X6.6257Y-2.77
X6.8257Y-2.77
X7.0257Y-2.77
X1.0068Y-2.77
X1.2068Y-2.77
X1.4068Y-2.77
X1.6068Y-2.77
X1.8068Y-2.77
X2.0068Y-2.77
X2.2068Y-2.77
X2.4068Y-2.77
X2.6068Y-2.77
X2.8068Y-2.77
X3.0068Y-2.77
X3.2068Y-2.77
X1.2457Y-1.9216
X1.4457Y-1.9216
X1.6457Y-1.9216
X1.8457Y-1.9216
X2.0457Y-1.9216
X2.2457Y-1.9216
X2.4457Y-1.9216
X2.6457Y-1.9216
X2.8457Y-1.9216
X3.0457Y-1.9216
X3.2457Y-1.9216
X3.4457Y-1.9216
X5.0646Y-1.9216
X5.2639Y-1.9216
X5.4639Y-1.9216
X5.6639Y-1.9216
X5.8639Y-1.9216
X6.0639Y-1.9216
X6.2639Y-1.9216
X6.4639Y-1.9216
X6.6639Y-1.9216
X6.8639Y-1.9216
X7.0639Y-1.9216
X7.2639Y-1.9216
X5.065Y-5.405
X5.265Y-5.405
X5.465Y-5.405
X5.665Y-5.405
X5.865Y-5.405
X6.065Y-5.405
X6.265Y-5.405
X6.465Y-5.405
X6.665Y-5.405
X6.865Y-5.405
X7.065Y-5.405
X7.265Y-5.405
X4.8257Y-6.2543
X5.0257Y-6.2543
X5.2257Y-6.2543
X5.4257Y-6.2543
X5.6257Y-6.2543
X5.8257Y-6.2543
X6.0257Y-6.2543
X6.2257Y-6.2543
X6.4257Y-6.2543
X6.6257Y-6.2543
X6.8257Y-6.2543
X7.0257Y-6.2543
X3.8621Y-5.3901
X3.9999Y-5.3901
X0.9009Y-5.4058
X1.1009Y-5.4058
X1.3009Y-5.4058
X1.5009Y-5.4058
X1.7009Y-5.4058
X1.9009Y-5.4058
X2.1009Y-5.4058
X2.3009Y-5.4058
X2.5009Y-5.4058
X2.7009Y-5.4058
X2.9009Y-5.4058
X3.1009Y-5.4058
T0
M30
