G04 #@! TF.GenerationSoftware,KiCad,Pcbnew,(5.1.9)-1*
G04 #@! TF.CreationDate,2021-08-02T14:53:25+02:00*
G04 #@! TF.ProjectId,TonOfSteppers,546f6e4f-6653-4746-9570-706572732e6b,rev?*
G04 #@! TF.SameCoordinates,Original*
G04 #@! TF.FileFunction,Legend,Top*
G04 #@! TF.FilePolarity,Positive*
%FSLAX46Y46*%
G04 Gerber Fmt 4.6, Leading zero omitted, Abs format (unit mm)*
G04 Created by KiCad (PCBNEW (5.1.9)-1) date 2021-08-02 14:53:25*
%MOMM*%
%LPD*%
G01*
G04 APERTURE LIST*
%ADD10C,0.300000*%
%ADD11C,0.150000*%
%ADD12C,0.200000*%
%ADD13C,0.120000*%
G04 APERTURE END LIST*
D10*
X120274856Y-153610571D02*
X120774856Y-155110571D01*
X121274856Y-153610571D01*
X121417713Y-155253428D02*
X122560571Y-155253428D01*
X122917713Y-155110571D02*
X122917713Y-153610571D01*
X123417713Y-154682000D01*
X123917713Y-153610571D01*
X123917713Y-155110571D01*
X124917713Y-153610571D02*
X125203428Y-153610571D01*
X125346285Y-153682000D01*
X125489142Y-153824857D01*
X125560571Y-154110571D01*
X125560571Y-154610571D01*
X125489142Y-154896285D01*
X125346285Y-155039142D01*
X125203428Y-155110571D01*
X124917713Y-155110571D01*
X124774856Y-155039142D01*
X124631999Y-154896285D01*
X124560571Y-154610571D01*
X124560571Y-154110571D01*
X124631999Y-153824857D01*
X124774856Y-153682000D01*
X124917713Y-153610571D01*
X125989142Y-153610571D02*
X126846285Y-153610571D01*
X126417713Y-155110571D02*
X126417713Y-153610571D01*
X180218856Y-141164571D02*
X180718856Y-142664571D01*
X181218856Y-141164571D01*
X181361713Y-142807428D02*
X182504571Y-142807428D01*
X182861713Y-142664571D02*
X182861713Y-141164571D01*
X183361713Y-142236000D01*
X183861713Y-141164571D01*
X183861713Y-142664571D01*
X184861713Y-141164571D02*
X185147428Y-141164571D01*
X185290285Y-141236000D01*
X185433142Y-141378857D01*
X185504571Y-141664571D01*
X185504571Y-142164571D01*
X185433142Y-142450285D01*
X185290285Y-142593142D01*
X185147428Y-142664571D01*
X184861713Y-142664571D01*
X184718856Y-142593142D01*
X184575999Y-142450285D01*
X184504571Y-142164571D01*
X184504571Y-141664571D01*
X184575999Y-141378857D01*
X184718856Y-141236000D01*
X184861713Y-141164571D01*
X185933142Y-141164571D02*
X186790285Y-141164571D01*
X186361713Y-142664571D02*
X186361713Y-141164571D01*
X74554856Y-132020571D02*
X75054856Y-133520571D01*
X75554856Y-132020571D01*
X75697713Y-133663428D02*
X76840571Y-133663428D01*
X77197713Y-133520571D02*
X77197713Y-132020571D01*
X77697713Y-133092000D01*
X78197713Y-132020571D01*
X78197713Y-133520571D01*
X79197713Y-132020571D02*
X79483428Y-132020571D01*
X79626285Y-132092000D01*
X79769142Y-132234857D01*
X79840571Y-132520571D01*
X79840571Y-133020571D01*
X79769142Y-133306285D01*
X79626285Y-133449142D01*
X79483428Y-133520571D01*
X79197713Y-133520571D01*
X79054856Y-133449142D01*
X78911999Y-133306285D01*
X78840571Y-133020571D01*
X78840571Y-132520571D01*
X78911999Y-132234857D01*
X79054856Y-132092000D01*
X79197713Y-132020571D01*
X80269142Y-132020571D02*
X81126285Y-132020571D01*
X80697713Y-133520571D02*
X80697713Y-132020571D01*
X23500856Y-64964571D02*
X24000856Y-66464571D01*
X24500856Y-64964571D01*
X24643713Y-66607428D02*
X25786571Y-66607428D01*
X26143713Y-66464571D02*
X26143713Y-64964571D01*
X26643713Y-66036000D01*
X27143713Y-64964571D01*
X27143713Y-66464571D01*
X28143713Y-64964571D02*
X28429428Y-64964571D01*
X28572285Y-65036000D01*
X28715142Y-65178857D01*
X28786571Y-65464571D01*
X28786571Y-65964571D01*
X28715142Y-66250285D01*
X28572285Y-66393142D01*
X28429428Y-66464571D01*
X28143713Y-66464571D01*
X28000856Y-66393142D01*
X27857999Y-66250285D01*
X27786571Y-65964571D01*
X27786571Y-65464571D01*
X27857999Y-65178857D01*
X28000856Y-65036000D01*
X28143713Y-64964571D01*
X29215142Y-64964571D02*
X30072285Y-64964571D01*
X29643713Y-66464571D02*
X29643713Y-64964571D01*
X83190856Y-43628571D02*
X83690856Y-45128571D01*
X84190856Y-43628571D01*
X84333713Y-45271428D02*
X85476571Y-45271428D01*
X85833713Y-45128571D02*
X85833713Y-43628571D01*
X86333713Y-44700000D01*
X86833713Y-43628571D01*
X86833713Y-45128571D01*
X87833713Y-43628571D02*
X88119428Y-43628571D01*
X88262285Y-43700000D01*
X88405142Y-43842857D01*
X88476571Y-44128571D01*
X88476571Y-44628571D01*
X88405142Y-44914285D01*
X88262285Y-45057142D01*
X88119428Y-45128571D01*
X87833713Y-45128571D01*
X87690856Y-45057142D01*
X87547999Y-44914285D01*
X87476571Y-44628571D01*
X87476571Y-44128571D01*
X87547999Y-43842857D01*
X87690856Y-43700000D01*
X87833713Y-43628571D01*
X88905142Y-43628571D02*
X89762285Y-43628571D01*
X89333713Y-45128571D02*
X89333713Y-43628571D01*
X180227713Y-43628571D02*
X180727713Y-45128571D01*
X181227713Y-43628571D01*
X181370570Y-45271428D02*
X182513428Y-45271428D01*
X182870570Y-45128571D02*
X182870570Y-43628571D01*
X183370570Y-44700000D01*
X183870570Y-43628571D01*
X183870570Y-45128571D01*
X184870570Y-43628571D02*
X185156285Y-43628571D01*
X185299142Y-43700000D01*
X185441999Y-43842857D01*
X185513428Y-44128571D01*
X185513428Y-44628571D01*
X185441999Y-44914285D01*
X185299142Y-45057142D01*
X185156285Y-45128571D01*
X184870570Y-45128571D01*
X184727713Y-45057142D01*
X184584856Y-44914285D01*
X184513428Y-44628571D01*
X184513428Y-44128571D01*
X184584856Y-43842857D01*
X184727713Y-43700000D01*
X184870570Y-43628571D01*
X185941999Y-43628571D02*
X186799142Y-43628571D01*
X186370570Y-45128571D02*
X186370570Y-43628571D01*
X120274856Y-64710571D02*
X120774856Y-66210571D01*
X121274856Y-64710571D01*
X121417713Y-66353428D02*
X122560571Y-66353428D01*
X122917713Y-66210571D02*
X122917713Y-64710571D01*
X123417713Y-65782000D01*
X123917713Y-64710571D01*
X123917713Y-66210571D01*
X124917713Y-64710571D02*
X125203428Y-64710571D01*
X125346285Y-64782000D01*
X125489142Y-64924857D01*
X125560571Y-65210571D01*
X125560571Y-65710571D01*
X125489142Y-65996285D01*
X125346285Y-66139142D01*
X125203428Y-66210571D01*
X124917713Y-66210571D01*
X124774856Y-66139142D01*
X124631999Y-65996285D01*
X124560571Y-65710571D01*
X124560571Y-65210571D01*
X124631999Y-64924857D01*
X124774856Y-64782000D01*
X124917713Y-64710571D01*
X125989142Y-64710571D02*
X126846285Y-64710571D01*
X126417713Y-66210571D02*
X126417713Y-64710571D01*
D11*
X15666285Y-105598285D02*
X14999619Y-105598285D01*
X16047238Y-105360190D02*
X15332952Y-105122095D01*
X15332952Y-105741142D01*
X15999619Y-106312571D02*
X15999619Y-106407809D01*
X15952000Y-106503047D01*
X15904380Y-106550666D01*
X15809142Y-106598285D01*
X15618666Y-106645904D01*
X15380571Y-106645904D01*
X15190095Y-106598285D01*
X15094857Y-106550666D01*
X15047238Y-106503047D01*
X14999619Y-106407809D01*
X14999619Y-106312571D01*
X15047238Y-106217333D01*
X15094857Y-106169714D01*
X15190095Y-106122095D01*
X15380571Y-106074476D01*
X15618666Y-106074476D01*
X15809142Y-106122095D01*
X15904380Y-106169714D01*
X15952000Y-106217333D01*
X15999619Y-106312571D01*
X15666285Y-117998285D02*
X14999619Y-117998285D01*
X16047238Y-117760190D02*
X15332952Y-117522095D01*
X15332952Y-118141142D01*
X15999619Y-118712571D02*
X15999619Y-118807809D01*
X15952000Y-118903047D01*
X15904380Y-118950666D01*
X15809142Y-118998285D01*
X15618666Y-119045904D01*
X15380571Y-119045904D01*
X15190095Y-118998285D01*
X15094857Y-118950666D01*
X15047238Y-118903047D01*
X14999619Y-118807809D01*
X14999619Y-118712571D01*
X15047238Y-118617333D01*
X15094857Y-118569714D01*
X15190095Y-118522095D01*
X15380571Y-118474476D01*
X15618666Y-118474476D01*
X15809142Y-118522095D01*
X15904380Y-118569714D01*
X15952000Y-118617333D01*
X15999619Y-118712571D01*
D12*
X177768571Y-22198000D02*
X177625714Y-22126571D01*
X177411428Y-22126571D01*
X177197142Y-22198000D01*
X177054285Y-22340857D01*
X176982857Y-22483714D01*
X176911428Y-22769428D01*
X176911428Y-22983714D01*
X176982857Y-23269428D01*
X177054285Y-23412285D01*
X177197142Y-23555142D01*
X177411428Y-23626571D01*
X177554285Y-23626571D01*
X177768571Y-23555142D01*
X177840000Y-23483714D01*
X177840000Y-22983714D01*
X177554285Y-22983714D01*
X179125714Y-22626571D02*
X179125714Y-23626571D01*
X178768571Y-22055142D02*
X178411428Y-23126571D01*
X179340000Y-23126571D01*
X164168571Y-22198000D02*
X164025714Y-22126571D01*
X163811428Y-22126571D01*
X163597142Y-22198000D01*
X163454285Y-22340857D01*
X163382857Y-22483714D01*
X163311428Y-22769428D01*
X163311428Y-22983714D01*
X163382857Y-23269428D01*
X163454285Y-23412285D01*
X163597142Y-23555142D01*
X163811428Y-23626571D01*
X163954285Y-23626571D01*
X164168571Y-23555142D01*
X164240000Y-23483714D01*
X164240000Y-22983714D01*
X163954285Y-22983714D01*
X165525714Y-22626571D02*
X165525714Y-23626571D01*
X165168571Y-22055142D02*
X164811428Y-23126571D01*
X165740000Y-23126571D01*
X150568571Y-22198000D02*
X150425714Y-22126571D01*
X150211428Y-22126571D01*
X149997142Y-22198000D01*
X149854285Y-22340857D01*
X149782857Y-22483714D01*
X149711428Y-22769428D01*
X149711428Y-22983714D01*
X149782857Y-23269428D01*
X149854285Y-23412285D01*
X149997142Y-23555142D01*
X150211428Y-23626571D01*
X150354285Y-23626571D01*
X150568571Y-23555142D01*
X150640000Y-23483714D01*
X150640000Y-22983714D01*
X150354285Y-22983714D01*
X151925714Y-22126571D02*
X151640000Y-22126571D01*
X151497142Y-22198000D01*
X151425714Y-22269428D01*
X151282857Y-22483714D01*
X151211428Y-22769428D01*
X151211428Y-23340857D01*
X151282857Y-23483714D01*
X151354285Y-23555142D01*
X151497142Y-23626571D01*
X151782857Y-23626571D01*
X151925714Y-23555142D01*
X151997142Y-23483714D01*
X152068571Y-23340857D01*
X152068571Y-22983714D01*
X151997142Y-22840857D01*
X151925714Y-22769428D01*
X151782857Y-22698000D01*
X151497142Y-22698000D01*
X151354285Y-22769428D01*
X151282857Y-22840857D01*
X151211428Y-22983714D01*
X136968571Y-22198000D02*
X136825714Y-22126571D01*
X136611428Y-22126571D01*
X136397142Y-22198000D01*
X136254285Y-22340857D01*
X136182857Y-22483714D01*
X136111428Y-22769428D01*
X136111428Y-22983714D01*
X136182857Y-23269428D01*
X136254285Y-23412285D01*
X136397142Y-23555142D01*
X136611428Y-23626571D01*
X136754285Y-23626571D01*
X136968571Y-23555142D01*
X137040000Y-23483714D01*
X137040000Y-22983714D01*
X136754285Y-22983714D01*
X138397142Y-22126571D02*
X137682857Y-22126571D01*
X137611428Y-22840857D01*
X137682857Y-22769428D01*
X137825714Y-22698000D01*
X138182857Y-22698000D01*
X138325714Y-22769428D01*
X138397142Y-22840857D01*
X138468571Y-22983714D01*
X138468571Y-23340857D01*
X138397142Y-23483714D01*
X138325714Y-23555142D01*
X138182857Y-23626571D01*
X137825714Y-23626571D01*
X137682857Y-23555142D01*
X137611428Y-23483714D01*
X123370571Y-22198000D02*
X123227714Y-22126571D01*
X123013428Y-22126571D01*
X122799142Y-22198000D01*
X122656285Y-22340857D01*
X122584857Y-22483714D01*
X122513428Y-22769428D01*
X122513428Y-22983714D01*
X122584857Y-23269428D01*
X122656285Y-23412285D01*
X122799142Y-23555142D01*
X123013428Y-23626571D01*
X123156285Y-23626571D01*
X123370571Y-23555142D01*
X123442000Y-23483714D01*
X123442000Y-22983714D01*
X123156285Y-22983714D01*
X124013428Y-22269428D02*
X124084857Y-22198000D01*
X124227714Y-22126571D01*
X124584857Y-22126571D01*
X124727714Y-22198000D01*
X124799142Y-22269428D01*
X124870571Y-22412285D01*
X124870571Y-22555142D01*
X124799142Y-22769428D01*
X123942000Y-23626571D01*
X124870571Y-23626571D01*
X91570571Y-22198000D02*
X91427714Y-22126571D01*
X91213428Y-22126571D01*
X90999142Y-22198000D01*
X90856285Y-22340857D01*
X90784857Y-22483714D01*
X90713428Y-22769428D01*
X90713428Y-22983714D01*
X90784857Y-23269428D01*
X90856285Y-23412285D01*
X90999142Y-23555142D01*
X91213428Y-23626571D01*
X91356285Y-23626571D01*
X91570571Y-23555142D01*
X91642000Y-23483714D01*
X91642000Y-22983714D01*
X91356285Y-22983714D01*
X92213428Y-22269428D02*
X92284857Y-22198000D01*
X92427714Y-22126571D01*
X92784857Y-22126571D01*
X92927714Y-22198000D01*
X92999142Y-22269428D01*
X93070571Y-22412285D01*
X93070571Y-22555142D01*
X92999142Y-22769428D01*
X92142000Y-23626571D01*
X93070571Y-23626571D01*
X77870571Y-22198000D02*
X77727714Y-22126571D01*
X77513428Y-22126571D01*
X77299142Y-22198000D01*
X77156285Y-22340857D01*
X77084857Y-22483714D01*
X77013428Y-22769428D01*
X77013428Y-22983714D01*
X77084857Y-23269428D01*
X77156285Y-23412285D01*
X77299142Y-23555142D01*
X77513428Y-23626571D01*
X77656285Y-23626571D01*
X77870571Y-23555142D01*
X77942000Y-23483714D01*
X77942000Y-22983714D01*
X77656285Y-22983714D01*
X78442000Y-22126571D02*
X79370571Y-22126571D01*
X78870571Y-22698000D01*
X79084857Y-22698000D01*
X79227714Y-22769428D01*
X79299142Y-22840857D01*
X79370571Y-22983714D01*
X79370571Y-23340857D01*
X79299142Y-23483714D01*
X79227714Y-23555142D01*
X79084857Y-23626571D01*
X78656285Y-23626571D01*
X78513428Y-23555142D01*
X78442000Y-23483714D01*
X64268571Y-22198000D02*
X64125714Y-22126571D01*
X63911428Y-22126571D01*
X63697142Y-22198000D01*
X63554285Y-22340857D01*
X63482857Y-22483714D01*
X63411428Y-22769428D01*
X63411428Y-22983714D01*
X63482857Y-23269428D01*
X63554285Y-23412285D01*
X63697142Y-23555142D01*
X63911428Y-23626571D01*
X64054285Y-23626571D01*
X64268571Y-23555142D01*
X64340000Y-23483714D01*
X64340000Y-22983714D01*
X64054285Y-22983714D01*
X65768571Y-23626571D02*
X64911428Y-23626571D01*
X65340000Y-23626571D02*
X65340000Y-22126571D01*
X65197142Y-22340857D01*
X65054285Y-22483714D01*
X64911428Y-22555142D01*
X50670571Y-22198000D02*
X50527714Y-22126571D01*
X50313428Y-22126571D01*
X50099142Y-22198000D01*
X49956285Y-22340857D01*
X49884857Y-22483714D01*
X49813428Y-22769428D01*
X49813428Y-22983714D01*
X49884857Y-23269428D01*
X49956285Y-23412285D01*
X50099142Y-23555142D01*
X50313428Y-23626571D01*
X50456285Y-23626571D01*
X50670571Y-23555142D01*
X50742000Y-23483714D01*
X50742000Y-22983714D01*
X50456285Y-22983714D01*
X52170571Y-23626571D02*
X51313428Y-23626571D01*
X51742000Y-23626571D02*
X51742000Y-22126571D01*
X51599142Y-22340857D01*
X51456285Y-22483714D01*
X51313428Y-22555142D01*
X37070571Y-22198000D02*
X36927714Y-22126571D01*
X36713428Y-22126571D01*
X36499142Y-22198000D01*
X36356285Y-22340857D01*
X36284857Y-22483714D01*
X36213428Y-22769428D01*
X36213428Y-22983714D01*
X36284857Y-23269428D01*
X36356285Y-23412285D01*
X36499142Y-23555142D01*
X36713428Y-23626571D01*
X36856285Y-23626571D01*
X37070571Y-23555142D01*
X37142000Y-23483714D01*
X37142000Y-22983714D01*
X36856285Y-22983714D01*
X38570571Y-23626571D02*
X37713428Y-23626571D01*
X38142000Y-23626571D02*
X38142000Y-22126571D01*
X37999142Y-22340857D01*
X37856285Y-22483714D01*
X37713428Y-22555142D01*
X23470571Y-22198000D02*
X23327714Y-22126571D01*
X23113428Y-22126571D01*
X22899142Y-22198000D01*
X22756285Y-22340857D01*
X22684857Y-22483714D01*
X22613428Y-22769428D01*
X22613428Y-22983714D01*
X22684857Y-23269428D01*
X22756285Y-23412285D01*
X22899142Y-23555142D01*
X23113428Y-23626571D01*
X23256285Y-23626571D01*
X23470571Y-23555142D01*
X23542000Y-23483714D01*
X23542000Y-22983714D01*
X23256285Y-22983714D01*
X24970571Y-23626571D02*
X24113428Y-23626571D01*
X24542000Y-23626571D02*
X24542000Y-22126571D01*
X24399142Y-22340857D01*
X24256285Y-22483714D01*
X24113428Y-22555142D01*
X39769142Y-89261142D02*
X40912000Y-89261142D01*
X41626285Y-89261142D02*
X42769142Y-89261142D01*
X43483428Y-89261142D02*
X44626285Y-89261142D01*
X45340571Y-89261142D02*
X46483428Y-89261142D01*
X47197714Y-89261142D02*
X48340571Y-89261142D01*
X49054857Y-89261142D02*
X50197714Y-89261142D01*
X50912000Y-89261142D02*
X52054857Y-89261142D01*
X62393428Y-91846142D02*
X62607714Y-91917571D01*
X62964857Y-91917571D01*
X63107714Y-91846142D01*
X63179142Y-91774714D01*
X63250571Y-91631857D01*
X63250571Y-91489000D01*
X63179142Y-91346142D01*
X63107714Y-91274714D01*
X62964857Y-91203285D01*
X62679142Y-91131857D01*
X62536285Y-91060428D01*
X62464857Y-90989000D01*
X62393428Y-90846142D01*
X62393428Y-90703285D01*
X62464857Y-90560428D01*
X62536285Y-90489000D01*
X62679142Y-90417571D01*
X63036285Y-90417571D01*
X63250571Y-90489000D01*
X63679142Y-90417571D02*
X64536285Y-90417571D01*
X64107714Y-91917571D02*
X64107714Y-90417571D01*
X65036285Y-91131857D02*
X65536285Y-91131857D01*
X65750571Y-91917571D02*
X65036285Y-91917571D01*
X65036285Y-90417571D01*
X65750571Y-90417571D01*
X66393428Y-91917571D02*
X66393428Y-90417571D01*
X66964857Y-90417571D01*
X67107714Y-90489000D01*
X67179142Y-90560428D01*
X67250571Y-90703285D01*
X67250571Y-90917571D01*
X67179142Y-91060428D01*
X67107714Y-91131857D01*
X66964857Y-91203285D01*
X66393428Y-91203285D01*
X63179142Y-94867571D02*
X62822000Y-94867571D01*
X62822000Y-92724714D01*
X63179142Y-92724714D01*
X63607714Y-92867571D02*
X64536285Y-92867571D01*
X64036285Y-93439000D01*
X64250571Y-93439000D01*
X64393428Y-93510428D01*
X64464857Y-93581857D01*
X64536285Y-93724714D01*
X64536285Y-94081857D01*
X64464857Y-94224714D01*
X64393428Y-94296142D01*
X64250571Y-94367571D01*
X63822000Y-94367571D01*
X63679142Y-94296142D01*
X63607714Y-94224714D01*
X65107714Y-93010428D02*
X65179142Y-92939000D01*
X65322000Y-92867571D01*
X65679142Y-92867571D01*
X65822000Y-92939000D01*
X65893428Y-93010428D01*
X65964857Y-93153285D01*
X65964857Y-93296142D01*
X65893428Y-93510428D01*
X65036285Y-94367571D01*
X65964857Y-94367571D01*
X66464857Y-94867571D02*
X66822000Y-94867571D01*
X66822000Y-92724714D01*
X66464857Y-92724714D01*
X71982000Y-91917571D02*
X71982000Y-90417571D01*
X72339142Y-90417571D01*
X72553428Y-90489000D01*
X72696285Y-90631857D01*
X72767714Y-90774714D01*
X72839142Y-91060428D01*
X72839142Y-91274714D01*
X72767714Y-91560428D01*
X72696285Y-91703285D01*
X72553428Y-91846142D01*
X72339142Y-91917571D01*
X71982000Y-91917571D01*
X73482000Y-91917571D02*
X73482000Y-90417571D01*
X75053428Y-91917571D02*
X74553428Y-91203285D01*
X74196285Y-91917571D02*
X74196285Y-90417571D01*
X74767714Y-90417571D01*
X74910571Y-90489000D01*
X74982000Y-90560428D01*
X75053428Y-90703285D01*
X75053428Y-90917571D01*
X74982000Y-91060428D01*
X74910571Y-91131857D01*
X74767714Y-91203285D01*
X74196285Y-91203285D01*
X71839142Y-94867571D02*
X71482000Y-94867571D01*
X71482000Y-92724714D01*
X71839142Y-92724714D01*
X72267714Y-92867571D02*
X73196285Y-92867571D01*
X72696285Y-93439000D01*
X72910571Y-93439000D01*
X73053428Y-93510428D01*
X73124857Y-93581857D01*
X73196285Y-93724714D01*
X73196285Y-94081857D01*
X73124857Y-94224714D01*
X73053428Y-94296142D01*
X72910571Y-94367571D01*
X72482000Y-94367571D01*
X72339142Y-94296142D01*
X72267714Y-94224714D01*
X74624857Y-94367571D02*
X73767714Y-94367571D01*
X74196285Y-94367571D02*
X74196285Y-92867571D01*
X74053428Y-93081857D01*
X73910571Y-93224714D01*
X73767714Y-93296142D01*
X75124857Y-94867571D02*
X75482000Y-94867571D01*
X75482000Y-92724714D01*
X75124857Y-92724714D01*
X57597714Y-86754000D02*
X57454857Y-86682571D01*
X57240571Y-86682571D01*
X57026285Y-86754000D01*
X56883428Y-86896857D01*
X56812000Y-87039714D01*
X56740571Y-87325428D01*
X56740571Y-87539714D01*
X56812000Y-87825428D01*
X56883428Y-87968285D01*
X57026285Y-88111142D01*
X57240571Y-88182571D01*
X57383428Y-88182571D01*
X57597714Y-88111142D01*
X57669142Y-88039714D01*
X57669142Y-87539714D01*
X57383428Y-87539714D01*
X59169142Y-88182571D02*
X58669142Y-87468285D01*
X58312000Y-88182571D02*
X58312000Y-86682571D01*
X58883428Y-86682571D01*
X59026285Y-86754000D01*
X59097714Y-86825428D01*
X59169142Y-86968285D01*
X59169142Y-87182571D01*
X59097714Y-87325428D01*
X59026285Y-87396857D01*
X58883428Y-87468285D01*
X58312000Y-87468285D01*
X60097714Y-86682571D02*
X60383428Y-86682571D01*
X60526285Y-86754000D01*
X60669142Y-86896857D01*
X60740571Y-87182571D01*
X60740571Y-87682571D01*
X60669142Y-87968285D01*
X60526285Y-88111142D01*
X60383428Y-88182571D01*
X60097714Y-88182571D01*
X59954857Y-88111142D01*
X59812000Y-87968285D01*
X59740571Y-87682571D01*
X59740571Y-87182571D01*
X59812000Y-86896857D01*
X59954857Y-86754000D01*
X60097714Y-86682571D01*
X61383428Y-86682571D02*
X61383428Y-87896857D01*
X61454857Y-88039714D01*
X61526285Y-88111142D01*
X61669142Y-88182571D01*
X61954857Y-88182571D01*
X62097714Y-88111142D01*
X62169142Y-88039714D01*
X62240571Y-87896857D01*
X62240571Y-86682571D01*
X62954857Y-88182571D02*
X62954857Y-86682571D01*
X63526285Y-86682571D01*
X63669142Y-86754000D01*
X63740571Y-86825428D01*
X63812000Y-86968285D01*
X63812000Y-87182571D01*
X63740571Y-87325428D01*
X63669142Y-87396857D01*
X63526285Y-87468285D01*
X62954857Y-87468285D01*
X66312000Y-86682571D02*
X65597714Y-86682571D01*
X65526285Y-87396857D01*
X65597714Y-87325428D01*
X65740571Y-87254000D01*
X66097714Y-87254000D01*
X66240571Y-87325428D01*
X66312000Y-87396857D01*
X66383428Y-87539714D01*
X66383428Y-87896857D01*
X66312000Y-88039714D01*
X66240571Y-88111142D01*
X66097714Y-88182571D01*
X65740571Y-88182571D01*
X65597714Y-88111142D01*
X65526285Y-88039714D01*
X56262000Y-91917571D02*
X56262000Y-90417571D01*
X56619142Y-90417571D01*
X56833428Y-90489000D01*
X56976285Y-90631857D01*
X57047714Y-90774714D01*
X57119142Y-91060428D01*
X57119142Y-91274714D01*
X57047714Y-91560428D01*
X56976285Y-91703285D01*
X56833428Y-91846142D01*
X56619142Y-91917571D01*
X56262000Y-91917571D01*
X57762000Y-91917571D02*
X57762000Y-90417571D01*
X59333428Y-91917571D02*
X58833428Y-91203285D01*
X58476285Y-91917571D02*
X58476285Y-90417571D01*
X59047714Y-90417571D01*
X59190571Y-90489000D01*
X59262000Y-90560428D01*
X59333428Y-90703285D01*
X59333428Y-90917571D01*
X59262000Y-91060428D01*
X59190571Y-91131857D01*
X59047714Y-91203285D01*
X58476285Y-91203285D01*
X56119142Y-94867571D02*
X55762000Y-94867571D01*
X55762000Y-92724714D01*
X56119142Y-92724714D01*
X56619142Y-93010428D02*
X56690571Y-92939000D01*
X56833428Y-92867571D01*
X57190571Y-92867571D01*
X57333428Y-92939000D01*
X57404857Y-93010428D01*
X57476285Y-93153285D01*
X57476285Y-93296142D01*
X57404857Y-93510428D01*
X56547714Y-94367571D01*
X57476285Y-94367571D01*
X58190571Y-94367571D02*
X58476285Y-94367571D01*
X58619142Y-94296142D01*
X58690571Y-94224714D01*
X58833428Y-94010428D01*
X58904857Y-93724714D01*
X58904857Y-93153285D01*
X58833428Y-93010428D01*
X58762000Y-92939000D01*
X58619142Y-92867571D01*
X58333428Y-92867571D01*
X58190571Y-92939000D01*
X58119142Y-93010428D01*
X58047714Y-93153285D01*
X58047714Y-93510428D01*
X58119142Y-93653285D01*
X58190571Y-93724714D01*
X58333428Y-93796142D01*
X58619142Y-93796142D01*
X58762000Y-93724714D01*
X58833428Y-93653285D01*
X58904857Y-93510428D01*
X59404857Y-94867571D02*
X59762000Y-94867571D01*
X59762000Y-92724714D01*
X59404857Y-92724714D01*
X55369142Y-89271142D02*
X56512000Y-89271142D01*
X57226285Y-89271142D02*
X58369142Y-89271142D01*
X59083428Y-89271142D02*
X60226285Y-89271142D01*
X60940571Y-89271142D02*
X62083428Y-89271142D01*
X62797714Y-89271142D02*
X63940571Y-89271142D01*
X64654857Y-89271142D02*
X65797714Y-89271142D01*
X66512000Y-89271142D02*
X67654857Y-89271142D01*
X78113428Y-91846142D02*
X78327714Y-91917571D01*
X78684857Y-91917571D01*
X78827714Y-91846142D01*
X78899142Y-91774714D01*
X78970571Y-91631857D01*
X78970571Y-91489000D01*
X78899142Y-91346142D01*
X78827714Y-91274714D01*
X78684857Y-91203285D01*
X78399142Y-91131857D01*
X78256285Y-91060428D01*
X78184857Y-90989000D01*
X78113428Y-90846142D01*
X78113428Y-90703285D01*
X78184857Y-90560428D01*
X78256285Y-90489000D01*
X78399142Y-90417571D01*
X78756285Y-90417571D01*
X78970571Y-90489000D01*
X79399142Y-90417571D02*
X80256285Y-90417571D01*
X79827714Y-91917571D02*
X79827714Y-90417571D01*
X80756285Y-91131857D02*
X81256285Y-91131857D01*
X81470571Y-91917571D02*
X80756285Y-91917571D01*
X80756285Y-90417571D01*
X81470571Y-90417571D01*
X82113428Y-91917571D02*
X82113428Y-90417571D01*
X82684857Y-90417571D01*
X82827714Y-90489000D01*
X82899142Y-90560428D01*
X82970571Y-90703285D01*
X82970571Y-90917571D01*
X82899142Y-91060428D01*
X82827714Y-91131857D01*
X82684857Y-91203285D01*
X82113428Y-91203285D01*
X78899142Y-94867571D02*
X78542000Y-94867571D01*
X78542000Y-92724714D01*
X78899142Y-92724714D01*
X79327714Y-92867571D02*
X80256285Y-92867571D01*
X79756285Y-93439000D01*
X79970571Y-93439000D01*
X80113428Y-93510428D01*
X80184857Y-93581857D01*
X80256285Y-93724714D01*
X80256285Y-94081857D01*
X80184857Y-94224714D01*
X80113428Y-94296142D01*
X79970571Y-94367571D01*
X79542000Y-94367571D01*
X79399142Y-94296142D01*
X79327714Y-94224714D01*
X80756285Y-92867571D02*
X81684857Y-92867571D01*
X81184857Y-93439000D01*
X81399142Y-93439000D01*
X81542000Y-93510428D01*
X81613428Y-93581857D01*
X81684857Y-93724714D01*
X81684857Y-94081857D01*
X81613428Y-94224714D01*
X81542000Y-94296142D01*
X81399142Y-94367571D01*
X80970571Y-94367571D01*
X80827714Y-94296142D01*
X80756285Y-94224714D01*
X82184857Y-94867571D02*
X82542000Y-94867571D01*
X82542000Y-92724714D01*
X82184857Y-92724714D01*
X71089142Y-89271142D02*
X72232000Y-89271142D01*
X72946285Y-89271142D02*
X74089142Y-89271142D01*
X74803428Y-89271142D02*
X75946285Y-89271142D01*
X76660571Y-89271142D02*
X77803428Y-89271142D01*
X78517714Y-89271142D02*
X79660571Y-89271142D01*
X80374857Y-89271142D02*
X81517714Y-89271142D01*
X82232000Y-89271142D02*
X83374857Y-89271142D01*
X73317714Y-86754000D02*
X73174857Y-86682571D01*
X72960571Y-86682571D01*
X72746285Y-86754000D01*
X72603428Y-86896857D01*
X72532000Y-87039714D01*
X72460571Y-87325428D01*
X72460571Y-87539714D01*
X72532000Y-87825428D01*
X72603428Y-87968285D01*
X72746285Y-88111142D01*
X72960571Y-88182571D01*
X73103428Y-88182571D01*
X73317714Y-88111142D01*
X73389142Y-88039714D01*
X73389142Y-87539714D01*
X73103428Y-87539714D01*
X74889142Y-88182571D02*
X74389142Y-87468285D01*
X74032000Y-88182571D02*
X74032000Y-86682571D01*
X74603428Y-86682571D01*
X74746285Y-86754000D01*
X74817714Y-86825428D01*
X74889142Y-86968285D01*
X74889142Y-87182571D01*
X74817714Y-87325428D01*
X74746285Y-87396857D01*
X74603428Y-87468285D01*
X74032000Y-87468285D01*
X75817714Y-86682571D02*
X76103428Y-86682571D01*
X76246285Y-86754000D01*
X76389142Y-86896857D01*
X76460571Y-87182571D01*
X76460571Y-87682571D01*
X76389142Y-87968285D01*
X76246285Y-88111142D01*
X76103428Y-88182571D01*
X75817714Y-88182571D01*
X75674857Y-88111142D01*
X75532000Y-87968285D01*
X75460571Y-87682571D01*
X75460571Y-87182571D01*
X75532000Y-86896857D01*
X75674857Y-86754000D01*
X75817714Y-86682571D01*
X77103428Y-86682571D02*
X77103428Y-87896857D01*
X77174857Y-88039714D01*
X77246285Y-88111142D01*
X77389142Y-88182571D01*
X77674857Y-88182571D01*
X77817714Y-88111142D01*
X77889142Y-88039714D01*
X77960571Y-87896857D01*
X77960571Y-86682571D01*
X78674857Y-88182571D02*
X78674857Y-86682571D01*
X79246285Y-86682571D01*
X79389142Y-86754000D01*
X79460571Y-86825428D01*
X79532000Y-86968285D01*
X79532000Y-87182571D01*
X79460571Y-87325428D01*
X79389142Y-87396857D01*
X79246285Y-87468285D01*
X78674857Y-87468285D01*
X81960571Y-86682571D02*
X81674857Y-86682571D01*
X81532000Y-86754000D01*
X81460571Y-86825428D01*
X81317714Y-87039714D01*
X81246285Y-87325428D01*
X81246285Y-87896857D01*
X81317714Y-88039714D01*
X81389142Y-88111142D01*
X81532000Y-88182571D01*
X81817714Y-88182571D01*
X81960571Y-88111142D01*
X82032000Y-88039714D01*
X82103428Y-87896857D01*
X82103428Y-87539714D01*
X82032000Y-87396857D01*
X81960571Y-87325428D01*
X81817714Y-87254000D01*
X81532000Y-87254000D01*
X81389142Y-87325428D01*
X81317714Y-87396857D01*
X81246285Y-87539714D01*
D11*
X70622000Y-86044000D02*
X83952000Y-86044000D01*
X70632000Y-95304000D02*
X70622000Y-87884000D01*
X83952000Y-86044000D02*
X83952000Y-95294000D01*
X83952000Y-95294000D02*
X70632000Y-95304000D01*
X54902000Y-87884000D02*
X54902000Y-86044000D01*
X39302000Y-87874000D02*
X39302000Y-86034000D01*
X54902000Y-86044000D02*
X68232000Y-86044000D01*
X54912000Y-95304000D02*
X54902000Y-87884000D01*
X68232000Y-86044000D02*
X68232000Y-95294000D01*
X39302000Y-86034000D02*
X52632000Y-86034000D01*
X68232000Y-95294000D02*
X54912000Y-95304000D01*
X39312000Y-95294000D02*
X39302000Y-87874000D01*
X52632000Y-86034000D02*
X52632000Y-95284000D01*
X70622000Y-87884000D02*
X70622000Y-86044000D01*
X52632000Y-95284000D02*
X39312000Y-95294000D01*
D12*
X46793428Y-91836142D02*
X47007714Y-91907571D01*
X47364857Y-91907571D01*
X47507714Y-91836142D01*
X47579142Y-91764714D01*
X47650571Y-91621857D01*
X47650571Y-91479000D01*
X47579142Y-91336142D01*
X47507714Y-91264714D01*
X47364857Y-91193285D01*
X47079142Y-91121857D01*
X46936285Y-91050428D01*
X46864857Y-90979000D01*
X46793428Y-90836142D01*
X46793428Y-90693285D01*
X46864857Y-90550428D01*
X46936285Y-90479000D01*
X47079142Y-90407571D01*
X47436285Y-90407571D01*
X47650571Y-90479000D01*
X48079142Y-90407571D02*
X48936285Y-90407571D01*
X48507714Y-91907571D02*
X48507714Y-90407571D01*
X49436285Y-91121857D02*
X49936285Y-91121857D01*
X50150571Y-91907571D02*
X49436285Y-91907571D01*
X49436285Y-90407571D01*
X50150571Y-90407571D01*
X50793428Y-91907571D02*
X50793428Y-90407571D01*
X51364857Y-90407571D01*
X51507714Y-90479000D01*
X51579142Y-90550428D01*
X51650571Y-90693285D01*
X51650571Y-90907571D01*
X51579142Y-91050428D01*
X51507714Y-91121857D01*
X51364857Y-91193285D01*
X50793428Y-91193285D01*
X47579142Y-94857571D02*
X47222000Y-94857571D01*
X47222000Y-92714714D01*
X47579142Y-92714714D01*
X48079142Y-93000428D02*
X48150571Y-92929000D01*
X48293428Y-92857571D01*
X48650571Y-92857571D01*
X48793428Y-92929000D01*
X48864857Y-93000428D01*
X48936285Y-93143285D01*
X48936285Y-93286142D01*
X48864857Y-93500428D01*
X48007714Y-94357571D01*
X48936285Y-94357571D01*
X49436285Y-92857571D02*
X50364857Y-92857571D01*
X49864857Y-93429000D01*
X50079142Y-93429000D01*
X50222000Y-93500428D01*
X50293428Y-93571857D01*
X50364857Y-93714714D01*
X50364857Y-94071857D01*
X50293428Y-94214714D01*
X50222000Y-94286142D01*
X50079142Y-94357571D01*
X49650571Y-94357571D01*
X49507714Y-94286142D01*
X49436285Y-94214714D01*
X50864857Y-94857571D02*
X51222000Y-94857571D01*
X51222000Y-92714714D01*
X50864857Y-92714714D01*
X41997714Y-86744000D02*
X41854857Y-86672571D01*
X41640571Y-86672571D01*
X41426285Y-86744000D01*
X41283428Y-86886857D01*
X41212000Y-87029714D01*
X41140571Y-87315428D01*
X41140571Y-87529714D01*
X41212000Y-87815428D01*
X41283428Y-87958285D01*
X41426285Y-88101142D01*
X41640571Y-88172571D01*
X41783428Y-88172571D01*
X41997714Y-88101142D01*
X42069142Y-88029714D01*
X42069142Y-87529714D01*
X41783428Y-87529714D01*
X43569142Y-88172571D02*
X43069142Y-87458285D01*
X42712000Y-88172571D02*
X42712000Y-86672571D01*
X43283428Y-86672571D01*
X43426285Y-86744000D01*
X43497714Y-86815428D01*
X43569142Y-86958285D01*
X43569142Y-87172571D01*
X43497714Y-87315428D01*
X43426285Y-87386857D01*
X43283428Y-87458285D01*
X42712000Y-87458285D01*
X44497714Y-86672571D02*
X44783428Y-86672571D01*
X44926285Y-86744000D01*
X45069142Y-86886857D01*
X45140571Y-87172571D01*
X45140571Y-87672571D01*
X45069142Y-87958285D01*
X44926285Y-88101142D01*
X44783428Y-88172571D01*
X44497714Y-88172571D01*
X44354857Y-88101142D01*
X44212000Y-87958285D01*
X44140571Y-87672571D01*
X44140571Y-87172571D01*
X44212000Y-86886857D01*
X44354857Y-86744000D01*
X44497714Y-86672571D01*
X45783428Y-86672571D02*
X45783428Y-87886857D01*
X45854857Y-88029714D01*
X45926285Y-88101142D01*
X46069142Y-88172571D01*
X46354857Y-88172571D01*
X46497714Y-88101142D01*
X46569142Y-88029714D01*
X46640571Y-87886857D01*
X46640571Y-86672571D01*
X47354857Y-88172571D02*
X47354857Y-86672571D01*
X47926285Y-86672571D01*
X48069142Y-86744000D01*
X48140571Y-86815428D01*
X48212000Y-86958285D01*
X48212000Y-87172571D01*
X48140571Y-87315428D01*
X48069142Y-87386857D01*
X47926285Y-87458285D01*
X47354857Y-87458285D01*
X50640571Y-87172571D02*
X50640571Y-88172571D01*
X50283428Y-86601142D02*
X49926285Y-87672571D01*
X50854857Y-87672571D01*
X40662000Y-91907571D02*
X40662000Y-90407571D01*
X41019142Y-90407571D01*
X41233428Y-90479000D01*
X41376285Y-90621857D01*
X41447714Y-90764714D01*
X41519142Y-91050428D01*
X41519142Y-91264714D01*
X41447714Y-91550428D01*
X41376285Y-91693285D01*
X41233428Y-91836142D01*
X41019142Y-91907571D01*
X40662000Y-91907571D01*
X42162000Y-91907571D02*
X42162000Y-90407571D01*
X43733428Y-91907571D02*
X43233428Y-91193285D01*
X42876285Y-91907571D02*
X42876285Y-90407571D01*
X43447714Y-90407571D01*
X43590571Y-90479000D01*
X43662000Y-90550428D01*
X43733428Y-90693285D01*
X43733428Y-90907571D01*
X43662000Y-91050428D01*
X43590571Y-91121857D01*
X43447714Y-91193285D01*
X42876285Y-91193285D01*
X40519142Y-94857571D02*
X40162000Y-94857571D01*
X40162000Y-92714714D01*
X40519142Y-92714714D01*
X41019142Y-93000428D02*
X41090571Y-92929000D01*
X41233428Y-92857571D01*
X41590571Y-92857571D01*
X41733428Y-92929000D01*
X41804857Y-93000428D01*
X41876285Y-93143285D01*
X41876285Y-93286142D01*
X41804857Y-93500428D01*
X40947714Y-94357571D01*
X41876285Y-94357571D01*
X43304857Y-94357571D02*
X42447714Y-94357571D01*
X42876285Y-94357571D02*
X42876285Y-92857571D01*
X42733428Y-93071857D01*
X42590571Y-93214714D01*
X42447714Y-93286142D01*
X43804857Y-94857571D02*
X44162000Y-94857571D01*
X44162000Y-92714714D01*
X43804857Y-92714714D01*
X71079142Y-77781142D02*
X72222000Y-77781142D01*
X72936285Y-77781142D02*
X74079142Y-77781142D01*
X74793428Y-77781142D02*
X75936285Y-77781142D01*
X76650571Y-77781142D02*
X77793428Y-77781142D01*
X78507714Y-77781142D02*
X79650571Y-77781142D01*
X80364857Y-77781142D02*
X81507714Y-77781142D01*
X82222000Y-77781142D02*
X83364857Y-77781142D01*
D11*
X70612000Y-76394000D02*
X70612000Y-74554000D01*
X70612000Y-74554000D02*
X83942000Y-74554000D01*
X70622000Y-83814000D02*
X70612000Y-76394000D01*
X83942000Y-74554000D02*
X83942000Y-83804000D01*
X83942000Y-83804000D02*
X70622000Y-83814000D01*
D12*
X78103428Y-80356142D02*
X78317714Y-80427571D01*
X78674857Y-80427571D01*
X78817714Y-80356142D01*
X78889142Y-80284714D01*
X78960571Y-80141857D01*
X78960571Y-79999000D01*
X78889142Y-79856142D01*
X78817714Y-79784714D01*
X78674857Y-79713285D01*
X78389142Y-79641857D01*
X78246285Y-79570428D01*
X78174857Y-79499000D01*
X78103428Y-79356142D01*
X78103428Y-79213285D01*
X78174857Y-79070428D01*
X78246285Y-78999000D01*
X78389142Y-78927571D01*
X78746285Y-78927571D01*
X78960571Y-78999000D01*
X79389142Y-78927571D02*
X80246285Y-78927571D01*
X79817714Y-80427571D02*
X79817714Y-78927571D01*
X80746285Y-79641857D02*
X81246285Y-79641857D01*
X81460571Y-80427571D02*
X80746285Y-80427571D01*
X80746285Y-78927571D01*
X81460571Y-78927571D01*
X82103428Y-80427571D02*
X82103428Y-78927571D01*
X82674857Y-78927571D01*
X82817714Y-78999000D01*
X82889142Y-79070428D01*
X82960571Y-79213285D01*
X82960571Y-79427571D01*
X82889142Y-79570428D01*
X82817714Y-79641857D01*
X82674857Y-79713285D01*
X82103428Y-79713285D01*
X78889142Y-83377571D02*
X78532000Y-83377571D01*
X78532000Y-81234714D01*
X78889142Y-81234714D01*
X80246285Y-82877571D02*
X79389142Y-82877571D01*
X79817714Y-82877571D02*
X79817714Y-81377571D01*
X79674857Y-81591857D01*
X79532000Y-81734714D01*
X79389142Y-81806142D01*
X80960571Y-82877571D02*
X81246285Y-82877571D01*
X81389142Y-82806142D01*
X81460571Y-82734714D01*
X81603428Y-82520428D01*
X81674857Y-82234714D01*
X81674857Y-81663285D01*
X81603428Y-81520428D01*
X81532000Y-81449000D01*
X81389142Y-81377571D01*
X81103428Y-81377571D01*
X80960571Y-81449000D01*
X80889142Y-81520428D01*
X80817714Y-81663285D01*
X80817714Y-82020428D01*
X80889142Y-82163285D01*
X80960571Y-82234714D01*
X81103428Y-82306142D01*
X81389142Y-82306142D01*
X81532000Y-82234714D01*
X81603428Y-82163285D01*
X81674857Y-82020428D01*
X82174857Y-83377571D02*
X82532000Y-83377571D01*
X82532000Y-81234714D01*
X82174857Y-81234714D01*
X73307714Y-75264000D02*
X73164857Y-75192571D01*
X72950571Y-75192571D01*
X72736285Y-75264000D01*
X72593428Y-75406857D01*
X72522000Y-75549714D01*
X72450571Y-75835428D01*
X72450571Y-76049714D01*
X72522000Y-76335428D01*
X72593428Y-76478285D01*
X72736285Y-76621142D01*
X72950571Y-76692571D01*
X73093428Y-76692571D01*
X73307714Y-76621142D01*
X73379142Y-76549714D01*
X73379142Y-76049714D01*
X73093428Y-76049714D01*
X74879142Y-76692571D02*
X74379142Y-75978285D01*
X74022000Y-76692571D02*
X74022000Y-75192571D01*
X74593428Y-75192571D01*
X74736285Y-75264000D01*
X74807714Y-75335428D01*
X74879142Y-75478285D01*
X74879142Y-75692571D01*
X74807714Y-75835428D01*
X74736285Y-75906857D01*
X74593428Y-75978285D01*
X74022000Y-75978285D01*
X75807714Y-75192571D02*
X76093428Y-75192571D01*
X76236285Y-75264000D01*
X76379142Y-75406857D01*
X76450571Y-75692571D01*
X76450571Y-76192571D01*
X76379142Y-76478285D01*
X76236285Y-76621142D01*
X76093428Y-76692571D01*
X75807714Y-76692571D01*
X75664857Y-76621142D01*
X75522000Y-76478285D01*
X75450571Y-76192571D01*
X75450571Y-75692571D01*
X75522000Y-75406857D01*
X75664857Y-75264000D01*
X75807714Y-75192571D01*
X77093428Y-75192571D02*
X77093428Y-76406857D01*
X77164857Y-76549714D01*
X77236285Y-76621142D01*
X77379142Y-76692571D01*
X77664857Y-76692571D01*
X77807714Y-76621142D01*
X77879142Y-76549714D01*
X77950571Y-76406857D01*
X77950571Y-75192571D01*
X78664857Y-76692571D02*
X78664857Y-75192571D01*
X79236285Y-75192571D01*
X79379142Y-75264000D01*
X79450571Y-75335428D01*
X79522000Y-75478285D01*
X79522000Y-75692571D01*
X79450571Y-75835428D01*
X79379142Y-75906857D01*
X79236285Y-75978285D01*
X78664857Y-75978285D01*
X81164857Y-75192571D02*
X82093428Y-75192571D01*
X81593428Y-75764000D01*
X81807714Y-75764000D01*
X81950571Y-75835428D01*
X82022000Y-75906857D01*
X82093428Y-76049714D01*
X82093428Y-76406857D01*
X82022000Y-76549714D01*
X81950571Y-76621142D01*
X81807714Y-76692571D01*
X81379142Y-76692571D01*
X81236285Y-76621142D01*
X81164857Y-76549714D01*
X71972000Y-80427571D02*
X71972000Y-78927571D01*
X72329142Y-78927571D01*
X72543428Y-78999000D01*
X72686285Y-79141857D01*
X72757714Y-79284714D01*
X72829142Y-79570428D01*
X72829142Y-79784714D01*
X72757714Y-80070428D01*
X72686285Y-80213285D01*
X72543428Y-80356142D01*
X72329142Y-80427571D01*
X71972000Y-80427571D01*
X73472000Y-80427571D02*
X73472000Y-78927571D01*
X75043428Y-80427571D02*
X74543428Y-79713285D01*
X74186285Y-80427571D02*
X74186285Y-78927571D01*
X74757714Y-78927571D01*
X74900571Y-78999000D01*
X74972000Y-79070428D01*
X75043428Y-79213285D01*
X75043428Y-79427571D01*
X74972000Y-79570428D01*
X74900571Y-79641857D01*
X74757714Y-79713285D01*
X74186285Y-79713285D01*
X71829142Y-83377571D02*
X71472000Y-83377571D01*
X71472000Y-81234714D01*
X71829142Y-81234714D01*
X73186285Y-82877571D02*
X72329142Y-82877571D01*
X72757714Y-82877571D02*
X72757714Y-81377571D01*
X72614857Y-81591857D01*
X72472000Y-81734714D01*
X72329142Y-81806142D01*
X74114857Y-81377571D02*
X74257714Y-81377571D01*
X74400571Y-81449000D01*
X74472000Y-81520428D01*
X74543428Y-81663285D01*
X74614857Y-81949000D01*
X74614857Y-82306142D01*
X74543428Y-82591857D01*
X74472000Y-82734714D01*
X74400571Y-82806142D01*
X74257714Y-82877571D01*
X74114857Y-82877571D01*
X73972000Y-82806142D01*
X73900571Y-82734714D01*
X73829142Y-82591857D01*
X73757714Y-82306142D01*
X73757714Y-81949000D01*
X73829142Y-81663285D01*
X73900571Y-81520428D01*
X73972000Y-81449000D01*
X74114857Y-81377571D01*
X75114857Y-83377571D02*
X75472000Y-83377571D01*
X75472000Y-81234714D01*
X75114857Y-81234714D01*
X55359142Y-77781142D02*
X56502000Y-77781142D01*
X57216285Y-77781142D02*
X58359142Y-77781142D01*
X59073428Y-77781142D02*
X60216285Y-77781142D01*
X60930571Y-77781142D02*
X62073428Y-77781142D01*
X62787714Y-77781142D02*
X63930571Y-77781142D01*
X64644857Y-77781142D02*
X65787714Y-77781142D01*
X66502000Y-77781142D02*
X67644857Y-77781142D01*
D11*
X54892000Y-76394000D02*
X54892000Y-74554000D01*
X54892000Y-74554000D02*
X68222000Y-74554000D01*
X54902000Y-83814000D02*
X54892000Y-76394000D01*
X68222000Y-74554000D02*
X68222000Y-83804000D01*
X68222000Y-83804000D02*
X54902000Y-83814000D01*
D12*
X62383428Y-80356142D02*
X62597714Y-80427571D01*
X62954857Y-80427571D01*
X63097714Y-80356142D01*
X63169142Y-80284714D01*
X63240571Y-80141857D01*
X63240571Y-79999000D01*
X63169142Y-79856142D01*
X63097714Y-79784714D01*
X62954857Y-79713285D01*
X62669142Y-79641857D01*
X62526285Y-79570428D01*
X62454857Y-79499000D01*
X62383428Y-79356142D01*
X62383428Y-79213285D01*
X62454857Y-79070428D01*
X62526285Y-78999000D01*
X62669142Y-78927571D01*
X63026285Y-78927571D01*
X63240571Y-78999000D01*
X63669142Y-78927571D02*
X64526285Y-78927571D01*
X64097714Y-80427571D02*
X64097714Y-78927571D01*
X65026285Y-79641857D02*
X65526285Y-79641857D01*
X65740571Y-80427571D02*
X65026285Y-80427571D01*
X65026285Y-78927571D01*
X65740571Y-78927571D01*
X66383428Y-80427571D02*
X66383428Y-78927571D01*
X66954857Y-78927571D01*
X67097714Y-78999000D01*
X67169142Y-79070428D01*
X67240571Y-79213285D01*
X67240571Y-79427571D01*
X67169142Y-79570428D01*
X67097714Y-79641857D01*
X66954857Y-79713285D01*
X66383428Y-79713285D01*
X63883428Y-83377571D02*
X63526285Y-83377571D01*
X63526285Y-81234714D01*
X63883428Y-81234714D01*
X64669142Y-82020428D02*
X64526285Y-81949000D01*
X64454857Y-81877571D01*
X64383428Y-81734714D01*
X64383428Y-81663285D01*
X64454857Y-81520428D01*
X64526285Y-81449000D01*
X64669142Y-81377571D01*
X64954857Y-81377571D01*
X65097714Y-81449000D01*
X65169142Y-81520428D01*
X65240571Y-81663285D01*
X65240571Y-81734714D01*
X65169142Y-81877571D01*
X65097714Y-81949000D01*
X64954857Y-82020428D01*
X64669142Y-82020428D01*
X64526285Y-82091857D01*
X64454857Y-82163285D01*
X64383428Y-82306142D01*
X64383428Y-82591857D01*
X64454857Y-82734714D01*
X64526285Y-82806142D01*
X64669142Y-82877571D01*
X64954857Y-82877571D01*
X65097714Y-82806142D01*
X65169142Y-82734714D01*
X65240571Y-82591857D01*
X65240571Y-82306142D01*
X65169142Y-82163285D01*
X65097714Y-82091857D01*
X64954857Y-82020428D01*
X65740571Y-83377571D02*
X66097714Y-83377571D01*
X66097714Y-81234714D01*
X65740571Y-81234714D01*
X57587714Y-75264000D02*
X57444857Y-75192571D01*
X57230571Y-75192571D01*
X57016285Y-75264000D01*
X56873428Y-75406857D01*
X56802000Y-75549714D01*
X56730571Y-75835428D01*
X56730571Y-76049714D01*
X56802000Y-76335428D01*
X56873428Y-76478285D01*
X57016285Y-76621142D01*
X57230571Y-76692571D01*
X57373428Y-76692571D01*
X57587714Y-76621142D01*
X57659142Y-76549714D01*
X57659142Y-76049714D01*
X57373428Y-76049714D01*
X59159142Y-76692571D02*
X58659142Y-75978285D01*
X58302000Y-76692571D02*
X58302000Y-75192571D01*
X58873428Y-75192571D01*
X59016285Y-75264000D01*
X59087714Y-75335428D01*
X59159142Y-75478285D01*
X59159142Y-75692571D01*
X59087714Y-75835428D01*
X59016285Y-75906857D01*
X58873428Y-75978285D01*
X58302000Y-75978285D01*
X60087714Y-75192571D02*
X60373428Y-75192571D01*
X60516285Y-75264000D01*
X60659142Y-75406857D01*
X60730571Y-75692571D01*
X60730571Y-76192571D01*
X60659142Y-76478285D01*
X60516285Y-76621142D01*
X60373428Y-76692571D01*
X60087714Y-76692571D01*
X59944857Y-76621142D01*
X59802000Y-76478285D01*
X59730571Y-76192571D01*
X59730571Y-75692571D01*
X59802000Y-75406857D01*
X59944857Y-75264000D01*
X60087714Y-75192571D01*
X61373428Y-75192571D02*
X61373428Y-76406857D01*
X61444857Y-76549714D01*
X61516285Y-76621142D01*
X61659142Y-76692571D01*
X61944857Y-76692571D01*
X62087714Y-76621142D01*
X62159142Y-76549714D01*
X62230571Y-76406857D01*
X62230571Y-75192571D01*
X62944857Y-76692571D02*
X62944857Y-75192571D01*
X63516285Y-75192571D01*
X63659142Y-75264000D01*
X63730571Y-75335428D01*
X63802000Y-75478285D01*
X63802000Y-75692571D01*
X63730571Y-75835428D01*
X63659142Y-75906857D01*
X63516285Y-75978285D01*
X62944857Y-75978285D01*
X65516285Y-75335428D02*
X65587714Y-75264000D01*
X65730571Y-75192571D01*
X66087714Y-75192571D01*
X66230571Y-75264000D01*
X66302000Y-75335428D01*
X66373428Y-75478285D01*
X66373428Y-75621142D01*
X66302000Y-75835428D01*
X65444857Y-76692571D01*
X66373428Y-76692571D01*
X56252000Y-80427571D02*
X56252000Y-78927571D01*
X56609142Y-78927571D01*
X56823428Y-78999000D01*
X56966285Y-79141857D01*
X57037714Y-79284714D01*
X57109142Y-79570428D01*
X57109142Y-79784714D01*
X57037714Y-80070428D01*
X56966285Y-80213285D01*
X56823428Y-80356142D01*
X56609142Y-80427571D01*
X56252000Y-80427571D01*
X57752000Y-80427571D02*
X57752000Y-78927571D01*
X59323428Y-80427571D02*
X58823428Y-79713285D01*
X58466285Y-80427571D02*
X58466285Y-78927571D01*
X59037714Y-78927571D01*
X59180571Y-78999000D01*
X59252000Y-79070428D01*
X59323428Y-79213285D01*
X59323428Y-79427571D01*
X59252000Y-79570428D01*
X59180571Y-79641857D01*
X59037714Y-79713285D01*
X58466285Y-79713285D01*
X56823428Y-83377571D02*
X56466285Y-83377571D01*
X56466285Y-81234714D01*
X56823428Y-81234714D01*
X57252000Y-81377571D02*
X58252000Y-81377571D01*
X57609142Y-82877571D01*
X58680571Y-83377571D02*
X59037714Y-83377571D01*
X59037714Y-81234714D01*
X58680571Y-81234714D01*
X39759142Y-77771142D02*
X40902000Y-77771142D01*
X41616285Y-77771142D02*
X42759142Y-77771142D01*
X43473428Y-77771142D02*
X44616285Y-77771142D01*
X45330571Y-77771142D02*
X46473428Y-77771142D01*
X47187714Y-77771142D02*
X48330571Y-77771142D01*
X49044857Y-77771142D02*
X50187714Y-77771142D01*
X50902000Y-77771142D02*
X52044857Y-77771142D01*
D11*
X39292000Y-74544000D02*
X52622000Y-74544000D01*
X39292000Y-76384000D02*
X39292000Y-74544000D01*
X39302000Y-83804000D02*
X39292000Y-76384000D01*
X52622000Y-83794000D02*
X39302000Y-83804000D01*
X52622000Y-74544000D02*
X52622000Y-83794000D01*
D12*
X46783428Y-80346142D02*
X46997714Y-80417571D01*
X47354857Y-80417571D01*
X47497714Y-80346142D01*
X47569142Y-80274714D01*
X47640571Y-80131857D01*
X47640571Y-79989000D01*
X47569142Y-79846142D01*
X47497714Y-79774714D01*
X47354857Y-79703285D01*
X47069142Y-79631857D01*
X46926285Y-79560428D01*
X46854857Y-79489000D01*
X46783428Y-79346142D01*
X46783428Y-79203285D01*
X46854857Y-79060428D01*
X46926285Y-78989000D01*
X47069142Y-78917571D01*
X47426285Y-78917571D01*
X47640571Y-78989000D01*
X48069142Y-78917571D02*
X48926285Y-78917571D01*
X48497714Y-80417571D02*
X48497714Y-78917571D01*
X49426285Y-79631857D02*
X49926285Y-79631857D01*
X50140571Y-80417571D02*
X49426285Y-80417571D01*
X49426285Y-78917571D01*
X50140571Y-78917571D01*
X50783428Y-80417571D02*
X50783428Y-78917571D01*
X51354857Y-78917571D01*
X51497714Y-78989000D01*
X51569142Y-79060428D01*
X51640571Y-79203285D01*
X51640571Y-79417571D01*
X51569142Y-79560428D01*
X51497714Y-79631857D01*
X51354857Y-79703285D01*
X50783428Y-79703285D01*
X48283428Y-83367571D02*
X47926285Y-83367571D01*
X47926285Y-81224714D01*
X48283428Y-81224714D01*
X49569142Y-81367571D02*
X48854857Y-81367571D01*
X48783428Y-82081857D01*
X48854857Y-82010428D01*
X48997714Y-81939000D01*
X49354857Y-81939000D01*
X49497714Y-82010428D01*
X49569142Y-82081857D01*
X49640571Y-82224714D01*
X49640571Y-82581857D01*
X49569142Y-82724714D01*
X49497714Y-82796142D01*
X49354857Y-82867571D01*
X48997714Y-82867571D01*
X48854857Y-82796142D01*
X48783428Y-82724714D01*
X50140571Y-83367571D02*
X50497714Y-83367571D01*
X50497714Y-81224714D01*
X50140571Y-81224714D01*
X40652000Y-80417571D02*
X40652000Y-78917571D01*
X41009142Y-78917571D01*
X41223428Y-78989000D01*
X41366285Y-79131857D01*
X41437714Y-79274714D01*
X41509142Y-79560428D01*
X41509142Y-79774714D01*
X41437714Y-80060428D01*
X41366285Y-80203285D01*
X41223428Y-80346142D01*
X41009142Y-80417571D01*
X40652000Y-80417571D01*
X42152000Y-80417571D02*
X42152000Y-78917571D01*
X43723428Y-80417571D02*
X43223428Y-79703285D01*
X42866285Y-80417571D02*
X42866285Y-78917571D01*
X43437714Y-78917571D01*
X43580571Y-78989000D01*
X43652000Y-79060428D01*
X43723428Y-79203285D01*
X43723428Y-79417571D01*
X43652000Y-79560428D01*
X43580571Y-79631857D01*
X43437714Y-79703285D01*
X42866285Y-79703285D01*
X41223428Y-83367571D02*
X40866285Y-83367571D01*
X40866285Y-81224714D01*
X41223428Y-81224714D01*
X41652000Y-81367571D02*
X42580571Y-81367571D01*
X42080571Y-81939000D01*
X42294857Y-81939000D01*
X42437714Y-82010428D01*
X42509142Y-82081857D01*
X42580571Y-82224714D01*
X42580571Y-82581857D01*
X42509142Y-82724714D01*
X42437714Y-82796142D01*
X42294857Y-82867571D01*
X41866285Y-82867571D01*
X41723428Y-82796142D01*
X41652000Y-82724714D01*
X43080571Y-83367571D02*
X43437714Y-83367571D01*
X43437714Y-81224714D01*
X43080571Y-81224714D01*
X41987714Y-75254000D02*
X41844857Y-75182571D01*
X41630571Y-75182571D01*
X41416285Y-75254000D01*
X41273428Y-75396857D01*
X41202000Y-75539714D01*
X41130571Y-75825428D01*
X41130571Y-76039714D01*
X41202000Y-76325428D01*
X41273428Y-76468285D01*
X41416285Y-76611142D01*
X41630571Y-76682571D01*
X41773428Y-76682571D01*
X41987714Y-76611142D01*
X42059142Y-76539714D01*
X42059142Y-76039714D01*
X41773428Y-76039714D01*
X43559142Y-76682571D02*
X43059142Y-75968285D01*
X42702000Y-76682571D02*
X42702000Y-75182571D01*
X43273428Y-75182571D01*
X43416285Y-75254000D01*
X43487714Y-75325428D01*
X43559142Y-75468285D01*
X43559142Y-75682571D01*
X43487714Y-75825428D01*
X43416285Y-75896857D01*
X43273428Y-75968285D01*
X42702000Y-75968285D01*
X44487714Y-75182571D02*
X44773428Y-75182571D01*
X44916285Y-75254000D01*
X45059142Y-75396857D01*
X45130571Y-75682571D01*
X45130571Y-76182571D01*
X45059142Y-76468285D01*
X44916285Y-76611142D01*
X44773428Y-76682571D01*
X44487714Y-76682571D01*
X44344857Y-76611142D01*
X44202000Y-76468285D01*
X44130571Y-76182571D01*
X44130571Y-75682571D01*
X44202000Y-75396857D01*
X44344857Y-75254000D01*
X44487714Y-75182571D01*
X45773428Y-75182571D02*
X45773428Y-76396857D01*
X45844857Y-76539714D01*
X45916285Y-76611142D01*
X46059142Y-76682571D01*
X46344857Y-76682571D01*
X46487714Y-76611142D01*
X46559142Y-76539714D01*
X46630571Y-76396857D01*
X46630571Y-75182571D01*
X47344857Y-76682571D02*
X47344857Y-75182571D01*
X47916285Y-75182571D01*
X48059142Y-75254000D01*
X48130571Y-75325428D01*
X48202000Y-75468285D01*
X48202000Y-75682571D01*
X48130571Y-75825428D01*
X48059142Y-75896857D01*
X47916285Y-75968285D01*
X47344857Y-75968285D01*
X50773428Y-76682571D02*
X49916285Y-76682571D01*
X50344857Y-76682571D02*
X50344857Y-75182571D01*
X50202000Y-75396857D01*
X50059142Y-75539714D01*
X49916285Y-75611142D01*
D11*
X30178666Y-91379761D02*
X30321523Y-91427380D01*
X30559619Y-91427380D01*
X30654857Y-91379761D01*
X30702476Y-91332142D01*
X30750095Y-91236904D01*
X30750095Y-91141666D01*
X30702476Y-91046428D01*
X30654857Y-90998809D01*
X30559619Y-90951190D01*
X30369142Y-90903571D01*
X30273904Y-90855952D01*
X30226285Y-90808333D01*
X30178666Y-90713095D01*
X30178666Y-90617857D01*
X30226285Y-90522619D01*
X30273904Y-90475000D01*
X30369142Y-90427380D01*
X30607238Y-90427380D01*
X30750095Y-90475000D01*
X31083428Y-90427380D02*
X31321523Y-91427380D01*
X31512000Y-90713095D01*
X31702476Y-91427380D01*
X31940571Y-90427380D01*
X32845333Y-91427380D02*
X32273904Y-91427380D01*
X32559619Y-91427380D02*
X32559619Y-90427380D01*
X32464380Y-90570238D01*
X32369142Y-90665476D01*
X32273904Y-90713095D01*
X30416761Y-93410714D02*
X30178666Y-93410714D01*
X30178666Y-91982142D01*
X30416761Y-91982142D01*
X30702476Y-92077380D02*
X31321523Y-92077380D01*
X30988190Y-92458333D01*
X31131047Y-92458333D01*
X31226285Y-92505952D01*
X31273904Y-92553571D01*
X31321523Y-92648809D01*
X31321523Y-92886904D01*
X31273904Y-92982142D01*
X31226285Y-93029761D01*
X31131047Y-93077380D01*
X30845333Y-93077380D01*
X30750095Y-93029761D01*
X30702476Y-92982142D01*
X31654857Y-92077380D02*
X32321523Y-92077380D01*
X31892952Y-93077380D01*
X32607238Y-93410714D02*
X32845333Y-93410714D01*
X32845333Y-91982142D01*
X32607238Y-91982142D01*
X30178666Y-83854761D02*
X30321523Y-83902380D01*
X30559619Y-83902380D01*
X30654857Y-83854761D01*
X30702476Y-83807142D01*
X30750095Y-83711904D01*
X30750095Y-83616666D01*
X30702476Y-83521428D01*
X30654857Y-83473809D01*
X30559619Y-83426190D01*
X30369142Y-83378571D01*
X30273904Y-83330952D01*
X30226285Y-83283333D01*
X30178666Y-83188095D01*
X30178666Y-83092857D01*
X30226285Y-82997619D01*
X30273904Y-82950000D01*
X30369142Y-82902380D01*
X30607238Y-82902380D01*
X30750095Y-82950000D01*
X31083428Y-82902380D02*
X31321523Y-83902380D01*
X31512000Y-83188095D01*
X31702476Y-83902380D01*
X31940571Y-82902380D01*
X32273904Y-82997619D02*
X32321523Y-82950000D01*
X32416761Y-82902380D01*
X32654857Y-82902380D01*
X32750095Y-82950000D01*
X32797714Y-82997619D01*
X32845333Y-83092857D01*
X32845333Y-83188095D01*
X32797714Y-83330952D01*
X32226285Y-83902380D01*
X32845333Y-83902380D01*
X30416761Y-85885714D02*
X30178666Y-85885714D01*
X30178666Y-84457142D01*
X30416761Y-84457142D01*
X30702476Y-84552380D02*
X31321523Y-84552380D01*
X30988190Y-84933333D01*
X31131047Y-84933333D01*
X31226285Y-84980952D01*
X31273904Y-85028571D01*
X31321523Y-85123809D01*
X31321523Y-85361904D01*
X31273904Y-85457142D01*
X31226285Y-85504761D01*
X31131047Y-85552380D01*
X30845333Y-85552380D01*
X30750095Y-85504761D01*
X30702476Y-85457142D01*
X32178666Y-84552380D02*
X31988190Y-84552380D01*
X31892952Y-84600000D01*
X31845333Y-84647619D01*
X31750095Y-84790476D01*
X31702476Y-84980952D01*
X31702476Y-85361904D01*
X31750095Y-85457142D01*
X31797714Y-85504761D01*
X31892952Y-85552380D01*
X32083428Y-85552380D01*
X32178666Y-85504761D01*
X32226285Y-85457142D01*
X32273904Y-85361904D01*
X32273904Y-85123809D01*
X32226285Y-85028571D01*
X32178666Y-84980952D01*
X32083428Y-84933333D01*
X31892952Y-84933333D01*
X31797714Y-84980952D01*
X31750095Y-85028571D01*
X31702476Y-85123809D01*
X32607238Y-85885714D02*
X32845333Y-85885714D01*
X32845333Y-84457142D01*
X32607238Y-84457142D01*
X30178666Y-76329761D02*
X30321523Y-76377380D01*
X30559619Y-76377380D01*
X30654857Y-76329761D01*
X30702476Y-76282142D01*
X30750095Y-76186904D01*
X30750095Y-76091666D01*
X30702476Y-75996428D01*
X30654857Y-75948809D01*
X30559619Y-75901190D01*
X30369142Y-75853571D01*
X30273904Y-75805952D01*
X30226285Y-75758333D01*
X30178666Y-75663095D01*
X30178666Y-75567857D01*
X30226285Y-75472619D01*
X30273904Y-75425000D01*
X30369142Y-75377380D01*
X30607238Y-75377380D01*
X30750095Y-75425000D01*
X31083428Y-75377380D02*
X31321523Y-76377380D01*
X31512000Y-75663095D01*
X31702476Y-76377380D01*
X31940571Y-75377380D01*
X32845333Y-76377380D02*
X32273904Y-76377380D01*
X32559619Y-76377380D02*
X32559619Y-75377380D01*
X32464380Y-75520238D01*
X32369142Y-75615476D01*
X32273904Y-75663095D01*
X30416761Y-78360714D02*
X30178666Y-78360714D01*
X30178666Y-76932142D01*
X30416761Y-76932142D01*
X30702476Y-77027380D02*
X31321523Y-77027380D01*
X30988190Y-77408333D01*
X31131047Y-77408333D01*
X31226285Y-77455952D01*
X31273904Y-77503571D01*
X31321523Y-77598809D01*
X31321523Y-77836904D01*
X31273904Y-77932142D01*
X31226285Y-77979761D01*
X31131047Y-78027380D01*
X30845333Y-78027380D01*
X30750095Y-77979761D01*
X30702476Y-77932142D01*
X32226285Y-77027380D02*
X31750095Y-77027380D01*
X31702476Y-77503571D01*
X31750095Y-77455952D01*
X31845333Y-77408333D01*
X32083428Y-77408333D01*
X32178666Y-77455952D01*
X32226285Y-77503571D01*
X32273904Y-77598809D01*
X32273904Y-77836904D01*
X32226285Y-77932142D01*
X32178666Y-77979761D01*
X32083428Y-78027380D01*
X31845333Y-78027380D01*
X31750095Y-77979761D01*
X31702476Y-77932142D01*
X32607238Y-78360714D02*
X32845333Y-78360714D01*
X32845333Y-76932142D01*
X32607238Y-76932142D01*
X29252000Y-88720000D02*
X29252000Y-95200000D01*
X29252000Y-81160000D02*
X29252000Y-88050000D01*
X29252000Y-73600000D02*
X29252000Y-80490000D01*
D13*
X57532000Y-121478000D02*
G75*
G03*
X57532000Y-121478000I-1200000J0D01*
G01*
X100582000Y-72408000D02*
G75*
G03*
X100582000Y-72408000I-1200000J0D01*
G01*
X115312000Y-72408000D02*
G75*
G03*
X115312000Y-72408000I-1200000J0D01*
G01*
X141882000Y-121288000D02*
G75*
G03*
X141882000Y-121288000I-1200000J0D01*
G01*
X135822000Y-121288000D02*
G75*
G03*
X135822000Y-121288000I-1200000J0D01*
G01*
X145962000Y-103128000D02*
G75*
G03*
X145962000Y-103128000I-1200000J0D01*
G01*
X145962000Y-92528000D02*
G75*
G03*
X145962000Y-92528000I-1200000J0D01*
G01*
X122962000Y-87668000D02*
G75*
G03*
X122962000Y-87668000I-1750000J0D01*
G01*
X117727000Y-87668000D02*
G75*
G03*
X117727000Y-87668000I-1750000J0D01*
G01*
X112492000Y-87668000D02*
G75*
G03*
X112492000Y-87668000I-1750000J0D01*
G01*
X161020000Y-21720000D02*
X160720000Y-21120000D01*
X160420000Y-21720000D02*
X161020000Y-21720000D01*
X160720000Y-21120000D02*
X160420000Y-21720000D01*
X168540000Y-18030000D02*
X168220000Y-18030000D01*
X168540000Y-14610000D02*
X168540000Y-18030000D01*
X168220000Y-14530000D02*
X168540000Y-14610000D01*
X167900000Y-14610000D02*
X168220000Y-14530000D01*
X167900000Y-18030000D02*
X167900000Y-14610000D01*
X168220000Y-18030000D02*
X167900000Y-18030000D01*
X166890000Y-19030000D02*
X167050000Y-19030000D01*
X166040000Y-18030000D02*
X165720000Y-18030000D01*
X166040000Y-14610000D02*
X166040000Y-18030000D01*
X165720000Y-14530000D02*
X166040000Y-14610000D01*
X165400000Y-14610000D02*
X165720000Y-14530000D01*
X165400000Y-18030000D02*
X165400000Y-14610000D01*
X165720000Y-18030000D02*
X165400000Y-18030000D01*
X164390000Y-19030000D02*
X164550000Y-19030000D01*
X163540000Y-18030000D02*
X163220000Y-18030000D01*
X163540000Y-14610000D02*
X163540000Y-18030000D01*
X163220000Y-14530000D02*
X163540000Y-14610000D01*
X162900000Y-14610000D02*
X163220000Y-14530000D01*
X162900000Y-18030000D02*
X162900000Y-14610000D01*
X163220000Y-18030000D02*
X162900000Y-18030000D01*
X161890000Y-19030000D02*
X162050000Y-19030000D01*
X161040000Y-18030000D02*
X160720000Y-18030000D01*
X161040000Y-14610000D02*
X161040000Y-18030000D01*
X160720000Y-14530000D02*
X161040000Y-14610000D01*
X160400000Y-14610000D02*
X160720000Y-14530000D01*
X160400000Y-18030000D02*
X160400000Y-14610000D01*
X160720000Y-18030000D02*
X160400000Y-18030000D01*
X159330000Y-18030000D02*
X169610000Y-18030000D01*
X169610000Y-19030000D02*
X170830000Y-19030000D01*
X169610000Y-14030000D02*
X169610000Y-19030000D01*
X170830000Y-14030000D02*
X169610000Y-14030000D01*
X159330000Y-19030000D02*
X158110000Y-19030000D01*
X159330000Y-14030000D02*
X159330000Y-19030000D01*
X158110000Y-14030000D02*
X159330000Y-14030000D01*
X169610000Y-21230000D02*
X169610000Y-19030000D01*
X170830000Y-21230000D02*
X169610000Y-21230000D01*
X170830000Y-12810000D02*
X170830000Y-21230000D01*
X158110000Y-12810000D02*
X170830000Y-12810000D01*
X158110000Y-21230000D02*
X158110000Y-12810000D01*
X159330000Y-21230000D02*
X158110000Y-21230000D01*
X159330000Y-19030000D02*
X159330000Y-21230000D01*
X174620000Y-21720000D02*
X174320000Y-21120000D01*
X174020000Y-21720000D02*
X174620000Y-21720000D01*
X174320000Y-21120000D02*
X174020000Y-21720000D01*
X182140000Y-18030000D02*
X181820000Y-18030000D01*
X182140000Y-14610000D02*
X182140000Y-18030000D01*
X181820000Y-14530000D02*
X182140000Y-14610000D01*
X181500000Y-14610000D02*
X181820000Y-14530000D01*
X181500000Y-18030000D02*
X181500000Y-14610000D01*
X181820000Y-18030000D02*
X181500000Y-18030000D01*
X180490000Y-19030000D02*
X180650000Y-19030000D01*
X179640000Y-18030000D02*
X179320000Y-18030000D01*
X179640000Y-14610000D02*
X179640000Y-18030000D01*
X179320000Y-14530000D02*
X179640000Y-14610000D01*
X179000000Y-14610000D02*
X179320000Y-14530000D01*
X179000000Y-18030000D02*
X179000000Y-14610000D01*
X179320000Y-18030000D02*
X179000000Y-18030000D01*
X177990000Y-19030000D02*
X178150000Y-19030000D01*
X177140000Y-18030000D02*
X176820000Y-18030000D01*
X177140000Y-14610000D02*
X177140000Y-18030000D01*
X176820000Y-14530000D02*
X177140000Y-14610000D01*
X176500000Y-14610000D02*
X176820000Y-14530000D01*
X176500000Y-18030000D02*
X176500000Y-14610000D01*
X176820000Y-18030000D02*
X176500000Y-18030000D01*
X175490000Y-19030000D02*
X175650000Y-19030000D01*
X174640000Y-18030000D02*
X174320000Y-18030000D01*
X174640000Y-14610000D02*
X174640000Y-18030000D01*
X174320000Y-14530000D02*
X174640000Y-14610000D01*
X174000000Y-14610000D02*
X174320000Y-14530000D01*
X174000000Y-18030000D02*
X174000000Y-14610000D01*
X174320000Y-18030000D02*
X174000000Y-18030000D01*
X172930000Y-18030000D02*
X183210000Y-18030000D01*
X183210000Y-19030000D02*
X184430000Y-19030000D01*
X183210000Y-14030000D02*
X183210000Y-19030000D01*
X184430000Y-14030000D02*
X183210000Y-14030000D01*
X172930000Y-19030000D02*
X171710000Y-19030000D01*
X172930000Y-14030000D02*
X172930000Y-19030000D01*
X171710000Y-14030000D02*
X172930000Y-14030000D01*
X183210000Y-21230000D02*
X183210000Y-19030000D01*
X184430000Y-21230000D02*
X183210000Y-21230000D01*
X184430000Y-12810000D02*
X184430000Y-21230000D01*
X171710000Y-12810000D02*
X184430000Y-12810000D01*
X171710000Y-21230000D02*
X171710000Y-12810000D01*
X172930000Y-21230000D02*
X171710000Y-21230000D01*
X172930000Y-19030000D02*
X172930000Y-21230000D01*
X132130000Y-19030000D02*
X132130000Y-21230000D01*
X132130000Y-21230000D02*
X130910000Y-21230000D01*
X130910000Y-21230000D02*
X130910000Y-12810000D01*
X130910000Y-12810000D02*
X143630000Y-12810000D01*
X143630000Y-12810000D02*
X143630000Y-21230000D01*
X143630000Y-21230000D02*
X142410000Y-21230000D01*
X142410000Y-21230000D02*
X142410000Y-19030000D01*
X130910000Y-14030000D02*
X132130000Y-14030000D01*
X132130000Y-14030000D02*
X132130000Y-19030000D01*
X132130000Y-19030000D02*
X130910000Y-19030000D01*
X143630000Y-14030000D02*
X142410000Y-14030000D01*
X142410000Y-14030000D02*
X142410000Y-19030000D01*
X142410000Y-19030000D02*
X143630000Y-19030000D01*
X132130000Y-18030000D02*
X142410000Y-18030000D01*
X133520000Y-18030000D02*
X133200000Y-18030000D01*
X133200000Y-18030000D02*
X133200000Y-14610000D01*
X133200000Y-14610000D02*
X133520000Y-14530000D01*
X133520000Y-14530000D02*
X133840000Y-14610000D01*
X133840000Y-14610000D02*
X133840000Y-18030000D01*
X133840000Y-18030000D02*
X133520000Y-18030000D01*
X134690000Y-19030000D02*
X134850000Y-19030000D01*
X136020000Y-18030000D02*
X135700000Y-18030000D01*
X135700000Y-18030000D02*
X135700000Y-14610000D01*
X135700000Y-14610000D02*
X136020000Y-14530000D01*
X136020000Y-14530000D02*
X136340000Y-14610000D01*
X136340000Y-14610000D02*
X136340000Y-18030000D01*
X136340000Y-18030000D02*
X136020000Y-18030000D01*
X137190000Y-19030000D02*
X137350000Y-19030000D01*
X138520000Y-18030000D02*
X138200000Y-18030000D01*
X138200000Y-18030000D02*
X138200000Y-14610000D01*
X138200000Y-14610000D02*
X138520000Y-14530000D01*
X138520000Y-14530000D02*
X138840000Y-14610000D01*
X138840000Y-14610000D02*
X138840000Y-18030000D01*
X138840000Y-18030000D02*
X138520000Y-18030000D01*
X139690000Y-19030000D02*
X139850000Y-19030000D01*
X141020000Y-18030000D02*
X140700000Y-18030000D01*
X140700000Y-18030000D02*
X140700000Y-14610000D01*
X140700000Y-14610000D02*
X141020000Y-14530000D01*
X141020000Y-14530000D02*
X141340000Y-14610000D01*
X141340000Y-14610000D02*
X141340000Y-18030000D01*
X141340000Y-18030000D02*
X141020000Y-18030000D01*
X133520000Y-21120000D02*
X133220000Y-21720000D01*
X133220000Y-21720000D02*
X133820000Y-21720000D01*
X133820000Y-21720000D02*
X133520000Y-21120000D01*
X61120000Y-21720000D02*
X60820000Y-21120000D01*
X60520000Y-21720000D02*
X61120000Y-21720000D01*
X60820000Y-21120000D02*
X60520000Y-21720000D01*
X68640000Y-18030000D02*
X68320000Y-18030000D01*
X68640000Y-14610000D02*
X68640000Y-18030000D01*
X68320000Y-14530000D02*
X68640000Y-14610000D01*
X68000000Y-14610000D02*
X68320000Y-14530000D01*
X68000000Y-18030000D02*
X68000000Y-14610000D01*
X68320000Y-18030000D02*
X68000000Y-18030000D01*
X66990000Y-19030000D02*
X67150000Y-19030000D01*
X66140000Y-18030000D02*
X65820000Y-18030000D01*
X66140000Y-14610000D02*
X66140000Y-18030000D01*
X65820000Y-14530000D02*
X66140000Y-14610000D01*
X65500000Y-14610000D02*
X65820000Y-14530000D01*
X65500000Y-18030000D02*
X65500000Y-14610000D01*
X65820000Y-18030000D02*
X65500000Y-18030000D01*
X64490000Y-19030000D02*
X64650000Y-19030000D01*
X63640000Y-18030000D02*
X63320000Y-18030000D01*
X63640000Y-14610000D02*
X63640000Y-18030000D01*
X63320000Y-14530000D02*
X63640000Y-14610000D01*
X63000000Y-14610000D02*
X63320000Y-14530000D01*
X63000000Y-18030000D02*
X63000000Y-14610000D01*
X63320000Y-18030000D02*
X63000000Y-18030000D01*
X61990000Y-19030000D02*
X62150000Y-19030000D01*
X61140000Y-18030000D02*
X60820000Y-18030000D01*
X61140000Y-14610000D02*
X61140000Y-18030000D01*
X60820000Y-14530000D02*
X61140000Y-14610000D01*
X60500000Y-14610000D02*
X60820000Y-14530000D01*
X60500000Y-18030000D02*
X60500000Y-14610000D01*
X60820000Y-18030000D02*
X60500000Y-18030000D01*
X59430000Y-18030000D02*
X69710000Y-18030000D01*
X69710000Y-19030000D02*
X70930000Y-19030000D01*
X69710000Y-14030000D02*
X69710000Y-19030000D01*
X70930000Y-14030000D02*
X69710000Y-14030000D01*
X59430000Y-19030000D02*
X58210000Y-19030000D01*
X59430000Y-14030000D02*
X59430000Y-19030000D01*
X58210000Y-14030000D02*
X59430000Y-14030000D01*
X69710000Y-21230000D02*
X69710000Y-19030000D01*
X70930000Y-21230000D02*
X69710000Y-21230000D01*
X70930000Y-12810000D02*
X70930000Y-21230000D01*
X58210000Y-12810000D02*
X70930000Y-12810000D01*
X58210000Y-21230000D02*
X58210000Y-12810000D01*
X59430000Y-21230000D02*
X58210000Y-21230000D01*
X59430000Y-19030000D02*
X59430000Y-21230000D01*
X145730000Y-19030000D02*
X145730000Y-21230000D01*
X145730000Y-21230000D02*
X144510000Y-21230000D01*
X144510000Y-21230000D02*
X144510000Y-12810000D01*
X144510000Y-12810000D02*
X157230000Y-12810000D01*
X157230000Y-12810000D02*
X157230000Y-21230000D01*
X157230000Y-21230000D02*
X156010000Y-21230000D01*
X156010000Y-21230000D02*
X156010000Y-19030000D01*
X144510000Y-14030000D02*
X145730000Y-14030000D01*
X145730000Y-14030000D02*
X145730000Y-19030000D01*
X145730000Y-19030000D02*
X144510000Y-19030000D01*
X157230000Y-14030000D02*
X156010000Y-14030000D01*
X156010000Y-14030000D02*
X156010000Y-19030000D01*
X156010000Y-19030000D02*
X157230000Y-19030000D01*
X145730000Y-18030000D02*
X156010000Y-18030000D01*
X147120000Y-18030000D02*
X146800000Y-18030000D01*
X146800000Y-18030000D02*
X146800000Y-14610000D01*
X146800000Y-14610000D02*
X147120000Y-14530000D01*
X147120000Y-14530000D02*
X147440000Y-14610000D01*
X147440000Y-14610000D02*
X147440000Y-18030000D01*
X147440000Y-18030000D02*
X147120000Y-18030000D01*
X148290000Y-19030000D02*
X148450000Y-19030000D01*
X149620000Y-18030000D02*
X149300000Y-18030000D01*
X149300000Y-18030000D02*
X149300000Y-14610000D01*
X149300000Y-14610000D02*
X149620000Y-14530000D01*
X149620000Y-14530000D02*
X149940000Y-14610000D01*
X149940000Y-14610000D02*
X149940000Y-18030000D01*
X149940000Y-18030000D02*
X149620000Y-18030000D01*
X150790000Y-19030000D02*
X150950000Y-19030000D01*
X152120000Y-18030000D02*
X151800000Y-18030000D01*
X151800000Y-18030000D02*
X151800000Y-14610000D01*
X151800000Y-14610000D02*
X152120000Y-14530000D01*
X152120000Y-14530000D02*
X152440000Y-14610000D01*
X152440000Y-14610000D02*
X152440000Y-18030000D01*
X152440000Y-18030000D02*
X152120000Y-18030000D01*
X153290000Y-19030000D02*
X153450000Y-19030000D01*
X154620000Y-18030000D02*
X154300000Y-18030000D01*
X154300000Y-18030000D02*
X154300000Y-14610000D01*
X154300000Y-14610000D02*
X154620000Y-14530000D01*
X154620000Y-14530000D02*
X154940000Y-14610000D01*
X154940000Y-14610000D02*
X154940000Y-18030000D01*
X154940000Y-18030000D02*
X154620000Y-18030000D01*
X147120000Y-21120000D02*
X146820000Y-21720000D01*
X146820000Y-21720000D02*
X147420000Y-21720000D01*
X147420000Y-21720000D02*
X147120000Y-21120000D01*
X144522000Y-40608000D02*
X144522000Y-27778000D01*
X123942000Y-40608000D02*
X144522000Y-40608000D01*
X123942000Y-25108000D02*
X123942000Y-40608000D01*
X141852000Y-25108000D02*
X123942000Y-25108000D01*
X141852000Y-27778000D02*
X141852000Y-25108000D01*
X144522000Y-27778000D02*
X141852000Y-27778000D01*
X144522000Y-25108000D02*
X143122000Y-25108000D01*
X144522000Y-26508000D02*
X144522000Y-25108000D01*
X141852000Y-27778000D02*
X123942000Y-27778000D01*
X144522000Y-37938000D02*
X123942000Y-37938000D01*
X167022000Y-40608000D02*
X167022000Y-27778000D01*
X146442000Y-40608000D02*
X167022000Y-40608000D01*
X146442000Y-25108000D02*
X146442000Y-40608000D01*
X164352000Y-25108000D02*
X146442000Y-25108000D01*
X164352000Y-27778000D02*
X164352000Y-25108000D01*
X167022000Y-27778000D02*
X164352000Y-27778000D01*
X167022000Y-25108000D02*
X165622000Y-25108000D01*
X167022000Y-26508000D02*
X167022000Y-25108000D01*
X164352000Y-27778000D02*
X146442000Y-27778000D01*
X167022000Y-37938000D02*
X146442000Y-37938000D01*
X167267000Y-95383000D02*
X167267000Y-74803000D01*
X177427000Y-92713000D02*
X177427000Y-74803000D01*
X178697000Y-95383000D02*
X180097000Y-95383000D01*
X180097000Y-95383000D02*
X180097000Y-93983000D01*
X177427000Y-95383000D02*
X177427000Y-92713000D01*
X177427000Y-92713000D02*
X180097000Y-92713000D01*
X180097000Y-92713000D02*
X180097000Y-74803000D01*
X180097000Y-74803000D02*
X164597000Y-74803000D01*
X164597000Y-74803000D02*
X164597000Y-95383000D01*
X164597000Y-95383000D02*
X177427000Y-95383000D01*
X167267000Y-116633000D02*
X167267000Y-96053000D01*
X177427000Y-113963000D02*
X177427000Y-96053000D01*
X178697000Y-116633000D02*
X180097000Y-116633000D01*
X180097000Y-116633000D02*
X180097000Y-115233000D01*
X177427000Y-116633000D02*
X177427000Y-113963000D01*
X177427000Y-113963000D02*
X180097000Y-113963000D01*
X180097000Y-113963000D02*
X180097000Y-96053000D01*
X180097000Y-96053000D02*
X164597000Y-96053000D01*
X164597000Y-96053000D02*
X164597000Y-116633000D01*
X164597000Y-116633000D02*
X177427000Y-116633000D01*
X155057000Y-36093000D02*
X155057000Y-33743000D01*
X155057000Y-29273000D02*
X155057000Y-31623000D01*
X149301437Y-29273000D02*
X155057000Y-29273000D01*
X149301437Y-36093000D02*
X155057000Y-36093000D01*
X148237000Y-35028563D02*
X148237000Y-33743000D01*
X148237000Y-30337437D02*
X148237000Y-31623000D01*
X148237000Y-30337437D02*
X149301437Y-29273000D01*
X148237000Y-35028563D02*
X149301437Y-36093000D01*
X147209500Y-30835500D02*
X147997000Y-30835500D01*
X147603250Y-30441750D02*
X147603250Y-31229250D01*
X124953250Y-30441750D02*
X124953250Y-31229250D01*
X124559500Y-30835500D02*
X125347000Y-30835500D01*
X125587000Y-35028563D02*
X126651437Y-36093000D01*
X125587000Y-30337437D02*
X126651437Y-29273000D01*
X125587000Y-30337437D02*
X125587000Y-31623000D01*
X125587000Y-35028563D02*
X125587000Y-33743000D01*
X126651437Y-36093000D02*
X132407000Y-36093000D01*
X126651437Y-29273000D02*
X132407000Y-29273000D01*
X132407000Y-29273000D02*
X132407000Y-31623000D01*
X132407000Y-36093000D02*
X132407000Y-33743000D01*
X174263250Y-75494250D02*
X173475750Y-75494250D01*
X173869500Y-75100500D02*
X173869500Y-75888000D01*
X169676437Y-76128000D02*
X168612000Y-77192437D01*
X174367563Y-76128000D02*
X175432000Y-77192437D01*
X174367563Y-76128000D02*
X173082000Y-76128000D01*
X169676437Y-76128000D02*
X170962000Y-76128000D01*
X168612000Y-77192437D02*
X168612000Y-82948000D01*
X175432000Y-77192437D02*
X175432000Y-82948000D01*
X175432000Y-82948000D02*
X173082000Y-82948000D01*
X168612000Y-82948000D02*
X170962000Y-82948000D01*
X175742000Y-97568000D02*
X173392000Y-97568000D01*
X168922000Y-97568000D02*
X171272000Y-97568000D01*
X168922000Y-103323563D02*
X168922000Y-97568000D01*
X175742000Y-103323563D02*
X175742000Y-97568000D01*
X174677563Y-104388000D02*
X173392000Y-104388000D01*
X169986437Y-104388000D02*
X171272000Y-104388000D01*
X169986437Y-104388000D02*
X168922000Y-103323563D01*
X174677563Y-104388000D02*
X175742000Y-103323563D01*
X170484500Y-105415500D02*
X170484500Y-104628000D01*
X170090750Y-105021750D02*
X170878250Y-105021750D01*
X98162000Y-117448000D02*
X98162000Y-118648000D01*
X98162000Y-121968000D02*
X98162000Y-120768000D01*
X101617563Y-121968000D02*
X98162000Y-121968000D01*
X101617563Y-117448000D02*
X98162000Y-117448000D01*
X102682000Y-118512437D02*
X102682000Y-118648000D01*
X102682000Y-120903563D02*
X102682000Y-120768000D01*
X102682000Y-120903563D02*
X101617563Y-121968000D01*
X102682000Y-118512437D02*
X101617563Y-117448000D01*
X103422000Y-121268000D02*
X102922000Y-121268000D01*
X103172000Y-121518000D02*
X103172000Y-121018000D01*
X103172000Y-116543000D02*
X103172000Y-116043000D01*
X103422000Y-116293000D02*
X102922000Y-116293000D01*
X102682000Y-113537437D02*
X101617563Y-112473000D01*
X102682000Y-115928563D02*
X101617563Y-116993000D01*
X102682000Y-115928563D02*
X102682000Y-115793000D01*
X102682000Y-113537437D02*
X102682000Y-113673000D01*
X101617563Y-112473000D02*
X98162000Y-112473000D01*
X101617563Y-116993000D02*
X98162000Y-116993000D01*
X98162000Y-116993000D02*
X98162000Y-115793000D01*
X98162000Y-112473000D02*
X98162000Y-113673000D01*
X98137000Y-107498000D02*
X98137000Y-108698000D01*
X98137000Y-112018000D02*
X98137000Y-110818000D01*
X101592563Y-112018000D02*
X98137000Y-112018000D01*
X101592563Y-107498000D02*
X98137000Y-107498000D01*
X102657000Y-108562437D02*
X102657000Y-108698000D01*
X102657000Y-110953563D02*
X102657000Y-110818000D01*
X102657000Y-110953563D02*
X101592563Y-112018000D01*
X102657000Y-108562437D02*
X101592563Y-107498000D01*
X103397000Y-111318000D02*
X102897000Y-111318000D01*
X103147000Y-111568000D02*
X103147000Y-111068000D01*
X100158252Y-105523000D02*
X99635748Y-105523000D01*
X100158252Y-106993000D02*
X99635748Y-106993000D01*
X98137000Y-98173000D02*
X98137000Y-100523000D01*
X98137000Y-104993000D02*
X98137000Y-102643000D01*
X103892563Y-104993000D02*
X98137000Y-104993000D01*
X103892563Y-98173000D02*
X98137000Y-98173000D01*
X104957000Y-99237437D02*
X104957000Y-100523000D01*
X104957000Y-103928563D02*
X104957000Y-102643000D01*
X104957000Y-103928563D02*
X103892563Y-104993000D01*
X104957000Y-99237437D02*
X103892563Y-98173000D01*
X105984500Y-103430500D02*
X105197000Y-103430500D01*
X105590750Y-103824250D02*
X105590750Y-103036750D01*
X105565750Y-96574250D02*
X105565750Y-95786750D01*
X105959500Y-96180500D02*
X105172000Y-96180500D01*
X104932000Y-91987437D02*
X103867563Y-90923000D01*
X104932000Y-96678563D02*
X103867563Y-97743000D01*
X104932000Y-96678563D02*
X104932000Y-95393000D01*
X104932000Y-91987437D02*
X104932000Y-93273000D01*
X103867563Y-90923000D02*
X98112000Y-90923000D01*
X103867563Y-97743000D02*
X98112000Y-97743000D01*
X98112000Y-97743000D02*
X98112000Y-95393000D01*
X98112000Y-90923000D02*
X98112000Y-93273000D01*
X117197000Y-104708000D02*
X123697000Y-104708000D01*
X117197000Y-104708000D02*
X117197000Y-115908000D01*
X123697000Y-104708000D02*
X123697000Y-115908000D01*
X67832000Y-111359000D02*
X67832000Y-116559000D01*
X16912000Y-111359000D02*
X16912000Y-116559000D01*
X67262000Y-109919000D02*
X67262000Y-111359000D01*
X67832000Y-111359000D02*
X67262000Y-111359000D01*
X67832000Y-116559000D02*
X67262000Y-116559000D01*
X17482000Y-111359000D02*
X16912000Y-111359000D01*
X17482000Y-116559000D02*
X16912000Y-116559000D01*
X65742000Y-111359000D02*
X64722000Y-111359000D01*
X65742000Y-116559000D02*
X64722000Y-116559000D01*
X63202000Y-111359000D02*
X62182000Y-111359000D01*
X63202000Y-116559000D02*
X62182000Y-116559000D01*
X60662000Y-111359000D02*
X59642000Y-111359000D01*
X60662000Y-116559000D02*
X59642000Y-116559000D01*
X58122000Y-111359000D02*
X57102000Y-111359000D01*
X58122000Y-116559000D02*
X57102000Y-116559000D01*
X55582000Y-111359000D02*
X54562000Y-111359000D01*
X55582000Y-116559000D02*
X54562000Y-116559000D01*
X53042000Y-111359000D02*
X52022000Y-111359000D01*
X53042000Y-116559000D02*
X52022000Y-116559000D01*
X50502000Y-111359000D02*
X49482000Y-111359000D01*
X50502000Y-116559000D02*
X49482000Y-116559000D01*
X47962000Y-111359000D02*
X46942000Y-111359000D01*
X47962000Y-116559000D02*
X46942000Y-116559000D01*
X45422000Y-111359000D02*
X44402000Y-111359000D01*
X45422000Y-116559000D02*
X44402000Y-116559000D01*
X42882000Y-111359000D02*
X41862000Y-111359000D01*
X42882000Y-116559000D02*
X41862000Y-116559000D01*
X40342000Y-111359000D02*
X39322000Y-111359000D01*
X40342000Y-116559000D02*
X39322000Y-116559000D01*
X37802000Y-111359000D02*
X36782000Y-111359000D01*
X37802000Y-116559000D02*
X36782000Y-116559000D01*
X35262000Y-111359000D02*
X34242000Y-111359000D01*
X35262000Y-116559000D02*
X34242000Y-116559000D01*
X32722000Y-111359000D02*
X31702000Y-111359000D01*
X32722000Y-116559000D02*
X31702000Y-116559000D01*
X30182000Y-111359000D02*
X29162000Y-111359000D01*
X30182000Y-116559000D02*
X29162000Y-116559000D01*
X27642000Y-111359000D02*
X26622000Y-111359000D01*
X27642000Y-116559000D02*
X26622000Y-116559000D01*
X25102000Y-111359000D02*
X24082000Y-111359000D01*
X25102000Y-116559000D02*
X24082000Y-116559000D01*
X22562000Y-111359000D02*
X21542000Y-111359000D01*
X22562000Y-116559000D02*
X21542000Y-116559000D01*
X20022000Y-111359000D02*
X19002000Y-111359000D01*
X20022000Y-116559000D02*
X19002000Y-116559000D01*
X20022000Y-104034000D02*
X19002000Y-104034000D01*
X20022000Y-98834000D02*
X19002000Y-98834000D01*
X22562000Y-104034000D02*
X21542000Y-104034000D01*
X22562000Y-98834000D02*
X21542000Y-98834000D01*
X25102000Y-104034000D02*
X24082000Y-104034000D01*
X25102000Y-98834000D02*
X24082000Y-98834000D01*
X27642000Y-104034000D02*
X26622000Y-104034000D01*
X27642000Y-98834000D02*
X26622000Y-98834000D01*
X30182000Y-104034000D02*
X29162000Y-104034000D01*
X30182000Y-98834000D02*
X29162000Y-98834000D01*
X32722000Y-104034000D02*
X31702000Y-104034000D01*
X32722000Y-98834000D02*
X31702000Y-98834000D01*
X35262000Y-104034000D02*
X34242000Y-104034000D01*
X35262000Y-98834000D02*
X34242000Y-98834000D01*
X37802000Y-104034000D02*
X36782000Y-104034000D01*
X37802000Y-98834000D02*
X36782000Y-98834000D01*
X40342000Y-104034000D02*
X39322000Y-104034000D01*
X40342000Y-98834000D02*
X39322000Y-98834000D01*
X42882000Y-104034000D02*
X41862000Y-104034000D01*
X42882000Y-98834000D02*
X41862000Y-98834000D01*
X45422000Y-104034000D02*
X44402000Y-104034000D01*
X45422000Y-98834000D02*
X44402000Y-98834000D01*
X47962000Y-104034000D02*
X46942000Y-104034000D01*
X47962000Y-98834000D02*
X46942000Y-98834000D01*
X50502000Y-104034000D02*
X49482000Y-104034000D01*
X50502000Y-98834000D02*
X49482000Y-98834000D01*
X53042000Y-104034000D02*
X52022000Y-104034000D01*
X53042000Y-98834000D02*
X52022000Y-98834000D01*
X55582000Y-104034000D02*
X54562000Y-104034000D01*
X55582000Y-98834000D02*
X54562000Y-98834000D01*
X58122000Y-104034000D02*
X57102000Y-104034000D01*
X58122000Y-98834000D02*
X57102000Y-98834000D01*
X60662000Y-104034000D02*
X59642000Y-104034000D01*
X60662000Y-98834000D02*
X59642000Y-98834000D01*
X63202000Y-104034000D02*
X62182000Y-104034000D01*
X63202000Y-98834000D02*
X62182000Y-98834000D01*
X65742000Y-104034000D02*
X64722000Y-104034000D01*
X65742000Y-98834000D02*
X64722000Y-98834000D01*
X17482000Y-104034000D02*
X16912000Y-104034000D01*
X17482000Y-98834000D02*
X16912000Y-98834000D01*
X67832000Y-104034000D02*
X67262000Y-104034000D01*
X67832000Y-98834000D02*
X67262000Y-98834000D01*
X67262000Y-97394000D02*
X67262000Y-98834000D01*
X16912000Y-98834000D02*
X16912000Y-104034000D01*
X67832000Y-98834000D02*
X67832000Y-104034000D01*
X29152000Y-45628000D02*
X89862000Y-45628000D01*
X29152000Y-45628000D02*
X29152000Y-51978000D01*
X89862000Y-51978000D02*
X89862000Y-45628000D01*
X89862000Y-51978000D02*
X29152000Y-51978000D01*
X83942000Y-73538000D02*
X23232000Y-73538000D01*
X83942000Y-73538000D02*
X83942000Y-67188000D01*
X23232000Y-67188000D02*
X23232000Y-73538000D01*
X23232000Y-67188000D02*
X83942000Y-67188000D01*
X186842000Y-51978000D02*
X126132000Y-51978000D01*
X186842000Y-51978000D02*
X186842000Y-45628000D01*
X126132000Y-45628000D02*
X126132000Y-51978000D01*
X126132000Y-45628000D02*
X186842000Y-45628000D01*
X180942000Y-73538000D02*
X120232000Y-73538000D01*
X180942000Y-73538000D02*
X180942000Y-67188000D01*
X120232000Y-67188000D02*
X120232000Y-73538000D01*
X120232000Y-67188000D02*
X180942000Y-67188000D01*
X126162000Y-134108000D02*
X186872000Y-134108000D01*
X126162000Y-134108000D02*
X126162000Y-140458000D01*
X186872000Y-140458000D02*
X186872000Y-134108000D01*
X186872000Y-140458000D02*
X126162000Y-140458000D01*
X120232000Y-155688000D02*
X180942000Y-155688000D01*
X120232000Y-155688000D02*
X120232000Y-162038000D01*
X180942000Y-162038000D02*
X180942000Y-155688000D01*
X180942000Y-162038000D02*
X120232000Y-162038000D01*
X81102000Y-140478000D02*
X20392000Y-140478000D01*
X81102000Y-140478000D02*
X81102000Y-134128000D01*
X20392000Y-134128000D02*
X20392000Y-140478000D01*
X20392000Y-134128000D02*
X81102000Y-134128000D01*
X182062000Y-124228000D02*
X188082000Y-124228000D01*
X188082000Y-124228000D02*
X188082000Y-116388000D01*
X188082000Y-116388000D02*
X182062000Y-116388000D01*
X182062000Y-116388000D02*
X182062000Y-124228000D01*
X183092000Y-124518000D02*
X187092000Y-124518000D01*
X188082000Y-122848000D02*
X187082000Y-122848000D01*
X187082000Y-122848000D02*
X187082000Y-117768000D01*
X187082000Y-117768000D02*
X188082000Y-117768000D01*
X187082000Y-122848000D02*
X186552000Y-122598000D01*
X186552000Y-122598000D02*
X186552000Y-118018000D01*
X186552000Y-118018000D02*
X187082000Y-117768000D01*
X188082000Y-122598000D02*
X187082000Y-122598000D01*
X188082000Y-118018000D02*
X187082000Y-118018000D01*
X182062000Y-123648000D02*
X182662000Y-123648000D01*
X182662000Y-123648000D02*
X182662000Y-122048000D01*
X182662000Y-122048000D02*
X182062000Y-122048000D01*
X182062000Y-121108000D02*
X182662000Y-121108000D01*
X182662000Y-121108000D02*
X182662000Y-119508000D01*
X182662000Y-119508000D02*
X182062000Y-119508000D01*
X182062000Y-118568000D02*
X182662000Y-118568000D01*
X182662000Y-118568000D02*
X182662000Y-116968000D01*
X182662000Y-116968000D02*
X182062000Y-116968000D01*
X182622000Y-125788000D02*
X182022000Y-125788000D01*
X182622000Y-127388000D02*
X182622000Y-125788000D01*
X182022000Y-127388000D02*
X182622000Y-127388000D01*
X182622000Y-128328000D02*
X182022000Y-128328000D01*
X182622000Y-129928000D02*
X182622000Y-128328000D01*
X182022000Y-129928000D02*
X182622000Y-129928000D01*
X182622000Y-130868000D02*
X182022000Y-130868000D01*
X182622000Y-132468000D02*
X182622000Y-130868000D01*
X182022000Y-132468000D02*
X182622000Y-132468000D01*
X188042000Y-126838000D02*
X187042000Y-126838000D01*
X188042000Y-131418000D02*
X187042000Y-131418000D01*
X186512000Y-126838000D02*
X187042000Y-126588000D01*
X186512000Y-131418000D02*
X186512000Y-126838000D01*
X187042000Y-131668000D02*
X186512000Y-131418000D01*
X187042000Y-126588000D02*
X188042000Y-126588000D01*
X187042000Y-131668000D02*
X187042000Y-126588000D01*
X188042000Y-131668000D02*
X187042000Y-131668000D01*
X183052000Y-133338000D02*
X187052000Y-133338000D01*
X182022000Y-125208000D02*
X182022000Y-133048000D01*
X188042000Y-125208000D02*
X182022000Y-125208000D01*
X188042000Y-133048000D02*
X188042000Y-125208000D01*
X182022000Y-133048000D02*
X188042000Y-133048000D01*
X95187000Y-132648000D02*
X95187000Y-141368000D01*
X95187000Y-141368000D02*
X104807000Y-141368000D01*
X104807000Y-141368000D02*
X104807000Y-132648000D01*
X104807000Y-132648000D02*
X95187000Y-132648000D01*
X95797000Y-134258000D02*
X95797000Y-139758000D01*
X95797000Y-139758000D02*
X98097000Y-139758000D01*
X98097000Y-139758000D02*
X98097000Y-140758000D01*
X98097000Y-140758000D02*
X100697000Y-140758000D01*
X100697000Y-140758000D02*
X100697000Y-139758000D01*
X100697000Y-139758000D02*
X101597000Y-139758000D01*
X101597000Y-139758000D02*
X101597000Y-140758000D01*
X101597000Y-140758000D02*
X104197000Y-140758000D01*
X104197000Y-140758000D02*
X104197000Y-134258000D01*
X104197000Y-134258000D02*
X95797000Y-134258000D01*
X94887000Y-134758000D02*
X94887000Y-132348000D01*
X94887000Y-132348000D02*
X97297000Y-132348000D01*
X109497000Y-100658000D02*
X109497000Y-104258000D01*
X109497000Y-104258000D02*
X122497000Y-104258000D01*
X122497000Y-104258000D02*
X122497000Y-100658000D01*
X109497000Y-94858000D02*
X109497000Y-91258000D01*
X109497000Y-91258000D02*
X122497000Y-91258000D01*
X122497000Y-91258000D02*
X122497000Y-94858000D01*
X105952000Y-68768000D02*
X105722000Y-68768000D01*
X101232000Y-68768000D02*
X101462000Y-68768000D01*
X101232000Y-68768000D02*
X101232000Y-66048000D01*
X101232000Y-66048000D02*
X102542000Y-66048000D01*
X101462000Y-69908000D02*
X101462000Y-68768000D01*
X105952000Y-66048000D02*
X105952000Y-68768000D01*
X104642000Y-66048000D02*
X105952000Y-66048000D01*
X110022000Y-66048000D02*
X111332000Y-66048000D01*
X111332000Y-66048000D02*
X111332000Y-68768000D01*
X106842000Y-69908000D02*
X106842000Y-68768000D01*
X106612000Y-66048000D02*
X107922000Y-66048000D01*
X106612000Y-68768000D02*
X106612000Y-66048000D01*
X106612000Y-68768000D02*
X106842000Y-68768000D01*
X111332000Y-68768000D02*
X111102000Y-68768000D01*
X133542000Y-130478000D02*
X132232000Y-130478000D01*
X132232000Y-130478000D02*
X132232000Y-127758000D01*
X136722000Y-126618000D02*
X136722000Y-127758000D01*
X136952000Y-130478000D02*
X135642000Y-130478000D01*
X136952000Y-127758000D02*
X136952000Y-130478000D01*
X136952000Y-127758000D02*
X136722000Y-127758000D01*
X132232000Y-127758000D02*
X132462000Y-127758000D01*
X138282000Y-127778000D02*
X138512000Y-127778000D01*
X143002000Y-127778000D02*
X142772000Y-127778000D01*
X143002000Y-127778000D02*
X143002000Y-130498000D01*
X143002000Y-130498000D02*
X141692000Y-130498000D01*
X142772000Y-126638000D02*
X142772000Y-127778000D01*
X138282000Y-130498000D02*
X138282000Y-127778000D01*
X139592000Y-130498000D02*
X138282000Y-130498000D01*
X151266000Y-100110000D02*
X151266000Y-101420000D01*
X151266000Y-101420000D02*
X148546000Y-101420000D01*
X147406000Y-96930000D02*
X148546000Y-96930000D01*
X151266000Y-96700000D02*
X151266000Y-98010000D01*
X148546000Y-96700000D02*
X151266000Y-96700000D01*
X148546000Y-96700000D02*
X148546000Y-96930000D01*
X148546000Y-101420000D02*
X148546000Y-101190000D01*
X148492000Y-91008000D02*
X148492000Y-90778000D01*
X148492000Y-86288000D02*
X148492000Y-86518000D01*
X148492000Y-86288000D02*
X151212000Y-86288000D01*
X151212000Y-86288000D02*
X151212000Y-87598000D01*
X147352000Y-86518000D02*
X148492000Y-86518000D01*
X151212000Y-91008000D02*
X148492000Y-91008000D01*
X151212000Y-89698000D02*
X151212000Y-91008000D01*
X103819064Y-71673000D02*
X103364936Y-71673000D01*
X103819064Y-73143000D02*
X103364936Y-73143000D01*
X109199064Y-73143000D02*
X108744936Y-73143000D01*
X109199064Y-71673000D02*
X108744936Y-71673000D01*
X134394936Y-123223000D02*
X134849064Y-123223000D01*
X134394936Y-124693000D02*
X134849064Y-124693000D01*
X140414936Y-124713000D02*
X140869064Y-124713000D01*
X140414936Y-123243000D02*
X140869064Y-123243000D01*
X143957000Y-99445064D02*
X143957000Y-98990936D01*
X145427000Y-99445064D02*
X145427000Y-98990936D01*
X145477000Y-88875064D02*
X145477000Y-88420936D01*
X144007000Y-88875064D02*
X144007000Y-88420936D01*
X106453000Y-128550936D02*
X106453000Y-129005064D01*
X107923000Y-128550936D02*
X107923000Y-129005064D01*
X116322000Y-111483000D02*
X116322000Y-109983000D01*
X116322000Y-109983000D02*
X115632000Y-109983000D01*
X115632000Y-109983000D02*
X115632000Y-104858000D01*
X105922000Y-111483000D02*
X105922000Y-109983000D01*
X105922000Y-109983000D02*
X106612000Y-109983000D01*
X106612000Y-109983000D02*
X106612000Y-108883000D01*
X23167000Y-80525000D02*
X26027000Y-80525000D01*
X26027000Y-80525000D02*
X26027000Y-78605000D01*
X26027000Y-78605000D02*
X23167000Y-78605000D01*
X23212000Y-87925000D02*
X26072000Y-87925000D01*
X26072000Y-87925000D02*
X26072000Y-86005000D01*
X26072000Y-86005000D02*
X23212000Y-86005000D01*
X26072000Y-93500000D02*
X23212000Y-93500000D01*
X26072000Y-95420000D02*
X26072000Y-93500000D01*
X23212000Y-95420000D02*
X26072000Y-95420000D01*
X20322000Y-21720000D02*
X20022000Y-21120000D01*
X19722000Y-21720000D02*
X20322000Y-21720000D01*
X20022000Y-21120000D02*
X19722000Y-21720000D01*
X27842000Y-18030000D02*
X27522000Y-18030000D01*
X27842000Y-14610000D02*
X27842000Y-18030000D01*
X27522000Y-14530000D02*
X27842000Y-14610000D01*
X27202000Y-14610000D02*
X27522000Y-14530000D01*
X27202000Y-18030000D02*
X27202000Y-14610000D01*
X27522000Y-18030000D02*
X27202000Y-18030000D01*
X26192000Y-19030000D02*
X26352000Y-19030000D01*
X25342000Y-18030000D02*
X25022000Y-18030000D01*
X25342000Y-14610000D02*
X25342000Y-18030000D01*
X25022000Y-14530000D02*
X25342000Y-14610000D01*
X24702000Y-14610000D02*
X25022000Y-14530000D01*
X24702000Y-18030000D02*
X24702000Y-14610000D01*
X25022000Y-18030000D02*
X24702000Y-18030000D01*
X23692000Y-19030000D02*
X23852000Y-19030000D01*
X22842000Y-18030000D02*
X22522000Y-18030000D01*
X22842000Y-14610000D02*
X22842000Y-18030000D01*
X22522000Y-14530000D02*
X22842000Y-14610000D01*
X22202000Y-14610000D02*
X22522000Y-14530000D01*
X22202000Y-18030000D02*
X22202000Y-14610000D01*
X22522000Y-18030000D02*
X22202000Y-18030000D01*
X21192000Y-19030000D02*
X21352000Y-19030000D01*
X20342000Y-18030000D02*
X20022000Y-18030000D01*
X20342000Y-14610000D02*
X20342000Y-18030000D01*
X20022000Y-14530000D02*
X20342000Y-14610000D01*
X19702000Y-14610000D02*
X20022000Y-14530000D01*
X19702000Y-18030000D02*
X19702000Y-14610000D01*
X20022000Y-18030000D02*
X19702000Y-18030000D01*
X18632000Y-18030000D02*
X28912000Y-18030000D01*
X28912000Y-19030000D02*
X30132000Y-19030000D01*
X28912000Y-14030000D02*
X28912000Y-19030000D01*
X30132000Y-14030000D02*
X28912000Y-14030000D01*
X18632000Y-19030000D02*
X17412000Y-19030000D01*
X18632000Y-14030000D02*
X18632000Y-19030000D01*
X17412000Y-14030000D02*
X18632000Y-14030000D01*
X28912000Y-21230000D02*
X28912000Y-19030000D01*
X30132000Y-21230000D02*
X28912000Y-21230000D01*
X30132000Y-12810000D02*
X30132000Y-21230000D01*
X17412000Y-12810000D02*
X30132000Y-12810000D01*
X17412000Y-21230000D02*
X17412000Y-12810000D01*
X18632000Y-21230000D02*
X17412000Y-21230000D01*
X18632000Y-19030000D02*
X18632000Y-21230000D01*
X33922000Y-21720000D02*
X33622000Y-21120000D01*
X33322000Y-21720000D02*
X33922000Y-21720000D01*
X33622000Y-21120000D02*
X33322000Y-21720000D01*
X41442000Y-18030000D02*
X41122000Y-18030000D01*
X41442000Y-14610000D02*
X41442000Y-18030000D01*
X41122000Y-14530000D02*
X41442000Y-14610000D01*
X40802000Y-14610000D02*
X41122000Y-14530000D01*
X40802000Y-18030000D02*
X40802000Y-14610000D01*
X41122000Y-18030000D02*
X40802000Y-18030000D01*
X39792000Y-19030000D02*
X39952000Y-19030000D01*
X38942000Y-18030000D02*
X38622000Y-18030000D01*
X38942000Y-14610000D02*
X38942000Y-18030000D01*
X38622000Y-14530000D02*
X38942000Y-14610000D01*
X38302000Y-14610000D02*
X38622000Y-14530000D01*
X38302000Y-18030000D02*
X38302000Y-14610000D01*
X38622000Y-18030000D02*
X38302000Y-18030000D01*
X37292000Y-19030000D02*
X37452000Y-19030000D01*
X36442000Y-18030000D02*
X36122000Y-18030000D01*
X36442000Y-14610000D02*
X36442000Y-18030000D01*
X36122000Y-14530000D02*
X36442000Y-14610000D01*
X35802000Y-14610000D02*
X36122000Y-14530000D01*
X35802000Y-18030000D02*
X35802000Y-14610000D01*
X36122000Y-18030000D02*
X35802000Y-18030000D01*
X34792000Y-19030000D02*
X34952000Y-19030000D01*
X33942000Y-18030000D02*
X33622000Y-18030000D01*
X33942000Y-14610000D02*
X33942000Y-18030000D01*
X33622000Y-14530000D02*
X33942000Y-14610000D01*
X33302000Y-14610000D02*
X33622000Y-14530000D01*
X33302000Y-18030000D02*
X33302000Y-14610000D01*
X33622000Y-18030000D02*
X33302000Y-18030000D01*
X32232000Y-18030000D02*
X42512000Y-18030000D01*
X42512000Y-19030000D02*
X43732000Y-19030000D01*
X42512000Y-14030000D02*
X42512000Y-19030000D01*
X43732000Y-14030000D02*
X42512000Y-14030000D01*
X32232000Y-19030000D02*
X31012000Y-19030000D01*
X32232000Y-14030000D02*
X32232000Y-19030000D01*
X31012000Y-14030000D02*
X32232000Y-14030000D01*
X42512000Y-21230000D02*
X42512000Y-19030000D01*
X43732000Y-21230000D02*
X42512000Y-21230000D01*
X43732000Y-12810000D02*
X43732000Y-21230000D01*
X31012000Y-12810000D02*
X43732000Y-12810000D01*
X31012000Y-21230000D02*
X31012000Y-12810000D01*
X32232000Y-21230000D02*
X31012000Y-21230000D01*
X32232000Y-19030000D02*
X32232000Y-21230000D01*
X45832000Y-19030000D02*
X45832000Y-21230000D01*
X45832000Y-21230000D02*
X44612000Y-21230000D01*
X44612000Y-21230000D02*
X44612000Y-12810000D01*
X44612000Y-12810000D02*
X57332000Y-12810000D01*
X57332000Y-12810000D02*
X57332000Y-21230000D01*
X57332000Y-21230000D02*
X56112000Y-21230000D01*
X56112000Y-21230000D02*
X56112000Y-19030000D01*
X44612000Y-14030000D02*
X45832000Y-14030000D01*
X45832000Y-14030000D02*
X45832000Y-19030000D01*
X45832000Y-19030000D02*
X44612000Y-19030000D01*
X57332000Y-14030000D02*
X56112000Y-14030000D01*
X56112000Y-14030000D02*
X56112000Y-19030000D01*
X56112000Y-19030000D02*
X57332000Y-19030000D01*
X45832000Y-18030000D02*
X56112000Y-18030000D01*
X47222000Y-18030000D02*
X46902000Y-18030000D01*
X46902000Y-18030000D02*
X46902000Y-14610000D01*
X46902000Y-14610000D02*
X47222000Y-14530000D01*
X47222000Y-14530000D02*
X47542000Y-14610000D01*
X47542000Y-14610000D02*
X47542000Y-18030000D01*
X47542000Y-18030000D02*
X47222000Y-18030000D01*
X48392000Y-19030000D02*
X48552000Y-19030000D01*
X49722000Y-18030000D02*
X49402000Y-18030000D01*
X49402000Y-18030000D02*
X49402000Y-14610000D01*
X49402000Y-14610000D02*
X49722000Y-14530000D01*
X49722000Y-14530000D02*
X50042000Y-14610000D01*
X50042000Y-14610000D02*
X50042000Y-18030000D01*
X50042000Y-18030000D02*
X49722000Y-18030000D01*
X50892000Y-19030000D02*
X51052000Y-19030000D01*
X52222000Y-18030000D02*
X51902000Y-18030000D01*
X51902000Y-18030000D02*
X51902000Y-14610000D01*
X51902000Y-14610000D02*
X52222000Y-14530000D01*
X52222000Y-14530000D02*
X52542000Y-14610000D01*
X52542000Y-14610000D02*
X52542000Y-18030000D01*
X52542000Y-18030000D02*
X52222000Y-18030000D01*
X53392000Y-19030000D02*
X53552000Y-19030000D01*
X54722000Y-18030000D02*
X54402000Y-18030000D01*
X54402000Y-18030000D02*
X54402000Y-14610000D01*
X54402000Y-14610000D02*
X54722000Y-14530000D01*
X54722000Y-14530000D02*
X55042000Y-14610000D01*
X55042000Y-14610000D02*
X55042000Y-18030000D01*
X55042000Y-18030000D02*
X54722000Y-18030000D01*
X47222000Y-21120000D02*
X46922000Y-21720000D01*
X46922000Y-21720000D02*
X47522000Y-21720000D01*
X47522000Y-21720000D02*
X47222000Y-21120000D01*
X118532000Y-19030000D02*
X118532000Y-21230000D01*
X118532000Y-21230000D02*
X117312000Y-21230000D01*
X117312000Y-21230000D02*
X117312000Y-12810000D01*
X117312000Y-12810000D02*
X130032000Y-12810000D01*
X130032000Y-12810000D02*
X130032000Y-21230000D01*
X130032000Y-21230000D02*
X128812000Y-21230000D01*
X128812000Y-21230000D02*
X128812000Y-19030000D01*
X117312000Y-14030000D02*
X118532000Y-14030000D01*
X118532000Y-14030000D02*
X118532000Y-19030000D01*
X118532000Y-19030000D02*
X117312000Y-19030000D01*
X130032000Y-14030000D02*
X128812000Y-14030000D01*
X128812000Y-14030000D02*
X128812000Y-19030000D01*
X128812000Y-19030000D02*
X130032000Y-19030000D01*
X118532000Y-18030000D02*
X128812000Y-18030000D01*
X119922000Y-18030000D02*
X119602000Y-18030000D01*
X119602000Y-18030000D02*
X119602000Y-14610000D01*
X119602000Y-14610000D02*
X119922000Y-14530000D01*
X119922000Y-14530000D02*
X120242000Y-14610000D01*
X120242000Y-14610000D02*
X120242000Y-18030000D01*
X120242000Y-18030000D02*
X119922000Y-18030000D01*
X121092000Y-19030000D02*
X121252000Y-19030000D01*
X122422000Y-18030000D02*
X122102000Y-18030000D01*
X122102000Y-18030000D02*
X122102000Y-14610000D01*
X122102000Y-14610000D02*
X122422000Y-14530000D01*
X122422000Y-14530000D02*
X122742000Y-14610000D01*
X122742000Y-14610000D02*
X122742000Y-18030000D01*
X122742000Y-18030000D02*
X122422000Y-18030000D01*
X123592000Y-19030000D02*
X123752000Y-19030000D01*
X124922000Y-18030000D02*
X124602000Y-18030000D01*
X124602000Y-18030000D02*
X124602000Y-14610000D01*
X124602000Y-14610000D02*
X124922000Y-14530000D01*
X124922000Y-14530000D02*
X125242000Y-14610000D01*
X125242000Y-14610000D02*
X125242000Y-18030000D01*
X125242000Y-18030000D02*
X124922000Y-18030000D01*
X126092000Y-19030000D02*
X126252000Y-19030000D01*
X127422000Y-18030000D02*
X127102000Y-18030000D01*
X127102000Y-18030000D02*
X127102000Y-14610000D01*
X127102000Y-14610000D02*
X127422000Y-14530000D01*
X127422000Y-14530000D02*
X127742000Y-14610000D01*
X127742000Y-14610000D02*
X127742000Y-18030000D01*
X127742000Y-18030000D02*
X127422000Y-18030000D01*
X119922000Y-21120000D02*
X119622000Y-21720000D01*
X119622000Y-21720000D02*
X120222000Y-21720000D01*
X120222000Y-21720000D02*
X119922000Y-21120000D01*
X88422000Y-21720000D02*
X88122000Y-21120000D01*
X87822000Y-21720000D02*
X88422000Y-21720000D01*
X88122000Y-21120000D02*
X87822000Y-21720000D01*
X95942000Y-18030000D02*
X95622000Y-18030000D01*
X95942000Y-14610000D02*
X95942000Y-18030000D01*
X95622000Y-14530000D02*
X95942000Y-14610000D01*
X95302000Y-14610000D02*
X95622000Y-14530000D01*
X95302000Y-18030000D02*
X95302000Y-14610000D01*
X95622000Y-18030000D02*
X95302000Y-18030000D01*
X94292000Y-19030000D02*
X94452000Y-19030000D01*
X93442000Y-18030000D02*
X93122000Y-18030000D01*
X93442000Y-14610000D02*
X93442000Y-18030000D01*
X93122000Y-14530000D02*
X93442000Y-14610000D01*
X92802000Y-14610000D02*
X93122000Y-14530000D01*
X92802000Y-18030000D02*
X92802000Y-14610000D01*
X93122000Y-18030000D02*
X92802000Y-18030000D01*
X91792000Y-19030000D02*
X91952000Y-19030000D01*
X90942000Y-18030000D02*
X90622000Y-18030000D01*
X90942000Y-14610000D02*
X90942000Y-18030000D01*
X90622000Y-14530000D02*
X90942000Y-14610000D01*
X90302000Y-14610000D02*
X90622000Y-14530000D01*
X90302000Y-18030000D02*
X90302000Y-14610000D01*
X90622000Y-18030000D02*
X90302000Y-18030000D01*
X89292000Y-19030000D02*
X89452000Y-19030000D01*
X88442000Y-18030000D02*
X88122000Y-18030000D01*
X88442000Y-14610000D02*
X88442000Y-18030000D01*
X88122000Y-14530000D02*
X88442000Y-14610000D01*
X87802000Y-14610000D02*
X88122000Y-14530000D01*
X87802000Y-18030000D02*
X87802000Y-14610000D01*
X88122000Y-18030000D02*
X87802000Y-18030000D01*
X86732000Y-18030000D02*
X97012000Y-18030000D01*
X97012000Y-19030000D02*
X98232000Y-19030000D01*
X97012000Y-14030000D02*
X97012000Y-19030000D01*
X98232000Y-14030000D02*
X97012000Y-14030000D01*
X86732000Y-19030000D02*
X85512000Y-19030000D01*
X86732000Y-14030000D02*
X86732000Y-19030000D01*
X85512000Y-14030000D02*
X86732000Y-14030000D01*
X97012000Y-21230000D02*
X97012000Y-19030000D01*
X98232000Y-21230000D02*
X97012000Y-21230000D01*
X98232000Y-12810000D02*
X98232000Y-21230000D01*
X85512000Y-12810000D02*
X98232000Y-12810000D01*
X85512000Y-21230000D02*
X85512000Y-12810000D01*
X86732000Y-21230000D02*
X85512000Y-21230000D01*
X86732000Y-19030000D02*
X86732000Y-21230000D01*
X73032000Y-19030000D02*
X73032000Y-21230000D01*
X73032000Y-21230000D02*
X71812000Y-21230000D01*
X71812000Y-21230000D02*
X71812000Y-12810000D01*
X71812000Y-12810000D02*
X84532000Y-12810000D01*
X84532000Y-12810000D02*
X84532000Y-21230000D01*
X84532000Y-21230000D02*
X83312000Y-21230000D01*
X83312000Y-21230000D02*
X83312000Y-19030000D01*
X71812000Y-14030000D02*
X73032000Y-14030000D01*
X73032000Y-14030000D02*
X73032000Y-19030000D01*
X73032000Y-19030000D02*
X71812000Y-19030000D01*
X84532000Y-14030000D02*
X83312000Y-14030000D01*
X83312000Y-14030000D02*
X83312000Y-19030000D01*
X83312000Y-19030000D02*
X84532000Y-19030000D01*
X73032000Y-18030000D02*
X83312000Y-18030000D01*
X74422000Y-18030000D02*
X74102000Y-18030000D01*
X74102000Y-18030000D02*
X74102000Y-14610000D01*
X74102000Y-14610000D02*
X74422000Y-14530000D01*
X74422000Y-14530000D02*
X74742000Y-14610000D01*
X74742000Y-14610000D02*
X74742000Y-18030000D01*
X74742000Y-18030000D02*
X74422000Y-18030000D01*
X75592000Y-19030000D02*
X75752000Y-19030000D01*
X76922000Y-18030000D02*
X76602000Y-18030000D01*
X76602000Y-18030000D02*
X76602000Y-14610000D01*
X76602000Y-14610000D02*
X76922000Y-14530000D01*
X76922000Y-14530000D02*
X77242000Y-14610000D01*
X77242000Y-14610000D02*
X77242000Y-18030000D01*
X77242000Y-18030000D02*
X76922000Y-18030000D01*
X78092000Y-19030000D02*
X78252000Y-19030000D01*
X79422000Y-18030000D02*
X79102000Y-18030000D01*
X79102000Y-18030000D02*
X79102000Y-14610000D01*
X79102000Y-14610000D02*
X79422000Y-14530000D01*
X79422000Y-14530000D02*
X79742000Y-14610000D01*
X79742000Y-14610000D02*
X79742000Y-18030000D01*
X79742000Y-18030000D02*
X79422000Y-18030000D01*
X80592000Y-19030000D02*
X80752000Y-19030000D01*
X81922000Y-18030000D02*
X81602000Y-18030000D01*
X81602000Y-18030000D02*
X81602000Y-14610000D01*
X81602000Y-14610000D02*
X81922000Y-14530000D01*
X81922000Y-14530000D02*
X82242000Y-14610000D01*
X82242000Y-14610000D02*
X82242000Y-18030000D01*
X82242000Y-18030000D02*
X81922000Y-18030000D01*
X74422000Y-21120000D02*
X74122000Y-21720000D01*
X74122000Y-21720000D02*
X74722000Y-21720000D01*
X74722000Y-21720000D02*
X74422000Y-21120000D01*
X16602000Y-80470000D02*
X17852000Y-80470000D01*
X16602000Y-79220000D02*
X16602000Y-80470000D01*
X21012000Y-77110000D02*
X20512000Y-77110000D01*
X20512000Y-77010000D02*
X21012000Y-77010000D01*
X20512000Y-77210000D02*
X20512000Y-77010000D01*
X21012000Y-77210000D02*
X20512000Y-77210000D01*
X19512000Y-74050000D02*
X19512000Y-74660000D01*
X18212000Y-74050000D02*
X18212000Y-74660000D01*
X19512000Y-80170000D02*
X19512000Y-79560000D01*
X18212000Y-80170000D02*
X18212000Y-79560000D01*
X17512000Y-76610000D02*
X16902000Y-76610000D01*
X17512000Y-74660000D02*
X17512000Y-76610000D01*
X21012000Y-74660000D02*
X17512000Y-74660000D01*
X21012000Y-79560000D02*
X21012000Y-74660000D01*
X17512000Y-79560000D02*
X21012000Y-79560000D01*
X17512000Y-77610000D02*
X17512000Y-79560000D01*
X16902000Y-77610000D02*
X17512000Y-77610000D01*
X16802000Y-78410000D02*
X16802000Y-78710000D01*
X16702000Y-78710000D02*
X16902000Y-78710000D01*
X16702000Y-78410000D02*
X16702000Y-78710000D01*
X16902000Y-78410000D02*
X16702000Y-78410000D01*
X16902000Y-74050000D02*
X16902000Y-80170000D01*
X21622000Y-74050000D02*
X16902000Y-74050000D01*
X21622000Y-80170000D02*
X21622000Y-74050000D01*
X16902000Y-80170000D02*
X21622000Y-80170000D01*
X16902000Y-87570000D02*
X21622000Y-87570000D01*
X21622000Y-87570000D02*
X21622000Y-81450000D01*
X21622000Y-81450000D02*
X16902000Y-81450000D01*
X16902000Y-81450000D02*
X16902000Y-87570000D01*
X16902000Y-85810000D02*
X16702000Y-85810000D01*
X16702000Y-85810000D02*
X16702000Y-86110000D01*
X16702000Y-86110000D02*
X16902000Y-86110000D01*
X16802000Y-85810000D02*
X16802000Y-86110000D01*
X16902000Y-85010000D02*
X17512000Y-85010000D01*
X17512000Y-85010000D02*
X17512000Y-86960000D01*
X17512000Y-86960000D02*
X21012000Y-86960000D01*
X21012000Y-86960000D02*
X21012000Y-82060000D01*
X21012000Y-82060000D02*
X17512000Y-82060000D01*
X17512000Y-82060000D02*
X17512000Y-84010000D01*
X17512000Y-84010000D02*
X16902000Y-84010000D01*
X18212000Y-87570000D02*
X18212000Y-86960000D01*
X19512000Y-87570000D02*
X19512000Y-86960000D01*
X18212000Y-81450000D02*
X18212000Y-82060000D01*
X19512000Y-81450000D02*
X19512000Y-82060000D01*
X21012000Y-84610000D02*
X20512000Y-84610000D01*
X20512000Y-84610000D02*
X20512000Y-84410000D01*
X20512000Y-84410000D02*
X21012000Y-84410000D01*
X21012000Y-84510000D02*
X20512000Y-84510000D01*
X16602000Y-86620000D02*
X16602000Y-87870000D01*
X16602000Y-87870000D02*
X17852000Y-87870000D01*
X16902000Y-95070000D02*
X21622000Y-95070000D01*
X21622000Y-95070000D02*
X21622000Y-88950000D01*
X21622000Y-88950000D02*
X16902000Y-88950000D01*
X16902000Y-88950000D02*
X16902000Y-95070000D01*
X16902000Y-93310000D02*
X16702000Y-93310000D01*
X16702000Y-93310000D02*
X16702000Y-93610000D01*
X16702000Y-93610000D02*
X16902000Y-93610000D01*
X16802000Y-93310000D02*
X16802000Y-93610000D01*
X16902000Y-92510000D02*
X17512000Y-92510000D01*
X17512000Y-92510000D02*
X17512000Y-94460000D01*
X17512000Y-94460000D02*
X21012000Y-94460000D01*
X21012000Y-94460000D02*
X21012000Y-89560000D01*
X21012000Y-89560000D02*
X17512000Y-89560000D01*
X17512000Y-89560000D02*
X17512000Y-91510000D01*
X17512000Y-91510000D02*
X16902000Y-91510000D01*
X18212000Y-95070000D02*
X18212000Y-94460000D01*
X19512000Y-95070000D02*
X19512000Y-94460000D01*
X18212000Y-88950000D02*
X18212000Y-89560000D01*
X19512000Y-88950000D02*
X19512000Y-89560000D01*
X21012000Y-92110000D02*
X20512000Y-92110000D01*
X20512000Y-92110000D02*
X20512000Y-91910000D01*
X20512000Y-91910000D02*
X21012000Y-91910000D01*
X21012000Y-92010000D02*
X20512000Y-92010000D01*
X16602000Y-94120000D02*
X16602000Y-95370000D01*
X16602000Y-95370000D02*
X17852000Y-95370000D01*
X23962436Y-77845000D02*
X24416564Y-77845000D01*
X23962436Y-76375000D02*
X24416564Y-76375000D01*
X24416564Y-75345000D02*
X23962436Y-75345000D01*
X24416564Y-73875000D02*
X23962436Y-73875000D01*
X23962436Y-85245000D02*
X24416564Y-85245000D01*
X23962436Y-83775000D02*
X24416564Y-83775000D01*
X24416564Y-82745000D02*
X23962436Y-82745000D01*
X24416564Y-81275000D02*
X23962436Y-81275000D01*
X23962436Y-91275000D02*
X24416564Y-91275000D01*
X23962436Y-92745000D02*
X24416564Y-92745000D01*
X24416564Y-88775000D02*
X23962436Y-88775000D01*
X24416564Y-90245000D02*
X23962436Y-90245000D01*
X59478250Y-127276750D02*
X59478250Y-128064250D01*
X59084500Y-127670500D02*
X59872000Y-127670500D01*
X60112000Y-131863563D02*
X61176437Y-132928000D01*
X60112000Y-127172437D02*
X61176437Y-126108000D01*
X60112000Y-127172437D02*
X60112000Y-128458000D01*
X60112000Y-131863563D02*
X60112000Y-130578000D01*
X61176437Y-132928000D02*
X66932000Y-132928000D01*
X61176437Y-126108000D02*
X66932000Y-126108000D01*
X66932000Y-126108000D02*
X66932000Y-128458000D01*
X66932000Y-132928000D02*
X66932000Y-130578000D01*
X58787010Y-124723543D02*
X58417543Y-125093010D01*
X59826457Y-125762990D02*
X59456990Y-126132457D01*
X31484645Y-128757804D02*
X31860503Y-129120766D01*
X30463497Y-129815234D02*
X30839355Y-130178196D01*
X38712000Y-121828000D02*
X36362000Y-121828000D01*
X31892000Y-121828000D02*
X34242000Y-121828000D01*
X31892000Y-127583563D02*
X31892000Y-121828000D01*
X38712000Y-127583563D02*
X38712000Y-121828000D01*
X37647563Y-128648000D02*
X36362000Y-128648000D01*
X32956437Y-128648000D02*
X34242000Y-128648000D01*
X32956437Y-128648000D02*
X31892000Y-127583563D01*
X37647563Y-128648000D02*
X38712000Y-127583563D01*
X33454500Y-129675500D02*
X33454500Y-128888000D01*
X33060750Y-129281750D02*
X33848250Y-129281750D01*
X25462000Y-130588000D02*
X26217000Y-130588000D01*
X22292000Y-120043000D02*
X21242000Y-120043000D01*
X22292000Y-132333000D02*
X21242000Y-132333000D01*
X25462000Y-130588000D02*
X25462000Y-121788000D01*
X50362000Y-123998000D02*
X51462000Y-123998000D01*
X50362000Y-122188000D02*
X50362000Y-123998000D01*
X48862000Y-122188000D02*
X50362000Y-122188000D01*
X50362000Y-130778000D02*
X55487000Y-130778000D01*
X50362000Y-132588000D02*
X50362000Y-130778000D01*
X48862000Y-132588000D02*
X50362000Y-132588000D01*
D11*
X58057714Y-120990380D02*
X58391047Y-121990380D01*
X58724380Y-120990380D01*
X58819619Y-122085619D02*
X59581523Y-122085619D01*
X60152952Y-121466571D02*
X60295809Y-121514190D01*
X60343428Y-121561809D01*
X60391047Y-121657047D01*
X60391047Y-121799904D01*
X60343428Y-121895142D01*
X60295809Y-121942761D01*
X60200571Y-121990380D01*
X59819619Y-121990380D01*
X59819619Y-120990380D01*
X60152952Y-120990380D01*
X60248190Y-121038000D01*
X60295809Y-121085619D01*
X60343428Y-121180857D01*
X60343428Y-121276095D01*
X60295809Y-121371333D01*
X60248190Y-121418952D01*
X60152952Y-121466571D01*
X59819619Y-121466571D01*
X60819619Y-120990380D02*
X60819619Y-121799904D01*
X60867238Y-121895142D01*
X60914857Y-121942761D01*
X61010095Y-121990380D01*
X61200571Y-121990380D01*
X61295809Y-121942761D01*
X61343428Y-121895142D01*
X61391047Y-121799904D01*
X61391047Y-120990380D01*
X61819619Y-121942761D02*
X61962476Y-121990380D01*
X62200571Y-121990380D01*
X62295809Y-121942761D01*
X62343428Y-121895142D01*
X62391047Y-121799904D01*
X62391047Y-121704666D01*
X62343428Y-121609428D01*
X62295809Y-121561809D01*
X62200571Y-121514190D01*
X62010095Y-121466571D01*
X61914857Y-121418952D01*
X61867238Y-121371333D01*
X61819619Y-121276095D01*
X61819619Y-121180857D01*
X61867238Y-121085619D01*
X61914857Y-121038000D01*
X62010095Y-120990380D01*
X62248190Y-120990380D01*
X62391047Y-121038000D01*
X94956666Y-70556380D02*
X94956666Y-69556380D01*
X95194761Y-69556380D01*
X95337619Y-69604000D01*
X95432857Y-69699238D01*
X95480476Y-69794476D01*
X95528095Y-69984952D01*
X95528095Y-70127809D01*
X95480476Y-70318285D01*
X95432857Y-70413523D01*
X95337619Y-70508761D01*
X95194761Y-70556380D01*
X94956666Y-70556380D01*
X95956666Y-70556380D02*
X95956666Y-69556380D01*
X97004285Y-70556380D02*
X96670952Y-70080190D01*
X96432857Y-70556380D02*
X96432857Y-69556380D01*
X96813809Y-69556380D01*
X96909047Y-69604000D01*
X96956666Y-69651619D01*
X97004285Y-69746857D01*
X97004285Y-69889714D01*
X96956666Y-69984952D01*
X96909047Y-70032571D01*
X96813809Y-70080190D01*
X96432857Y-70080190D01*
X97956666Y-70556380D02*
X97385238Y-70556380D01*
X97670952Y-70556380D02*
X97670952Y-69556380D01*
X97575714Y-69699238D01*
X97480476Y-69794476D01*
X97385238Y-69842095D01*
X98147142Y-70651619D02*
X98909047Y-70651619D01*
X99147142Y-70032571D02*
X99480476Y-70032571D01*
X99623333Y-70556380D02*
X99147142Y-70556380D01*
X99147142Y-69556380D01*
X99623333Y-69556380D01*
X100051904Y-70556380D02*
X100051904Y-69556380D01*
X100623333Y-70556380D01*
X100623333Y-69556380D01*
X112625619Y-70372761D02*
X112768476Y-70420380D01*
X113006571Y-70420380D01*
X113101809Y-70372761D01*
X113149428Y-70325142D01*
X113197047Y-70229904D01*
X113197047Y-70134666D01*
X113149428Y-70039428D01*
X113101809Y-69991809D01*
X113006571Y-69944190D01*
X112816095Y-69896571D01*
X112720857Y-69848952D01*
X112673238Y-69801333D01*
X112625619Y-69706095D01*
X112625619Y-69610857D01*
X112673238Y-69515619D01*
X112720857Y-69468000D01*
X112816095Y-69420380D01*
X113054190Y-69420380D01*
X113197047Y-69468000D01*
X113482761Y-69420380D02*
X114054190Y-69420380D01*
X113768476Y-70420380D02*
X113768476Y-69420380D01*
X114387523Y-69896571D02*
X114720857Y-69896571D01*
X114863714Y-70420380D02*
X114387523Y-70420380D01*
X114387523Y-69420380D01*
X114863714Y-69420380D01*
X115292285Y-70420380D02*
X115292285Y-69420380D01*
X115673238Y-69420380D01*
X115768476Y-69468000D01*
X115816095Y-69515619D01*
X115863714Y-69610857D01*
X115863714Y-69753714D01*
X115816095Y-69848952D01*
X115768476Y-69896571D01*
X115673238Y-69944190D01*
X115292285Y-69944190D01*
X116816095Y-70420380D02*
X116244666Y-70420380D01*
X116530380Y-70420380D02*
X116530380Y-69420380D01*
X116435142Y-69563238D01*
X116339904Y-69658476D01*
X116244666Y-69706095D01*
X117006571Y-70515619D02*
X117768476Y-70515619D01*
X118006571Y-69896571D02*
X118339904Y-69896571D01*
X118482761Y-70420380D02*
X118006571Y-70420380D01*
X118006571Y-69420380D01*
X118482761Y-69420380D01*
X118911333Y-70420380D02*
X118911333Y-69420380D01*
X119482761Y-70420380D01*
X119482761Y-69420380D01*
X139329619Y-119292761D02*
X139472476Y-119340380D01*
X139710571Y-119340380D01*
X139805809Y-119292761D01*
X139853428Y-119245142D01*
X139901047Y-119149904D01*
X139901047Y-119054666D01*
X139853428Y-118959428D01*
X139805809Y-118911809D01*
X139710571Y-118864190D01*
X139520095Y-118816571D01*
X139424857Y-118768952D01*
X139377238Y-118721333D01*
X139329619Y-118626095D01*
X139329619Y-118530857D01*
X139377238Y-118435619D01*
X139424857Y-118388000D01*
X139520095Y-118340380D01*
X139758190Y-118340380D01*
X139901047Y-118388000D01*
X140186761Y-118340380D02*
X140758190Y-118340380D01*
X140472476Y-119340380D02*
X140472476Y-118340380D01*
X141091523Y-118816571D02*
X141424857Y-118816571D01*
X141567714Y-119340380D02*
X141091523Y-119340380D01*
X141091523Y-118340380D01*
X141567714Y-118340380D01*
X141996285Y-119340380D02*
X141996285Y-118340380D01*
X142377238Y-118340380D01*
X142472476Y-118388000D01*
X142520095Y-118435619D01*
X142567714Y-118530857D01*
X142567714Y-118673714D01*
X142520095Y-118768952D01*
X142472476Y-118816571D01*
X142377238Y-118864190D01*
X141996285Y-118864190D01*
X142948666Y-118435619D02*
X142996285Y-118388000D01*
X143091523Y-118340380D01*
X143329619Y-118340380D01*
X143424857Y-118388000D01*
X143472476Y-118435619D01*
X143520095Y-118530857D01*
X143520095Y-118626095D01*
X143472476Y-118768952D01*
X142901047Y-119340380D01*
X143520095Y-119340380D01*
X143710571Y-119435619D02*
X144472476Y-119435619D01*
X144710571Y-118816571D02*
X145043904Y-118816571D01*
X145186761Y-119340380D02*
X144710571Y-119340380D01*
X144710571Y-118340380D01*
X145186761Y-118340380D01*
X145615333Y-119340380D02*
X145615333Y-118340380D01*
X146186761Y-119340380D01*
X146186761Y-118340380D01*
X130198666Y-119340380D02*
X130198666Y-118340380D01*
X130436761Y-118340380D01*
X130579619Y-118388000D01*
X130674857Y-118483238D01*
X130722476Y-118578476D01*
X130770095Y-118768952D01*
X130770095Y-118911809D01*
X130722476Y-119102285D01*
X130674857Y-119197523D01*
X130579619Y-119292761D01*
X130436761Y-119340380D01*
X130198666Y-119340380D01*
X131198666Y-119340380D02*
X131198666Y-118340380D01*
X132246285Y-119340380D02*
X131912952Y-118864190D01*
X131674857Y-119340380D02*
X131674857Y-118340380D01*
X132055809Y-118340380D01*
X132151047Y-118388000D01*
X132198666Y-118435619D01*
X132246285Y-118530857D01*
X132246285Y-118673714D01*
X132198666Y-118768952D01*
X132151047Y-118816571D01*
X132055809Y-118864190D01*
X131674857Y-118864190D01*
X132627238Y-118435619D02*
X132674857Y-118388000D01*
X132770095Y-118340380D01*
X133008190Y-118340380D01*
X133103428Y-118388000D01*
X133151047Y-118435619D01*
X133198666Y-118530857D01*
X133198666Y-118626095D01*
X133151047Y-118768952D01*
X132579619Y-119340380D01*
X133198666Y-119340380D01*
X133389142Y-119435619D02*
X134151047Y-119435619D01*
X134389142Y-118816571D02*
X134722476Y-118816571D01*
X134865333Y-119340380D02*
X134389142Y-119340380D01*
X134389142Y-118340380D01*
X134865333Y-118340380D01*
X135293904Y-119340380D02*
X135293904Y-118340380D01*
X135865333Y-119340380D01*
X135865333Y-118340380D01*
X146718666Y-103512880D02*
X146718666Y-102512880D01*
X146956761Y-102512880D01*
X147099619Y-102560500D01*
X147194857Y-102655738D01*
X147242476Y-102750976D01*
X147290095Y-102941452D01*
X147290095Y-103084309D01*
X147242476Y-103274785D01*
X147194857Y-103370023D01*
X147099619Y-103465261D01*
X146956761Y-103512880D01*
X146718666Y-103512880D01*
X147718666Y-103512880D02*
X147718666Y-102512880D01*
X148766285Y-103512880D02*
X148432952Y-103036690D01*
X148194857Y-103512880D02*
X148194857Y-102512880D01*
X148575809Y-102512880D01*
X148671047Y-102560500D01*
X148718666Y-102608119D01*
X148766285Y-102703357D01*
X148766285Y-102846214D01*
X148718666Y-102941452D01*
X148671047Y-102989071D01*
X148575809Y-103036690D01*
X148194857Y-103036690D01*
X149623428Y-102846214D02*
X149623428Y-103512880D01*
X149385333Y-102465261D02*
X149147238Y-103179547D01*
X149766285Y-103179547D01*
X149909142Y-103608119D02*
X150671047Y-103608119D01*
X150909142Y-102989071D02*
X151242476Y-102989071D01*
X151385333Y-103512880D02*
X150909142Y-103512880D01*
X150909142Y-102512880D01*
X151385333Y-102512880D01*
X151813904Y-103512880D02*
X151813904Y-102512880D01*
X152385333Y-103512880D01*
X152385333Y-102512880D01*
X146679619Y-92865261D02*
X146822476Y-92912880D01*
X147060571Y-92912880D01*
X147155809Y-92865261D01*
X147203428Y-92817642D01*
X147251047Y-92722404D01*
X147251047Y-92627166D01*
X147203428Y-92531928D01*
X147155809Y-92484309D01*
X147060571Y-92436690D01*
X146870095Y-92389071D01*
X146774857Y-92341452D01*
X146727238Y-92293833D01*
X146679619Y-92198595D01*
X146679619Y-92103357D01*
X146727238Y-92008119D01*
X146774857Y-91960500D01*
X146870095Y-91912880D01*
X147108190Y-91912880D01*
X147251047Y-91960500D01*
X147536761Y-91912880D02*
X148108190Y-91912880D01*
X147822476Y-92912880D02*
X147822476Y-91912880D01*
X148441523Y-92389071D02*
X148774857Y-92389071D01*
X148917714Y-92912880D02*
X148441523Y-92912880D01*
X148441523Y-91912880D01*
X148917714Y-91912880D01*
X149346285Y-92912880D02*
X149346285Y-91912880D01*
X149727238Y-91912880D01*
X149822476Y-91960500D01*
X149870095Y-92008119D01*
X149917714Y-92103357D01*
X149917714Y-92246214D01*
X149870095Y-92341452D01*
X149822476Y-92389071D01*
X149727238Y-92436690D01*
X149346285Y-92436690D01*
X150774857Y-92246214D02*
X150774857Y-92912880D01*
X150536761Y-91865261D02*
X150298666Y-92579547D01*
X150917714Y-92579547D01*
X151060571Y-93008119D02*
X151822476Y-93008119D01*
X152060571Y-92389071D02*
X152393904Y-92389071D01*
X152536761Y-92912880D02*
X152060571Y-92912880D01*
X152060571Y-91912880D01*
X152536761Y-91912880D01*
X152965333Y-92912880D02*
X152965333Y-91912880D01*
X153536761Y-92912880D01*
X153536761Y-91912880D01*
D12*
X118883428Y-83860857D02*
X119283428Y-85060857D01*
X119683428Y-83860857D01*
X119797714Y-85175142D02*
X120712000Y-85175142D01*
X120997714Y-85060857D02*
X120997714Y-83860857D01*
X121397714Y-84718000D01*
X121797714Y-83860857D01*
X121797714Y-85060857D01*
X122597714Y-83860857D02*
X122826285Y-83860857D01*
X122940571Y-83918000D01*
X123054857Y-84032285D01*
X123112000Y-84260857D01*
X123112000Y-84660857D01*
X123054857Y-84889428D01*
X122940571Y-85003714D01*
X122826285Y-85060857D01*
X122597714Y-85060857D01*
X122483428Y-85003714D01*
X122369142Y-84889428D01*
X122312000Y-84660857D01*
X122312000Y-84260857D01*
X122369142Y-84032285D01*
X122483428Y-83918000D01*
X122597714Y-83860857D01*
X123454857Y-83860857D02*
X124140571Y-83860857D01*
X123797714Y-85060857D02*
X123797714Y-83860857D01*
X115032713Y-83918000D02*
X114918427Y-83860857D01*
X114746999Y-83860857D01*
X114575570Y-83918000D01*
X114461284Y-84032285D01*
X114404141Y-84146571D01*
X114346999Y-84375142D01*
X114346999Y-84546571D01*
X114404141Y-84775142D01*
X114461284Y-84889428D01*
X114575570Y-85003714D01*
X114746999Y-85060857D01*
X114861284Y-85060857D01*
X115032713Y-85003714D01*
X115089856Y-84946571D01*
X115089856Y-84546571D01*
X114861284Y-84546571D01*
X115604141Y-85060857D02*
X115604141Y-83860857D01*
X116289856Y-85060857D01*
X116289856Y-83860857D01*
X116861284Y-85060857D02*
X116861284Y-83860857D01*
X117146999Y-83860857D01*
X117318427Y-83918000D01*
X117432713Y-84032285D01*
X117489856Y-84146571D01*
X117546999Y-84375142D01*
X117546999Y-84546571D01*
X117489856Y-84775142D01*
X117432713Y-84889428D01*
X117318427Y-85003714D01*
X117146999Y-85060857D01*
X116861284Y-85060857D01*
X108153428Y-83860857D02*
X108553428Y-85060857D01*
X108953428Y-83860857D01*
X109067714Y-85175142D02*
X109982000Y-85175142D01*
X110267714Y-85060857D02*
X110267714Y-83860857D01*
X110553428Y-83860857D01*
X110724857Y-83918000D01*
X110839142Y-84032285D01*
X110896285Y-84146571D01*
X110953428Y-84375142D01*
X110953428Y-84546571D01*
X110896285Y-84775142D01*
X110839142Y-84889428D01*
X110724857Y-85003714D01*
X110553428Y-85060857D01*
X110267714Y-85060857D01*
X111410571Y-84718000D02*
X111982000Y-84718000D01*
X111296285Y-85060857D02*
X111696285Y-83860857D01*
X112096285Y-85060857D01*
X112324857Y-83860857D02*
X113010571Y-83860857D01*
X112667714Y-85060857D02*
X112667714Y-83860857D01*
D11*
X142407714Y-28854666D02*
X142883904Y-28854666D01*
X142312476Y-29140380D02*
X142645809Y-28140380D01*
X142979142Y-29140380D01*
X143836285Y-29140380D02*
X143264857Y-29140380D01*
X143550571Y-29140380D02*
X143550571Y-28140380D01*
X143455333Y-28283238D01*
X143360095Y-28378476D01*
X143264857Y-28426095D01*
X164917714Y-28854666D02*
X165393904Y-28854666D01*
X164822476Y-29140380D02*
X165155809Y-28140380D01*
X165489142Y-29140380D01*
X165774857Y-28235619D02*
X165822476Y-28188000D01*
X165917714Y-28140380D01*
X166155809Y-28140380D01*
X166251047Y-28188000D01*
X166298666Y-28235619D01*
X166346285Y-28330857D01*
X166346285Y-28426095D01*
X166298666Y-28568952D01*
X165727238Y-29140380D01*
X166346285Y-29140380D01*
X175877714Y-94144666D02*
X176353904Y-94144666D01*
X175782476Y-94430380D02*
X176115809Y-93430380D01*
X176449142Y-94430380D01*
X176687238Y-93430380D02*
X177306285Y-93430380D01*
X176972952Y-93811333D01*
X177115809Y-93811333D01*
X177211047Y-93858952D01*
X177258666Y-93906571D01*
X177306285Y-94001809D01*
X177306285Y-94239904D01*
X177258666Y-94335142D01*
X177211047Y-94382761D01*
X177115809Y-94430380D01*
X176830095Y-94430380D01*
X176734857Y-94382761D01*
X176687238Y-94335142D01*
X175877714Y-115374666D02*
X176353904Y-115374666D01*
X175782476Y-115660380D02*
X176115809Y-114660380D01*
X176449142Y-115660380D01*
X177211047Y-114993714D02*
X177211047Y-115660380D01*
X176972952Y-114612761D02*
X176734857Y-115327047D01*
X177353904Y-115327047D01*
X158845333Y-33125142D02*
X158797714Y-33172761D01*
X158654857Y-33220380D01*
X158559619Y-33220380D01*
X158416761Y-33172761D01*
X158321523Y-33077523D01*
X158273904Y-32982285D01*
X158226285Y-32791809D01*
X158226285Y-32648952D01*
X158273904Y-32458476D01*
X158321523Y-32363238D01*
X158416761Y-32268000D01*
X158559619Y-32220380D01*
X158654857Y-32220380D01*
X158797714Y-32268000D01*
X158845333Y-32315619D01*
X159797714Y-33220380D02*
X159226285Y-33220380D01*
X159512000Y-33220380D02*
X159512000Y-32220380D01*
X159416761Y-32363238D01*
X159321523Y-32458476D01*
X159226285Y-32506095D01*
X136265333Y-33125142D02*
X136217714Y-33172761D01*
X136074857Y-33220380D01*
X135979619Y-33220380D01*
X135836761Y-33172761D01*
X135741523Y-33077523D01*
X135693904Y-32982285D01*
X135646285Y-32791809D01*
X135646285Y-32648952D01*
X135693904Y-32458476D01*
X135741523Y-32363238D01*
X135836761Y-32268000D01*
X135979619Y-32220380D01*
X136074857Y-32220380D01*
X136217714Y-32268000D01*
X136265333Y-32315619D01*
X136646285Y-32315619D02*
X136693904Y-32268000D01*
X136789142Y-32220380D01*
X137027238Y-32220380D01*
X137122476Y-32268000D01*
X137170095Y-32315619D01*
X137217714Y-32410857D01*
X137217714Y-32506095D01*
X137170095Y-32648952D01*
X136598666Y-33220380D01*
X137217714Y-33220380D01*
X171875333Y-87205142D02*
X171827714Y-87252761D01*
X171684857Y-87300380D01*
X171589619Y-87300380D01*
X171446761Y-87252761D01*
X171351523Y-87157523D01*
X171303904Y-87062285D01*
X171256285Y-86871809D01*
X171256285Y-86728952D01*
X171303904Y-86538476D01*
X171351523Y-86443238D01*
X171446761Y-86348000D01*
X171589619Y-86300380D01*
X171684857Y-86300380D01*
X171827714Y-86348000D01*
X171875333Y-86395619D01*
X172208666Y-86300380D02*
X172827714Y-86300380D01*
X172494380Y-86681333D01*
X172637238Y-86681333D01*
X172732476Y-86728952D01*
X172780095Y-86776571D01*
X172827714Y-86871809D01*
X172827714Y-87109904D01*
X172780095Y-87205142D01*
X172732476Y-87252761D01*
X172637238Y-87300380D01*
X172351523Y-87300380D01*
X172256285Y-87252761D01*
X172208666Y-87205142D01*
X171875333Y-106825142D02*
X171827714Y-106872761D01*
X171684857Y-106920380D01*
X171589619Y-106920380D01*
X171446761Y-106872761D01*
X171351523Y-106777523D01*
X171303904Y-106682285D01*
X171256285Y-106491809D01*
X171256285Y-106348952D01*
X171303904Y-106158476D01*
X171351523Y-106063238D01*
X171446761Y-105968000D01*
X171589619Y-105920380D01*
X171684857Y-105920380D01*
X171827714Y-105968000D01*
X171875333Y-106015619D01*
X172732476Y-106253714D02*
X172732476Y-106920380D01*
X172494380Y-105872761D02*
X172256285Y-106587047D01*
X172875333Y-106587047D01*
X94579142Y-120065142D02*
X94531523Y-120112761D01*
X94388666Y-120160380D01*
X94293428Y-120160380D01*
X94150570Y-120112761D01*
X94055332Y-120017523D01*
X94007713Y-119922285D01*
X93960094Y-119731809D01*
X93960094Y-119588952D01*
X94007713Y-119398476D01*
X94055332Y-119303238D01*
X94150570Y-119208000D01*
X94293428Y-119160380D01*
X94388666Y-119160380D01*
X94531523Y-119208000D01*
X94579142Y-119255619D01*
X95483904Y-119160380D02*
X95007713Y-119160380D01*
X94960094Y-119636571D01*
X95007713Y-119588952D01*
X95102951Y-119541333D01*
X95341047Y-119541333D01*
X95436285Y-119588952D01*
X95483904Y-119636571D01*
X95531523Y-119731809D01*
X95531523Y-119969904D01*
X95483904Y-120065142D01*
X95436285Y-120112761D01*
X95341047Y-120160380D01*
X95102951Y-120160380D01*
X95007713Y-120112761D01*
X94960094Y-120065142D01*
X94579142Y-115025142D02*
X94531523Y-115072761D01*
X94388666Y-115120380D01*
X94293428Y-115120380D01*
X94150570Y-115072761D01*
X94055332Y-114977523D01*
X94007713Y-114882285D01*
X93960094Y-114691809D01*
X93960094Y-114548952D01*
X94007713Y-114358476D01*
X94055332Y-114263238D01*
X94150570Y-114168000D01*
X94293428Y-114120380D01*
X94388666Y-114120380D01*
X94531523Y-114168000D01*
X94579142Y-114215619D01*
X95436285Y-114120380D02*
X95245809Y-114120380D01*
X95150570Y-114168000D01*
X95102951Y-114215619D01*
X95007713Y-114358476D01*
X94960094Y-114548952D01*
X94960094Y-114929904D01*
X95007713Y-115025142D01*
X95055332Y-115072761D01*
X95150570Y-115120380D01*
X95341047Y-115120380D01*
X95436285Y-115072761D01*
X95483904Y-115025142D01*
X95531523Y-114929904D01*
X95531523Y-114691809D01*
X95483904Y-114596571D01*
X95436285Y-114548952D01*
X95341047Y-114501333D01*
X95150570Y-114501333D01*
X95055332Y-114548952D01*
X95007713Y-114596571D01*
X94960094Y-114691809D01*
X94579142Y-110235142D02*
X94531523Y-110282761D01*
X94388666Y-110330380D01*
X94293428Y-110330380D01*
X94150570Y-110282761D01*
X94055332Y-110187523D01*
X94007713Y-110092285D01*
X93960094Y-109901809D01*
X93960094Y-109758952D01*
X94007713Y-109568476D01*
X94055332Y-109473238D01*
X94150570Y-109378000D01*
X94293428Y-109330380D01*
X94388666Y-109330380D01*
X94531523Y-109378000D01*
X94579142Y-109425619D01*
X94912475Y-109330380D02*
X95579142Y-109330380D01*
X95150570Y-110330380D01*
X94579142Y-106665142D02*
X94531523Y-106712761D01*
X94388666Y-106760380D01*
X94293428Y-106760380D01*
X94150570Y-106712761D01*
X94055332Y-106617523D01*
X94007713Y-106522285D01*
X93960094Y-106331809D01*
X93960094Y-106188952D01*
X94007713Y-105998476D01*
X94055332Y-105903238D01*
X94150570Y-105808000D01*
X94293428Y-105760380D01*
X94388666Y-105760380D01*
X94531523Y-105808000D01*
X94579142Y-105855619D01*
X95150570Y-106188952D02*
X95055332Y-106141333D01*
X95007713Y-106093714D01*
X94960094Y-105998476D01*
X94960094Y-105950857D01*
X95007713Y-105855619D01*
X95055332Y-105808000D01*
X95150570Y-105760380D01*
X95341047Y-105760380D01*
X95436285Y-105808000D01*
X95483904Y-105855619D01*
X95531523Y-105950857D01*
X95531523Y-105998476D01*
X95483904Y-106093714D01*
X95436285Y-106141333D01*
X95341047Y-106188952D01*
X95150570Y-106188952D01*
X95055332Y-106236571D01*
X95007713Y-106284190D01*
X94960094Y-106379428D01*
X94960094Y-106569904D01*
X95007713Y-106665142D01*
X95055332Y-106712761D01*
X95150570Y-106760380D01*
X95341047Y-106760380D01*
X95436285Y-106712761D01*
X95483904Y-106665142D01*
X95531523Y-106569904D01*
X95531523Y-106379428D01*
X95483904Y-106284190D01*
X95436285Y-106236571D01*
X95341047Y-106188952D01*
X94579142Y-102015142D02*
X94531523Y-102062761D01*
X94388666Y-102110380D01*
X94293428Y-102110380D01*
X94150571Y-102062761D01*
X94055333Y-101967523D01*
X94007714Y-101872285D01*
X93960095Y-101681809D01*
X93960095Y-101538952D01*
X94007714Y-101348476D01*
X94055333Y-101253238D01*
X94150571Y-101158000D01*
X94293428Y-101110380D01*
X94388666Y-101110380D01*
X94531523Y-101158000D01*
X94579142Y-101205619D01*
X95531523Y-102110380D02*
X94960095Y-102110380D01*
X95245809Y-102110380D02*
X95245809Y-101110380D01*
X95150571Y-101253238D01*
X95055333Y-101348476D01*
X94960095Y-101396095D01*
X96150571Y-101110380D02*
X96245809Y-101110380D01*
X96341047Y-101158000D01*
X96388666Y-101205619D01*
X96436285Y-101300857D01*
X96483904Y-101491333D01*
X96483904Y-101729428D01*
X96436285Y-101919904D01*
X96388666Y-102015142D01*
X96341047Y-102062761D01*
X96245809Y-102110380D01*
X96150571Y-102110380D01*
X96055333Y-102062761D01*
X96007714Y-102015142D01*
X95960095Y-101919904D01*
X95912476Y-101729428D01*
X95912476Y-101491333D01*
X95960095Y-101300857D01*
X96007714Y-101205619D01*
X96055333Y-101158000D01*
X96150571Y-101110380D01*
X94579142Y-94675142D02*
X94531523Y-94722761D01*
X94388666Y-94770380D01*
X94293428Y-94770380D01*
X94150571Y-94722761D01*
X94055333Y-94627523D01*
X94007714Y-94532285D01*
X93960095Y-94341809D01*
X93960095Y-94198952D01*
X94007714Y-94008476D01*
X94055333Y-93913238D01*
X94150571Y-93818000D01*
X94293428Y-93770380D01*
X94388666Y-93770380D01*
X94531523Y-93818000D01*
X94579142Y-93865619D01*
X95531523Y-94770380D02*
X94960095Y-94770380D01*
X95245809Y-94770380D02*
X95245809Y-93770380D01*
X95150571Y-93913238D01*
X95055333Y-94008476D01*
X94960095Y-94056095D01*
X96483904Y-94770380D02*
X95912476Y-94770380D01*
X96198190Y-94770380D02*
X96198190Y-93770380D01*
X96102952Y-93913238D01*
X96007714Y-94008476D01*
X95912476Y-94056095D01*
X124153904Y-105730380D02*
X124153904Y-104730380D01*
X124392000Y-104730380D01*
X124534857Y-104778000D01*
X124630095Y-104873238D01*
X124677714Y-104968476D01*
X124725333Y-105158952D01*
X124725333Y-105301809D01*
X124677714Y-105492285D01*
X124630095Y-105587523D01*
X124534857Y-105682761D01*
X124392000Y-105730380D01*
X124153904Y-105730380D01*
X125106285Y-104825619D02*
X125153904Y-104778000D01*
X125249142Y-104730380D01*
X125487238Y-104730380D01*
X125582476Y-104778000D01*
X125630095Y-104825619D01*
X125677714Y-104920857D01*
X125677714Y-105016095D01*
X125630095Y-105158952D01*
X125058666Y-105730380D01*
X125677714Y-105730380D01*
X69619619Y-111060666D02*
X68905333Y-111060666D01*
X68762476Y-111013047D01*
X68667238Y-110917809D01*
X68619619Y-110774952D01*
X68619619Y-110679714D01*
X68619619Y-112060666D02*
X68619619Y-111489238D01*
X68619619Y-111774952D02*
X69619619Y-111774952D01*
X69476761Y-111679714D01*
X69381523Y-111584476D01*
X69333904Y-111489238D01*
X69619619Y-98510666D02*
X68905333Y-98510666D01*
X68762476Y-98463047D01*
X68667238Y-98367809D01*
X68619619Y-98224952D01*
X68619619Y-98129714D01*
X69524380Y-98939238D02*
X69572000Y-98986857D01*
X69619619Y-99082095D01*
X69619619Y-99320190D01*
X69572000Y-99415428D01*
X69524380Y-99463047D01*
X69429142Y-99510666D01*
X69333904Y-99510666D01*
X69191047Y-99463047D01*
X68619619Y-98891619D01*
X68619619Y-99510666D01*
D12*
X177517714Y-119606571D02*
X177517714Y-120678000D01*
X177446285Y-120892285D01*
X177303428Y-121035142D01*
X177089142Y-121106571D01*
X176946285Y-121106571D01*
X179017714Y-121106571D02*
X178160571Y-121106571D01*
X178589142Y-121106571D02*
X178589142Y-119606571D01*
X178446285Y-119820857D01*
X178303428Y-119963714D01*
X178160571Y-120035142D01*
X179946285Y-119606571D02*
X180089142Y-119606571D01*
X180232000Y-119678000D01*
X180303428Y-119749428D01*
X180374857Y-119892285D01*
X180446285Y-120178000D01*
X180446285Y-120535142D01*
X180374857Y-120820857D01*
X180303428Y-120963714D01*
X180232000Y-121035142D01*
X180089142Y-121106571D01*
X179946285Y-121106571D01*
X179803428Y-121035142D01*
X179732000Y-120963714D01*
X179660571Y-120820857D01*
X179589142Y-120535142D01*
X179589142Y-120178000D01*
X179660571Y-119892285D01*
X179732000Y-119749428D01*
X179803428Y-119678000D01*
X179946285Y-119606571D01*
D11*
X177517714Y-128336571D02*
X177517714Y-129408000D01*
X177446285Y-129622285D01*
X177303428Y-129765142D01*
X177089142Y-129836571D01*
X176946285Y-129836571D01*
X178089142Y-128336571D02*
X179017714Y-128336571D01*
X178517714Y-128908000D01*
X178732000Y-128908000D01*
X178874857Y-128979428D01*
X178946285Y-129050857D01*
X179017714Y-129193714D01*
X179017714Y-129550857D01*
X178946285Y-129693714D01*
X178874857Y-129765142D01*
X178732000Y-129836571D01*
X178303428Y-129836571D01*
X178160571Y-129765142D01*
X178089142Y-129693714D01*
X180446285Y-129836571D02*
X179589142Y-129836571D01*
X180017714Y-129836571D02*
X180017714Y-128336571D01*
X179874857Y-128550857D01*
X179732000Y-128693714D01*
X179589142Y-128765142D01*
D12*
X106477714Y-139846571D02*
X106477714Y-140918000D01*
X106406285Y-141132285D01*
X106263428Y-141275142D01*
X106049142Y-141346571D01*
X105906285Y-141346571D01*
X107049142Y-139846571D02*
X107977714Y-139846571D01*
X107477714Y-140418000D01*
X107692000Y-140418000D01*
X107834857Y-140489428D01*
X107906285Y-140560857D01*
X107977714Y-140703714D01*
X107977714Y-141060857D01*
X107906285Y-141203714D01*
X107834857Y-141275142D01*
X107692000Y-141346571D01*
X107263428Y-141346571D01*
X107120571Y-141275142D01*
X107049142Y-141203714D01*
X108477714Y-139846571D02*
X109406285Y-139846571D01*
X108906285Y-140418000D01*
X109120571Y-140418000D01*
X109263428Y-140489428D01*
X109334857Y-140560857D01*
X109406285Y-140703714D01*
X109406285Y-141060857D01*
X109334857Y-141203714D01*
X109263428Y-141275142D01*
X109120571Y-141346571D01*
X108692000Y-141346571D01*
X108549142Y-141275142D01*
X108477714Y-141203714D01*
D11*
X124495333Y-92180380D02*
X124019142Y-92180380D01*
X124019142Y-91180380D01*
X125352476Y-92180380D02*
X124781047Y-92180380D01*
X125066761Y-92180380D02*
X125066761Y-91180380D01*
X124971523Y-91323238D01*
X124876285Y-91418476D01*
X124781047Y-91466095D01*
X103606761Y-63885619D02*
X103511523Y-63838000D01*
X103416285Y-63742761D01*
X103273428Y-63599904D01*
X103178190Y-63552285D01*
X103082952Y-63552285D01*
X103130571Y-63790380D02*
X103035333Y-63742761D01*
X102940095Y-63647523D01*
X102892476Y-63457047D01*
X102892476Y-63123714D01*
X102940095Y-62933238D01*
X103035333Y-62838000D01*
X103130571Y-62790380D01*
X103321047Y-62790380D01*
X103416285Y-62838000D01*
X103511523Y-62933238D01*
X103559142Y-63123714D01*
X103559142Y-63457047D01*
X103511523Y-63647523D01*
X103416285Y-63742761D01*
X103321047Y-63790380D01*
X103130571Y-63790380D01*
X104511523Y-63790380D02*
X103940095Y-63790380D01*
X104225809Y-63790380D02*
X104225809Y-62790380D01*
X104130571Y-62933238D01*
X104035333Y-63028476D01*
X103940095Y-63076095D01*
X108956761Y-63885619D02*
X108861523Y-63838000D01*
X108766285Y-63742761D01*
X108623428Y-63599904D01*
X108528190Y-63552285D01*
X108432952Y-63552285D01*
X108480571Y-63790380D02*
X108385333Y-63742761D01*
X108290095Y-63647523D01*
X108242476Y-63457047D01*
X108242476Y-63123714D01*
X108290095Y-62933238D01*
X108385333Y-62838000D01*
X108480571Y-62790380D01*
X108671047Y-62790380D01*
X108766285Y-62838000D01*
X108861523Y-62933238D01*
X108909142Y-63123714D01*
X108909142Y-63457047D01*
X108861523Y-63647523D01*
X108766285Y-63742761D01*
X108671047Y-63790380D01*
X108480571Y-63790380D01*
X109290095Y-62885619D02*
X109337714Y-62838000D01*
X109432952Y-62790380D01*
X109671047Y-62790380D01*
X109766285Y-62838000D01*
X109813904Y-62885619D01*
X109861523Y-62980857D01*
X109861523Y-63076095D01*
X109813904Y-63218952D01*
X109242476Y-63790380D01*
X109861523Y-63790380D01*
X134546761Y-133725619D02*
X134451523Y-133678000D01*
X134356285Y-133582761D01*
X134213428Y-133439904D01*
X134118190Y-133392285D01*
X134022952Y-133392285D01*
X134070571Y-133630380D02*
X133975333Y-133582761D01*
X133880095Y-133487523D01*
X133832476Y-133297047D01*
X133832476Y-132963714D01*
X133880095Y-132773238D01*
X133975333Y-132678000D01*
X134070571Y-132630380D01*
X134261047Y-132630380D01*
X134356285Y-132678000D01*
X134451523Y-132773238D01*
X134499142Y-132963714D01*
X134499142Y-133297047D01*
X134451523Y-133487523D01*
X134356285Y-133582761D01*
X134261047Y-133630380D01*
X134070571Y-133630380D01*
X134832476Y-132630380D02*
X135451523Y-132630380D01*
X135118190Y-133011333D01*
X135261047Y-133011333D01*
X135356285Y-133058952D01*
X135403904Y-133106571D01*
X135451523Y-133201809D01*
X135451523Y-133439904D01*
X135403904Y-133535142D01*
X135356285Y-133582761D01*
X135261047Y-133630380D01*
X134975333Y-133630380D01*
X134880095Y-133582761D01*
X134832476Y-133535142D01*
X140646761Y-133725619D02*
X140551523Y-133678000D01*
X140456285Y-133582761D01*
X140313428Y-133439904D01*
X140218190Y-133392285D01*
X140122952Y-133392285D01*
X140170571Y-133630380D02*
X140075333Y-133582761D01*
X139980095Y-133487523D01*
X139932476Y-133297047D01*
X139932476Y-132963714D01*
X139980095Y-132773238D01*
X140075333Y-132678000D01*
X140170571Y-132630380D01*
X140361047Y-132630380D01*
X140456285Y-132678000D01*
X140551523Y-132773238D01*
X140599142Y-132963714D01*
X140599142Y-133297047D01*
X140551523Y-133487523D01*
X140456285Y-133582761D01*
X140361047Y-133630380D01*
X140170571Y-133630380D01*
X141456285Y-132963714D02*
X141456285Y-133630380D01*
X141218190Y-132582761D02*
X140980095Y-133297047D01*
X141599142Y-133297047D01*
X149810761Y-96107619D02*
X149715523Y-96060000D01*
X149620285Y-95964761D01*
X149477428Y-95821904D01*
X149382190Y-95774285D01*
X149286952Y-95774285D01*
X149334571Y-96012380D02*
X149239333Y-95964761D01*
X149144095Y-95869523D01*
X149096476Y-95679047D01*
X149096476Y-95345714D01*
X149144095Y-95155238D01*
X149239333Y-95060000D01*
X149334571Y-95012380D01*
X149525047Y-95012380D01*
X149620285Y-95060000D01*
X149715523Y-95155238D01*
X149763142Y-95345714D01*
X149763142Y-95679047D01*
X149715523Y-95869523D01*
X149620285Y-95964761D01*
X149525047Y-96012380D01*
X149334571Y-96012380D01*
X150667904Y-95012380D02*
X150191714Y-95012380D01*
X150144095Y-95488571D01*
X150191714Y-95440952D01*
X150286952Y-95393333D01*
X150525047Y-95393333D01*
X150620285Y-95440952D01*
X150667904Y-95488571D01*
X150715523Y-95583809D01*
X150715523Y-95821904D01*
X150667904Y-95917142D01*
X150620285Y-95964761D01*
X150525047Y-96012380D01*
X150286952Y-96012380D01*
X150191714Y-95964761D01*
X150144095Y-95917142D01*
X149756761Y-85695619D02*
X149661523Y-85648000D01*
X149566285Y-85552761D01*
X149423428Y-85409904D01*
X149328190Y-85362285D01*
X149232952Y-85362285D01*
X149280571Y-85600380D02*
X149185333Y-85552761D01*
X149090095Y-85457523D01*
X149042476Y-85267047D01*
X149042476Y-84933714D01*
X149090095Y-84743238D01*
X149185333Y-84648000D01*
X149280571Y-84600380D01*
X149471047Y-84600380D01*
X149566285Y-84648000D01*
X149661523Y-84743238D01*
X149709142Y-84933714D01*
X149709142Y-85267047D01*
X149661523Y-85457523D01*
X149566285Y-85552761D01*
X149471047Y-85600380D01*
X149280571Y-85600380D01*
X150566285Y-84600380D02*
X150375809Y-84600380D01*
X150280571Y-84648000D01*
X150232952Y-84695619D01*
X150137714Y-84838476D01*
X150090095Y-85028952D01*
X150090095Y-85409904D01*
X150137714Y-85505142D01*
X150185333Y-85552761D01*
X150280571Y-85600380D01*
X150471047Y-85600380D01*
X150566285Y-85552761D01*
X150613904Y-85505142D01*
X150661523Y-85409904D01*
X150661523Y-85171809D01*
X150613904Y-85076571D01*
X150566285Y-85028952D01*
X150471047Y-84981333D01*
X150280571Y-84981333D01*
X150185333Y-85028952D01*
X150137714Y-85076571D01*
X150090095Y-85171809D01*
X103425333Y-74510380D02*
X103092000Y-74034190D01*
X102853904Y-74510380D02*
X102853904Y-73510380D01*
X103234857Y-73510380D01*
X103330095Y-73558000D01*
X103377714Y-73605619D01*
X103425333Y-73700857D01*
X103425333Y-73843714D01*
X103377714Y-73938952D01*
X103330095Y-73986571D01*
X103234857Y-74034190D01*
X102853904Y-74034190D01*
X104377714Y-74510380D02*
X103806285Y-74510380D01*
X104092000Y-74510380D02*
X104092000Y-73510380D01*
X103996761Y-73653238D01*
X103901523Y-73748476D01*
X103806285Y-73796095D01*
X108805333Y-74510380D02*
X108472000Y-74034190D01*
X108233904Y-74510380D02*
X108233904Y-73510380D01*
X108614857Y-73510380D01*
X108710095Y-73558000D01*
X108757714Y-73605619D01*
X108805333Y-73700857D01*
X108805333Y-73843714D01*
X108757714Y-73938952D01*
X108710095Y-73986571D01*
X108614857Y-74034190D01*
X108233904Y-74034190D01*
X109186285Y-73605619D02*
X109233904Y-73558000D01*
X109329142Y-73510380D01*
X109567238Y-73510380D01*
X109662476Y-73558000D01*
X109710095Y-73605619D01*
X109757714Y-73700857D01*
X109757714Y-73796095D01*
X109710095Y-73938952D01*
X109138666Y-74510380D01*
X109757714Y-74510380D01*
X137247333Y-122880380D02*
X136914000Y-122404190D01*
X136675904Y-122880380D02*
X136675904Y-121880380D01*
X137056857Y-121880380D01*
X137152095Y-121928000D01*
X137199714Y-121975619D01*
X137247333Y-122070857D01*
X137247333Y-122213714D01*
X137199714Y-122308952D01*
X137152095Y-122356571D01*
X137056857Y-122404190D01*
X136675904Y-122404190D01*
X137580666Y-121880380D02*
X138199714Y-121880380D01*
X137866380Y-122261333D01*
X138009238Y-122261333D01*
X138104476Y-122308952D01*
X138152095Y-122356571D01*
X138199714Y-122451809D01*
X138199714Y-122689904D01*
X138152095Y-122785142D01*
X138104476Y-122832761D01*
X138009238Y-122880380D01*
X137723523Y-122880380D01*
X137628285Y-122832761D01*
X137580666Y-122785142D01*
X143343333Y-122880380D02*
X143010000Y-122404190D01*
X142771904Y-122880380D02*
X142771904Y-121880380D01*
X143152857Y-121880380D01*
X143248095Y-121928000D01*
X143295714Y-121975619D01*
X143343333Y-122070857D01*
X143343333Y-122213714D01*
X143295714Y-122308952D01*
X143248095Y-122356571D01*
X143152857Y-122404190D01*
X142771904Y-122404190D01*
X144200476Y-122213714D02*
X144200476Y-122880380D01*
X143962380Y-121832761D02*
X143724285Y-122547047D01*
X144343333Y-122547047D01*
X144535333Y-97120380D02*
X144202000Y-96644190D01*
X143963904Y-97120380D02*
X143963904Y-96120380D01*
X144344857Y-96120380D01*
X144440095Y-96168000D01*
X144487714Y-96215619D01*
X144535333Y-96310857D01*
X144535333Y-96453714D01*
X144487714Y-96548952D01*
X144440095Y-96596571D01*
X144344857Y-96644190D01*
X143963904Y-96644190D01*
X145440095Y-96120380D02*
X144963904Y-96120380D01*
X144916285Y-96596571D01*
X144963904Y-96548952D01*
X145059142Y-96501333D01*
X145297238Y-96501333D01*
X145392476Y-96548952D01*
X145440095Y-96596571D01*
X145487714Y-96691809D01*
X145487714Y-96929904D01*
X145440095Y-97025142D01*
X145392476Y-97072761D01*
X145297238Y-97120380D01*
X145059142Y-97120380D01*
X144963904Y-97072761D01*
X144916285Y-97025142D01*
X144535333Y-86460380D02*
X144202000Y-85984190D01*
X143963904Y-86460380D02*
X143963904Y-85460380D01*
X144344857Y-85460380D01*
X144440095Y-85508000D01*
X144487714Y-85555619D01*
X144535333Y-85650857D01*
X144535333Y-85793714D01*
X144487714Y-85888952D01*
X144440095Y-85936571D01*
X144344857Y-85984190D01*
X143963904Y-85984190D01*
X145392476Y-85460380D02*
X145202000Y-85460380D01*
X145106761Y-85508000D01*
X145059142Y-85555619D01*
X144963904Y-85698476D01*
X144916285Y-85888952D01*
X144916285Y-86269904D01*
X144963904Y-86365142D01*
X145011523Y-86412761D01*
X145106761Y-86460380D01*
X145297238Y-86460380D01*
X145392476Y-86412761D01*
X145440095Y-86365142D01*
X145487714Y-86269904D01*
X145487714Y-86031809D01*
X145440095Y-85936571D01*
X145392476Y-85888952D01*
X145297238Y-85841333D01*
X145106761Y-85841333D01*
X145011523Y-85888952D01*
X144963904Y-85936571D01*
X144916285Y-86031809D01*
X107605380Y-131809666D02*
X107129190Y-132143000D01*
X107605380Y-132381095D02*
X106605380Y-132381095D01*
X106605380Y-132000142D01*
X106653000Y-131904904D01*
X106700619Y-131857285D01*
X106795857Y-131809666D01*
X106938714Y-131809666D01*
X107033952Y-131857285D01*
X107081571Y-131904904D01*
X107129190Y-132000142D01*
X107129190Y-132381095D01*
X106605380Y-131476333D02*
X106605380Y-130809666D01*
X107605380Y-131238238D01*
X114930095Y-121700380D02*
X114930095Y-122509904D01*
X114977714Y-122605142D01*
X115025333Y-122652761D01*
X115120571Y-122700380D01*
X115311047Y-122700380D01*
X115406285Y-122652761D01*
X115453904Y-122605142D01*
X115501523Y-122509904D01*
X115501523Y-121700380D01*
X116501523Y-122700380D02*
X115930095Y-122700380D01*
X116215809Y-122700380D02*
X116215809Y-121700380D01*
X116120571Y-121843238D01*
X116025333Y-121938476D01*
X115930095Y-121986095D01*
X27261404Y-80056754D02*
X27261404Y-79056754D01*
X27499500Y-79056754D01*
X27642357Y-79104374D01*
X27737595Y-79199612D01*
X27785214Y-79294850D01*
X27832833Y-79485326D01*
X27832833Y-79628183D01*
X27785214Y-79818659D01*
X27737595Y-79913897D01*
X27642357Y-80009135D01*
X27499500Y-80056754D01*
X27261404Y-80056754D01*
X28166166Y-79056754D02*
X28785214Y-79056754D01*
X28451880Y-79437707D01*
X28594738Y-79437707D01*
X28689976Y-79485326D01*
X28737595Y-79532945D01*
X28785214Y-79628183D01*
X28785214Y-79866278D01*
X28737595Y-79961516D01*
X28689976Y-80009135D01*
X28594738Y-80056754D01*
X28309023Y-80056754D01*
X28213785Y-80009135D01*
X28166166Y-79961516D01*
X27261404Y-87589565D02*
X27261404Y-86589565D01*
X27499500Y-86589565D01*
X27642357Y-86637185D01*
X27737595Y-86732423D01*
X27785214Y-86827661D01*
X27832833Y-87018137D01*
X27832833Y-87160994D01*
X27785214Y-87351470D01*
X27737595Y-87446708D01*
X27642357Y-87541946D01*
X27499500Y-87589565D01*
X27261404Y-87589565D01*
X28689976Y-86922899D02*
X28689976Y-87589565D01*
X28451880Y-86541946D02*
X28213785Y-87256232D01*
X28832833Y-87256232D01*
X27261404Y-95122380D02*
X27261404Y-94122380D01*
X27499500Y-94122380D01*
X27642357Y-94170000D01*
X27737595Y-94265238D01*
X27785214Y-94360476D01*
X27832833Y-94550952D01*
X27832833Y-94693809D01*
X27785214Y-94884285D01*
X27737595Y-94979523D01*
X27642357Y-95074761D01*
X27499500Y-95122380D01*
X27261404Y-95122380D01*
X28737595Y-94122380D02*
X28261404Y-94122380D01*
X28213785Y-94598571D01*
X28261404Y-94550952D01*
X28356642Y-94503333D01*
X28594738Y-94503333D01*
X28689976Y-94550952D01*
X28737595Y-94598571D01*
X28785214Y-94693809D01*
X28785214Y-94931904D01*
X28737595Y-95027142D01*
X28689976Y-95074761D01*
X28594738Y-95122380D01*
X28356642Y-95122380D01*
X28261404Y-95074761D01*
X28213785Y-95027142D01*
X27832833Y-77545817D02*
X27499500Y-77069627D01*
X27261404Y-77545817D02*
X27261404Y-76545817D01*
X27642357Y-76545817D01*
X27737595Y-76593437D01*
X27785214Y-76641056D01*
X27832833Y-76736294D01*
X27832833Y-76879151D01*
X27785214Y-76974389D01*
X27737595Y-77022008D01*
X27642357Y-77069627D01*
X27261404Y-77069627D01*
X28404261Y-76974389D02*
X28309023Y-76926770D01*
X28261404Y-76879151D01*
X28213785Y-76783913D01*
X28213785Y-76736294D01*
X28261404Y-76641056D01*
X28309023Y-76593437D01*
X28404261Y-76545817D01*
X28594738Y-76545817D01*
X28689976Y-76593437D01*
X28737595Y-76641056D01*
X28785214Y-76736294D01*
X28785214Y-76783913D01*
X28737595Y-76879151D01*
X28689976Y-76926770D01*
X28594738Y-76974389D01*
X28404261Y-76974389D01*
X28309023Y-77022008D01*
X28261404Y-77069627D01*
X28213785Y-77164865D01*
X28213785Y-77355341D01*
X28261404Y-77450579D01*
X28309023Y-77498198D01*
X28404261Y-77545817D01*
X28594738Y-77545817D01*
X28689976Y-77498198D01*
X28737595Y-77450579D01*
X28785214Y-77355341D01*
X28785214Y-77164865D01*
X28737595Y-77069627D01*
X28689976Y-77022008D01*
X28594738Y-76974389D01*
X27832833Y-75034880D02*
X27499500Y-74558690D01*
X27261404Y-75034880D02*
X27261404Y-74034880D01*
X27642357Y-74034880D01*
X27737595Y-74082500D01*
X27785214Y-74130119D01*
X27832833Y-74225357D01*
X27832833Y-74368214D01*
X27785214Y-74463452D01*
X27737595Y-74511071D01*
X27642357Y-74558690D01*
X27261404Y-74558690D01*
X28309023Y-75034880D02*
X28499500Y-75034880D01*
X28594738Y-74987261D01*
X28642357Y-74939642D01*
X28737595Y-74796785D01*
X28785214Y-74606309D01*
X28785214Y-74225357D01*
X28737595Y-74130119D01*
X28689976Y-74082500D01*
X28594738Y-74034880D01*
X28404261Y-74034880D01*
X28309023Y-74082500D01*
X28261404Y-74130119D01*
X28213785Y-74225357D01*
X28213785Y-74463452D01*
X28261404Y-74558690D01*
X28309023Y-74606309D01*
X28404261Y-74653928D01*
X28594738Y-74653928D01*
X28689976Y-74606309D01*
X28737595Y-74558690D01*
X28785214Y-74463452D01*
X26880452Y-85078628D02*
X26547119Y-84602438D01*
X26309024Y-85078628D02*
X26309024Y-84078628D01*
X26689976Y-84078628D01*
X26785214Y-84126248D01*
X26832833Y-84173867D01*
X26880452Y-84269105D01*
X26880452Y-84411962D01*
X26832833Y-84507200D01*
X26785214Y-84554819D01*
X26689976Y-84602438D01*
X26309024Y-84602438D01*
X27832833Y-85078628D02*
X27261405Y-85078628D01*
X27547119Y-85078628D02*
X27547119Y-84078628D01*
X27451881Y-84221486D01*
X27356643Y-84316724D01*
X27261405Y-84364343D01*
X28451881Y-84078628D02*
X28547119Y-84078628D01*
X28642357Y-84126248D01*
X28689976Y-84173867D01*
X28737595Y-84269105D01*
X28785214Y-84459581D01*
X28785214Y-84697676D01*
X28737595Y-84888152D01*
X28689976Y-84983390D01*
X28642357Y-85031009D01*
X28547119Y-85078628D01*
X28451881Y-85078628D01*
X28356643Y-85031009D01*
X28309024Y-84983390D01*
X28261405Y-84888152D01*
X28213786Y-84697676D01*
X28213786Y-84459581D01*
X28261405Y-84269105D01*
X28309024Y-84173867D01*
X28356643Y-84126248D01*
X28451881Y-84078628D01*
X26880452Y-82567691D02*
X26547119Y-82091501D01*
X26309024Y-82567691D02*
X26309024Y-81567691D01*
X26689976Y-81567691D01*
X26785214Y-81615311D01*
X26832833Y-81662930D01*
X26880452Y-81758168D01*
X26880452Y-81901025D01*
X26832833Y-81996263D01*
X26785214Y-82043882D01*
X26689976Y-82091501D01*
X26309024Y-82091501D01*
X27832833Y-82567691D02*
X27261405Y-82567691D01*
X27547119Y-82567691D02*
X27547119Y-81567691D01*
X27451881Y-81710549D01*
X27356643Y-81805787D01*
X27261405Y-81853406D01*
X28785214Y-82567691D02*
X28213786Y-82567691D01*
X28499500Y-82567691D02*
X28499500Y-81567691D01*
X28404262Y-81710549D01*
X28309024Y-81805787D01*
X28213786Y-81853406D01*
X26880452Y-92611439D02*
X26547119Y-92135249D01*
X26309024Y-92611439D02*
X26309024Y-91611439D01*
X26689976Y-91611439D01*
X26785214Y-91659059D01*
X26832833Y-91706678D01*
X26880452Y-91801916D01*
X26880452Y-91944773D01*
X26832833Y-92040011D01*
X26785214Y-92087630D01*
X26689976Y-92135249D01*
X26309024Y-92135249D01*
X27832833Y-92611439D02*
X27261405Y-92611439D01*
X27547119Y-92611439D02*
X27547119Y-91611439D01*
X27451881Y-91754297D01*
X27356643Y-91849535D01*
X27261405Y-91897154D01*
X28213786Y-91706678D02*
X28261405Y-91659059D01*
X28356643Y-91611439D01*
X28594738Y-91611439D01*
X28689976Y-91659059D01*
X28737595Y-91706678D01*
X28785214Y-91801916D01*
X28785214Y-91897154D01*
X28737595Y-92040011D01*
X28166167Y-92611439D01*
X28785214Y-92611439D01*
X26880452Y-90100502D02*
X26547119Y-89624312D01*
X26309024Y-90100502D02*
X26309024Y-89100502D01*
X26689976Y-89100502D01*
X26785214Y-89148122D01*
X26832833Y-89195741D01*
X26880452Y-89290979D01*
X26880452Y-89433836D01*
X26832833Y-89529074D01*
X26785214Y-89576693D01*
X26689976Y-89624312D01*
X26309024Y-89624312D01*
X27832833Y-90100502D02*
X27261405Y-90100502D01*
X27547119Y-90100502D02*
X27547119Y-89100502D01*
X27451881Y-89243360D01*
X27356643Y-89338598D01*
X27261405Y-89386217D01*
X28166167Y-89100502D02*
X28785214Y-89100502D01*
X28451881Y-89481455D01*
X28594738Y-89481455D01*
X28689976Y-89529074D01*
X28737595Y-89576693D01*
X28785214Y-89671931D01*
X28785214Y-89910026D01*
X28737595Y-90005264D01*
X28689976Y-90052883D01*
X28594738Y-90100502D01*
X28309024Y-90100502D01*
X28213786Y-90052883D01*
X28166167Y-90005264D01*
X58059142Y-132905142D02*
X58011523Y-132952761D01*
X57868666Y-133000380D01*
X57773428Y-133000380D01*
X57630571Y-132952761D01*
X57535333Y-132857523D01*
X57487714Y-132762285D01*
X57440095Y-132571809D01*
X57440095Y-132428952D01*
X57487714Y-132238476D01*
X57535333Y-132143238D01*
X57630571Y-132048000D01*
X57773428Y-132000380D01*
X57868666Y-132000380D01*
X58011523Y-132048000D01*
X58059142Y-132095619D01*
X59011523Y-133000380D02*
X58440095Y-133000380D01*
X58725809Y-133000380D02*
X58725809Y-132000380D01*
X58630571Y-132143238D01*
X58535333Y-132238476D01*
X58440095Y-132286095D01*
X59392476Y-132095619D02*
X59440095Y-132048000D01*
X59535333Y-132000380D01*
X59773428Y-132000380D01*
X59868666Y-132048000D01*
X59916285Y-132095619D01*
X59963904Y-132190857D01*
X59963904Y-132286095D01*
X59916285Y-132428952D01*
X59344857Y-133000380D01*
X59963904Y-133000380D01*
X57646469Y-124834737D02*
X57646469Y-124902081D01*
X57579125Y-125036768D01*
X57511782Y-125104111D01*
X57377095Y-125171455D01*
X57242408Y-125171455D01*
X57141393Y-125137783D01*
X56973034Y-125036768D01*
X56872019Y-124935753D01*
X56771003Y-124767394D01*
X56737332Y-124666379D01*
X56737332Y-124531692D01*
X56804675Y-124397005D01*
X56872019Y-124329661D01*
X57006706Y-124262318D01*
X57074049Y-124262318D01*
X58387248Y-124228646D02*
X57983187Y-124632707D01*
X58185217Y-124430676D02*
X57478110Y-123723569D01*
X57511782Y-123891928D01*
X57511782Y-124026615D01*
X57478110Y-124127631D01*
X57915843Y-123285837D02*
X58353576Y-122848104D01*
X58387248Y-123353180D01*
X58488263Y-123252165D01*
X58589278Y-123218493D01*
X58656622Y-123218493D01*
X58757637Y-123252165D01*
X58925996Y-123420524D01*
X58959667Y-123521539D01*
X58959667Y-123588882D01*
X58925996Y-123689898D01*
X58723965Y-123891928D01*
X58622950Y-123925600D01*
X58555606Y-123925600D01*
X29521473Y-130948340D02*
X29454140Y-130949516D01*
X29318298Y-130884533D01*
X29249790Y-130818375D01*
X29180106Y-130684884D01*
X29177755Y-130550218D01*
X29209659Y-130448630D01*
X29307721Y-130278534D01*
X29406958Y-130175771D01*
X29573528Y-130071833D01*
X29673940Y-130036403D01*
X29808606Y-130034053D01*
X29944448Y-130099035D01*
X30012957Y-130165193D01*
X30082641Y-130298685D01*
X30083816Y-130366018D01*
X30140401Y-131678428D02*
X29729350Y-131281481D01*
X29934875Y-131479955D02*
X30629534Y-130760615D01*
X30461788Y-130797220D01*
X30327122Y-130799570D01*
X30225534Y-130767667D01*
X31220084Y-131794290D02*
X30756978Y-132273850D01*
X31313444Y-131354861D02*
X30645988Y-131703280D01*
X31091294Y-132133307D01*
X37249142Y-121365142D02*
X37201523Y-121412761D01*
X37058666Y-121460380D01*
X36963428Y-121460380D01*
X36820571Y-121412761D01*
X36725333Y-121317523D01*
X36677714Y-121222285D01*
X36630095Y-121031809D01*
X36630095Y-120888952D01*
X36677714Y-120698476D01*
X36725333Y-120603238D01*
X36820571Y-120508000D01*
X36963428Y-120460380D01*
X37058666Y-120460380D01*
X37201523Y-120508000D01*
X37249142Y-120555619D01*
X38201523Y-121460380D02*
X37630095Y-121460380D01*
X37915809Y-121460380D02*
X37915809Y-120460380D01*
X37820571Y-120603238D01*
X37725333Y-120698476D01*
X37630095Y-120746095D01*
X39106285Y-120460380D02*
X38630095Y-120460380D01*
X38582476Y-120936571D01*
X38630095Y-120888952D01*
X38725333Y-120841333D01*
X38963428Y-120841333D01*
X39058666Y-120888952D01*
X39106285Y-120936571D01*
X39153904Y-121031809D01*
X39153904Y-121269904D01*
X39106285Y-121365142D01*
X39058666Y-121412761D01*
X38963428Y-121460380D01*
X38725333Y-121460380D01*
X38630095Y-121412761D01*
X38582476Y-121365142D01*
X23774380Y-127017523D02*
X24488666Y-127017523D01*
X24631523Y-127065142D01*
X24726761Y-127160380D01*
X24774380Y-127303238D01*
X24774380Y-127398476D01*
X24774380Y-126017523D02*
X24774380Y-126588952D01*
X24774380Y-126303238D02*
X23774380Y-126303238D01*
X23917238Y-126398476D01*
X24012476Y-126493714D01*
X24060095Y-126588952D01*
X24107714Y-125160380D02*
X24774380Y-125160380D01*
X23726761Y-125398476D02*
X24441047Y-125636571D01*
X24441047Y-125017523D01*
X46650095Y-133490380D02*
X46650095Y-134299904D01*
X46697714Y-134395142D01*
X46745333Y-134442761D01*
X46840571Y-134490380D01*
X47031047Y-134490380D01*
X47126285Y-134442761D01*
X47173904Y-134395142D01*
X47221523Y-134299904D01*
X47221523Y-133490380D01*
X47650095Y-133585619D02*
X47697714Y-133538000D01*
X47792952Y-133490380D01*
X48031047Y-133490380D01*
X48126285Y-133538000D01*
X48173904Y-133585619D01*
X48221523Y-133680857D01*
X48221523Y-133776095D01*
X48173904Y-133918952D01*
X47602476Y-134490380D01*
X48221523Y-134490380D01*
M02*
