G04 #@! TF.GenerationSoftware,KiCad,Pcbnew,(5.1.9)-1*
G04 #@! TF.CreationDate,2021-08-02T14:53:26+02:00*
G04 #@! TF.ProjectId,TonOfSteppers,546f6e4f-6653-4746-9570-706572732e6b,rev?*
G04 #@! TF.SameCoordinates,Original*
G04 #@! TF.FileFunction,Soldermask,Bot*
G04 #@! TF.FilePolarity,Negative*
%FSLAX46Y46*%
G04 Gerber Fmt 4.6, Leading zero omitted, Abs format (unit mm)*
G04 Created by KiCad (PCBNEW (5.1.9)-1) date 2021-08-02 14:53:26*
%MOMM*%
%LPD*%
G01*
G04 APERTURE LIST*
%ADD10O,1.802000X2.052000*%
%ADD11O,1.702000X1.702000*%
%ADD12C,2.602000*%
%ADD13O,2.292000X1.842000*%
%ADD14O,2.102000X2.702000*%
%ADD15O,1.852000X1.302000*%
%ADD16O,3.602000X2.002000*%
%ADD17C,1.202000*%
%ADD18C,0.100000*%
G04 APERTURE END LIST*
G36*
G01*
X95067000Y-124594000D02*
X95067000Y-122294000D01*
G75*
G02*
X95118000Y-122243000I51000J0D01*
G01*
X98618000Y-122243000D01*
G75*
G02*
X98669000Y-122294000I0J-51000D01*
G01*
X98669000Y-124594000D01*
G75*
G02*
X98618000Y-124645000I-51000J0D01*
G01*
X95118000Y-124645000D01*
G75*
G02*
X95067000Y-124594000I0J51000D01*
G01*
G37*
G36*
G01*
X100467000Y-124594000D02*
X100467000Y-122294000D01*
G75*
G02*
X100518000Y-122243000I51000J0D01*
G01*
X104018000Y-122243000D01*
G75*
G02*
X104069000Y-122294000I0J-51000D01*
G01*
X104069000Y-124594000D01*
G75*
G02*
X104018000Y-124645000I-51000J0D01*
G01*
X100518000Y-124645000D01*
G75*
G02*
X100467000Y-124594000I0J51000D01*
G01*
G37*
G36*
G01*
X105681000Y-126519999D02*
X105681000Y-127720001D01*
G75*
G02*
X105630001Y-127771000I-50999J0D01*
G01*
X103429999Y-127771000D01*
G75*
G02*
X103379000Y-127720001I0J50999D01*
G01*
X103379000Y-126519999D01*
G75*
G02*
X103429999Y-126469000I50999J0D01*
G01*
X105630001Y-126469000D01*
G75*
G02*
X105681000Y-126519999I0J-50999D01*
G01*
G37*
G36*
G01*
X105681000Y-128799999D02*
X105681000Y-130000001D01*
G75*
G02*
X105630001Y-130051000I-50999J0D01*
G01*
X103429999Y-130051000D01*
G75*
G02*
X103379000Y-130000001I0J50999D01*
G01*
X103379000Y-128799999D01*
G75*
G02*
X103429999Y-128749000I50999J0D01*
G01*
X105630001Y-128749000D01*
G75*
G02*
X105681000Y-128799999I0J-50999D01*
G01*
G37*
G36*
G01*
X105681000Y-131079999D02*
X105681000Y-132280001D01*
G75*
G02*
X105630001Y-132331000I-50999J0D01*
G01*
X103429999Y-132331000D01*
G75*
G02*
X103379000Y-132280001I0J50999D01*
G01*
X103379000Y-131079999D01*
G75*
G02*
X103429999Y-131029000I50999J0D01*
G01*
X105630001Y-131029000D01*
G75*
G02*
X105681000Y-131079999I0J-50999D01*
G01*
G37*
G36*
G01*
X101481000Y-126499999D02*
X101481000Y-132300001D01*
G75*
G02*
X101430001Y-132351000I-50999J0D01*
G01*
X95029999Y-132351000D01*
G75*
G02*
X94979000Y-132300001I0J50999D01*
G01*
X94979000Y-126499999D01*
G75*
G02*
X95029999Y-126449000I50999J0D01*
G01*
X101430001Y-126449000D01*
G75*
G02*
X101481000Y-126499999I0J-50999D01*
G01*
G37*
G36*
G01*
X159819000Y-20381000D02*
X159819000Y-18859000D01*
G75*
G02*
X160084000Y-18594000I265000J0D01*
G01*
X161356000Y-18594000D01*
G75*
G02*
X161621000Y-18859000I0J-265000D01*
G01*
X161621000Y-20381000D01*
G75*
G02*
X161356000Y-20646000I-265000J0D01*
G01*
X160084000Y-20646000D01*
G75*
G02*
X159819000Y-20381000I0J265000D01*
G01*
G37*
D10*
X163220000Y-19620000D03*
X165720000Y-19620000D03*
X168220000Y-19620000D03*
G36*
G01*
X173419000Y-20381000D02*
X173419000Y-18859000D01*
G75*
G02*
X173684000Y-18594000I265000J0D01*
G01*
X174956000Y-18594000D01*
G75*
G02*
X175221000Y-18859000I0J-265000D01*
G01*
X175221000Y-20381000D01*
G75*
G02*
X174956000Y-20646000I-265000J0D01*
G01*
X173684000Y-20646000D01*
G75*
G02*
X173419000Y-20381000I0J265000D01*
G01*
G37*
X176820000Y-19620000D03*
X179320000Y-19620000D03*
X181820000Y-19620000D03*
X141020000Y-19620000D03*
X138520000Y-19620000D03*
X136020000Y-19620000D03*
G36*
G01*
X132619000Y-20381000D02*
X132619000Y-18859000D01*
G75*
G02*
X132884000Y-18594000I265000J0D01*
G01*
X134156000Y-18594000D01*
G75*
G02*
X134421000Y-18859000I0J-265000D01*
G01*
X134421000Y-20381000D01*
G75*
G02*
X134156000Y-20646000I-265000J0D01*
G01*
X132884000Y-20646000D01*
G75*
G02*
X132619000Y-20381000I0J265000D01*
G01*
G37*
G36*
G01*
X59919000Y-20381000D02*
X59919000Y-18859000D01*
G75*
G02*
X60184000Y-18594000I265000J0D01*
G01*
X61456000Y-18594000D01*
G75*
G02*
X61721000Y-18859000I0J-265000D01*
G01*
X61721000Y-20381000D01*
G75*
G02*
X61456000Y-20646000I-265000J0D01*
G01*
X60184000Y-20646000D01*
G75*
G02*
X59919000Y-20381000I0J265000D01*
G01*
G37*
X63320000Y-19620000D03*
X65820000Y-19620000D03*
X68320000Y-19620000D03*
X154620000Y-19620000D03*
X152120000Y-19620000D03*
X149620000Y-19620000D03*
G36*
G01*
X146219000Y-20381000D02*
X146219000Y-18859000D01*
G75*
G02*
X146484000Y-18594000I265000J0D01*
G01*
X147756000Y-18594000D01*
G75*
G02*
X148021000Y-18859000I0J-265000D01*
G01*
X148021000Y-20381000D01*
G75*
G02*
X147756000Y-20646000I-265000J0D01*
G01*
X146484000Y-20646000D01*
G75*
G02*
X146219000Y-20381000I0J265000D01*
G01*
G37*
D11*
X143122000Y-39208000D03*
X125342000Y-26508000D03*
X140582000Y-39208000D03*
X127882000Y-26508000D03*
X138042000Y-39208000D03*
X130422000Y-26508000D03*
X135502000Y-39208000D03*
X132962000Y-26508000D03*
X132962000Y-39208000D03*
X135502000Y-26508000D03*
X130422000Y-39208000D03*
X138042000Y-26508000D03*
X127882000Y-39208000D03*
X140582000Y-26508000D03*
X125342000Y-39208000D03*
G36*
G01*
X142322000Y-25657000D02*
X143922000Y-25657000D01*
G75*
G02*
X143973000Y-25708000I0J-51000D01*
G01*
X143973000Y-27308000D01*
G75*
G02*
X143922000Y-27359000I-51000J0D01*
G01*
X142322000Y-27359000D01*
G75*
G02*
X142271000Y-27308000I0J51000D01*
G01*
X142271000Y-25708000D01*
G75*
G02*
X142322000Y-25657000I51000J0D01*
G01*
G37*
X165622000Y-39208000D03*
X147842000Y-26508000D03*
X163082000Y-39208000D03*
X150382000Y-26508000D03*
X160542000Y-39208000D03*
X152922000Y-26508000D03*
X158002000Y-39208000D03*
X155462000Y-26508000D03*
X155462000Y-39208000D03*
X158002000Y-26508000D03*
X152922000Y-39208000D03*
X160542000Y-26508000D03*
X150382000Y-39208000D03*
X163082000Y-26508000D03*
X147842000Y-39208000D03*
G36*
G01*
X164822000Y-25657000D02*
X166422000Y-25657000D01*
G75*
G02*
X166473000Y-25708000I0J-51000D01*
G01*
X166473000Y-27308000D01*
G75*
G02*
X166422000Y-27359000I-51000J0D01*
G01*
X164822000Y-27359000D01*
G75*
G02*
X164771000Y-27308000I0J51000D01*
G01*
X164771000Y-25708000D01*
G75*
G02*
X164822000Y-25657000I51000J0D01*
G01*
G37*
G36*
G01*
X179548000Y-93183000D02*
X179548000Y-94783000D01*
G75*
G02*
X179497000Y-94834000I-51000J0D01*
G01*
X177897000Y-94834000D01*
G75*
G02*
X177846000Y-94783000I0J51000D01*
G01*
X177846000Y-93183000D01*
G75*
G02*
X177897000Y-93132000I51000J0D01*
G01*
X179497000Y-93132000D01*
G75*
G02*
X179548000Y-93183000I0J-51000D01*
G01*
G37*
X165997000Y-76203000D03*
X178697000Y-91443000D03*
X165997000Y-78743000D03*
X178697000Y-88903000D03*
X165997000Y-81283000D03*
X178697000Y-86363000D03*
X165997000Y-83823000D03*
X178697000Y-83823000D03*
X165997000Y-86363000D03*
X178697000Y-81283000D03*
X165997000Y-88903000D03*
X178697000Y-78743000D03*
X165997000Y-91443000D03*
X178697000Y-76203000D03*
X165997000Y-93983000D03*
G36*
G01*
X179548000Y-114433000D02*
X179548000Y-116033000D01*
G75*
G02*
X179497000Y-116084000I-51000J0D01*
G01*
X177897000Y-116084000D01*
G75*
G02*
X177846000Y-116033000I0J51000D01*
G01*
X177846000Y-114433000D01*
G75*
G02*
X177897000Y-114382000I51000J0D01*
G01*
X179497000Y-114382000D01*
G75*
G02*
X179548000Y-114433000I0J-51000D01*
G01*
G37*
X165997000Y-97453000D03*
X178697000Y-112693000D03*
X165997000Y-99993000D03*
X178697000Y-110153000D03*
X165997000Y-102533000D03*
X178697000Y-107613000D03*
X165997000Y-105073000D03*
X178697000Y-105073000D03*
X165997000Y-107613000D03*
X178697000Y-102533000D03*
X165997000Y-110153000D03*
X178697000Y-99993000D03*
X165997000Y-112693000D03*
X178697000Y-97453000D03*
X165997000Y-115233000D03*
G36*
G01*
X115246000Y-102737298D02*
X115246000Y-101728702D01*
G75*
G02*
X115517702Y-101457000I271702J0D01*
G01*
X116251298Y-101457000D01*
G75*
G02*
X116523000Y-101728702I0J-271702D01*
G01*
X116523000Y-102737298D01*
G75*
G02*
X116251298Y-103009000I-271702J0D01*
G01*
X115517702Y-103009000D01*
G75*
G02*
X115246000Y-102737298I0J271702D01*
G01*
G37*
G36*
G01*
X117321000Y-102737298D02*
X117321000Y-101728702D01*
G75*
G02*
X117592702Y-101457000I271702J0D01*
G01*
X118326298Y-101457000D01*
G75*
G02*
X118598000Y-101728702I0J-271702D01*
G01*
X118598000Y-102737298D01*
G75*
G02*
X118326298Y-103009000I-271702J0D01*
G01*
X117592702Y-103009000D01*
G75*
G02*
X117321000Y-102737298I0J271702D01*
G01*
G37*
G36*
G01*
X97346000Y-134770106D02*
X97346000Y-133453894D01*
G75*
G02*
X97613894Y-133186000I267894J0D01*
G01*
X98605106Y-133186000D01*
G75*
G02*
X98873000Y-133453894I0J-267894D01*
G01*
X98873000Y-134770106D01*
G75*
G02*
X98605106Y-135038000I-267894J0D01*
G01*
X97613894Y-135038000D01*
G75*
G02*
X97346000Y-134770106I0J267894D01*
G01*
G37*
G36*
G01*
X100321000Y-134770106D02*
X100321000Y-133453894D01*
G75*
G02*
X100588894Y-133186000I267894J0D01*
G01*
X101580106Y-133186000D01*
G75*
G02*
X101848000Y-133453894I0J-267894D01*
G01*
X101848000Y-134770106D01*
G75*
G02*
X101580106Y-135038000I-267894J0D01*
G01*
X100588894Y-135038000D01*
G75*
G02*
X100321000Y-134770106I0J267894D01*
G01*
G37*
D12*
X87522000Y-48808000D03*
X82442000Y-48808000D03*
X77362000Y-48808000D03*
X72282000Y-48808000D03*
X67202000Y-48808000D03*
X62122000Y-48808000D03*
X57042000Y-48808000D03*
X51962000Y-48808000D03*
X46882000Y-48808000D03*
X41802000Y-48808000D03*
X36722000Y-48808000D03*
X31642000Y-48808000D03*
X25572000Y-70358000D03*
X30652000Y-70358000D03*
X35732000Y-70358000D03*
X40812000Y-70358000D03*
X45892000Y-70358000D03*
X50972000Y-70358000D03*
X56052000Y-70358000D03*
X61132000Y-70358000D03*
X66212000Y-70358000D03*
X71292000Y-70358000D03*
X76372000Y-70358000D03*
X81452000Y-70358000D03*
X128642000Y-48808000D03*
X133702000Y-48808000D03*
X138782000Y-48808000D03*
X143862000Y-48808000D03*
X148942000Y-48808000D03*
X154022000Y-48808000D03*
X159102000Y-48808000D03*
X164182000Y-48808000D03*
X169262000Y-48808000D03*
X174342000Y-48808000D03*
X179422000Y-48808000D03*
X184502000Y-48808000D03*
X122572000Y-70358000D03*
X127652000Y-70358000D03*
X132732000Y-70358000D03*
X137812000Y-70358000D03*
X142892000Y-70358000D03*
X147972000Y-70358000D03*
X153052000Y-70358000D03*
X158132000Y-70358000D03*
X163212000Y-70358000D03*
X168292000Y-70358000D03*
X173372000Y-70358000D03*
X178452000Y-70358000D03*
X184532000Y-137288000D03*
X179452000Y-137288000D03*
X174372000Y-137288000D03*
X169292000Y-137288000D03*
X164212000Y-137288000D03*
X159132000Y-137288000D03*
X154052000Y-137288000D03*
X148972000Y-137288000D03*
X143892000Y-137288000D03*
X138812000Y-137288000D03*
X133732000Y-137288000D03*
X128652000Y-137288000D03*
X178452000Y-158858000D03*
X173372000Y-158858000D03*
X168292000Y-158858000D03*
X163212000Y-158858000D03*
X158132000Y-158858000D03*
X153052000Y-158858000D03*
X147972000Y-158858000D03*
X142892000Y-158858000D03*
X137812000Y-158858000D03*
X132732000Y-158858000D03*
X127652000Y-158858000D03*
X122572000Y-158858000D03*
X22882000Y-137308000D03*
X27962000Y-137308000D03*
X33042000Y-137308000D03*
X38122000Y-137308000D03*
X43202000Y-137308000D03*
X48282000Y-137308000D03*
X53362000Y-137308000D03*
X58442000Y-137308000D03*
X63522000Y-137308000D03*
X68602000Y-137308000D03*
X73682000Y-137308000D03*
X78762000Y-137308000D03*
G36*
G01*
X185973346Y-123769000D02*
X184210654Y-123769000D01*
G75*
G02*
X183946000Y-123504346I0J264654D01*
G01*
X183946000Y-122191654D01*
G75*
G02*
X184210654Y-121927000I264654J0D01*
G01*
X185973346Y-121927000D01*
G75*
G02*
X186238000Y-122191654I0J-264654D01*
G01*
X186238000Y-123504346D01*
G75*
G02*
X185973346Y-123769000I-264654J0D01*
G01*
G37*
D13*
X185092000Y-120308000D03*
X185092000Y-117768000D03*
X185052000Y-126588000D03*
X185052000Y-129128000D03*
G36*
G01*
X185933346Y-132589000D02*
X184170654Y-132589000D01*
G75*
G02*
X183906000Y-132324346I0J264654D01*
G01*
X183906000Y-131011654D01*
G75*
G02*
X184170654Y-130747000I264654J0D01*
G01*
X185933346Y-130747000D01*
G75*
G02*
X186198000Y-131011654I0J-264654D01*
G01*
X186198000Y-132324346D01*
G75*
G02*
X185933346Y-132589000I-264654J0D01*
G01*
G37*
G36*
G01*
X97046000Y-137996250D02*
X97046000Y-135819750D01*
G75*
G02*
X97308750Y-135557000I262750J0D01*
G01*
X98885250Y-135557000D01*
G75*
G02*
X99148000Y-135819750I0J-262750D01*
G01*
X99148000Y-137996250D01*
G75*
G02*
X98885250Y-138259000I-262750J0D01*
G01*
X97308750Y-138259000D01*
G75*
G02*
X97046000Y-137996250I0J262750D01*
G01*
G37*
D14*
X101597000Y-136908000D03*
D10*
X27522000Y-19620000D03*
X25022000Y-19620000D03*
X22522000Y-19620000D03*
G36*
G01*
X19121000Y-20381000D02*
X19121000Y-18859000D01*
G75*
G02*
X19386000Y-18594000I265000J0D01*
G01*
X20658000Y-18594000D01*
G75*
G02*
X20923000Y-18859000I0J-265000D01*
G01*
X20923000Y-20381000D01*
G75*
G02*
X20658000Y-20646000I-265000J0D01*
G01*
X19386000Y-20646000D01*
G75*
G02*
X19121000Y-20381000I0J265000D01*
G01*
G37*
X41122000Y-19620000D03*
X38622000Y-19620000D03*
X36122000Y-19620000D03*
G36*
G01*
X32721000Y-20381000D02*
X32721000Y-18859000D01*
G75*
G02*
X32986000Y-18594000I265000J0D01*
G01*
X34258000Y-18594000D01*
G75*
G02*
X34523000Y-18859000I0J-265000D01*
G01*
X34523000Y-20381000D01*
G75*
G02*
X34258000Y-20646000I-265000J0D01*
G01*
X32986000Y-20646000D01*
G75*
G02*
X32721000Y-20381000I0J265000D01*
G01*
G37*
G36*
G01*
X46321000Y-20381000D02*
X46321000Y-18859000D01*
G75*
G02*
X46586000Y-18594000I265000J0D01*
G01*
X47858000Y-18594000D01*
G75*
G02*
X48123000Y-18859000I0J-265000D01*
G01*
X48123000Y-20381000D01*
G75*
G02*
X47858000Y-20646000I-265000J0D01*
G01*
X46586000Y-20646000D01*
G75*
G02*
X46321000Y-20381000I0J265000D01*
G01*
G37*
X49722000Y-19620000D03*
X52222000Y-19620000D03*
X54722000Y-19620000D03*
G36*
G01*
X119021000Y-20381000D02*
X119021000Y-18859000D01*
G75*
G02*
X119286000Y-18594000I265000J0D01*
G01*
X120558000Y-18594000D01*
G75*
G02*
X120823000Y-18859000I0J-265000D01*
G01*
X120823000Y-20381000D01*
G75*
G02*
X120558000Y-20646000I-265000J0D01*
G01*
X119286000Y-20646000D01*
G75*
G02*
X119021000Y-20381000I0J265000D01*
G01*
G37*
X122422000Y-19620000D03*
X124922000Y-19620000D03*
X127422000Y-19620000D03*
X95622000Y-19620000D03*
X93122000Y-19620000D03*
X90622000Y-19620000D03*
G36*
G01*
X87221000Y-20381000D02*
X87221000Y-18859000D01*
G75*
G02*
X87486000Y-18594000I265000J0D01*
G01*
X88758000Y-18594000D01*
G75*
G02*
X89023000Y-18859000I0J-265000D01*
G01*
X89023000Y-20381000D01*
G75*
G02*
X88758000Y-20646000I-265000J0D01*
G01*
X87486000Y-20646000D01*
G75*
G02*
X87221000Y-20381000I0J265000D01*
G01*
G37*
G36*
G01*
X73521000Y-20381000D02*
X73521000Y-18859000D01*
G75*
G02*
X73786000Y-18594000I265000J0D01*
G01*
X75058000Y-18594000D01*
G75*
G02*
X75323000Y-18859000I0J-265000D01*
G01*
X75323000Y-20381000D01*
G75*
G02*
X75058000Y-20646000I-265000J0D01*
G01*
X73786000Y-20646000D01*
G75*
G02*
X73521000Y-20381000I0J265000D01*
G01*
G37*
X76922000Y-19620000D03*
X79422000Y-19620000D03*
X81922000Y-19620000D03*
D15*
X18712000Y-76110000D03*
G36*
G01*
X19366752Y-78761000D02*
X18057248Y-78761000D01*
G75*
G02*
X17786000Y-78489752I0J271248D01*
G01*
X17786000Y-77730248D01*
G75*
G02*
X18057248Y-77459000I271248J0D01*
G01*
X19366752Y-77459000D01*
G75*
G02*
X19638000Y-77730248I0J-271248D01*
G01*
X19638000Y-78489752D01*
G75*
G02*
X19366752Y-78761000I-271248J0D01*
G01*
G37*
G36*
G01*
X19366752Y-86161000D02*
X18057248Y-86161000D01*
G75*
G02*
X17786000Y-85889752I0J271248D01*
G01*
X17786000Y-85130248D01*
G75*
G02*
X18057248Y-84859000I271248J0D01*
G01*
X19366752Y-84859000D01*
G75*
G02*
X19638000Y-85130248I0J-271248D01*
G01*
X19638000Y-85889752D01*
G75*
G02*
X19366752Y-86161000I-271248J0D01*
G01*
G37*
X18712000Y-83510000D03*
G36*
G01*
X19366752Y-93661000D02*
X18057248Y-93661000D01*
G75*
G02*
X17786000Y-93389752I0J271248D01*
G01*
X17786000Y-92630248D01*
G75*
G02*
X18057248Y-92359000I271248J0D01*
G01*
X19366752Y-92359000D01*
G75*
G02*
X19638000Y-92630248I0J-271248D01*
G01*
X19638000Y-93389752D01*
G75*
G02*
X19366752Y-93661000I-271248J0D01*
G01*
G37*
X18712000Y-91010000D03*
D16*
X24342000Y-131888000D03*
X24342000Y-120488000D03*
D17*
X24342000Y-128488000D03*
X24342000Y-123888000D03*
D18*
G36*
X99149165Y-137994624D02*
G01*
X99150000Y-137996250D01*
X99150000Y-138083860D01*
X99149990Y-138084056D01*
X99146150Y-138123048D01*
X99146074Y-138123433D01*
X99136491Y-138155024D01*
X99136341Y-138155386D01*
X99120779Y-138184500D01*
X99120561Y-138184826D01*
X99099620Y-138210343D01*
X99099343Y-138210620D01*
X99073826Y-138231561D01*
X99073500Y-138231779D01*
X99044386Y-138247341D01*
X99044024Y-138247491D01*
X99012433Y-138257074D01*
X99012048Y-138257150D01*
X98973056Y-138260990D01*
X98972860Y-138261000D01*
X98885250Y-138261000D01*
X98883518Y-138260000D01*
X98883518Y-138258000D01*
X98885054Y-138257010D01*
X98936115Y-138251981D01*
X98985031Y-138237142D01*
X99030110Y-138213048D01*
X99069621Y-138180621D01*
X99102048Y-138141110D01*
X99126142Y-138096031D01*
X99140981Y-138047115D01*
X99146010Y-137996054D01*
X99147175Y-137994428D01*
X99149165Y-137994624D01*
G37*
G36*
X97047990Y-137996054D02*
G01*
X97053019Y-138047115D01*
X97067858Y-138096031D01*
X97091952Y-138141110D01*
X97124379Y-138180621D01*
X97163890Y-138213048D01*
X97208969Y-138237142D01*
X97257885Y-138251981D01*
X97308946Y-138257010D01*
X97310572Y-138258175D01*
X97310376Y-138260165D01*
X97308750Y-138261000D01*
X97221140Y-138261000D01*
X97220944Y-138260990D01*
X97181952Y-138257150D01*
X97181567Y-138257074D01*
X97149976Y-138247491D01*
X97149614Y-138247341D01*
X97120500Y-138231779D01*
X97120174Y-138231561D01*
X97094657Y-138210620D01*
X97094380Y-138210343D01*
X97073439Y-138184826D01*
X97073221Y-138184500D01*
X97057659Y-138155386D01*
X97057509Y-138155024D01*
X97047926Y-138123433D01*
X97047850Y-138123048D01*
X97044010Y-138084056D01*
X97044000Y-138083860D01*
X97044000Y-137996250D01*
X97045000Y-137994518D01*
X97047000Y-137994518D01*
X97047990Y-137996054D01*
G37*
G36*
X97310482Y-135556000D02*
G01*
X97310482Y-135558000D01*
X97308946Y-135558990D01*
X97257885Y-135564019D01*
X97208969Y-135578858D01*
X97163890Y-135602952D01*
X97124379Y-135635379D01*
X97091952Y-135674890D01*
X97067858Y-135719969D01*
X97053019Y-135768885D01*
X97047990Y-135819946D01*
X97046825Y-135821572D01*
X97044835Y-135821376D01*
X97044000Y-135819750D01*
X97044000Y-135732140D01*
X97044010Y-135731944D01*
X97047850Y-135692952D01*
X97047926Y-135692567D01*
X97057509Y-135660976D01*
X97057659Y-135660614D01*
X97073221Y-135631500D01*
X97073439Y-135631174D01*
X97094380Y-135605657D01*
X97094657Y-135605380D01*
X97120174Y-135584439D01*
X97120500Y-135584221D01*
X97149614Y-135568659D01*
X97149976Y-135568509D01*
X97181567Y-135558926D01*
X97181952Y-135558850D01*
X97220944Y-135555010D01*
X97221140Y-135555000D01*
X97308750Y-135555000D01*
X97310482Y-135556000D01*
G37*
G36*
X98973056Y-135555010D02*
G01*
X99012048Y-135558850D01*
X99012433Y-135558926D01*
X99044024Y-135568509D01*
X99044386Y-135568659D01*
X99073500Y-135584221D01*
X99073826Y-135584439D01*
X99099343Y-135605380D01*
X99099620Y-135605657D01*
X99120561Y-135631174D01*
X99120779Y-135631500D01*
X99136341Y-135660614D01*
X99136491Y-135660976D01*
X99146074Y-135692567D01*
X99146150Y-135692952D01*
X99149990Y-135731944D01*
X99150000Y-135732140D01*
X99150000Y-135819750D01*
X99149000Y-135821482D01*
X99147000Y-135821482D01*
X99146010Y-135819946D01*
X99140981Y-135768885D01*
X99126142Y-135719969D01*
X99102048Y-135674890D01*
X99069621Y-135635379D01*
X99030110Y-135602952D01*
X98985031Y-135578858D01*
X98936115Y-135564019D01*
X98885054Y-135558990D01*
X98883428Y-135557825D01*
X98883624Y-135555835D01*
X98885250Y-135555000D01*
X98972860Y-135555000D01*
X98973056Y-135555010D01*
G37*
G36*
X186199165Y-132322720D02*
G01*
X186200000Y-132324346D01*
X186200000Y-132407288D01*
X186199990Y-132407484D01*
X186196024Y-132447756D01*
X186195948Y-132448141D01*
X186185990Y-132480965D01*
X186185840Y-132481327D01*
X186169672Y-132511575D01*
X186169454Y-132511901D01*
X186147694Y-132538417D01*
X186147417Y-132538694D01*
X186120901Y-132560454D01*
X186120575Y-132560672D01*
X186090327Y-132576840D01*
X186089965Y-132576990D01*
X186057141Y-132586948D01*
X186056756Y-132587024D01*
X186016484Y-132590990D01*
X186016288Y-132591000D01*
X185933346Y-132591000D01*
X185931614Y-132590000D01*
X185931614Y-132588000D01*
X185933150Y-132587010D01*
X185984582Y-132581945D01*
X186033856Y-132566997D01*
X186079264Y-132542727D01*
X186119064Y-132510064D01*
X186151727Y-132470264D01*
X186175997Y-132424856D01*
X186190945Y-132375582D01*
X186196010Y-132324150D01*
X186197175Y-132322524D01*
X186199165Y-132322720D01*
G37*
G36*
X183907990Y-132324150D02*
G01*
X183913055Y-132375582D01*
X183928003Y-132424856D01*
X183952273Y-132470264D01*
X183984936Y-132510064D01*
X184024736Y-132542727D01*
X184070144Y-132566997D01*
X184119418Y-132581945D01*
X184170850Y-132587010D01*
X184172476Y-132588175D01*
X184172280Y-132590165D01*
X184170654Y-132591000D01*
X184087712Y-132591000D01*
X184087516Y-132590990D01*
X184047244Y-132587024D01*
X184046859Y-132586948D01*
X184014035Y-132576990D01*
X184013673Y-132576840D01*
X183983425Y-132560672D01*
X183983099Y-132560454D01*
X183956583Y-132538694D01*
X183956306Y-132538417D01*
X183934546Y-132511901D01*
X183934328Y-132511575D01*
X183918160Y-132481327D01*
X183918010Y-132480965D01*
X183908052Y-132448141D01*
X183907976Y-132447756D01*
X183904010Y-132407484D01*
X183904000Y-132407288D01*
X183904000Y-132324346D01*
X183905000Y-132322614D01*
X183907000Y-132322614D01*
X183907990Y-132324150D01*
G37*
G36*
X184172386Y-130746000D02*
G01*
X184172386Y-130748000D01*
X184170850Y-130748990D01*
X184119418Y-130754055D01*
X184070144Y-130769003D01*
X184024736Y-130793273D01*
X183984936Y-130825936D01*
X183952273Y-130865736D01*
X183928003Y-130911144D01*
X183913055Y-130960418D01*
X183907990Y-131011850D01*
X183906825Y-131013476D01*
X183904835Y-131013280D01*
X183904000Y-131011654D01*
X183904000Y-130928712D01*
X183904010Y-130928516D01*
X183907976Y-130888244D01*
X183908052Y-130887859D01*
X183918010Y-130855035D01*
X183918160Y-130854673D01*
X183934328Y-130824425D01*
X183934546Y-130824099D01*
X183956306Y-130797583D01*
X183956583Y-130797306D01*
X183983099Y-130775546D01*
X183983425Y-130775328D01*
X184013673Y-130759160D01*
X184014035Y-130759010D01*
X184046859Y-130749052D01*
X184047244Y-130748976D01*
X184087516Y-130745010D01*
X184087712Y-130745000D01*
X184170654Y-130745000D01*
X184172386Y-130746000D01*
G37*
G36*
X186016484Y-130745010D02*
G01*
X186056756Y-130748976D01*
X186057141Y-130749052D01*
X186089965Y-130759010D01*
X186090327Y-130759160D01*
X186120575Y-130775328D01*
X186120901Y-130775546D01*
X186147417Y-130797306D01*
X186147694Y-130797583D01*
X186169454Y-130824099D01*
X186169672Y-130824425D01*
X186185840Y-130854673D01*
X186185990Y-130855035D01*
X186195948Y-130887859D01*
X186196024Y-130888244D01*
X186199990Y-130928516D01*
X186200000Y-130928712D01*
X186200000Y-131011654D01*
X186199000Y-131013386D01*
X186197000Y-131013386D01*
X186196010Y-131011850D01*
X186190945Y-130960418D01*
X186175997Y-130911144D01*
X186151727Y-130865736D01*
X186119064Y-130825936D01*
X186079264Y-130793273D01*
X186033856Y-130769003D01*
X185984582Y-130754055D01*
X185933150Y-130748990D01*
X185931524Y-130747825D01*
X185931720Y-130745835D01*
X185933346Y-130745000D01*
X186016288Y-130745000D01*
X186016484Y-130745010D01*
G37*
G36*
X186239165Y-123502720D02*
G01*
X186240000Y-123504346D01*
X186240000Y-123587288D01*
X186239990Y-123587484D01*
X186236024Y-123627756D01*
X186235948Y-123628141D01*
X186225990Y-123660965D01*
X186225840Y-123661327D01*
X186209672Y-123691575D01*
X186209454Y-123691901D01*
X186187694Y-123718417D01*
X186187417Y-123718694D01*
X186160901Y-123740454D01*
X186160575Y-123740672D01*
X186130327Y-123756840D01*
X186129965Y-123756990D01*
X186097141Y-123766948D01*
X186096756Y-123767024D01*
X186056484Y-123770990D01*
X186056288Y-123771000D01*
X185973346Y-123771000D01*
X185971614Y-123770000D01*
X185971614Y-123768000D01*
X185973150Y-123767010D01*
X186024582Y-123761945D01*
X186073856Y-123746997D01*
X186119264Y-123722727D01*
X186159064Y-123690064D01*
X186191727Y-123650264D01*
X186215997Y-123604856D01*
X186230945Y-123555582D01*
X186236010Y-123504150D01*
X186237175Y-123502524D01*
X186239165Y-123502720D01*
G37*
G36*
X183947990Y-123504150D02*
G01*
X183953055Y-123555582D01*
X183968003Y-123604856D01*
X183992273Y-123650264D01*
X184024936Y-123690064D01*
X184064736Y-123722727D01*
X184110144Y-123746997D01*
X184159418Y-123761945D01*
X184210850Y-123767010D01*
X184212476Y-123768175D01*
X184212280Y-123770165D01*
X184210654Y-123771000D01*
X184127712Y-123771000D01*
X184127516Y-123770990D01*
X184087244Y-123767024D01*
X184086859Y-123766948D01*
X184054035Y-123756990D01*
X184053673Y-123756840D01*
X184023425Y-123740672D01*
X184023099Y-123740454D01*
X183996583Y-123718694D01*
X183996306Y-123718417D01*
X183974546Y-123691901D01*
X183974328Y-123691575D01*
X183958160Y-123661327D01*
X183958010Y-123660965D01*
X183948052Y-123628141D01*
X183947976Y-123627756D01*
X183944010Y-123587484D01*
X183944000Y-123587288D01*
X183944000Y-123504346D01*
X183945000Y-123502614D01*
X183947000Y-123502614D01*
X183947990Y-123504150D01*
G37*
G36*
X184212386Y-121926000D02*
G01*
X184212386Y-121928000D01*
X184210850Y-121928990D01*
X184159418Y-121934055D01*
X184110144Y-121949003D01*
X184064736Y-121973273D01*
X184024936Y-122005936D01*
X183992273Y-122045736D01*
X183968003Y-122091144D01*
X183953055Y-122140418D01*
X183947990Y-122191850D01*
X183946825Y-122193476D01*
X183944835Y-122193280D01*
X183944000Y-122191654D01*
X183944000Y-122108712D01*
X183944010Y-122108516D01*
X183947976Y-122068244D01*
X183948052Y-122067859D01*
X183958010Y-122035035D01*
X183958160Y-122034673D01*
X183974328Y-122004425D01*
X183974546Y-122004099D01*
X183996306Y-121977583D01*
X183996583Y-121977306D01*
X184023099Y-121955546D01*
X184023425Y-121955328D01*
X184053673Y-121939160D01*
X184054035Y-121939010D01*
X184086859Y-121929052D01*
X184087244Y-121928976D01*
X184127516Y-121925010D01*
X184127712Y-121925000D01*
X184210654Y-121925000D01*
X184212386Y-121926000D01*
G37*
G36*
X186056484Y-121925010D02*
G01*
X186096756Y-121928976D01*
X186097141Y-121929052D01*
X186129965Y-121939010D01*
X186130327Y-121939160D01*
X186160575Y-121955328D01*
X186160901Y-121955546D01*
X186187417Y-121977306D01*
X186187694Y-121977583D01*
X186209454Y-122004099D01*
X186209672Y-122004425D01*
X186225840Y-122034673D01*
X186225990Y-122035035D01*
X186235948Y-122067859D01*
X186236024Y-122068244D01*
X186239990Y-122108516D01*
X186240000Y-122108712D01*
X186240000Y-122191654D01*
X186239000Y-122193386D01*
X186237000Y-122193386D01*
X186236010Y-122191850D01*
X186230945Y-122140418D01*
X186215997Y-122091144D01*
X186191727Y-122045736D01*
X186159064Y-122005936D01*
X186119264Y-121973273D01*
X186073856Y-121949003D01*
X186024582Y-121934055D01*
X185973150Y-121928990D01*
X185971524Y-121927825D01*
X185971720Y-121925835D01*
X185973346Y-121925000D01*
X186056288Y-121925000D01*
X186056484Y-121925010D01*
G37*
G36*
X159820990Y-20380804D02*
G01*
X159826062Y-20432304D01*
X159841029Y-20481642D01*
X159865332Y-20527110D01*
X159898038Y-20566962D01*
X159937890Y-20599668D01*
X159983358Y-20623971D01*
X160032696Y-20638938D01*
X160084196Y-20644010D01*
X160085822Y-20645175D01*
X160085626Y-20647165D01*
X160084000Y-20648000D01*
X160001903Y-20648000D01*
X160001707Y-20647990D01*
X159961204Y-20644001D01*
X159960819Y-20643925D01*
X159927767Y-20633899D01*
X159927405Y-20633749D01*
X159896954Y-20617472D01*
X159896628Y-20617254D01*
X159869932Y-20595345D01*
X159869655Y-20595068D01*
X159847746Y-20568372D01*
X159847528Y-20568046D01*
X159831251Y-20537595D01*
X159831101Y-20537233D01*
X159821075Y-20504181D01*
X159820999Y-20503796D01*
X159817010Y-20463293D01*
X159817000Y-20463097D01*
X159817000Y-20381000D01*
X159818000Y-20379268D01*
X159820000Y-20379268D01*
X159820990Y-20380804D01*
G37*
G36*
X173420990Y-20380804D02*
G01*
X173426062Y-20432304D01*
X173441029Y-20481642D01*
X173465332Y-20527110D01*
X173498038Y-20566962D01*
X173537890Y-20599668D01*
X173583358Y-20623971D01*
X173632696Y-20638938D01*
X173684196Y-20644010D01*
X173685822Y-20645175D01*
X173685626Y-20647165D01*
X173684000Y-20648000D01*
X173601903Y-20648000D01*
X173601707Y-20647990D01*
X173561204Y-20644001D01*
X173560819Y-20643925D01*
X173527767Y-20633899D01*
X173527405Y-20633749D01*
X173496954Y-20617472D01*
X173496628Y-20617254D01*
X173469932Y-20595345D01*
X173469655Y-20595068D01*
X173447746Y-20568372D01*
X173447528Y-20568046D01*
X173431251Y-20537595D01*
X173431101Y-20537233D01*
X173421075Y-20504181D01*
X173420999Y-20503796D01*
X173417010Y-20463293D01*
X173417000Y-20463097D01*
X173417000Y-20381000D01*
X173418000Y-20379268D01*
X173420000Y-20379268D01*
X173420990Y-20380804D01*
G37*
G36*
X75324165Y-20379374D02*
G01*
X75325000Y-20381000D01*
X75325000Y-20463097D01*
X75324990Y-20463293D01*
X75321001Y-20503796D01*
X75320925Y-20504181D01*
X75310899Y-20537233D01*
X75310749Y-20537595D01*
X75294472Y-20568046D01*
X75294254Y-20568372D01*
X75272345Y-20595068D01*
X75272068Y-20595345D01*
X75245372Y-20617254D01*
X75245046Y-20617472D01*
X75214595Y-20633749D01*
X75214233Y-20633899D01*
X75181181Y-20643925D01*
X75180796Y-20644001D01*
X75140293Y-20647990D01*
X75140097Y-20648000D01*
X75058000Y-20648000D01*
X75056268Y-20647000D01*
X75056268Y-20645000D01*
X75057804Y-20644010D01*
X75109304Y-20638938D01*
X75158642Y-20623971D01*
X75204110Y-20599668D01*
X75243962Y-20566962D01*
X75276668Y-20527110D01*
X75300971Y-20481642D01*
X75315938Y-20432304D01*
X75321010Y-20380804D01*
X75322175Y-20379178D01*
X75324165Y-20379374D01*
G37*
G36*
X119022990Y-20380804D02*
G01*
X119028062Y-20432304D01*
X119043029Y-20481642D01*
X119067332Y-20527110D01*
X119100038Y-20566962D01*
X119139890Y-20599668D01*
X119185358Y-20623971D01*
X119234696Y-20638938D01*
X119286196Y-20644010D01*
X119287822Y-20645175D01*
X119287626Y-20647165D01*
X119286000Y-20648000D01*
X119203903Y-20648000D01*
X119203707Y-20647990D01*
X119163204Y-20644001D01*
X119162819Y-20643925D01*
X119129767Y-20633899D01*
X119129405Y-20633749D01*
X119098954Y-20617472D01*
X119098628Y-20617254D01*
X119071932Y-20595345D01*
X119071655Y-20595068D01*
X119049746Y-20568372D01*
X119049528Y-20568046D01*
X119033251Y-20537595D01*
X119033101Y-20537233D01*
X119023075Y-20504181D01*
X119022999Y-20503796D01*
X119019010Y-20463293D01*
X119019000Y-20463097D01*
X119019000Y-20381000D01*
X119020000Y-20379268D01*
X119022000Y-20379268D01*
X119022990Y-20380804D01*
G37*
G36*
X132620990Y-20380804D02*
G01*
X132626062Y-20432304D01*
X132641029Y-20481642D01*
X132665332Y-20527110D01*
X132698038Y-20566962D01*
X132737890Y-20599668D01*
X132783358Y-20623971D01*
X132832696Y-20638938D01*
X132884196Y-20644010D01*
X132885822Y-20645175D01*
X132885626Y-20647165D01*
X132884000Y-20648000D01*
X132801903Y-20648000D01*
X132801707Y-20647990D01*
X132761204Y-20644001D01*
X132760819Y-20643925D01*
X132727767Y-20633899D01*
X132727405Y-20633749D01*
X132696954Y-20617472D01*
X132696628Y-20617254D01*
X132669932Y-20595345D01*
X132669655Y-20595068D01*
X132647746Y-20568372D01*
X132647528Y-20568046D01*
X132631251Y-20537595D01*
X132631101Y-20537233D01*
X132621075Y-20504181D01*
X132620999Y-20503796D01*
X132617010Y-20463293D01*
X132617000Y-20463097D01*
X132617000Y-20381000D01*
X132618000Y-20379268D01*
X132620000Y-20379268D01*
X132620990Y-20380804D01*
G37*
G36*
X87222990Y-20380804D02*
G01*
X87228062Y-20432304D01*
X87243029Y-20481642D01*
X87267332Y-20527110D01*
X87300038Y-20566962D01*
X87339890Y-20599668D01*
X87385358Y-20623971D01*
X87434696Y-20638938D01*
X87486196Y-20644010D01*
X87487822Y-20645175D01*
X87487626Y-20647165D01*
X87486000Y-20648000D01*
X87403903Y-20648000D01*
X87403707Y-20647990D01*
X87363204Y-20644001D01*
X87362819Y-20643925D01*
X87329767Y-20633899D01*
X87329405Y-20633749D01*
X87298954Y-20617472D01*
X87298628Y-20617254D01*
X87271932Y-20595345D01*
X87271655Y-20595068D01*
X87249746Y-20568372D01*
X87249528Y-20568046D01*
X87233251Y-20537595D01*
X87233101Y-20537233D01*
X87223075Y-20504181D01*
X87222999Y-20503796D01*
X87219010Y-20463293D01*
X87219000Y-20463097D01*
X87219000Y-20381000D01*
X87220000Y-20379268D01*
X87222000Y-20379268D01*
X87222990Y-20380804D01*
G37*
G36*
X73522990Y-20380804D02*
G01*
X73528062Y-20432304D01*
X73543029Y-20481642D01*
X73567332Y-20527110D01*
X73600038Y-20566962D01*
X73639890Y-20599668D01*
X73685358Y-20623971D01*
X73734696Y-20638938D01*
X73786196Y-20644010D01*
X73787822Y-20645175D01*
X73787626Y-20647165D01*
X73786000Y-20648000D01*
X73703903Y-20648000D01*
X73703707Y-20647990D01*
X73663204Y-20644001D01*
X73662819Y-20643925D01*
X73629767Y-20633899D01*
X73629405Y-20633749D01*
X73598954Y-20617472D01*
X73598628Y-20617254D01*
X73571932Y-20595345D01*
X73571655Y-20595068D01*
X73549746Y-20568372D01*
X73549528Y-20568046D01*
X73533251Y-20537595D01*
X73533101Y-20537233D01*
X73523075Y-20504181D01*
X73522999Y-20503796D01*
X73519010Y-20463293D01*
X73519000Y-20463097D01*
X73519000Y-20381000D01*
X73520000Y-20379268D01*
X73522000Y-20379268D01*
X73522990Y-20380804D01*
G37*
G36*
X146220990Y-20380804D02*
G01*
X146226062Y-20432304D01*
X146241029Y-20481642D01*
X146265332Y-20527110D01*
X146298038Y-20566962D01*
X146337890Y-20599668D01*
X146383358Y-20623971D01*
X146432696Y-20638938D01*
X146484196Y-20644010D01*
X146485822Y-20645175D01*
X146485626Y-20647165D01*
X146484000Y-20648000D01*
X146401903Y-20648000D01*
X146401707Y-20647990D01*
X146361204Y-20644001D01*
X146360819Y-20643925D01*
X146327767Y-20633899D01*
X146327405Y-20633749D01*
X146296954Y-20617472D01*
X146296628Y-20617254D01*
X146269932Y-20595345D01*
X146269655Y-20595068D01*
X146247746Y-20568372D01*
X146247528Y-20568046D01*
X146231251Y-20537595D01*
X146231101Y-20537233D01*
X146221075Y-20504181D01*
X146220999Y-20503796D01*
X146217010Y-20463293D01*
X146217000Y-20463097D01*
X146217000Y-20381000D01*
X146218000Y-20379268D01*
X146220000Y-20379268D01*
X146220990Y-20380804D01*
G37*
G36*
X59920990Y-20380804D02*
G01*
X59926062Y-20432304D01*
X59941029Y-20481642D01*
X59965332Y-20527110D01*
X59998038Y-20566962D01*
X60037890Y-20599668D01*
X60083358Y-20623971D01*
X60132696Y-20638938D01*
X60184196Y-20644010D01*
X60185822Y-20645175D01*
X60185626Y-20647165D01*
X60184000Y-20648000D01*
X60101903Y-20648000D01*
X60101707Y-20647990D01*
X60061204Y-20644001D01*
X60060819Y-20643925D01*
X60027767Y-20633899D01*
X60027405Y-20633749D01*
X59996954Y-20617472D01*
X59996628Y-20617254D01*
X59969932Y-20595345D01*
X59969655Y-20595068D01*
X59947746Y-20568372D01*
X59947528Y-20568046D01*
X59931251Y-20537595D01*
X59931101Y-20537233D01*
X59921075Y-20504181D01*
X59920999Y-20503796D01*
X59917010Y-20463293D01*
X59917000Y-20463097D01*
X59917000Y-20381000D01*
X59918000Y-20379268D01*
X59920000Y-20379268D01*
X59920990Y-20380804D01*
G37*
G36*
X46322990Y-20380804D02*
G01*
X46328062Y-20432304D01*
X46343029Y-20481642D01*
X46367332Y-20527110D01*
X46400038Y-20566962D01*
X46439890Y-20599668D01*
X46485358Y-20623971D01*
X46534696Y-20638938D01*
X46586196Y-20644010D01*
X46587822Y-20645175D01*
X46587626Y-20647165D01*
X46586000Y-20648000D01*
X46503903Y-20648000D01*
X46503707Y-20647990D01*
X46463204Y-20644001D01*
X46462819Y-20643925D01*
X46429767Y-20633899D01*
X46429405Y-20633749D01*
X46398954Y-20617472D01*
X46398628Y-20617254D01*
X46371932Y-20595345D01*
X46371655Y-20595068D01*
X46349746Y-20568372D01*
X46349528Y-20568046D01*
X46333251Y-20537595D01*
X46333101Y-20537233D01*
X46323075Y-20504181D01*
X46322999Y-20503796D01*
X46319010Y-20463293D01*
X46319000Y-20463097D01*
X46319000Y-20381000D01*
X46320000Y-20379268D01*
X46322000Y-20379268D01*
X46322990Y-20380804D01*
G37*
G36*
X32722990Y-20380804D02*
G01*
X32728062Y-20432304D01*
X32743029Y-20481642D01*
X32767332Y-20527110D01*
X32800038Y-20566962D01*
X32839890Y-20599668D01*
X32885358Y-20623971D01*
X32934696Y-20638938D01*
X32986196Y-20644010D01*
X32987822Y-20645175D01*
X32987626Y-20647165D01*
X32986000Y-20648000D01*
X32903903Y-20648000D01*
X32903707Y-20647990D01*
X32863204Y-20644001D01*
X32862819Y-20643925D01*
X32829767Y-20633899D01*
X32829405Y-20633749D01*
X32798954Y-20617472D01*
X32798628Y-20617254D01*
X32771932Y-20595345D01*
X32771655Y-20595068D01*
X32749746Y-20568372D01*
X32749528Y-20568046D01*
X32733251Y-20537595D01*
X32733101Y-20537233D01*
X32723075Y-20504181D01*
X32722999Y-20503796D01*
X32719010Y-20463293D01*
X32719000Y-20463097D01*
X32719000Y-20381000D01*
X32720000Y-20379268D01*
X32722000Y-20379268D01*
X32722990Y-20380804D01*
G37*
G36*
X34524165Y-20379374D02*
G01*
X34525000Y-20381000D01*
X34525000Y-20463097D01*
X34524990Y-20463293D01*
X34521001Y-20503796D01*
X34520925Y-20504181D01*
X34510899Y-20537233D01*
X34510749Y-20537595D01*
X34494472Y-20568046D01*
X34494254Y-20568372D01*
X34472345Y-20595068D01*
X34472068Y-20595345D01*
X34445372Y-20617254D01*
X34445046Y-20617472D01*
X34414595Y-20633749D01*
X34414233Y-20633899D01*
X34381181Y-20643925D01*
X34380796Y-20644001D01*
X34340293Y-20647990D01*
X34340097Y-20648000D01*
X34258000Y-20648000D01*
X34256268Y-20647000D01*
X34256268Y-20645000D01*
X34257804Y-20644010D01*
X34309304Y-20638938D01*
X34358642Y-20623971D01*
X34404110Y-20599668D01*
X34443962Y-20566962D01*
X34476668Y-20527110D01*
X34500971Y-20481642D01*
X34515938Y-20432304D01*
X34521010Y-20380804D01*
X34522175Y-20379178D01*
X34524165Y-20379374D01*
G37*
G36*
X20924165Y-20379374D02*
G01*
X20925000Y-20381000D01*
X20925000Y-20463097D01*
X20924990Y-20463293D01*
X20921001Y-20503796D01*
X20920925Y-20504181D01*
X20910899Y-20537233D01*
X20910749Y-20537595D01*
X20894472Y-20568046D01*
X20894254Y-20568372D01*
X20872345Y-20595068D01*
X20872068Y-20595345D01*
X20845372Y-20617254D01*
X20845046Y-20617472D01*
X20814595Y-20633749D01*
X20814233Y-20633899D01*
X20781181Y-20643925D01*
X20780796Y-20644001D01*
X20740293Y-20647990D01*
X20740097Y-20648000D01*
X20658000Y-20648000D01*
X20656268Y-20647000D01*
X20656268Y-20645000D01*
X20657804Y-20644010D01*
X20709304Y-20638938D01*
X20758642Y-20623971D01*
X20804110Y-20599668D01*
X20843962Y-20566962D01*
X20876668Y-20527110D01*
X20900971Y-20481642D01*
X20915938Y-20432304D01*
X20921010Y-20380804D01*
X20922175Y-20379178D01*
X20924165Y-20379374D01*
G37*
G36*
X48124165Y-20379374D02*
G01*
X48125000Y-20381000D01*
X48125000Y-20463097D01*
X48124990Y-20463293D01*
X48121001Y-20503796D01*
X48120925Y-20504181D01*
X48110899Y-20537233D01*
X48110749Y-20537595D01*
X48094472Y-20568046D01*
X48094254Y-20568372D01*
X48072345Y-20595068D01*
X48072068Y-20595345D01*
X48045372Y-20617254D01*
X48045046Y-20617472D01*
X48014595Y-20633749D01*
X48014233Y-20633899D01*
X47981181Y-20643925D01*
X47980796Y-20644001D01*
X47940293Y-20647990D01*
X47940097Y-20648000D01*
X47858000Y-20648000D01*
X47856268Y-20647000D01*
X47856268Y-20645000D01*
X47857804Y-20644010D01*
X47909304Y-20638938D01*
X47958642Y-20623971D01*
X48004110Y-20599668D01*
X48043962Y-20566962D01*
X48076668Y-20527110D01*
X48100971Y-20481642D01*
X48115938Y-20432304D01*
X48121010Y-20380804D01*
X48122175Y-20379178D01*
X48124165Y-20379374D01*
G37*
G36*
X61722165Y-20379374D02*
G01*
X61723000Y-20381000D01*
X61723000Y-20463097D01*
X61722990Y-20463293D01*
X61719001Y-20503796D01*
X61718925Y-20504181D01*
X61708899Y-20537233D01*
X61708749Y-20537595D01*
X61692472Y-20568046D01*
X61692254Y-20568372D01*
X61670345Y-20595068D01*
X61670068Y-20595345D01*
X61643372Y-20617254D01*
X61643046Y-20617472D01*
X61612595Y-20633749D01*
X61612233Y-20633899D01*
X61579181Y-20643925D01*
X61578796Y-20644001D01*
X61538293Y-20647990D01*
X61538097Y-20648000D01*
X61456000Y-20648000D01*
X61454268Y-20647000D01*
X61454268Y-20645000D01*
X61455804Y-20644010D01*
X61507304Y-20638938D01*
X61556642Y-20623971D01*
X61602110Y-20599668D01*
X61641962Y-20566962D01*
X61674668Y-20527110D01*
X61698971Y-20481642D01*
X61713938Y-20432304D01*
X61719010Y-20380804D01*
X61720175Y-20379178D01*
X61722165Y-20379374D01*
G37*
G36*
X89024165Y-20379374D02*
G01*
X89025000Y-20381000D01*
X89025000Y-20463097D01*
X89024990Y-20463293D01*
X89021001Y-20503796D01*
X89020925Y-20504181D01*
X89010899Y-20537233D01*
X89010749Y-20537595D01*
X88994472Y-20568046D01*
X88994254Y-20568372D01*
X88972345Y-20595068D01*
X88972068Y-20595345D01*
X88945372Y-20617254D01*
X88945046Y-20617472D01*
X88914595Y-20633749D01*
X88914233Y-20633899D01*
X88881181Y-20643925D01*
X88880796Y-20644001D01*
X88840293Y-20647990D01*
X88840097Y-20648000D01*
X88758000Y-20648000D01*
X88756268Y-20647000D01*
X88756268Y-20645000D01*
X88757804Y-20644010D01*
X88809304Y-20638938D01*
X88858642Y-20623971D01*
X88904110Y-20599668D01*
X88943962Y-20566962D01*
X88976668Y-20527110D01*
X89000971Y-20481642D01*
X89015938Y-20432304D01*
X89021010Y-20380804D01*
X89022175Y-20379178D01*
X89024165Y-20379374D01*
G37*
G36*
X120824165Y-20379374D02*
G01*
X120825000Y-20381000D01*
X120825000Y-20463097D01*
X120824990Y-20463293D01*
X120821001Y-20503796D01*
X120820925Y-20504181D01*
X120810899Y-20537233D01*
X120810749Y-20537595D01*
X120794472Y-20568046D01*
X120794254Y-20568372D01*
X120772345Y-20595068D01*
X120772068Y-20595345D01*
X120745372Y-20617254D01*
X120745046Y-20617472D01*
X120714595Y-20633749D01*
X120714233Y-20633899D01*
X120681181Y-20643925D01*
X120680796Y-20644001D01*
X120640293Y-20647990D01*
X120640097Y-20648000D01*
X120558000Y-20648000D01*
X120556268Y-20647000D01*
X120556268Y-20645000D01*
X120557804Y-20644010D01*
X120609304Y-20638938D01*
X120658642Y-20623971D01*
X120704110Y-20599668D01*
X120743962Y-20566962D01*
X120776668Y-20527110D01*
X120800971Y-20481642D01*
X120815938Y-20432304D01*
X120821010Y-20380804D01*
X120822175Y-20379178D01*
X120824165Y-20379374D01*
G37*
G36*
X134422165Y-20379374D02*
G01*
X134423000Y-20381000D01*
X134423000Y-20463097D01*
X134422990Y-20463293D01*
X134419001Y-20503796D01*
X134418925Y-20504181D01*
X134408899Y-20537233D01*
X134408749Y-20537595D01*
X134392472Y-20568046D01*
X134392254Y-20568372D01*
X134370345Y-20595068D01*
X134370068Y-20595345D01*
X134343372Y-20617254D01*
X134343046Y-20617472D01*
X134312595Y-20633749D01*
X134312233Y-20633899D01*
X134279181Y-20643925D01*
X134278796Y-20644001D01*
X134238293Y-20647990D01*
X134238097Y-20648000D01*
X134156000Y-20648000D01*
X134154268Y-20647000D01*
X134154268Y-20645000D01*
X134155804Y-20644010D01*
X134207304Y-20638938D01*
X134256642Y-20623971D01*
X134302110Y-20599668D01*
X134341962Y-20566962D01*
X134374668Y-20527110D01*
X134398971Y-20481642D01*
X134413938Y-20432304D01*
X134419010Y-20380804D01*
X134420175Y-20379178D01*
X134422165Y-20379374D01*
G37*
G36*
X148022165Y-20379374D02*
G01*
X148023000Y-20381000D01*
X148023000Y-20463097D01*
X148022990Y-20463293D01*
X148019001Y-20503796D01*
X148018925Y-20504181D01*
X148008899Y-20537233D01*
X148008749Y-20537595D01*
X147992472Y-20568046D01*
X147992254Y-20568372D01*
X147970345Y-20595068D01*
X147970068Y-20595345D01*
X147943372Y-20617254D01*
X147943046Y-20617472D01*
X147912595Y-20633749D01*
X147912233Y-20633899D01*
X147879181Y-20643925D01*
X147878796Y-20644001D01*
X147838293Y-20647990D01*
X147838097Y-20648000D01*
X147756000Y-20648000D01*
X147754268Y-20647000D01*
X147754268Y-20645000D01*
X147755804Y-20644010D01*
X147807304Y-20638938D01*
X147856642Y-20623971D01*
X147902110Y-20599668D01*
X147941962Y-20566962D01*
X147974668Y-20527110D01*
X147998971Y-20481642D01*
X148013938Y-20432304D01*
X148019010Y-20380804D01*
X148020175Y-20379178D01*
X148022165Y-20379374D01*
G37*
G36*
X161622165Y-20379374D02*
G01*
X161623000Y-20381000D01*
X161623000Y-20463097D01*
X161622990Y-20463293D01*
X161619001Y-20503796D01*
X161618925Y-20504181D01*
X161608899Y-20537233D01*
X161608749Y-20537595D01*
X161592472Y-20568046D01*
X161592254Y-20568372D01*
X161570345Y-20595068D01*
X161570068Y-20595345D01*
X161543372Y-20617254D01*
X161543046Y-20617472D01*
X161512595Y-20633749D01*
X161512233Y-20633899D01*
X161479181Y-20643925D01*
X161478796Y-20644001D01*
X161438293Y-20647990D01*
X161438097Y-20648000D01*
X161356000Y-20648000D01*
X161354268Y-20647000D01*
X161354268Y-20645000D01*
X161355804Y-20644010D01*
X161407304Y-20638938D01*
X161456642Y-20623971D01*
X161502110Y-20599668D01*
X161541962Y-20566962D01*
X161574668Y-20527110D01*
X161598971Y-20481642D01*
X161613938Y-20432304D01*
X161619010Y-20380804D01*
X161620175Y-20379178D01*
X161622165Y-20379374D01*
G37*
G36*
X175222165Y-20379374D02*
G01*
X175223000Y-20381000D01*
X175223000Y-20463097D01*
X175222990Y-20463293D01*
X175219001Y-20503796D01*
X175218925Y-20504181D01*
X175208899Y-20537233D01*
X175208749Y-20537595D01*
X175192472Y-20568046D01*
X175192254Y-20568372D01*
X175170345Y-20595068D01*
X175170068Y-20595345D01*
X175143372Y-20617254D01*
X175143046Y-20617472D01*
X175112595Y-20633749D01*
X175112233Y-20633899D01*
X175079181Y-20643925D01*
X175078796Y-20644001D01*
X175038293Y-20647990D01*
X175038097Y-20648000D01*
X174956000Y-20648000D01*
X174954268Y-20647000D01*
X174954268Y-20645000D01*
X174955804Y-20644010D01*
X175007304Y-20638938D01*
X175056642Y-20623971D01*
X175102110Y-20599668D01*
X175141962Y-20566962D01*
X175174668Y-20527110D01*
X175198971Y-20481642D01*
X175213938Y-20432304D01*
X175219010Y-20380804D01*
X175220175Y-20379178D01*
X175222165Y-20379374D01*
G37*
G36*
X19122990Y-20380804D02*
G01*
X19128062Y-20432304D01*
X19143029Y-20481642D01*
X19167332Y-20527110D01*
X19200038Y-20566962D01*
X19239890Y-20599668D01*
X19285358Y-20623971D01*
X19334696Y-20638938D01*
X19386196Y-20644010D01*
X19387822Y-20645175D01*
X19387626Y-20647165D01*
X19386000Y-20648000D01*
X19303903Y-20648000D01*
X19303707Y-20647990D01*
X19263204Y-20644001D01*
X19262819Y-20643925D01*
X19229767Y-20633899D01*
X19229405Y-20633749D01*
X19198954Y-20617472D01*
X19198628Y-20617254D01*
X19171932Y-20595345D01*
X19171655Y-20595068D01*
X19149746Y-20568372D01*
X19149528Y-20568046D01*
X19133251Y-20537595D01*
X19133101Y-20537233D01*
X19123075Y-20504181D01*
X19122999Y-20503796D01*
X19119010Y-20463293D01*
X19119000Y-20463097D01*
X19119000Y-20381000D01*
X19120000Y-20379268D01*
X19122000Y-20379268D01*
X19122990Y-20380804D01*
G37*
G36*
X87487732Y-18593000D02*
G01*
X87487732Y-18595000D01*
X87486196Y-18595990D01*
X87434696Y-18601062D01*
X87385358Y-18616029D01*
X87339890Y-18640332D01*
X87300038Y-18673038D01*
X87267332Y-18712890D01*
X87243029Y-18758358D01*
X87228062Y-18807696D01*
X87222990Y-18859196D01*
X87221825Y-18860822D01*
X87219835Y-18860626D01*
X87219000Y-18859000D01*
X87219000Y-18776903D01*
X87219010Y-18776707D01*
X87222999Y-18736204D01*
X87223075Y-18735819D01*
X87233101Y-18702767D01*
X87233251Y-18702405D01*
X87249528Y-18671954D01*
X87249746Y-18671628D01*
X87271655Y-18644932D01*
X87271932Y-18644655D01*
X87298628Y-18622746D01*
X87298954Y-18622528D01*
X87329405Y-18606251D01*
X87329767Y-18606101D01*
X87362819Y-18596075D01*
X87363204Y-18595999D01*
X87403707Y-18592010D01*
X87403903Y-18592000D01*
X87486000Y-18592000D01*
X87487732Y-18593000D01*
G37*
G36*
X32987732Y-18593000D02*
G01*
X32987732Y-18595000D01*
X32986196Y-18595990D01*
X32934696Y-18601062D01*
X32885358Y-18616029D01*
X32839890Y-18640332D01*
X32800038Y-18673038D01*
X32767332Y-18712890D01*
X32743029Y-18758358D01*
X32728062Y-18807696D01*
X32722990Y-18859196D01*
X32721825Y-18860822D01*
X32719835Y-18860626D01*
X32719000Y-18859000D01*
X32719000Y-18776903D01*
X32719010Y-18776707D01*
X32722999Y-18736204D01*
X32723075Y-18735819D01*
X32733101Y-18702767D01*
X32733251Y-18702405D01*
X32749528Y-18671954D01*
X32749746Y-18671628D01*
X32771655Y-18644932D01*
X32771932Y-18644655D01*
X32798628Y-18622746D01*
X32798954Y-18622528D01*
X32829405Y-18606251D01*
X32829767Y-18606101D01*
X32862819Y-18596075D01*
X32863204Y-18595999D01*
X32903707Y-18592010D01*
X32903903Y-18592000D01*
X32986000Y-18592000D01*
X32987732Y-18593000D01*
G37*
G36*
X173685732Y-18593000D02*
G01*
X173685732Y-18595000D01*
X173684196Y-18595990D01*
X173632696Y-18601062D01*
X173583358Y-18616029D01*
X173537890Y-18640332D01*
X173498038Y-18673038D01*
X173465332Y-18712890D01*
X173441029Y-18758358D01*
X173426062Y-18807696D01*
X173420990Y-18859196D01*
X173419825Y-18860822D01*
X173417835Y-18860626D01*
X173417000Y-18859000D01*
X173417000Y-18776903D01*
X173417010Y-18776707D01*
X173420999Y-18736204D01*
X173421075Y-18735819D01*
X173431101Y-18702767D01*
X173431251Y-18702405D01*
X173447528Y-18671954D01*
X173447746Y-18671628D01*
X173469655Y-18644932D01*
X173469932Y-18644655D01*
X173496628Y-18622746D01*
X173496954Y-18622528D01*
X173527405Y-18606251D01*
X173527767Y-18606101D01*
X173560819Y-18596075D01*
X173561204Y-18595999D01*
X173601707Y-18592010D01*
X173601903Y-18592000D01*
X173684000Y-18592000D01*
X173685732Y-18593000D01*
G37*
G36*
X46587732Y-18593000D02*
G01*
X46587732Y-18595000D01*
X46586196Y-18595990D01*
X46534696Y-18601062D01*
X46485358Y-18616029D01*
X46439890Y-18640332D01*
X46400038Y-18673038D01*
X46367332Y-18712890D01*
X46343029Y-18758358D01*
X46328062Y-18807696D01*
X46322990Y-18859196D01*
X46321825Y-18860822D01*
X46319835Y-18860626D01*
X46319000Y-18859000D01*
X46319000Y-18776903D01*
X46319010Y-18776707D01*
X46322999Y-18736204D01*
X46323075Y-18735819D01*
X46333101Y-18702767D01*
X46333251Y-18702405D01*
X46349528Y-18671954D01*
X46349746Y-18671628D01*
X46371655Y-18644932D01*
X46371932Y-18644655D01*
X46398628Y-18622746D01*
X46398954Y-18622528D01*
X46429405Y-18606251D01*
X46429767Y-18606101D01*
X46462819Y-18596075D01*
X46463204Y-18595999D01*
X46503707Y-18592010D01*
X46503903Y-18592000D01*
X46586000Y-18592000D01*
X46587732Y-18593000D01*
G37*
G36*
X60185732Y-18593000D02*
G01*
X60185732Y-18595000D01*
X60184196Y-18595990D01*
X60132696Y-18601062D01*
X60083358Y-18616029D01*
X60037890Y-18640332D01*
X59998038Y-18673038D01*
X59965332Y-18712890D01*
X59941029Y-18758358D01*
X59926062Y-18807696D01*
X59920990Y-18859196D01*
X59919825Y-18860822D01*
X59917835Y-18860626D01*
X59917000Y-18859000D01*
X59917000Y-18776903D01*
X59917010Y-18776707D01*
X59920999Y-18736204D01*
X59921075Y-18735819D01*
X59931101Y-18702767D01*
X59931251Y-18702405D01*
X59947528Y-18671954D01*
X59947746Y-18671628D01*
X59969655Y-18644932D01*
X59969932Y-18644655D01*
X59996628Y-18622746D01*
X59996954Y-18622528D01*
X60027405Y-18606251D01*
X60027767Y-18606101D01*
X60060819Y-18596075D01*
X60061204Y-18595999D01*
X60101707Y-18592010D01*
X60101903Y-18592000D01*
X60184000Y-18592000D01*
X60185732Y-18593000D01*
G37*
G36*
X73787732Y-18593000D02*
G01*
X73787732Y-18595000D01*
X73786196Y-18595990D01*
X73734696Y-18601062D01*
X73685358Y-18616029D01*
X73639890Y-18640332D01*
X73600038Y-18673038D01*
X73567332Y-18712890D01*
X73543029Y-18758358D01*
X73528062Y-18807696D01*
X73522990Y-18859196D01*
X73521825Y-18860822D01*
X73519835Y-18860626D01*
X73519000Y-18859000D01*
X73519000Y-18776903D01*
X73519010Y-18776707D01*
X73522999Y-18736204D01*
X73523075Y-18735819D01*
X73533101Y-18702767D01*
X73533251Y-18702405D01*
X73549528Y-18671954D01*
X73549746Y-18671628D01*
X73571655Y-18644932D01*
X73571932Y-18644655D01*
X73598628Y-18622746D01*
X73598954Y-18622528D01*
X73629405Y-18606251D01*
X73629767Y-18606101D01*
X73662819Y-18596075D01*
X73663204Y-18595999D01*
X73703707Y-18592010D01*
X73703903Y-18592000D01*
X73786000Y-18592000D01*
X73787732Y-18593000D01*
G37*
G36*
X19387732Y-18593000D02*
G01*
X19387732Y-18595000D01*
X19386196Y-18595990D01*
X19334696Y-18601062D01*
X19285358Y-18616029D01*
X19239890Y-18640332D01*
X19200038Y-18673038D01*
X19167332Y-18712890D01*
X19143029Y-18758358D01*
X19128062Y-18807696D01*
X19122990Y-18859196D01*
X19121825Y-18860822D01*
X19119835Y-18860626D01*
X19119000Y-18859000D01*
X19119000Y-18776903D01*
X19119010Y-18776707D01*
X19122999Y-18736204D01*
X19123075Y-18735819D01*
X19133101Y-18702767D01*
X19133251Y-18702405D01*
X19149528Y-18671954D01*
X19149746Y-18671628D01*
X19171655Y-18644932D01*
X19171932Y-18644655D01*
X19198628Y-18622746D01*
X19198954Y-18622528D01*
X19229405Y-18606251D01*
X19229767Y-18606101D01*
X19262819Y-18596075D01*
X19263204Y-18595999D01*
X19303707Y-18592010D01*
X19303903Y-18592000D01*
X19386000Y-18592000D01*
X19387732Y-18593000D01*
G37*
G36*
X119287732Y-18593000D02*
G01*
X119287732Y-18595000D01*
X119286196Y-18595990D01*
X119234696Y-18601062D01*
X119185358Y-18616029D01*
X119139890Y-18640332D01*
X119100038Y-18673038D01*
X119067332Y-18712890D01*
X119043029Y-18758358D01*
X119028062Y-18807696D01*
X119022990Y-18859196D01*
X119021825Y-18860822D01*
X119019835Y-18860626D01*
X119019000Y-18859000D01*
X119019000Y-18776903D01*
X119019010Y-18776707D01*
X119022999Y-18736204D01*
X119023075Y-18735819D01*
X119033101Y-18702767D01*
X119033251Y-18702405D01*
X119049528Y-18671954D01*
X119049746Y-18671628D01*
X119071655Y-18644932D01*
X119071932Y-18644655D01*
X119098628Y-18622746D01*
X119098954Y-18622528D01*
X119129405Y-18606251D01*
X119129767Y-18606101D01*
X119162819Y-18596075D01*
X119163204Y-18595999D01*
X119203707Y-18592010D01*
X119203903Y-18592000D01*
X119286000Y-18592000D01*
X119287732Y-18593000D01*
G37*
G36*
X132885732Y-18593000D02*
G01*
X132885732Y-18595000D01*
X132884196Y-18595990D01*
X132832696Y-18601062D01*
X132783358Y-18616029D01*
X132737890Y-18640332D01*
X132698038Y-18673038D01*
X132665332Y-18712890D01*
X132641029Y-18758358D01*
X132626062Y-18807696D01*
X132620990Y-18859196D01*
X132619825Y-18860822D01*
X132617835Y-18860626D01*
X132617000Y-18859000D01*
X132617000Y-18776903D01*
X132617010Y-18776707D01*
X132620999Y-18736204D01*
X132621075Y-18735819D01*
X132631101Y-18702767D01*
X132631251Y-18702405D01*
X132647528Y-18671954D01*
X132647746Y-18671628D01*
X132669655Y-18644932D01*
X132669932Y-18644655D01*
X132696628Y-18622746D01*
X132696954Y-18622528D01*
X132727405Y-18606251D01*
X132727767Y-18606101D01*
X132760819Y-18596075D01*
X132761204Y-18595999D01*
X132801707Y-18592010D01*
X132801903Y-18592000D01*
X132884000Y-18592000D01*
X132885732Y-18593000D01*
G37*
G36*
X146485732Y-18593000D02*
G01*
X146485732Y-18595000D01*
X146484196Y-18595990D01*
X146432696Y-18601062D01*
X146383358Y-18616029D01*
X146337890Y-18640332D01*
X146298038Y-18673038D01*
X146265332Y-18712890D01*
X146241029Y-18758358D01*
X146226062Y-18807696D01*
X146220990Y-18859196D01*
X146219825Y-18860822D01*
X146217835Y-18860626D01*
X146217000Y-18859000D01*
X146217000Y-18776903D01*
X146217010Y-18776707D01*
X146220999Y-18736204D01*
X146221075Y-18735819D01*
X146231101Y-18702767D01*
X146231251Y-18702405D01*
X146247528Y-18671954D01*
X146247746Y-18671628D01*
X146269655Y-18644932D01*
X146269932Y-18644655D01*
X146296628Y-18622746D01*
X146296954Y-18622528D01*
X146327405Y-18606251D01*
X146327767Y-18606101D01*
X146360819Y-18596075D01*
X146361204Y-18595999D01*
X146401707Y-18592010D01*
X146401903Y-18592000D01*
X146484000Y-18592000D01*
X146485732Y-18593000D01*
G37*
G36*
X160085732Y-18593000D02*
G01*
X160085732Y-18595000D01*
X160084196Y-18595990D01*
X160032696Y-18601062D01*
X159983358Y-18616029D01*
X159937890Y-18640332D01*
X159898038Y-18673038D01*
X159865332Y-18712890D01*
X159841029Y-18758358D01*
X159826062Y-18807696D01*
X159820990Y-18859196D01*
X159819825Y-18860822D01*
X159817835Y-18860626D01*
X159817000Y-18859000D01*
X159817000Y-18776903D01*
X159817010Y-18776707D01*
X159820999Y-18736204D01*
X159821075Y-18735819D01*
X159831101Y-18702767D01*
X159831251Y-18702405D01*
X159847528Y-18671954D01*
X159847746Y-18671628D01*
X159869655Y-18644932D01*
X159869932Y-18644655D01*
X159896628Y-18622746D01*
X159896954Y-18622528D01*
X159927405Y-18606251D01*
X159927767Y-18606101D01*
X159960819Y-18596075D01*
X159961204Y-18595999D01*
X160001707Y-18592010D01*
X160001903Y-18592000D01*
X160084000Y-18592000D01*
X160085732Y-18593000D01*
G37*
G36*
X75140293Y-18592010D02*
G01*
X75180796Y-18595999D01*
X75181181Y-18596075D01*
X75214233Y-18606101D01*
X75214595Y-18606251D01*
X75245046Y-18622528D01*
X75245372Y-18622746D01*
X75272068Y-18644655D01*
X75272345Y-18644932D01*
X75294254Y-18671628D01*
X75294472Y-18671954D01*
X75310749Y-18702405D01*
X75310899Y-18702767D01*
X75320925Y-18735819D01*
X75321001Y-18736204D01*
X75324990Y-18776707D01*
X75325000Y-18776903D01*
X75325000Y-18859000D01*
X75324000Y-18860732D01*
X75322000Y-18860732D01*
X75321010Y-18859196D01*
X75315938Y-18807696D01*
X75300971Y-18758358D01*
X75276668Y-18712890D01*
X75243962Y-18673038D01*
X75204110Y-18640332D01*
X75158642Y-18616029D01*
X75109304Y-18601062D01*
X75057804Y-18595990D01*
X75056178Y-18594825D01*
X75056374Y-18592835D01*
X75058000Y-18592000D01*
X75140097Y-18592000D01*
X75140293Y-18592010D01*
G37*
G36*
X61538293Y-18592010D02*
G01*
X61578796Y-18595999D01*
X61579181Y-18596075D01*
X61612233Y-18606101D01*
X61612595Y-18606251D01*
X61643046Y-18622528D01*
X61643372Y-18622746D01*
X61670068Y-18644655D01*
X61670345Y-18644932D01*
X61692254Y-18671628D01*
X61692472Y-18671954D01*
X61708749Y-18702405D01*
X61708899Y-18702767D01*
X61718925Y-18735819D01*
X61719001Y-18736204D01*
X61722990Y-18776707D01*
X61723000Y-18776903D01*
X61723000Y-18859000D01*
X61722000Y-18860732D01*
X61720000Y-18860732D01*
X61719010Y-18859196D01*
X61713938Y-18807696D01*
X61698971Y-18758358D01*
X61674668Y-18712890D01*
X61641962Y-18673038D01*
X61602110Y-18640332D01*
X61556642Y-18616029D01*
X61507304Y-18601062D01*
X61455804Y-18595990D01*
X61454178Y-18594825D01*
X61454374Y-18592835D01*
X61456000Y-18592000D01*
X61538097Y-18592000D01*
X61538293Y-18592010D01*
G37*
G36*
X175038293Y-18592010D02*
G01*
X175078796Y-18595999D01*
X175079181Y-18596075D01*
X175112233Y-18606101D01*
X175112595Y-18606251D01*
X175143046Y-18622528D01*
X175143372Y-18622746D01*
X175170068Y-18644655D01*
X175170345Y-18644932D01*
X175192254Y-18671628D01*
X175192472Y-18671954D01*
X175208749Y-18702405D01*
X175208899Y-18702767D01*
X175218925Y-18735819D01*
X175219001Y-18736204D01*
X175222990Y-18776707D01*
X175223000Y-18776903D01*
X175223000Y-18859000D01*
X175222000Y-18860732D01*
X175220000Y-18860732D01*
X175219010Y-18859196D01*
X175213938Y-18807696D01*
X175198971Y-18758358D01*
X175174668Y-18712890D01*
X175141962Y-18673038D01*
X175102110Y-18640332D01*
X175056642Y-18616029D01*
X175007304Y-18601062D01*
X174955804Y-18595990D01*
X174954178Y-18594825D01*
X174954374Y-18592835D01*
X174956000Y-18592000D01*
X175038097Y-18592000D01*
X175038293Y-18592010D01*
G37*
G36*
X47940293Y-18592010D02*
G01*
X47980796Y-18595999D01*
X47981181Y-18596075D01*
X48014233Y-18606101D01*
X48014595Y-18606251D01*
X48045046Y-18622528D01*
X48045372Y-18622746D01*
X48072068Y-18644655D01*
X48072345Y-18644932D01*
X48094254Y-18671628D01*
X48094472Y-18671954D01*
X48110749Y-18702405D01*
X48110899Y-18702767D01*
X48120925Y-18735819D01*
X48121001Y-18736204D01*
X48124990Y-18776707D01*
X48125000Y-18776903D01*
X48125000Y-18859000D01*
X48124000Y-18860732D01*
X48122000Y-18860732D01*
X48121010Y-18859196D01*
X48115938Y-18807696D01*
X48100971Y-18758358D01*
X48076668Y-18712890D01*
X48043962Y-18673038D01*
X48004110Y-18640332D01*
X47958642Y-18616029D01*
X47909304Y-18601062D01*
X47857804Y-18595990D01*
X47856178Y-18594825D01*
X47856374Y-18592835D01*
X47858000Y-18592000D01*
X47940097Y-18592000D01*
X47940293Y-18592010D01*
G37*
G36*
X161438293Y-18592010D02*
G01*
X161478796Y-18595999D01*
X161479181Y-18596075D01*
X161512233Y-18606101D01*
X161512595Y-18606251D01*
X161543046Y-18622528D01*
X161543372Y-18622746D01*
X161570068Y-18644655D01*
X161570345Y-18644932D01*
X161592254Y-18671628D01*
X161592472Y-18671954D01*
X161608749Y-18702405D01*
X161608899Y-18702767D01*
X161618925Y-18735819D01*
X161619001Y-18736204D01*
X161622990Y-18776707D01*
X161623000Y-18776903D01*
X161623000Y-18859000D01*
X161622000Y-18860732D01*
X161620000Y-18860732D01*
X161619010Y-18859196D01*
X161613938Y-18807696D01*
X161598971Y-18758358D01*
X161574668Y-18712890D01*
X161541962Y-18673038D01*
X161502110Y-18640332D01*
X161456642Y-18616029D01*
X161407304Y-18601062D01*
X161355804Y-18595990D01*
X161354178Y-18594825D01*
X161354374Y-18592835D01*
X161356000Y-18592000D01*
X161438097Y-18592000D01*
X161438293Y-18592010D01*
G37*
G36*
X88840293Y-18592010D02*
G01*
X88880796Y-18595999D01*
X88881181Y-18596075D01*
X88914233Y-18606101D01*
X88914595Y-18606251D01*
X88945046Y-18622528D01*
X88945372Y-18622746D01*
X88972068Y-18644655D01*
X88972345Y-18644932D01*
X88994254Y-18671628D01*
X88994472Y-18671954D01*
X89010749Y-18702405D01*
X89010899Y-18702767D01*
X89020925Y-18735819D01*
X89021001Y-18736204D01*
X89024990Y-18776707D01*
X89025000Y-18776903D01*
X89025000Y-18859000D01*
X89024000Y-18860732D01*
X89022000Y-18860732D01*
X89021010Y-18859196D01*
X89015938Y-18807696D01*
X89000971Y-18758358D01*
X88976668Y-18712890D01*
X88943962Y-18673038D01*
X88904110Y-18640332D01*
X88858642Y-18616029D01*
X88809304Y-18601062D01*
X88757804Y-18595990D01*
X88756178Y-18594825D01*
X88756374Y-18592835D01*
X88758000Y-18592000D01*
X88840097Y-18592000D01*
X88840293Y-18592010D01*
G37*
G36*
X147838293Y-18592010D02*
G01*
X147878796Y-18595999D01*
X147879181Y-18596075D01*
X147912233Y-18606101D01*
X147912595Y-18606251D01*
X147943046Y-18622528D01*
X147943372Y-18622746D01*
X147970068Y-18644655D01*
X147970345Y-18644932D01*
X147992254Y-18671628D01*
X147992472Y-18671954D01*
X148008749Y-18702405D01*
X148008899Y-18702767D01*
X148018925Y-18735819D01*
X148019001Y-18736204D01*
X148022990Y-18776707D01*
X148023000Y-18776903D01*
X148023000Y-18859000D01*
X148022000Y-18860732D01*
X148020000Y-18860732D01*
X148019010Y-18859196D01*
X148013938Y-18807696D01*
X147998971Y-18758358D01*
X147974668Y-18712890D01*
X147941962Y-18673038D01*
X147902110Y-18640332D01*
X147856642Y-18616029D01*
X147807304Y-18601062D01*
X147755804Y-18595990D01*
X147754178Y-18594825D01*
X147754374Y-18592835D01*
X147756000Y-18592000D01*
X147838097Y-18592000D01*
X147838293Y-18592010D01*
G37*
G36*
X34340293Y-18592010D02*
G01*
X34380796Y-18595999D01*
X34381181Y-18596075D01*
X34414233Y-18606101D01*
X34414595Y-18606251D01*
X34445046Y-18622528D01*
X34445372Y-18622746D01*
X34472068Y-18644655D01*
X34472345Y-18644932D01*
X34494254Y-18671628D01*
X34494472Y-18671954D01*
X34510749Y-18702405D01*
X34510899Y-18702767D01*
X34520925Y-18735819D01*
X34521001Y-18736204D01*
X34524990Y-18776707D01*
X34525000Y-18776903D01*
X34525000Y-18859000D01*
X34524000Y-18860732D01*
X34522000Y-18860732D01*
X34521010Y-18859196D01*
X34515938Y-18807696D01*
X34500971Y-18758358D01*
X34476668Y-18712890D01*
X34443962Y-18673038D01*
X34404110Y-18640332D01*
X34358642Y-18616029D01*
X34309304Y-18601062D01*
X34257804Y-18595990D01*
X34256178Y-18594825D01*
X34256374Y-18592835D01*
X34258000Y-18592000D01*
X34340097Y-18592000D01*
X34340293Y-18592010D01*
G37*
G36*
X134238293Y-18592010D02*
G01*
X134278796Y-18595999D01*
X134279181Y-18596075D01*
X134312233Y-18606101D01*
X134312595Y-18606251D01*
X134343046Y-18622528D01*
X134343372Y-18622746D01*
X134370068Y-18644655D01*
X134370345Y-18644932D01*
X134392254Y-18671628D01*
X134392472Y-18671954D01*
X134408749Y-18702405D01*
X134408899Y-18702767D01*
X134418925Y-18735819D01*
X134419001Y-18736204D01*
X134422990Y-18776707D01*
X134423000Y-18776903D01*
X134423000Y-18859000D01*
X134422000Y-18860732D01*
X134420000Y-18860732D01*
X134419010Y-18859196D01*
X134413938Y-18807696D01*
X134398971Y-18758358D01*
X134374668Y-18712890D01*
X134341962Y-18673038D01*
X134302110Y-18640332D01*
X134256642Y-18616029D01*
X134207304Y-18601062D01*
X134155804Y-18595990D01*
X134154178Y-18594825D01*
X134154374Y-18592835D01*
X134156000Y-18592000D01*
X134238097Y-18592000D01*
X134238293Y-18592010D01*
G37*
G36*
X120640293Y-18592010D02*
G01*
X120680796Y-18595999D01*
X120681181Y-18596075D01*
X120714233Y-18606101D01*
X120714595Y-18606251D01*
X120745046Y-18622528D01*
X120745372Y-18622746D01*
X120772068Y-18644655D01*
X120772345Y-18644932D01*
X120794254Y-18671628D01*
X120794472Y-18671954D01*
X120810749Y-18702405D01*
X120810899Y-18702767D01*
X120820925Y-18735819D01*
X120821001Y-18736204D01*
X120824990Y-18776707D01*
X120825000Y-18776903D01*
X120825000Y-18859000D01*
X120824000Y-18860732D01*
X120822000Y-18860732D01*
X120821010Y-18859196D01*
X120815938Y-18807696D01*
X120800971Y-18758358D01*
X120776668Y-18712890D01*
X120743962Y-18673038D01*
X120704110Y-18640332D01*
X120658642Y-18616029D01*
X120609304Y-18601062D01*
X120557804Y-18595990D01*
X120556178Y-18594825D01*
X120556374Y-18592835D01*
X120558000Y-18592000D01*
X120640097Y-18592000D01*
X120640293Y-18592010D01*
G37*
G36*
X20740293Y-18592010D02*
G01*
X20780796Y-18595999D01*
X20781181Y-18596075D01*
X20814233Y-18606101D01*
X20814595Y-18606251D01*
X20845046Y-18622528D01*
X20845372Y-18622746D01*
X20872068Y-18644655D01*
X20872345Y-18644932D01*
X20894254Y-18671628D01*
X20894472Y-18671954D01*
X20910749Y-18702405D01*
X20910899Y-18702767D01*
X20920925Y-18735819D01*
X20921001Y-18736204D01*
X20924990Y-18776707D01*
X20925000Y-18776903D01*
X20925000Y-18859000D01*
X20924000Y-18860732D01*
X20922000Y-18860732D01*
X20921010Y-18859196D01*
X20915938Y-18807696D01*
X20900971Y-18758358D01*
X20876668Y-18712890D01*
X20843962Y-18673038D01*
X20804110Y-18640332D01*
X20758642Y-18616029D01*
X20709304Y-18601062D01*
X20657804Y-18595990D01*
X20656178Y-18594825D01*
X20656374Y-18592835D01*
X20658000Y-18592000D01*
X20740097Y-18592000D01*
X20740293Y-18592010D01*
G37*
M02*
