G04 #@! TF.GenerationSoftware,KiCad,Pcbnew,(5.1.9)-1*
G04 #@! TF.CreationDate,2021-08-02T14:53:25+02:00*
G04 #@! TF.ProjectId,TonOfSteppers,546f6e4f-6653-4746-9570-706572732e6b,rev?*
G04 #@! TF.SameCoordinates,Original*
G04 #@! TF.FileFunction,Soldermask,Top*
G04 #@! TF.FilePolarity,Negative*
%FSLAX46Y46*%
G04 Gerber Fmt 4.6, Leading zero omitted, Abs format (unit mm)*
G04 Created by KiCad (PCBNEW (5.1.9)-1) date 2021-08-02 14:53:25*
%MOMM*%
%LPD*%
G01*
G04 APERTURE LIST*
%ADD10C,0.625000*%
%ADD11C,2.102000*%
%ADD12C,3.102000*%
%ADD13O,1.802000X2.052000*%
%ADD14O,1.702000X1.702000*%
%ADD15C,2.602000*%
%ADD16O,2.292000X1.842000*%
%ADD17O,2.102000X2.702000*%
%ADD18C,0.100000*%
%ADD19O,1.852000X1.302000*%
%ADD20O,3.602000X2.002000*%
%ADD21C,1.202000*%
G04 APERTURE END LIST*
D10*
X84528666Y-103479000D02*
X84290571Y-103359952D01*
X83933428Y-103359952D01*
X83576285Y-103479000D01*
X83338190Y-103717095D01*
X83219142Y-103955190D01*
X83100095Y-104431380D01*
X83100095Y-104788523D01*
X83219142Y-105264714D01*
X83338190Y-105502809D01*
X83576285Y-105740904D01*
X83933428Y-105859952D01*
X84171523Y-105859952D01*
X84528666Y-105740904D01*
X84647714Y-105621857D01*
X84647714Y-104788523D01*
X84171523Y-104788523D01*
X84647714Y-110234952D02*
X83814380Y-109044476D01*
X83219142Y-110234952D02*
X83219142Y-107734952D01*
X84171523Y-107734952D01*
X84409619Y-107854000D01*
X84528666Y-107973047D01*
X84647714Y-108211142D01*
X84647714Y-108568285D01*
X84528666Y-108806380D01*
X84409619Y-108925428D01*
X84171523Y-109044476D01*
X83219142Y-109044476D01*
X83635809Y-112109952D02*
X84112000Y-112109952D01*
X84350095Y-112229000D01*
X84588190Y-112467095D01*
X84707238Y-112943285D01*
X84707238Y-113776619D01*
X84588190Y-114252809D01*
X84350095Y-114490904D01*
X84112000Y-114609952D01*
X83635809Y-114609952D01*
X83397714Y-114490904D01*
X83159619Y-114252809D01*
X83040571Y-113776619D01*
X83040571Y-112943285D01*
X83159619Y-112467095D01*
X83397714Y-112229000D01*
X83635809Y-112109952D01*
X83159619Y-116484952D02*
X83159619Y-118508761D01*
X83278666Y-118746857D01*
X83397714Y-118865904D01*
X83635809Y-118984952D01*
X84112000Y-118984952D01*
X84350095Y-118865904D01*
X84469142Y-118746857D01*
X84588190Y-118508761D01*
X84588190Y-116484952D01*
X83219142Y-123359952D02*
X83219142Y-120859952D01*
X84171523Y-120859952D01*
X84409619Y-120979000D01*
X84528666Y-121098047D01*
X84647714Y-121336142D01*
X84647714Y-121693285D01*
X84528666Y-121931380D01*
X84409619Y-122050428D01*
X84171523Y-122169476D01*
X83219142Y-122169476D01*
X76727714Y-99519904D02*
X77084857Y-99638952D01*
X77680095Y-99638952D01*
X77918190Y-99519904D01*
X78037238Y-99400857D01*
X78156285Y-99162761D01*
X78156285Y-98924666D01*
X78037238Y-98686571D01*
X77918190Y-98567523D01*
X77680095Y-98448476D01*
X77203904Y-98329428D01*
X76965809Y-98210380D01*
X76846761Y-98091333D01*
X76727714Y-97853238D01*
X76727714Y-97615142D01*
X76846761Y-97377047D01*
X76965809Y-97258000D01*
X77203904Y-97138952D01*
X77799142Y-97138952D01*
X78156285Y-97258000D01*
X76906285Y-102704428D02*
X77739619Y-102704428D01*
X78096761Y-104013952D02*
X76906285Y-104013952D01*
X76906285Y-101513952D01*
X78096761Y-101513952D01*
X76727714Y-108388952D02*
X76727714Y-105888952D01*
X78156285Y-108388952D01*
X78156285Y-105888952D01*
X76727714Y-112644904D02*
X77084857Y-112763952D01*
X77680095Y-112763952D01*
X77918190Y-112644904D01*
X78037238Y-112525857D01*
X78156285Y-112287761D01*
X78156285Y-112049666D01*
X78037238Y-111811571D01*
X77918190Y-111692523D01*
X77680095Y-111573476D01*
X77203904Y-111454428D01*
X76965809Y-111335380D01*
X76846761Y-111216333D01*
X76727714Y-110978238D01*
X76727714Y-110740142D01*
X76846761Y-110502047D01*
X76965809Y-110383000D01*
X77203904Y-110263952D01*
X77799142Y-110263952D01*
X78156285Y-110383000D01*
X76846761Y-116424666D02*
X78037238Y-116424666D01*
X76608666Y-117138952D02*
X77442000Y-114638952D01*
X78275333Y-117138952D01*
X84528666Y-103479000D02*
X84290571Y-103359952D01*
X83933428Y-103359952D01*
X83576285Y-103479000D01*
X83338190Y-103717095D01*
X83219142Y-103955190D01*
X83100095Y-104431380D01*
X83100095Y-104788523D01*
X83219142Y-105264714D01*
X83338190Y-105502809D01*
X83576285Y-105740904D01*
X83933428Y-105859952D01*
X84171523Y-105859952D01*
X84528666Y-105740904D01*
X84647714Y-105621857D01*
X84647714Y-104788523D01*
X84171523Y-104788523D01*
X84647714Y-110234952D02*
X83814380Y-109044476D01*
X83219142Y-110234952D02*
X83219142Y-107734952D01*
X84171523Y-107734952D01*
X84409619Y-107854000D01*
X84528666Y-107973047D01*
X84647714Y-108211142D01*
X84647714Y-108568285D01*
X84528666Y-108806380D01*
X84409619Y-108925428D01*
X84171523Y-109044476D01*
X83219142Y-109044476D01*
X83635809Y-112109952D02*
X84112000Y-112109952D01*
X84350095Y-112229000D01*
X84588190Y-112467095D01*
X84707238Y-112943285D01*
X84707238Y-113776619D01*
X84588190Y-114252809D01*
X84350095Y-114490904D01*
X84112000Y-114609952D01*
X83635809Y-114609952D01*
X83397714Y-114490904D01*
X83159619Y-114252809D01*
X83040571Y-113776619D01*
X83040571Y-112943285D01*
X83159619Y-112467095D01*
X83397714Y-112229000D01*
X83635809Y-112109952D01*
X83159619Y-116484952D02*
X83159619Y-118508761D01*
X83278666Y-118746857D01*
X83397714Y-118865904D01*
X83635809Y-118984952D01*
X84112000Y-118984952D01*
X84350095Y-118865904D01*
X84469142Y-118746857D01*
X84588190Y-118508761D01*
X84588190Y-116484952D01*
X83219142Y-123359952D02*
X83219142Y-120859952D01*
X84171523Y-120859952D01*
X84409619Y-120979000D01*
X84528666Y-121098047D01*
X84647714Y-121336142D01*
X84647714Y-121693285D01*
X84528666Y-121931380D01*
X84409619Y-122050428D01*
X84171523Y-122169476D01*
X83219142Y-122169476D01*
X76727714Y-99519904D02*
X77084857Y-99638952D01*
X77680095Y-99638952D01*
X77918190Y-99519904D01*
X78037238Y-99400857D01*
X78156285Y-99162761D01*
X78156285Y-98924666D01*
X78037238Y-98686571D01*
X77918190Y-98567523D01*
X77680095Y-98448476D01*
X77203904Y-98329428D01*
X76965809Y-98210380D01*
X76846761Y-98091333D01*
X76727714Y-97853238D01*
X76727714Y-97615142D01*
X76846761Y-97377047D01*
X76965809Y-97258000D01*
X77203904Y-97138952D01*
X77799142Y-97138952D01*
X78156285Y-97258000D01*
X76906285Y-102704428D02*
X77739619Y-102704428D01*
X78096761Y-104013952D02*
X76906285Y-104013952D01*
X76906285Y-101513952D01*
X78096761Y-101513952D01*
X76727714Y-108388952D02*
X76727714Y-105888952D01*
X78156285Y-108388952D01*
X78156285Y-105888952D01*
X76727714Y-112644904D02*
X77084857Y-112763952D01*
X77680095Y-112763952D01*
X77918190Y-112644904D01*
X78037238Y-112525857D01*
X78156285Y-112287761D01*
X78156285Y-112049666D01*
X78037238Y-111811571D01*
X77918190Y-111692523D01*
X77680095Y-111573476D01*
X77203904Y-111454428D01*
X76965809Y-111335380D01*
X76846761Y-111216333D01*
X76727714Y-110978238D01*
X76727714Y-110740142D01*
X76846761Y-110502047D01*
X76965809Y-110383000D01*
X77203904Y-110263952D01*
X77799142Y-110263952D01*
X78156285Y-110383000D01*
X76846761Y-116424666D02*
X78037238Y-116424666D01*
X76608666Y-117138952D02*
X77442000Y-114638952D01*
X78275333Y-117138952D01*
D11*
X56332000Y-121478000D03*
X99382000Y-72408000D03*
X114112000Y-72408000D03*
X140682000Y-121288000D03*
X134622000Y-121288000D03*
X144762000Y-103128000D03*
X144762000Y-92528000D03*
D12*
X121212000Y-87668000D03*
X115977000Y-87668000D03*
X110742000Y-87668000D03*
G36*
G01*
X159819000Y-20381000D02*
X159819000Y-18859000D01*
G75*
G02*
X160084000Y-18594000I265000J0D01*
G01*
X161356000Y-18594000D01*
G75*
G02*
X161621000Y-18859000I0J-265000D01*
G01*
X161621000Y-20381000D01*
G75*
G02*
X161356000Y-20646000I-265000J0D01*
G01*
X160084000Y-20646000D01*
G75*
G02*
X159819000Y-20381000I0J265000D01*
G01*
G37*
D13*
X163220000Y-19620000D03*
X165720000Y-19620000D03*
X168220000Y-19620000D03*
G36*
G01*
X173419000Y-20381000D02*
X173419000Y-18859000D01*
G75*
G02*
X173684000Y-18594000I265000J0D01*
G01*
X174956000Y-18594000D01*
G75*
G02*
X175221000Y-18859000I0J-265000D01*
G01*
X175221000Y-20381000D01*
G75*
G02*
X174956000Y-20646000I-265000J0D01*
G01*
X173684000Y-20646000D01*
G75*
G02*
X173419000Y-20381000I0J265000D01*
G01*
G37*
X176820000Y-19620000D03*
X179320000Y-19620000D03*
X181820000Y-19620000D03*
X141020000Y-19620000D03*
X138520000Y-19620000D03*
X136020000Y-19620000D03*
G36*
G01*
X132619000Y-20381000D02*
X132619000Y-18859000D01*
G75*
G02*
X132884000Y-18594000I265000J0D01*
G01*
X134156000Y-18594000D01*
G75*
G02*
X134421000Y-18859000I0J-265000D01*
G01*
X134421000Y-20381000D01*
G75*
G02*
X134156000Y-20646000I-265000J0D01*
G01*
X132884000Y-20646000D01*
G75*
G02*
X132619000Y-20381000I0J265000D01*
G01*
G37*
G36*
G01*
X59919000Y-20381000D02*
X59919000Y-18859000D01*
G75*
G02*
X60184000Y-18594000I265000J0D01*
G01*
X61456000Y-18594000D01*
G75*
G02*
X61721000Y-18859000I0J-265000D01*
G01*
X61721000Y-20381000D01*
G75*
G02*
X61456000Y-20646000I-265000J0D01*
G01*
X60184000Y-20646000D01*
G75*
G02*
X59919000Y-20381000I0J265000D01*
G01*
G37*
X63320000Y-19620000D03*
X65820000Y-19620000D03*
X68320000Y-19620000D03*
X154620000Y-19620000D03*
X152120000Y-19620000D03*
X149620000Y-19620000D03*
G36*
G01*
X146219000Y-20381000D02*
X146219000Y-18859000D01*
G75*
G02*
X146484000Y-18594000I265000J0D01*
G01*
X147756000Y-18594000D01*
G75*
G02*
X148021000Y-18859000I0J-265000D01*
G01*
X148021000Y-20381000D01*
G75*
G02*
X147756000Y-20646000I-265000J0D01*
G01*
X146484000Y-20646000D01*
G75*
G02*
X146219000Y-20381000I0J265000D01*
G01*
G37*
D14*
X143122000Y-39208000D03*
X125342000Y-26508000D03*
X140582000Y-39208000D03*
X127882000Y-26508000D03*
X138042000Y-39208000D03*
X130422000Y-26508000D03*
X135502000Y-39208000D03*
X132962000Y-26508000D03*
X132962000Y-39208000D03*
X135502000Y-26508000D03*
X130422000Y-39208000D03*
X138042000Y-26508000D03*
X127882000Y-39208000D03*
X140582000Y-26508000D03*
X125342000Y-39208000D03*
G36*
G01*
X142322000Y-25657000D02*
X143922000Y-25657000D01*
G75*
G02*
X143973000Y-25708000I0J-51000D01*
G01*
X143973000Y-27308000D01*
G75*
G02*
X143922000Y-27359000I-51000J0D01*
G01*
X142322000Y-27359000D01*
G75*
G02*
X142271000Y-27308000I0J51000D01*
G01*
X142271000Y-25708000D01*
G75*
G02*
X142322000Y-25657000I51000J0D01*
G01*
G37*
X165622000Y-39208000D03*
X147842000Y-26508000D03*
X163082000Y-39208000D03*
X150382000Y-26508000D03*
X160542000Y-39208000D03*
X152922000Y-26508000D03*
X158002000Y-39208000D03*
X155462000Y-26508000D03*
X155462000Y-39208000D03*
X158002000Y-26508000D03*
X152922000Y-39208000D03*
X160542000Y-26508000D03*
X150382000Y-39208000D03*
X163082000Y-26508000D03*
X147842000Y-39208000D03*
G36*
G01*
X164822000Y-25657000D02*
X166422000Y-25657000D01*
G75*
G02*
X166473000Y-25708000I0J-51000D01*
G01*
X166473000Y-27308000D01*
G75*
G02*
X166422000Y-27359000I-51000J0D01*
G01*
X164822000Y-27359000D01*
G75*
G02*
X164771000Y-27308000I0J51000D01*
G01*
X164771000Y-25708000D01*
G75*
G02*
X164822000Y-25657000I51000J0D01*
G01*
G37*
G36*
G01*
X179548000Y-93183000D02*
X179548000Y-94783000D01*
G75*
G02*
X179497000Y-94834000I-51000J0D01*
G01*
X177897000Y-94834000D01*
G75*
G02*
X177846000Y-94783000I0J51000D01*
G01*
X177846000Y-93183000D01*
G75*
G02*
X177897000Y-93132000I51000J0D01*
G01*
X179497000Y-93132000D01*
G75*
G02*
X179548000Y-93183000I0J-51000D01*
G01*
G37*
X165997000Y-76203000D03*
X178697000Y-91443000D03*
X165997000Y-78743000D03*
X178697000Y-88903000D03*
X165997000Y-81283000D03*
X178697000Y-86363000D03*
X165997000Y-83823000D03*
X178697000Y-83823000D03*
X165997000Y-86363000D03*
X178697000Y-81283000D03*
X165997000Y-88903000D03*
X178697000Y-78743000D03*
X165997000Y-91443000D03*
X178697000Y-76203000D03*
X165997000Y-93983000D03*
G36*
G01*
X179548000Y-114433000D02*
X179548000Y-116033000D01*
G75*
G02*
X179497000Y-116084000I-51000J0D01*
G01*
X177897000Y-116084000D01*
G75*
G02*
X177846000Y-116033000I0J51000D01*
G01*
X177846000Y-114433000D01*
G75*
G02*
X177897000Y-114382000I51000J0D01*
G01*
X179497000Y-114382000D01*
G75*
G02*
X179548000Y-114433000I0J-51000D01*
G01*
G37*
X165997000Y-97453000D03*
X178697000Y-112693000D03*
X165997000Y-99993000D03*
X178697000Y-110153000D03*
X165997000Y-102533000D03*
X178697000Y-107613000D03*
X165997000Y-105073000D03*
X178697000Y-105073000D03*
X165997000Y-107613000D03*
X178697000Y-102533000D03*
X165997000Y-110153000D03*
X178697000Y-99993000D03*
X165997000Y-112693000D03*
X178697000Y-97453000D03*
X165997000Y-115233000D03*
G36*
G01*
X147146000Y-33268063D02*
X147146000Y-32097937D01*
G75*
G02*
X147411937Y-31832000I265937J0D01*
G01*
X150482063Y-31832000D01*
G75*
G02*
X150748000Y-32097937I0J-265937D01*
G01*
X150748000Y-33268063D01*
G75*
G02*
X150482063Y-33534000I-265937J0D01*
G01*
X147411937Y-33534000D01*
G75*
G02*
X147146000Y-33268063I0J265937D01*
G01*
G37*
G36*
G01*
X152546000Y-33268063D02*
X152546000Y-32097937D01*
G75*
G02*
X152811937Y-31832000I265937J0D01*
G01*
X155882063Y-31832000D01*
G75*
G02*
X156148000Y-32097937I0J-265937D01*
G01*
X156148000Y-33268063D01*
G75*
G02*
X155882063Y-33534000I-265937J0D01*
G01*
X152811937Y-33534000D01*
G75*
G02*
X152546000Y-33268063I0J265937D01*
G01*
G37*
G36*
G01*
X129896000Y-33268063D02*
X129896000Y-32097937D01*
G75*
G02*
X130161937Y-31832000I265937J0D01*
G01*
X133232063Y-31832000D01*
G75*
G02*
X133498000Y-32097937I0J-265937D01*
G01*
X133498000Y-33268063D01*
G75*
G02*
X133232063Y-33534000I-265937J0D01*
G01*
X130161937Y-33534000D01*
G75*
G02*
X129896000Y-33268063I0J265937D01*
G01*
G37*
G36*
G01*
X124496000Y-33268063D02*
X124496000Y-32097937D01*
G75*
G02*
X124761937Y-31832000I265937J0D01*
G01*
X127832063Y-31832000D01*
G75*
G02*
X128098000Y-32097937I0J-265937D01*
G01*
X128098000Y-33268063D01*
G75*
G02*
X127832063Y-33534000I-265937J0D01*
G01*
X124761937Y-33534000D01*
G75*
G02*
X124496000Y-33268063I0J265937D01*
G01*
G37*
G36*
G01*
X171436937Y-80437000D02*
X172607063Y-80437000D01*
G75*
G02*
X172873000Y-80702937I0J-265937D01*
G01*
X172873000Y-83773063D01*
G75*
G02*
X172607063Y-84039000I-265937J0D01*
G01*
X171436937Y-84039000D01*
G75*
G02*
X171171000Y-83773063I0J265937D01*
G01*
X171171000Y-80702937D01*
G75*
G02*
X171436937Y-80437000I265937J0D01*
G01*
G37*
G36*
G01*
X171436937Y-75037000D02*
X172607063Y-75037000D01*
G75*
G02*
X172873000Y-75302937I0J-265937D01*
G01*
X172873000Y-78373063D01*
G75*
G02*
X172607063Y-78639000I-265937J0D01*
G01*
X171436937Y-78639000D01*
G75*
G02*
X171171000Y-78373063I0J265937D01*
G01*
X171171000Y-75302937D01*
G75*
G02*
X171436937Y-75037000I265937J0D01*
G01*
G37*
G36*
G01*
X172917063Y-105479000D02*
X171746937Y-105479000D01*
G75*
G02*
X171481000Y-105213063I0J265937D01*
G01*
X171481000Y-102142937D01*
G75*
G02*
X171746937Y-101877000I265937J0D01*
G01*
X172917063Y-101877000D01*
G75*
G02*
X173183000Y-102142937I0J-265937D01*
G01*
X173183000Y-105213063D01*
G75*
G02*
X172917063Y-105479000I-265937J0D01*
G01*
G37*
G36*
G01*
X172917063Y-100079000D02*
X171746937Y-100079000D01*
G75*
G02*
X171481000Y-99813063I0J265937D01*
G01*
X171481000Y-96742937D01*
G75*
G02*
X171746937Y-96477000I265937J0D01*
G01*
X172917063Y-96477000D01*
G75*
G02*
X173183000Y-96742937I0J-265937D01*
G01*
X173183000Y-99813063D01*
G75*
G02*
X172917063Y-100079000I-265937J0D01*
G01*
G37*
G36*
G01*
X103573000Y-119122937D02*
X103573000Y-120293063D01*
G75*
G02*
X103307063Y-120559000I-265937J0D01*
G01*
X101136937Y-120559000D01*
G75*
G02*
X100871000Y-120293063I0J265937D01*
G01*
X100871000Y-119122937D01*
G75*
G02*
X101136937Y-118857000I265937J0D01*
G01*
X103307063Y-118857000D01*
G75*
G02*
X103573000Y-119122937I0J-265937D01*
G01*
G37*
G36*
G01*
X99973000Y-119122937D02*
X99973000Y-120293063D01*
G75*
G02*
X99707063Y-120559000I-265937J0D01*
G01*
X97536937Y-120559000D01*
G75*
G02*
X97271000Y-120293063I0J265937D01*
G01*
X97271000Y-119122937D01*
G75*
G02*
X97536937Y-118857000I265937J0D01*
G01*
X99707063Y-118857000D01*
G75*
G02*
X99973000Y-119122937I0J-265937D01*
G01*
G37*
G36*
G01*
X99973000Y-114147937D02*
X99973000Y-115318063D01*
G75*
G02*
X99707063Y-115584000I-265937J0D01*
G01*
X97536937Y-115584000D01*
G75*
G02*
X97271000Y-115318063I0J265937D01*
G01*
X97271000Y-114147937D01*
G75*
G02*
X97536937Y-113882000I265937J0D01*
G01*
X99707063Y-113882000D01*
G75*
G02*
X99973000Y-114147937I0J-265937D01*
G01*
G37*
G36*
G01*
X103573000Y-114147937D02*
X103573000Y-115318063D01*
G75*
G02*
X103307063Y-115584000I-265937J0D01*
G01*
X101136937Y-115584000D01*
G75*
G02*
X100871000Y-115318063I0J265937D01*
G01*
X100871000Y-114147937D01*
G75*
G02*
X101136937Y-113882000I265937J0D01*
G01*
X103307063Y-113882000D01*
G75*
G02*
X103573000Y-114147937I0J-265937D01*
G01*
G37*
G36*
G01*
X103548000Y-109172937D02*
X103548000Y-110343063D01*
G75*
G02*
X103282063Y-110609000I-265937J0D01*
G01*
X101111937Y-110609000D01*
G75*
G02*
X100846000Y-110343063I0J265937D01*
G01*
X100846000Y-109172937D01*
G75*
G02*
X101111937Y-108907000I265937J0D01*
G01*
X103282063Y-108907000D01*
G75*
G02*
X103548000Y-109172937I0J-265937D01*
G01*
G37*
G36*
G01*
X99948000Y-109172937D02*
X99948000Y-110343063D01*
G75*
G02*
X99682063Y-110609000I-265937J0D01*
G01*
X97511937Y-110609000D01*
G75*
G02*
X97246000Y-110343063I0J265937D01*
G01*
X97246000Y-109172937D01*
G75*
G02*
X97511937Y-108907000I265937J0D01*
G01*
X99682063Y-108907000D01*
G75*
G02*
X99948000Y-109172937I0J-265937D01*
G01*
G37*
G36*
G01*
X99498000Y-105753702D02*
X99498000Y-106762298D01*
G75*
G02*
X99226298Y-107034000I-271702J0D01*
G01*
X98492702Y-107034000D01*
G75*
G02*
X98221000Y-106762298I0J271702D01*
G01*
X98221000Y-105753702D01*
G75*
G02*
X98492702Y-105482000I271702J0D01*
G01*
X99226298Y-105482000D01*
G75*
G02*
X99498000Y-105753702I0J-271702D01*
G01*
G37*
G36*
G01*
X101573000Y-105753702D02*
X101573000Y-106762298D01*
G75*
G02*
X101301298Y-107034000I-271702J0D01*
G01*
X100567702Y-107034000D01*
G75*
G02*
X100296000Y-106762298I0J271702D01*
G01*
X100296000Y-105753702D01*
G75*
G02*
X100567702Y-105482000I271702J0D01*
G01*
X101301298Y-105482000D01*
G75*
G02*
X101573000Y-105753702I0J-271702D01*
G01*
G37*
G36*
G01*
X106048000Y-100997937D02*
X106048000Y-102168063D01*
G75*
G02*
X105782063Y-102434000I-265937J0D01*
G01*
X102711937Y-102434000D01*
G75*
G02*
X102446000Y-102168063I0J265937D01*
G01*
X102446000Y-100997937D01*
G75*
G02*
X102711937Y-100732000I265937J0D01*
G01*
X105782063Y-100732000D01*
G75*
G02*
X106048000Y-100997937I0J-265937D01*
G01*
G37*
G36*
G01*
X100648000Y-100997937D02*
X100648000Y-102168063D01*
G75*
G02*
X100382063Y-102434000I-265937J0D01*
G01*
X97311937Y-102434000D01*
G75*
G02*
X97046000Y-102168063I0J265937D01*
G01*
X97046000Y-100997937D01*
G75*
G02*
X97311937Y-100732000I265937J0D01*
G01*
X100382063Y-100732000D01*
G75*
G02*
X100648000Y-100997937I0J-265937D01*
G01*
G37*
G36*
G01*
X100623000Y-93747937D02*
X100623000Y-94918063D01*
G75*
G02*
X100357063Y-95184000I-265937J0D01*
G01*
X97286937Y-95184000D01*
G75*
G02*
X97021000Y-94918063I0J265937D01*
G01*
X97021000Y-93747937D01*
G75*
G02*
X97286937Y-93482000I265937J0D01*
G01*
X100357063Y-93482000D01*
G75*
G02*
X100623000Y-93747937I0J-265937D01*
G01*
G37*
G36*
G01*
X106023000Y-93747937D02*
X106023000Y-94918063D01*
G75*
G02*
X105757063Y-95184000I-265937J0D01*
G01*
X102686937Y-95184000D01*
G75*
G02*
X102421000Y-94918063I0J265937D01*
G01*
X102421000Y-93747937D01*
G75*
G02*
X102686937Y-93482000I265937J0D01*
G01*
X105757063Y-93482000D01*
G75*
G02*
X106023000Y-93747937I0J-265937D01*
G01*
G37*
G36*
G01*
X118746000Y-109358000D02*
X118746000Y-104858000D01*
G75*
G02*
X118797000Y-104807000I51000J0D01*
G01*
X122097000Y-104807000D01*
G75*
G02*
X122148000Y-104858000I0J-51000D01*
G01*
X122148000Y-109358000D01*
G75*
G02*
X122097000Y-109409000I-51000J0D01*
G01*
X118797000Y-109409000D01*
G75*
G02*
X118746000Y-109358000I0J51000D01*
G01*
G37*
G36*
G01*
X118746000Y-118158000D02*
X118746000Y-113658000D01*
G75*
G02*
X118797000Y-113607000I51000J0D01*
G01*
X122097000Y-113607000D01*
G75*
G02*
X122148000Y-113658000I0J-51000D01*
G01*
X122148000Y-118158000D01*
G75*
G02*
X122097000Y-118209000I-51000J0D01*
G01*
X118797000Y-118209000D01*
G75*
G02*
X118746000Y-118158000I0J51000D01*
G01*
G37*
G36*
G01*
X66002000Y-109808000D02*
X67002000Y-109808000D01*
G75*
G02*
X67053000Y-109859000I0J-51000D01*
G01*
X67053000Y-113009000D01*
G75*
G02*
X67002000Y-113060000I-51000J0D01*
G01*
X66002000Y-113060000D01*
G75*
G02*
X65951000Y-113009000I0J51000D01*
G01*
X65951000Y-109859000D01*
G75*
G02*
X66002000Y-109808000I51000J0D01*
G01*
G37*
G36*
G01*
X66002000Y-114858000D02*
X67002000Y-114858000D01*
G75*
G02*
X67053000Y-114909000I0J-51000D01*
G01*
X67053000Y-118059000D01*
G75*
G02*
X67002000Y-118110000I-51000J0D01*
G01*
X66002000Y-118110000D01*
G75*
G02*
X65951000Y-118059000I0J51000D01*
G01*
X65951000Y-114909000D01*
G75*
G02*
X66002000Y-114858000I51000J0D01*
G01*
G37*
G36*
G01*
X63462000Y-109808000D02*
X64462000Y-109808000D01*
G75*
G02*
X64513000Y-109859000I0J-51000D01*
G01*
X64513000Y-113009000D01*
G75*
G02*
X64462000Y-113060000I-51000J0D01*
G01*
X63462000Y-113060000D01*
G75*
G02*
X63411000Y-113009000I0J51000D01*
G01*
X63411000Y-109859000D01*
G75*
G02*
X63462000Y-109808000I51000J0D01*
G01*
G37*
G36*
G01*
X63462000Y-114858000D02*
X64462000Y-114858000D01*
G75*
G02*
X64513000Y-114909000I0J-51000D01*
G01*
X64513000Y-118059000D01*
G75*
G02*
X64462000Y-118110000I-51000J0D01*
G01*
X63462000Y-118110000D01*
G75*
G02*
X63411000Y-118059000I0J51000D01*
G01*
X63411000Y-114909000D01*
G75*
G02*
X63462000Y-114858000I51000J0D01*
G01*
G37*
G36*
G01*
X60922000Y-109808000D02*
X61922000Y-109808000D01*
G75*
G02*
X61973000Y-109859000I0J-51000D01*
G01*
X61973000Y-113009000D01*
G75*
G02*
X61922000Y-113060000I-51000J0D01*
G01*
X60922000Y-113060000D01*
G75*
G02*
X60871000Y-113009000I0J51000D01*
G01*
X60871000Y-109859000D01*
G75*
G02*
X60922000Y-109808000I51000J0D01*
G01*
G37*
G36*
G01*
X60922000Y-114858000D02*
X61922000Y-114858000D01*
G75*
G02*
X61973000Y-114909000I0J-51000D01*
G01*
X61973000Y-118059000D01*
G75*
G02*
X61922000Y-118110000I-51000J0D01*
G01*
X60922000Y-118110000D01*
G75*
G02*
X60871000Y-118059000I0J51000D01*
G01*
X60871000Y-114909000D01*
G75*
G02*
X60922000Y-114858000I51000J0D01*
G01*
G37*
G36*
G01*
X58382000Y-109808000D02*
X59382000Y-109808000D01*
G75*
G02*
X59433000Y-109859000I0J-51000D01*
G01*
X59433000Y-113009000D01*
G75*
G02*
X59382000Y-113060000I-51000J0D01*
G01*
X58382000Y-113060000D01*
G75*
G02*
X58331000Y-113009000I0J51000D01*
G01*
X58331000Y-109859000D01*
G75*
G02*
X58382000Y-109808000I51000J0D01*
G01*
G37*
G36*
G01*
X58382000Y-114858000D02*
X59382000Y-114858000D01*
G75*
G02*
X59433000Y-114909000I0J-51000D01*
G01*
X59433000Y-118059000D01*
G75*
G02*
X59382000Y-118110000I-51000J0D01*
G01*
X58382000Y-118110000D01*
G75*
G02*
X58331000Y-118059000I0J51000D01*
G01*
X58331000Y-114909000D01*
G75*
G02*
X58382000Y-114858000I51000J0D01*
G01*
G37*
G36*
G01*
X55842000Y-109808000D02*
X56842000Y-109808000D01*
G75*
G02*
X56893000Y-109859000I0J-51000D01*
G01*
X56893000Y-113009000D01*
G75*
G02*
X56842000Y-113060000I-51000J0D01*
G01*
X55842000Y-113060000D01*
G75*
G02*
X55791000Y-113009000I0J51000D01*
G01*
X55791000Y-109859000D01*
G75*
G02*
X55842000Y-109808000I51000J0D01*
G01*
G37*
G36*
G01*
X55842000Y-114858000D02*
X56842000Y-114858000D01*
G75*
G02*
X56893000Y-114909000I0J-51000D01*
G01*
X56893000Y-118059000D01*
G75*
G02*
X56842000Y-118110000I-51000J0D01*
G01*
X55842000Y-118110000D01*
G75*
G02*
X55791000Y-118059000I0J51000D01*
G01*
X55791000Y-114909000D01*
G75*
G02*
X55842000Y-114858000I51000J0D01*
G01*
G37*
G36*
G01*
X53302000Y-109808000D02*
X54302000Y-109808000D01*
G75*
G02*
X54353000Y-109859000I0J-51000D01*
G01*
X54353000Y-113009000D01*
G75*
G02*
X54302000Y-113060000I-51000J0D01*
G01*
X53302000Y-113060000D01*
G75*
G02*
X53251000Y-113009000I0J51000D01*
G01*
X53251000Y-109859000D01*
G75*
G02*
X53302000Y-109808000I51000J0D01*
G01*
G37*
G36*
G01*
X53302000Y-114858000D02*
X54302000Y-114858000D01*
G75*
G02*
X54353000Y-114909000I0J-51000D01*
G01*
X54353000Y-118059000D01*
G75*
G02*
X54302000Y-118110000I-51000J0D01*
G01*
X53302000Y-118110000D01*
G75*
G02*
X53251000Y-118059000I0J51000D01*
G01*
X53251000Y-114909000D01*
G75*
G02*
X53302000Y-114858000I51000J0D01*
G01*
G37*
G36*
G01*
X50762000Y-109808000D02*
X51762000Y-109808000D01*
G75*
G02*
X51813000Y-109859000I0J-51000D01*
G01*
X51813000Y-113009000D01*
G75*
G02*
X51762000Y-113060000I-51000J0D01*
G01*
X50762000Y-113060000D01*
G75*
G02*
X50711000Y-113009000I0J51000D01*
G01*
X50711000Y-109859000D01*
G75*
G02*
X50762000Y-109808000I51000J0D01*
G01*
G37*
G36*
G01*
X50762000Y-114858000D02*
X51762000Y-114858000D01*
G75*
G02*
X51813000Y-114909000I0J-51000D01*
G01*
X51813000Y-118059000D01*
G75*
G02*
X51762000Y-118110000I-51000J0D01*
G01*
X50762000Y-118110000D01*
G75*
G02*
X50711000Y-118059000I0J51000D01*
G01*
X50711000Y-114909000D01*
G75*
G02*
X50762000Y-114858000I51000J0D01*
G01*
G37*
G36*
G01*
X48222000Y-109808000D02*
X49222000Y-109808000D01*
G75*
G02*
X49273000Y-109859000I0J-51000D01*
G01*
X49273000Y-113009000D01*
G75*
G02*
X49222000Y-113060000I-51000J0D01*
G01*
X48222000Y-113060000D01*
G75*
G02*
X48171000Y-113009000I0J51000D01*
G01*
X48171000Y-109859000D01*
G75*
G02*
X48222000Y-109808000I51000J0D01*
G01*
G37*
G36*
G01*
X48222000Y-114858000D02*
X49222000Y-114858000D01*
G75*
G02*
X49273000Y-114909000I0J-51000D01*
G01*
X49273000Y-118059000D01*
G75*
G02*
X49222000Y-118110000I-51000J0D01*
G01*
X48222000Y-118110000D01*
G75*
G02*
X48171000Y-118059000I0J51000D01*
G01*
X48171000Y-114909000D01*
G75*
G02*
X48222000Y-114858000I51000J0D01*
G01*
G37*
G36*
G01*
X45682000Y-109808000D02*
X46682000Y-109808000D01*
G75*
G02*
X46733000Y-109859000I0J-51000D01*
G01*
X46733000Y-113009000D01*
G75*
G02*
X46682000Y-113060000I-51000J0D01*
G01*
X45682000Y-113060000D01*
G75*
G02*
X45631000Y-113009000I0J51000D01*
G01*
X45631000Y-109859000D01*
G75*
G02*
X45682000Y-109808000I51000J0D01*
G01*
G37*
G36*
G01*
X45682000Y-114858000D02*
X46682000Y-114858000D01*
G75*
G02*
X46733000Y-114909000I0J-51000D01*
G01*
X46733000Y-118059000D01*
G75*
G02*
X46682000Y-118110000I-51000J0D01*
G01*
X45682000Y-118110000D01*
G75*
G02*
X45631000Y-118059000I0J51000D01*
G01*
X45631000Y-114909000D01*
G75*
G02*
X45682000Y-114858000I51000J0D01*
G01*
G37*
G36*
G01*
X43142000Y-109808000D02*
X44142000Y-109808000D01*
G75*
G02*
X44193000Y-109859000I0J-51000D01*
G01*
X44193000Y-113009000D01*
G75*
G02*
X44142000Y-113060000I-51000J0D01*
G01*
X43142000Y-113060000D01*
G75*
G02*
X43091000Y-113009000I0J51000D01*
G01*
X43091000Y-109859000D01*
G75*
G02*
X43142000Y-109808000I51000J0D01*
G01*
G37*
G36*
G01*
X43142000Y-114858000D02*
X44142000Y-114858000D01*
G75*
G02*
X44193000Y-114909000I0J-51000D01*
G01*
X44193000Y-118059000D01*
G75*
G02*
X44142000Y-118110000I-51000J0D01*
G01*
X43142000Y-118110000D01*
G75*
G02*
X43091000Y-118059000I0J51000D01*
G01*
X43091000Y-114909000D01*
G75*
G02*
X43142000Y-114858000I51000J0D01*
G01*
G37*
G36*
G01*
X40602000Y-109808000D02*
X41602000Y-109808000D01*
G75*
G02*
X41653000Y-109859000I0J-51000D01*
G01*
X41653000Y-113009000D01*
G75*
G02*
X41602000Y-113060000I-51000J0D01*
G01*
X40602000Y-113060000D01*
G75*
G02*
X40551000Y-113009000I0J51000D01*
G01*
X40551000Y-109859000D01*
G75*
G02*
X40602000Y-109808000I51000J0D01*
G01*
G37*
G36*
G01*
X40602000Y-114858000D02*
X41602000Y-114858000D01*
G75*
G02*
X41653000Y-114909000I0J-51000D01*
G01*
X41653000Y-118059000D01*
G75*
G02*
X41602000Y-118110000I-51000J0D01*
G01*
X40602000Y-118110000D01*
G75*
G02*
X40551000Y-118059000I0J51000D01*
G01*
X40551000Y-114909000D01*
G75*
G02*
X40602000Y-114858000I51000J0D01*
G01*
G37*
G36*
G01*
X38062000Y-109808000D02*
X39062000Y-109808000D01*
G75*
G02*
X39113000Y-109859000I0J-51000D01*
G01*
X39113000Y-113009000D01*
G75*
G02*
X39062000Y-113060000I-51000J0D01*
G01*
X38062000Y-113060000D01*
G75*
G02*
X38011000Y-113009000I0J51000D01*
G01*
X38011000Y-109859000D01*
G75*
G02*
X38062000Y-109808000I51000J0D01*
G01*
G37*
G36*
G01*
X38062000Y-114858000D02*
X39062000Y-114858000D01*
G75*
G02*
X39113000Y-114909000I0J-51000D01*
G01*
X39113000Y-118059000D01*
G75*
G02*
X39062000Y-118110000I-51000J0D01*
G01*
X38062000Y-118110000D01*
G75*
G02*
X38011000Y-118059000I0J51000D01*
G01*
X38011000Y-114909000D01*
G75*
G02*
X38062000Y-114858000I51000J0D01*
G01*
G37*
G36*
G01*
X35522000Y-109808000D02*
X36522000Y-109808000D01*
G75*
G02*
X36573000Y-109859000I0J-51000D01*
G01*
X36573000Y-113009000D01*
G75*
G02*
X36522000Y-113060000I-51000J0D01*
G01*
X35522000Y-113060000D01*
G75*
G02*
X35471000Y-113009000I0J51000D01*
G01*
X35471000Y-109859000D01*
G75*
G02*
X35522000Y-109808000I51000J0D01*
G01*
G37*
G36*
G01*
X35522000Y-114858000D02*
X36522000Y-114858000D01*
G75*
G02*
X36573000Y-114909000I0J-51000D01*
G01*
X36573000Y-118059000D01*
G75*
G02*
X36522000Y-118110000I-51000J0D01*
G01*
X35522000Y-118110000D01*
G75*
G02*
X35471000Y-118059000I0J51000D01*
G01*
X35471000Y-114909000D01*
G75*
G02*
X35522000Y-114858000I51000J0D01*
G01*
G37*
G36*
G01*
X32982000Y-109808000D02*
X33982000Y-109808000D01*
G75*
G02*
X34033000Y-109859000I0J-51000D01*
G01*
X34033000Y-113009000D01*
G75*
G02*
X33982000Y-113060000I-51000J0D01*
G01*
X32982000Y-113060000D01*
G75*
G02*
X32931000Y-113009000I0J51000D01*
G01*
X32931000Y-109859000D01*
G75*
G02*
X32982000Y-109808000I51000J0D01*
G01*
G37*
G36*
G01*
X32982000Y-114858000D02*
X33982000Y-114858000D01*
G75*
G02*
X34033000Y-114909000I0J-51000D01*
G01*
X34033000Y-118059000D01*
G75*
G02*
X33982000Y-118110000I-51000J0D01*
G01*
X32982000Y-118110000D01*
G75*
G02*
X32931000Y-118059000I0J51000D01*
G01*
X32931000Y-114909000D01*
G75*
G02*
X32982000Y-114858000I51000J0D01*
G01*
G37*
G36*
G01*
X30442000Y-109808000D02*
X31442000Y-109808000D01*
G75*
G02*
X31493000Y-109859000I0J-51000D01*
G01*
X31493000Y-113009000D01*
G75*
G02*
X31442000Y-113060000I-51000J0D01*
G01*
X30442000Y-113060000D01*
G75*
G02*
X30391000Y-113009000I0J51000D01*
G01*
X30391000Y-109859000D01*
G75*
G02*
X30442000Y-109808000I51000J0D01*
G01*
G37*
G36*
G01*
X30442000Y-114858000D02*
X31442000Y-114858000D01*
G75*
G02*
X31493000Y-114909000I0J-51000D01*
G01*
X31493000Y-118059000D01*
G75*
G02*
X31442000Y-118110000I-51000J0D01*
G01*
X30442000Y-118110000D01*
G75*
G02*
X30391000Y-118059000I0J51000D01*
G01*
X30391000Y-114909000D01*
G75*
G02*
X30442000Y-114858000I51000J0D01*
G01*
G37*
G36*
G01*
X27902000Y-109808000D02*
X28902000Y-109808000D01*
G75*
G02*
X28953000Y-109859000I0J-51000D01*
G01*
X28953000Y-113009000D01*
G75*
G02*
X28902000Y-113060000I-51000J0D01*
G01*
X27902000Y-113060000D01*
G75*
G02*
X27851000Y-113009000I0J51000D01*
G01*
X27851000Y-109859000D01*
G75*
G02*
X27902000Y-109808000I51000J0D01*
G01*
G37*
G36*
G01*
X27902000Y-114858000D02*
X28902000Y-114858000D01*
G75*
G02*
X28953000Y-114909000I0J-51000D01*
G01*
X28953000Y-118059000D01*
G75*
G02*
X28902000Y-118110000I-51000J0D01*
G01*
X27902000Y-118110000D01*
G75*
G02*
X27851000Y-118059000I0J51000D01*
G01*
X27851000Y-114909000D01*
G75*
G02*
X27902000Y-114858000I51000J0D01*
G01*
G37*
G36*
G01*
X25362000Y-109808000D02*
X26362000Y-109808000D01*
G75*
G02*
X26413000Y-109859000I0J-51000D01*
G01*
X26413000Y-113009000D01*
G75*
G02*
X26362000Y-113060000I-51000J0D01*
G01*
X25362000Y-113060000D01*
G75*
G02*
X25311000Y-113009000I0J51000D01*
G01*
X25311000Y-109859000D01*
G75*
G02*
X25362000Y-109808000I51000J0D01*
G01*
G37*
G36*
G01*
X25362000Y-114858000D02*
X26362000Y-114858000D01*
G75*
G02*
X26413000Y-114909000I0J-51000D01*
G01*
X26413000Y-118059000D01*
G75*
G02*
X26362000Y-118110000I-51000J0D01*
G01*
X25362000Y-118110000D01*
G75*
G02*
X25311000Y-118059000I0J51000D01*
G01*
X25311000Y-114909000D01*
G75*
G02*
X25362000Y-114858000I51000J0D01*
G01*
G37*
G36*
G01*
X22822000Y-109808000D02*
X23822000Y-109808000D01*
G75*
G02*
X23873000Y-109859000I0J-51000D01*
G01*
X23873000Y-113009000D01*
G75*
G02*
X23822000Y-113060000I-51000J0D01*
G01*
X22822000Y-113060000D01*
G75*
G02*
X22771000Y-113009000I0J51000D01*
G01*
X22771000Y-109859000D01*
G75*
G02*
X22822000Y-109808000I51000J0D01*
G01*
G37*
G36*
G01*
X22822000Y-114858000D02*
X23822000Y-114858000D01*
G75*
G02*
X23873000Y-114909000I0J-51000D01*
G01*
X23873000Y-118059000D01*
G75*
G02*
X23822000Y-118110000I-51000J0D01*
G01*
X22822000Y-118110000D01*
G75*
G02*
X22771000Y-118059000I0J51000D01*
G01*
X22771000Y-114909000D01*
G75*
G02*
X22822000Y-114858000I51000J0D01*
G01*
G37*
G36*
G01*
X20282000Y-109808000D02*
X21282000Y-109808000D01*
G75*
G02*
X21333000Y-109859000I0J-51000D01*
G01*
X21333000Y-113009000D01*
G75*
G02*
X21282000Y-113060000I-51000J0D01*
G01*
X20282000Y-113060000D01*
G75*
G02*
X20231000Y-113009000I0J51000D01*
G01*
X20231000Y-109859000D01*
G75*
G02*
X20282000Y-109808000I51000J0D01*
G01*
G37*
G36*
G01*
X20282000Y-114858000D02*
X21282000Y-114858000D01*
G75*
G02*
X21333000Y-114909000I0J-51000D01*
G01*
X21333000Y-118059000D01*
G75*
G02*
X21282000Y-118110000I-51000J0D01*
G01*
X20282000Y-118110000D01*
G75*
G02*
X20231000Y-118059000I0J51000D01*
G01*
X20231000Y-114909000D01*
G75*
G02*
X20282000Y-114858000I51000J0D01*
G01*
G37*
G36*
G01*
X17742000Y-109808000D02*
X18742000Y-109808000D01*
G75*
G02*
X18793000Y-109859000I0J-51000D01*
G01*
X18793000Y-113009000D01*
G75*
G02*
X18742000Y-113060000I-51000J0D01*
G01*
X17742000Y-113060000D01*
G75*
G02*
X17691000Y-113009000I0J51000D01*
G01*
X17691000Y-109859000D01*
G75*
G02*
X17742000Y-109808000I51000J0D01*
G01*
G37*
G36*
G01*
X17742000Y-114858000D02*
X18742000Y-114858000D01*
G75*
G02*
X18793000Y-114909000I0J-51000D01*
G01*
X18793000Y-118059000D01*
G75*
G02*
X18742000Y-118110000I-51000J0D01*
G01*
X17742000Y-118110000D01*
G75*
G02*
X17691000Y-118059000I0J51000D01*
G01*
X17691000Y-114909000D01*
G75*
G02*
X17742000Y-114858000I51000J0D01*
G01*
G37*
G36*
G01*
X17742000Y-102333000D02*
X18742000Y-102333000D01*
G75*
G02*
X18793000Y-102384000I0J-51000D01*
G01*
X18793000Y-105534000D01*
G75*
G02*
X18742000Y-105585000I-51000J0D01*
G01*
X17742000Y-105585000D01*
G75*
G02*
X17691000Y-105534000I0J51000D01*
G01*
X17691000Y-102384000D01*
G75*
G02*
X17742000Y-102333000I51000J0D01*
G01*
G37*
G36*
G01*
X17742000Y-97283000D02*
X18742000Y-97283000D01*
G75*
G02*
X18793000Y-97334000I0J-51000D01*
G01*
X18793000Y-100484000D01*
G75*
G02*
X18742000Y-100535000I-51000J0D01*
G01*
X17742000Y-100535000D01*
G75*
G02*
X17691000Y-100484000I0J51000D01*
G01*
X17691000Y-97334000D01*
G75*
G02*
X17742000Y-97283000I51000J0D01*
G01*
G37*
G36*
G01*
X20282000Y-102333000D02*
X21282000Y-102333000D01*
G75*
G02*
X21333000Y-102384000I0J-51000D01*
G01*
X21333000Y-105534000D01*
G75*
G02*
X21282000Y-105585000I-51000J0D01*
G01*
X20282000Y-105585000D01*
G75*
G02*
X20231000Y-105534000I0J51000D01*
G01*
X20231000Y-102384000D01*
G75*
G02*
X20282000Y-102333000I51000J0D01*
G01*
G37*
G36*
G01*
X20282000Y-97283000D02*
X21282000Y-97283000D01*
G75*
G02*
X21333000Y-97334000I0J-51000D01*
G01*
X21333000Y-100484000D01*
G75*
G02*
X21282000Y-100535000I-51000J0D01*
G01*
X20282000Y-100535000D01*
G75*
G02*
X20231000Y-100484000I0J51000D01*
G01*
X20231000Y-97334000D01*
G75*
G02*
X20282000Y-97283000I51000J0D01*
G01*
G37*
G36*
G01*
X22822000Y-102333000D02*
X23822000Y-102333000D01*
G75*
G02*
X23873000Y-102384000I0J-51000D01*
G01*
X23873000Y-105534000D01*
G75*
G02*
X23822000Y-105585000I-51000J0D01*
G01*
X22822000Y-105585000D01*
G75*
G02*
X22771000Y-105534000I0J51000D01*
G01*
X22771000Y-102384000D01*
G75*
G02*
X22822000Y-102333000I51000J0D01*
G01*
G37*
G36*
G01*
X22822000Y-97283000D02*
X23822000Y-97283000D01*
G75*
G02*
X23873000Y-97334000I0J-51000D01*
G01*
X23873000Y-100484000D01*
G75*
G02*
X23822000Y-100535000I-51000J0D01*
G01*
X22822000Y-100535000D01*
G75*
G02*
X22771000Y-100484000I0J51000D01*
G01*
X22771000Y-97334000D01*
G75*
G02*
X22822000Y-97283000I51000J0D01*
G01*
G37*
G36*
G01*
X25362000Y-102333000D02*
X26362000Y-102333000D01*
G75*
G02*
X26413000Y-102384000I0J-51000D01*
G01*
X26413000Y-105534000D01*
G75*
G02*
X26362000Y-105585000I-51000J0D01*
G01*
X25362000Y-105585000D01*
G75*
G02*
X25311000Y-105534000I0J51000D01*
G01*
X25311000Y-102384000D01*
G75*
G02*
X25362000Y-102333000I51000J0D01*
G01*
G37*
G36*
G01*
X25362000Y-97283000D02*
X26362000Y-97283000D01*
G75*
G02*
X26413000Y-97334000I0J-51000D01*
G01*
X26413000Y-100484000D01*
G75*
G02*
X26362000Y-100535000I-51000J0D01*
G01*
X25362000Y-100535000D01*
G75*
G02*
X25311000Y-100484000I0J51000D01*
G01*
X25311000Y-97334000D01*
G75*
G02*
X25362000Y-97283000I51000J0D01*
G01*
G37*
G36*
G01*
X27902000Y-102333000D02*
X28902000Y-102333000D01*
G75*
G02*
X28953000Y-102384000I0J-51000D01*
G01*
X28953000Y-105534000D01*
G75*
G02*
X28902000Y-105585000I-51000J0D01*
G01*
X27902000Y-105585000D01*
G75*
G02*
X27851000Y-105534000I0J51000D01*
G01*
X27851000Y-102384000D01*
G75*
G02*
X27902000Y-102333000I51000J0D01*
G01*
G37*
G36*
G01*
X27902000Y-97283000D02*
X28902000Y-97283000D01*
G75*
G02*
X28953000Y-97334000I0J-51000D01*
G01*
X28953000Y-100484000D01*
G75*
G02*
X28902000Y-100535000I-51000J0D01*
G01*
X27902000Y-100535000D01*
G75*
G02*
X27851000Y-100484000I0J51000D01*
G01*
X27851000Y-97334000D01*
G75*
G02*
X27902000Y-97283000I51000J0D01*
G01*
G37*
G36*
G01*
X30442000Y-102333000D02*
X31442000Y-102333000D01*
G75*
G02*
X31493000Y-102384000I0J-51000D01*
G01*
X31493000Y-105534000D01*
G75*
G02*
X31442000Y-105585000I-51000J0D01*
G01*
X30442000Y-105585000D01*
G75*
G02*
X30391000Y-105534000I0J51000D01*
G01*
X30391000Y-102384000D01*
G75*
G02*
X30442000Y-102333000I51000J0D01*
G01*
G37*
G36*
G01*
X30442000Y-97283000D02*
X31442000Y-97283000D01*
G75*
G02*
X31493000Y-97334000I0J-51000D01*
G01*
X31493000Y-100484000D01*
G75*
G02*
X31442000Y-100535000I-51000J0D01*
G01*
X30442000Y-100535000D01*
G75*
G02*
X30391000Y-100484000I0J51000D01*
G01*
X30391000Y-97334000D01*
G75*
G02*
X30442000Y-97283000I51000J0D01*
G01*
G37*
G36*
G01*
X32982000Y-102333000D02*
X33982000Y-102333000D01*
G75*
G02*
X34033000Y-102384000I0J-51000D01*
G01*
X34033000Y-105534000D01*
G75*
G02*
X33982000Y-105585000I-51000J0D01*
G01*
X32982000Y-105585000D01*
G75*
G02*
X32931000Y-105534000I0J51000D01*
G01*
X32931000Y-102384000D01*
G75*
G02*
X32982000Y-102333000I51000J0D01*
G01*
G37*
G36*
G01*
X32982000Y-97283000D02*
X33982000Y-97283000D01*
G75*
G02*
X34033000Y-97334000I0J-51000D01*
G01*
X34033000Y-100484000D01*
G75*
G02*
X33982000Y-100535000I-51000J0D01*
G01*
X32982000Y-100535000D01*
G75*
G02*
X32931000Y-100484000I0J51000D01*
G01*
X32931000Y-97334000D01*
G75*
G02*
X32982000Y-97283000I51000J0D01*
G01*
G37*
G36*
G01*
X35522000Y-102333000D02*
X36522000Y-102333000D01*
G75*
G02*
X36573000Y-102384000I0J-51000D01*
G01*
X36573000Y-105534000D01*
G75*
G02*
X36522000Y-105585000I-51000J0D01*
G01*
X35522000Y-105585000D01*
G75*
G02*
X35471000Y-105534000I0J51000D01*
G01*
X35471000Y-102384000D01*
G75*
G02*
X35522000Y-102333000I51000J0D01*
G01*
G37*
G36*
G01*
X35522000Y-97283000D02*
X36522000Y-97283000D01*
G75*
G02*
X36573000Y-97334000I0J-51000D01*
G01*
X36573000Y-100484000D01*
G75*
G02*
X36522000Y-100535000I-51000J0D01*
G01*
X35522000Y-100535000D01*
G75*
G02*
X35471000Y-100484000I0J51000D01*
G01*
X35471000Y-97334000D01*
G75*
G02*
X35522000Y-97283000I51000J0D01*
G01*
G37*
G36*
G01*
X38062000Y-102333000D02*
X39062000Y-102333000D01*
G75*
G02*
X39113000Y-102384000I0J-51000D01*
G01*
X39113000Y-105534000D01*
G75*
G02*
X39062000Y-105585000I-51000J0D01*
G01*
X38062000Y-105585000D01*
G75*
G02*
X38011000Y-105534000I0J51000D01*
G01*
X38011000Y-102384000D01*
G75*
G02*
X38062000Y-102333000I51000J0D01*
G01*
G37*
G36*
G01*
X38062000Y-97283000D02*
X39062000Y-97283000D01*
G75*
G02*
X39113000Y-97334000I0J-51000D01*
G01*
X39113000Y-100484000D01*
G75*
G02*
X39062000Y-100535000I-51000J0D01*
G01*
X38062000Y-100535000D01*
G75*
G02*
X38011000Y-100484000I0J51000D01*
G01*
X38011000Y-97334000D01*
G75*
G02*
X38062000Y-97283000I51000J0D01*
G01*
G37*
G36*
G01*
X40602000Y-102333000D02*
X41602000Y-102333000D01*
G75*
G02*
X41653000Y-102384000I0J-51000D01*
G01*
X41653000Y-105534000D01*
G75*
G02*
X41602000Y-105585000I-51000J0D01*
G01*
X40602000Y-105585000D01*
G75*
G02*
X40551000Y-105534000I0J51000D01*
G01*
X40551000Y-102384000D01*
G75*
G02*
X40602000Y-102333000I51000J0D01*
G01*
G37*
G36*
G01*
X40602000Y-97283000D02*
X41602000Y-97283000D01*
G75*
G02*
X41653000Y-97334000I0J-51000D01*
G01*
X41653000Y-100484000D01*
G75*
G02*
X41602000Y-100535000I-51000J0D01*
G01*
X40602000Y-100535000D01*
G75*
G02*
X40551000Y-100484000I0J51000D01*
G01*
X40551000Y-97334000D01*
G75*
G02*
X40602000Y-97283000I51000J0D01*
G01*
G37*
G36*
G01*
X43142000Y-102333000D02*
X44142000Y-102333000D01*
G75*
G02*
X44193000Y-102384000I0J-51000D01*
G01*
X44193000Y-105534000D01*
G75*
G02*
X44142000Y-105585000I-51000J0D01*
G01*
X43142000Y-105585000D01*
G75*
G02*
X43091000Y-105534000I0J51000D01*
G01*
X43091000Y-102384000D01*
G75*
G02*
X43142000Y-102333000I51000J0D01*
G01*
G37*
G36*
G01*
X43142000Y-97283000D02*
X44142000Y-97283000D01*
G75*
G02*
X44193000Y-97334000I0J-51000D01*
G01*
X44193000Y-100484000D01*
G75*
G02*
X44142000Y-100535000I-51000J0D01*
G01*
X43142000Y-100535000D01*
G75*
G02*
X43091000Y-100484000I0J51000D01*
G01*
X43091000Y-97334000D01*
G75*
G02*
X43142000Y-97283000I51000J0D01*
G01*
G37*
G36*
G01*
X45682000Y-102333000D02*
X46682000Y-102333000D01*
G75*
G02*
X46733000Y-102384000I0J-51000D01*
G01*
X46733000Y-105534000D01*
G75*
G02*
X46682000Y-105585000I-51000J0D01*
G01*
X45682000Y-105585000D01*
G75*
G02*
X45631000Y-105534000I0J51000D01*
G01*
X45631000Y-102384000D01*
G75*
G02*
X45682000Y-102333000I51000J0D01*
G01*
G37*
G36*
G01*
X45682000Y-97283000D02*
X46682000Y-97283000D01*
G75*
G02*
X46733000Y-97334000I0J-51000D01*
G01*
X46733000Y-100484000D01*
G75*
G02*
X46682000Y-100535000I-51000J0D01*
G01*
X45682000Y-100535000D01*
G75*
G02*
X45631000Y-100484000I0J51000D01*
G01*
X45631000Y-97334000D01*
G75*
G02*
X45682000Y-97283000I51000J0D01*
G01*
G37*
G36*
G01*
X48222000Y-102333000D02*
X49222000Y-102333000D01*
G75*
G02*
X49273000Y-102384000I0J-51000D01*
G01*
X49273000Y-105534000D01*
G75*
G02*
X49222000Y-105585000I-51000J0D01*
G01*
X48222000Y-105585000D01*
G75*
G02*
X48171000Y-105534000I0J51000D01*
G01*
X48171000Y-102384000D01*
G75*
G02*
X48222000Y-102333000I51000J0D01*
G01*
G37*
G36*
G01*
X48222000Y-97283000D02*
X49222000Y-97283000D01*
G75*
G02*
X49273000Y-97334000I0J-51000D01*
G01*
X49273000Y-100484000D01*
G75*
G02*
X49222000Y-100535000I-51000J0D01*
G01*
X48222000Y-100535000D01*
G75*
G02*
X48171000Y-100484000I0J51000D01*
G01*
X48171000Y-97334000D01*
G75*
G02*
X48222000Y-97283000I51000J0D01*
G01*
G37*
G36*
G01*
X50762000Y-102333000D02*
X51762000Y-102333000D01*
G75*
G02*
X51813000Y-102384000I0J-51000D01*
G01*
X51813000Y-105534000D01*
G75*
G02*
X51762000Y-105585000I-51000J0D01*
G01*
X50762000Y-105585000D01*
G75*
G02*
X50711000Y-105534000I0J51000D01*
G01*
X50711000Y-102384000D01*
G75*
G02*
X50762000Y-102333000I51000J0D01*
G01*
G37*
G36*
G01*
X50762000Y-97283000D02*
X51762000Y-97283000D01*
G75*
G02*
X51813000Y-97334000I0J-51000D01*
G01*
X51813000Y-100484000D01*
G75*
G02*
X51762000Y-100535000I-51000J0D01*
G01*
X50762000Y-100535000D01*
G75*
G02*
X50711000Y-100484000I0J51000D01*
G01*
X50711000Y-97334000D01*
G75*
G02*
X50762000Y-97283000I51000J0D01*
G01*
G37*
G36*
G01*
X53302000Y-102333000D02*
X54302000Y-102333000D01*
G75*
G02*
X54353000Y-102384000I0J-51000D01*
G01*
X54353000Y-105534000D01*
G75*
G02*
X54302000Y-105585000I-51000J0D01*
G01*
X53302000Y-105585000D01*
G75*
G02*
X53251000Y-105534000I0J51000D01*
G01*
X53251000Y-102384000D01*
G75*
G02*
X53302000Y-102333000I51000J0D01*
G01*
G37*
G36*
G01*
X53302000Y-97283000D02*
X54302000Y-97283000D01*
G75*
G02*
X54353000Y-97334000I0J-51000D01*
G01*
X54353000Y-100484000D01*
G75*
G02*
X54302000Y-100535000I-51000J0D01*
G01*
X53302000Y-100535000D01*
G75*
G02*
X53251000Y-100484000I0J51000D01*
G01*
X53251000Y-97334000D01*
G75*
G02*
X53302000Y-97283000I51000J0D01*
G01*
G37*
G36*
G01*
X55842000Y-102333000D02*
X56842000Y-102333000D01*
G75*
G02*
X56893000Y-102384000I0J-51000D01*
G01*
X56893000Y-105534000D01*
G75*
G02*
X56842000Y-105585000I-51000J0D01*
G01*
X55842000Y-105585000D01*
G75*
G02*
X55791000Y-105534000I0J51000D01*
G01*
X55791000Y-102384000D01*
G75*
G02*
X55842000Y-102333000I51000J0D01*
G01*
G37*
G36*
G01*
X55842000Y-97283000D02*
X56842000Y-97283000D01*
G75*
G02*
X56893000Y-97334000I0J-51000D01*
G01*
X56893000Y-100484000D01*
G75*
G02*
X56842000Y-100535000I-51000J0D01*
G01*
X55842000Y-100535000D01*
G75*
G02*
X55791000Y-100484000I0J51000D01*
G01*
X55791000Y-97334000D01*
G75*
G02*
X55842000Y-97283000I51000J0D01*
G01*
G37*
G36*
G01*
X58382000Y-102333000D02*
X59382000Y-102333000D01*
G75*
G02*
X59433000Y-102384000I0J-51000D01*
G01*
X59433000Y-105534000D01*
G75*
G02*
X59382000Y-105585000I-51000J0D01*
G01*
X58382000Y-105585000D01*
G75*
G02*
X58331000Y-105534000I0J51000D01*
G01*
X58331000Y-102384000D01*
G75*
G02*
X58382000Y-102333000I51000J0D01*
G01*
G37*
G36*
G01*
X58382000Y-97283000D02*
X59382000Y-97283000D01*
G75*
G02*
X59433000Y-97334000I0J-51000D01*
G01*
X59433000Y-100484000D01*
G75*
G02*
X59382000Y-100535000I-51000J0D01*
G01*
X58382000Y-100535000D01*
G75*
G02*
X58331000Y-100484000I0J51000D01*
G01*
X58331000Y-97334000D01*
G75*
G02*
X58382000Y-97283000I51000J0D01*
G01*
G37*
G36*
G01*
X60922000Y-102333000D02*
X61922000Y-102333000D01*
G75*
G02*
X61973000Y-102384000I0J-51000D01*
G01*
X61973000Y-105534000D01*
G75*
G02*
X61922000Y-105585000I-51000J0D01*
G01*
X60922000Y-105585000D01*
G75*
G02*
X60871000Y-105534000I0J51000D01*
G01*
X60871000Y-102384000D01*
G75*
G02*
X60922000Y-102333000I51000J0D01*
G01*
G37*
G36*
G01*
X60922000Y-97283000D02*
X61922000Y-97283000D01*
G75*
G02*
X61973000Y-97334000I0J-51000D01*
G01*
X61973000Y-100484000D01*
G75*
G02*
X61922000Y-100535000I-51000J0D01*
G01*
X60922000Y-100535000D01*
G75*
G02*
X60871000Y-100484000I0J51000D01*
G01*
X60871000Y-97334000D01*
G75*
G02*
X60922000Y-97283000I51000J0D01*
G01*
G37*
G36*
G01*
X63462000Y-102333000D02*
X64462000Y-102333000D01*
G75*
G02*
X64513000Y-102384000I0J-51000D01*
G01*
X64513000Y-105534000D01*
G75*
G02*
X64462000Y-105585000I-51000J0D01*
G01*
X63462000Y-105585000D01*
G75*
G02*
X63411000Y-105534000I0J51000D01*
G01*
X63411000Y-102384000D01*
G75*
G02*
X63462000Y-102333000I51000J0D01*
G01*
G37*
G36*
G01*
X63462000Y-97283000D02*
X64462000Y-97283000D01*
G75*
G02*
X64513000Y-97334000I0J-51000D01*
G01*
X64513000Y-100484000D01*
G75*
G02*
X64462000Y-100535000I-51000J0D01*
G01*
X63462000Y-100535000D01*
G75*
G02*
X63411000Y-100484000I0J51000D01*
G01*
X63411000Y-97334000D01*
G75*
G02*
X63462000Y-97283000I51000J0D01*
G01*
G37*
G36*
G01*
X66002000Y-102333000D02*
X67002000Y-102333000D01*
G75*
G02*
X67053000Y-102384000I0J-51000D01*
G01*
X67053000Y-105534000D01*
G75*
G02*
X67002000Y-105585000I-51000J0D01*
G01*
X66002000Y-105585000D01*
G75*
G02*
X65951000Y-105534000I0J51000D01*
G01*
X65951000Y-102384000D01*
G75*
G02*
X66002000Y-102333000I51000J0D01*
G01*
G37*
G36*
G01*
X66002000Y-97283000D02*
X67002000Y-97283000D01*
G75*
G02*
X67053000Y-97334000I0J-51000D01*
G01*
X67053000Y-100484000D01*
G75*
G02*
X67002000Y-100535000I-51000J0D01*
G01*
X66002000Y-100535000D01*
G75*
G02*
X65951000Y-100484000I0J51000D01*
G01*
X65951000Y-97334000D01*
G75*
G02*
X66002000Y-97283000I51000J0D01*
G01*
G37*
D15*
X87522000Y-48808000D03*
X82442000Y-48808000D03*
X77362000Y-48808000D03*
X72282000Y-48808000D03*
X67202000Y-48808000D03*
X62122000Y-48808000D03*
X57042000Y-48808000D03*
X51962000Y-48808000D03*
X46882000Y-48808000D03*
X41802000Y-48808000D03*
X36722000Y-48808000D03*
X31642000Y-48808000D03*
X25572000Y-70358000D03*
X30652000Y-70358000D03*
X35732000Y-70358000D03*
X40812000Y-70358000D03*
X45892000Y-70358000D03*
X50972000Y-70358000D03*
X56052000Y-70358000D03*
X61132000Y-70358000D03*
X66212000Y-70358000D03*
X71292000Y-70358000D03*
X76372000Y-70358000D03*
X81452000Y-70358000D03*
X128642000Y-48808000D03*
X133702000Y-48808000D03*
X138782000Y-48808000D03*
X143862000Y-48808000D03*
X148942000Y-48808000D03*
X154022000Y-48808000D03*
X159102000Y-48808000D03*
X164182000Y-48808000D03*
X169262000Y-48808000D03*
X174342000Y-48808000D03*
X179422000Y-48808000D03*
X184502000Y-48808000D03*
X122572000Y-70358000D03*
X127652000Y-70358000D03*
X132732000Y-70358000D03*
X137812000Y-70358000D03*
X142892000Y-70358000D03*
X147972000Y-70358000D03*
X153052000Y-70358000D03*
X158132000Y-70358000D03*
X163212000Y-70358000D03*
X168292000Y-70358000D03*
X173372000Y-70358000D03*
X178452000Y-70358000D03*
X184532000Y-137288000D03*
X179452000Y-137288000D03*
X174372000Y-137288000D03*
X169292000Y-137288000D03*
X164212000Y-137288000D03*
X159132000Y-137288000D03*
X154052000Y-137288000D03*
X148972000Y-137288000D03*
X143892000Y-137288000D03*
X138812000Y-137288000D03*
X133732000Y-137288000D03*
X128652000Y-137288000D03*
X178452000Y-158858000D03*
X173372000Y-158858000D03*
X168292000Y-158858000D03*
X163212000Y-158858000D03*
X158132000Y-158858000D03*
X153052000Y-158858000D03*
X147972000Y-158858000D03*
X142892000Y-158858000D03*
X137812000Y-158858000D03*
X132732000Y-158858000D03*
X127652000Y-158858000D03*
X122572000Y-158858000D03*
X22882000Y-137308000D03*
X27962000Y-137308000D03*
X33042000Y-137308000D03*
X38122000Y-137308000D03*
X43202000Y-137308000D03*
X48282000Y-137308000D03*
X53362000Y-137308000D03*
X58442000Y-137308000D03*
X63522000Y-137308000D03*
X68602000Y-137308000D03*
X73682000Y-137308000D03*
X78762000Y-137308000D03*
G36*
G01*
X185973346Y-123769000D02*
X184210654Y-123769000D01*
G75*
G02*
X183946000Y-123504346I0J264654D01*
G01*
X183946000Y-122191654D01*
G75*
G02*
X184210654Y-121927000I264654J0D01*
G01*
X185973346Y-121927000D01*
G75*
G02*
X186238000Y-122191654I0J-264654D01*
G01*
X186238000Y-123504346D01*
G75*
G02*
X185973346Y-123769000I-264654J0D01*
G01*
G37*
D16*
X185092000Y-120308000D03*
X185092000Y-117768000D03*
X185052000Y-126588000D03*
X185052000Y-129128000D03*
G36*
G01*
X185933346Y-132589000D02*
X184170654Y-132589000D01*
G75*
G02*
X183906000Y-132324346I0J264654D01*
G01*
X183906000Y-131011654D01*
G75*
G02*
X184170654Y-130747000I264654J0D01*
G01*
X185933346Y-130747000D01*
G75*
G02*
X186198000Y-131011654I0J-264654D01*
G01*
X186198000Y-132324346D01*
G75*
G02*
X185933346Y-132589000I-264654J0D01*
G01*
G37*
G36*
G01*
X97046000Y-137996250D02*
X97046000Y-135819750D01*
G75*
G02*
X97308750Y-135557000I262750J0D01*
G01*
X98885250Y-135557000D01*
G75*
G02*
X99148000Y-135819750I0J-262750D01*
G01*
X99148000Y-137996250D01*
G75*
G02*
X98885250Y-138259000I-262750J0D01*
G01*
X97308750Y-138259000D01*
G75*
G02*
X97046000Y-137996250I0J262750D01*
G01*
G37*
D17*
X101597000Y-136908000D03*
G36*
G01*
X108446000Y-100258000D02*
X108446000Y-95258000D01*
G75*
G02*
X108497000Y-95207000I51000J0D01*
G01*
X112997000Y-95207000D01*
G75*
G02*
X113048000Y-95258000I0J-51000D01*
G01*
X113048000Y-100258000D01*
G75*
G02*
X112997000Y-100309000I-51000J0D01*
G01*
X108497000Y-100309000D01*
G75*
G02*
X108446000Y-100258000I0J51000D01*
G01*
G37*
G36*
G01*
X118946000Y-100258000D02*
X118946000Y-95258000D01*
G75*
G02*
X118997000Y-95207000I51000J0D01*
G01*
X123497000Y-95207000D01*
G75*
G02*
X123548000Y-95258000I0J-51000D01*
G01*
X123548000Y-100258000D01*
G75*
G02*
X123497000Y-100309000I-51000J0D01*
G01*
X118997000Y-100309000D01*
G75*
G02*
X118946000Y-100258000I0J51000D01*
G01*
G37*
D18*
G36*
X102675480Y-64398050D02*
G01*
X102678382Y-64388483D01*
X102683095Y-64379666D01*
X102689438Y-64371938D01*
X102697166Y-64365595D01*
X102705983Y-64360882D01*
X102715550Y-64357980D01*
X102725500Y-64357000D01*
X104458500Y-64357000D01*
X104468450Y-64357980D01*
X104478017Y-64360882D01*
X104486834Y-64365595D01*
X104494562Y-64371938D01*
X104500905Y-64379666D01*
X104505618Y-64388483D01*
X104508520Y-64398050D01*
X104509500Y-64408000D01*
X104509500Y-68533000D01*
X104508520Y-68542950D01*
X104505618Y-68552517D01*
X104500905Y-68561334D01*
X104494562Y-68569062D01*
X104486834Y-68575405D01*
X104478017Y-68580118D01*
X104468450Y-68583020D01*
X104458500Y-68584000D01*
X104093000Y-68584000D01*
X104093000Y-71008000D01*
X104092020Y-71017950D01*
X104089118Y-71027517D01*
X104084405Y-71036334D01*
X104078062Y-71044062D01*
X104070334Y-71050405D01*
X104061517Y-71055118D01*
X104051950Y-71058020D01*
X104042000Y-71059000D01*
X103142000Y-71059000D01*
X103132050Y-71058020D01*
X103122483Y-71055118D01*
X103113666Y-71050405D01*
X103105938Y-71044062D01*
X103099595Y-71036334D01*
X103094882Y-71027517D01*
X103091980Y-71017950D01*
X103091000Y-71008000D01*
X103091000Y-68584000D01*
X102725500Y-68584000D01*
X102715550Y-68583020D01*
X102705983Y-68580118D01*
X102697166Y-68575405D01*
X102689438Y-68569062D01*
X102683095Y-68561334D01*
X102678382Y-68552517D01*
X102675480Y-68542950D01*
X102674500Y-68533000D01*
X102674500Y-64408000D01*
X102675480Y-64398050D01*
G37*
G36*
G01*
X105542000Y-71059000D02*
X104642000Y-71059000D01*
G75*
G02*
X104591000Y-71008000I0J51000D01*
G01*
X104591000Y-68708000D01*
G75*
G02*
X104642000Y-68657000I51000J0D01*
G01*
X105542000Y-68657000D01*
G75*
G02*
X105593000Y-68708000I0J-51000D01*
G01*
X105593000Y-71008000D01*
G75*
G02*
X105542000Y-71059000I-51000J0D01*
G01*
G37*
G36*
G01*
X102542000Y-71059000D02*
X101642000Y-71059000D01*
G75*
G02*
X101591000Y-71008000I0J51000D01*
G01*
X101591000Y-68708000D01*
G75*
G02*
X101642000Y-68657000I51000J0D01*
G01*
X102542000Y-68657000D01*
G75*
G02*
X102593000Y-68708000I0J-51000D01*
G01*
X102593000Y-71008000D01*
G75*
G02*
X102542000Y-71059000I-51000J0D01*
G01*
G37*
G36*
G01*
X107922000Y-71059000D02*
X107022000Y-71059000D01*
G75*
G02*
X106971000Y-71008000I0J51000D01*
G01*
X106971000Y-68708000D01*
G75*
G02*
X107022000Y-68657000I51000J0D01*
G01*
X107922000Y-68657000D01*
G75*
G02*
X107973000Y-68708000I0J-51000D01*
G01*
X107973000Y-71008000D01*
G75*
G02*
X107922000Y-71059000I-51000J0D01*
G01*
G37*
G36*
G01*
X110922000Y-71059000D02*
X110022000Y-71059000D01*
G75*
G02*
X109971000Y-71008000I0J51000D01*
G01*
X109971000Y-68708000D01*
G75*
G02*
X110022000Y-68657000I51000J0D01*
G01*
X110922000Y-68657000D01*
G75*
G02*
X110973000Y-68708000I0J-51000D01*
G01*
X110973000Y-71008000D01*
G75*
G02*
X110922000Y-71059000I-51000J0D01*
G01*
G37*
G36*
X108055480Y-64398050D02*
G01*
X108058382Y-64388483D01*
X108063095Y-64379666D01*
X108069438Y-64371938D01*
X108077166Y-64365595D01*
X108085983Y-64360882D01*
X108095550Y-64357980D01*
X108105500Y-64357000D01*
X109838500Y-64357000D01*
X109848450Y-64357980D01*
X109858017Y-64360882D01*
X109866834Y-64365595D01*
X109874562Y-64371938D01*
X109880905Y-64379666D01*
X109885618Y-64388483D01*
X109888520Y-64398050D01*
X109889500Y-64408000D01*
X109889500Y-68533000D01*
X109888520Y-68542950D01*
X109885618Y-68552517D01*
X109880905Y-68561334D01*
X109874562Y-68569062D01*
X109866834Y-68575405D01*
X109858017Y-68580118D01*
X109848450Y-68583020D01*
X109838500Y-68584000D01*
X109473000Y-68584000D01*
X109473000Y-71008000D01*
X109472020Y-71017950D01*
X109469118Y-71027517D01*
X109464405Y-71036334D01*
X109458062Y-71044062D01*
X109450334Y-71050405D01*
X109441517Y-71055118D01*
X109431950Y-71058020D01*
X109422000Y-71059000D01*
X108522000Y-71059000D01*
X108512050Y-71058020D01*
X108502483Y-71055118D01*
X108493666Y-71050405D01*
X108485938Y-71044062D01*
X108479595Y-71036334D01*
X108474882Y-71027517D01*
X108471980Y-71017950D01*
X108471000Y-71008000D01*
X108471000Y-68584000D01*
X108105500Y-68584000D01*
X108095550Y-68583020D01*
X108085983Y-68580118D01*
X108077166Y-68575405D01*
X108069438Y-68569062D01*
X108063095Y-68561334D01*
X108058382Y-68552517D01*
X108055480Y-68542950D01*
X108054500Y-68533000D01*
X108054500Y-64408000D01*
X108055480Y-64398050D01*
G37*
G36*
G01*
X135642000Y-125467000D02*
X136542000Y-125467000D01*
G75*
G02*
X136593000Y-125518000I0J-51000D01*
G01*
X136593000Y-127818000D01*
G75*
G02*
X136542000Y-127869000I-51000J0D01*
G01*
X135642000Y-127869000D01*
G75*
G02*
X135591000Y-127818000I0J51000D01*
G01*
X135591000Y-125518000D01*
G75*
G02*
X135642000Y-125467000I51000J0D01*
G01*
G37*
G36*
G01*
X132642000Y-125467000D02*
X133542000Y-125467000D01*
G75*
G02*
X133593000Y-125518000I0J-51000D01*
G01*
X133593000Y-127818000D01*
G75*
G02*
X133542000Y-127869000I-51000J0D01*
G01*
X132642000Y-127869000D01*
G75*
G02*
X132591000Y-127818000I0J51000D01*
G01*
X132591000Y-125518000D01*
G75*
G02*
X132642000Y-125467000I51000J0D01*
G01*
G37*
G36*
X135508520Y-132127950D02*
G01*
X135505618Y-132137517D01*
X135500905Y-132146334D01*
X135494562Y-132154062D01*
X135486834Y-132160405D01*
X135478017Y-132165118D01*
X135468450Y-132168020D01*
X135458500Y-132169000D01*
X133725500Y-132169000D01*
X133715550Y-132168020D01*
X133705983Y-132165118D01*
X133697166Y-132160405D01*
X133689438Y-132154062D01*
X133683095Y-132146334D01*
X133678382Y-132137517D01*
X133675480Y-132127950D01*
X133674500Y-132118000D01*
X133674500Y-127993000D01*
X133675480Y-127983050D01*
X133678382Y-127973483D01*
X133683095Y-127964666D01*
X133689438Y-127956938D01*
X133697166Y-127950595D01*
X133705983Y-127945882D01*
X133715550Y-127942980D01*
X133725500Y-127942000D01*
X134091000Y-127942000D01*
X134091000Y-125518000D01*
X134091980Y-125508050D01*
X134094882Y-125498483D01*
X134099595Y-125489666D01*
X134105938Y-125481938D01*
X134113666Y-125475595D01*
X134122483Y-125470882D01*
X134132050Y-125467980D01*
X134142000Y-125467000D01*
X135042000Y-125467000D01*
X135051950Y-125467980D01*
X135061517Y-125470882D01*
X135070334Y-125475595D01*
X135078062Y-125481938D01*
X135084405Y-125489666D01*
X135089118Y-125498483D01*
X135092020Y-125508050D01*
X135093000Y-125518000D01*
X135093000Y-127942000D01*
X135458500Y-127942000D01*
X135468450Y-127942980D01*
X135478017Y-127945882D01*
X135486834Y-127950595D01*
X135494562Y-127956938D01*
X135500905Y-127964666D01*
X135505618Y-127973483D01*
X135508520Y-127983050D01*
X135509500Y-127993000D01*
X135509500Y-132118000D01*
X135508520Y-132127950D01*
G37*
G36*
X141558520Y-132147950D02*
G01*
X141555618Y-132157517D01*
X141550905Y-132166334D01*
X141544562Y-132174062D01*
X141536834Y-132180405D01*
X141528017Y-132185118D01*
X141518450Y-132188020D01*
X141508500Y-132189000D01*
X139775500Y-132189000D01*
X139765550Y-132188020D01*
X139755983Y-132185118D01*
X139747166Y-132180405D01*
X139739438Y-132174062D01*
X139733095Y-132166334D01*
X139728382Y-132157517D01*
X139725480Y-132147950D01*
X139724500Y-132138000D01*
X139724500Y-128013000D01*
X139725480Y-128003050D01*
X139728382Y-127993483D01*
X139733095Y-127984666D01*
X139739438Y-127976938D01*
X139747166Y-127970595D01*
X139755983Y-127965882D01*
X139765550Y-127962980D01*
X139775500Y-127962000D01*
X140141000Y-127962000D01*
X140141000Y-125538000D01*
X140141980Y-125528050D01*
X140144882Y-125518483D01*
X140149595Y-125509666D01*
X140155938Y-125501938D01*
X140163666Y-125495595D01*
X140172483Y-125490882D01*
X140182050Y-125487980D01*
X140192000Y-125487000D01*
X141092000Y-125487000D01*
X141101950Y-125487980D01*
X141111517Y-125490882D01*
X141120334Y-125495595D01*
X141128062Y-125501938D01*
X141134405Y-125509666D01*
X141139118Y-125518483D01*
X141142020Y-125528050D01*
X141143000Y-125538000D01*
X141143000Y-127962000D01*
X141508500Y-127962000D01*
X141518450Y-127962980D01*
X141528017Y-127965882D01*
X141536834Y-127970595D01*
X141544562Y-127976938D01*
X141550905Y-127984666D01*
X141555618Y-127993483D01*
X141558520Y-128003050D01*
X141559500Y-128013000D01*
X141559500Y-132138000D01*
X141558520Y-132147950D01*
G37*
G36*
G01*
X138692000Y-125487000D02*
X139592000Y-125487000D01*
G75*
G02*
X139643000Y-125538000I0J-51000D01*
G01*
X139643000Y-127838000D01*
G75*
G02*
X139592000Y-127889000I-51000J0D01*
G01*
X138692000Y-127889000D01*
G75*
G02*
X138641000Y-127838000I0J51000D01*
G01*
X138641000Y-125538000D01*
G75*
G02*
X138692000Y-125487000I51000J0D01*
G01*
G37*
G36*
G01*
X141692000Y-125487000D02*
X142592000Y-125487000D01*
G75*
G02*
X142643000Y-125538000I0J-51000D01*
G01*
X142643000Y-127838000D01*
G75*
G02*
X142592000Y-127889000I-51000J0D01*
G01*
X141692000Y-127889000D01*
G75*
G02*
X141641000Y-127838000I0J51000D01*
G01*
X141641000Y-125538000D01*
G75*
G02*
X141692000Y-125487000I51000J0D01*
G01*
G37*
G36*
G01*
X146255000Y-98010000D02*
X146255000Y-97110000D01*
G75*
G02*
X146306000Y-97059000I51000J0D01*
G01*
X148606000Y-97059000D01*
G75*
G02*
X148657000Y-97110000I0J-51000D01*
G01*
X148657000Y-98010000D01*
G75*
G02*
X148606000Y-98061000I-51000J0D01*
G01*
X146306000Y-98061000D01*
G75*
G02*
X146255000Y-98010000I0J51000D01*
G01*
G37*
G36*
G01*
X146255000Y-101010000D02*
X146255000Y-100110000D01*
G75*
G02*
X146306000Y-100059000I51000J0D01*
G01*
X148606000Y-100059000D01*
G75*
G02*
X148657000Y-100110000I0J-51000D01*
G01*
X148657000Y-101010000D01*
G75*
G02*
X148606000Y-101061000I-51000J0D01*
G01*
X146306000Y-101061000D01*
G75*
G02*
X146255000Y-101010000I0J51000D01*
G01*
G37*
G36*
X152915950Y-98143480D02*
G01*
X152925517Y-98146382D01*
X152934334Y-98151095D01*
X152942062Y-98157438D01*
X152948405Y-98165166D01*
X152953118Y-98173983D01*
X152956020Y-98183550D01*
X152957000Y-98193500D01*
X152957000Y-99926500D01*
X152956020Y-99936450D01*
X152953118Y-99946017D01*
X152948405Y-99954834D01*
X152942062Y-99962562D01*
X152934334Y-99968905D01*
X152925517Y-99973618D01*
X152915950Y-99976520D01*
X152906000Y-99977500D01*
X148781000Y-99977500D01*
X148771050Y-99976520D01*
X148761483Y-99973618D01*
X148752666Y-99968905D01*
X148744938Y-99962562D01*
X148738595Y-99954834D01*
X148733882Y-99946017D01*
X148730980Y-99936450D01*
X148730000Y-99926500D01*
X148730000Y-99561000D01*
X146306000Y-99561000D01*
X146296050Y-99560020D01*
X146286483Y-99557118D01*
X146277666Y-99552405D01*
X146269938Y-99546062D01*
X146263595Y-99538334D01*
X146258882Y-99529517D01*
X146255980Y-99519950D01*
X146255000Y-99510000D01*
X146255000Y-98610000D01*
X146255980Y-98600050D01*
X146258882Y-98590483D01*
X146263595Y-98581666D01*
X146269938Y-98573938D01*
X146277666Y-98567595D01*
X146286483Y-98562882D01*
X146296050Y-98559980D01*
X146306000Y-98559000D01*
X148730000Y-98559000D01*
X148730000Y-98193500D01*
X148730980Y-98183550D01*
X148733882Y-98173983D01*
X148738595Y-98165166D01*
X148744938Y-98157438D01*
X148752666Y-98151095D01*
X148761483Y-98146382D01*
X148771050Y-98143480D01*
X148781000Y-98142500D01*
X152906000Y-98142500D01*
X152915950Y-98143480D01*
G37*
G36*
X152861950Y-87731480D02*
G01*
X152871517Y-87734382D01*
X152880334Y-87739095D01*
X152888062Y-87745438D01*
X152894405Y-87753166D01*
X152899118Y-87761983D01*
X152902020Y-87771550D01*
X152903000Y-87781500D01*
X152903000Y-89514500D01*
X152902020Y-89524450D01*
X152899118Y-89534017D01*
X152894405Y-89542834D01*
X152888062Y-89550562D01*
X152880334Y-89556905D01*
X152871517Y-89561618D01*
X152861950Y-89564520D01*
X152852000Y-89565500D01*
X148727000Y-89565500D01*
X148717050Y-89564520D01*
X148707483Y-89561618D01*
X148698666Y-89556905D01*
X148690938Y-89550562D01*
X148684595Y-89542834D01*
X148679882Y-89534017D01*
X148676980Y-89524450D01*
X148676000Y-89514500D01*
X148676000Y-89149000D01*
X146252000Y-89149000D01*
X146242050Y-89148020D01*
X146232483Y-89145118D01*
X146223666Y-89140405D01*
X146215938Y-89134062D01*
X146209595Y-89126334D01*
X146204882Y-89117517D01*
X146201980Y-89107950D01*
X146201000Y-89098000D01*
X146201000Y-88198000D01*
X146201980Y-88188050D01*
X146204882Y-88178483D01*
X146209595Y-88169666D01*
X146215938Y-88161938D01*
X146223666Y-88155595D01*
X146232483Y-88150882D01*
X146242050Y-88147980D01*
X146252000Y-88147000D01*
X148676000Y-88147000D01*
X148676000Y-87781500D01*
X148676980Y-87771550D01*
X148679882Y-87761983D01*
X148684595Y-87753166D01*
X148690938Y-87745438D01*
X148698666Y-87739095D01*
X148707483Y-87734382D01*
X148717050Y-87731480D01*
X148727000Y-87730500D01*
X152852000Y-87730500D01*
X152861950Y-87731480D01*
G37*
G36*
G01*
X146201000Y-90598000D02*
X146201000Y-89698000D01*
G75*
G02*
X146252000Y-89647000I51000J0D01*
G01*
X148552000Y-89647000D01*
G75*
G02*
X148603000Y-89698000I0J-51000D01*
G01*
X148603000Y-90598000D01*
G75*
G02*
X148552000Y-90649000I-51000J0D01*
G01*
X146252000Y-90649000D01*
G75*
G02*
X146201000Y-90598000I0J51000D01*
G01*
G37*
G36*
G01*
X146201000Y-87598000D02*
X146201000Y-86698000D01*
G75*
G02*
X146252000Y-86647000I51000J0D01*
G01*
X148552000Y-86647000D01*
G75*
G02*
X148603000Y-86698000I0J-51000D01*
G01*
X148603000Y-87598000D01*
G75*
G02*
X148552000Y-87649000I-51000J0D01*
G01*
X146252000Y-87649000D01*
G75*
G02*
X146201000Y-87598000I0J51000D01*
G01*
G37*
G36*
G01*
X103243000Y-71928248D02*
X103243000Y-72887752D01*
G75*
G02*
X102971752Y-73159000I-271248J0D01*
G01*
X102212248Y-73159000D01*
G75*
G02*
X101941000Y-72887752I0J271248D01*
G01*
X101941000Y-71928248D01*
G75*
G02*
X102212248Y-71657000I271248J0D01*
G01*
X102971752Y-71657000D01*
G75*
G02*
X103243000Y-71928248I0J-271248D01*
G01*
G37*
G36*
G01*
X105243000Y-71928248D02*
X105243000Y-72887752D01*
G75*
G02*
X104971752Y-73159000I-271248J0D01*
G01*
X104212248Y-73159000D01*
G75*
G02*
X103941000Y-72887752I0J271248D01*
G01*
X103941000Y-71928248D01*
G75*
G02*
X104212248Y-71657000I271248J0D01*
G01*
X104971752Y-71657000D01*
G75*
G02*
X105243000Y-71928248I0J-271248D01*
G01*
G37*
G36*
G01*
X110623000Y-71928248D02*
X110623000Y-72887752D01*
G75*
G02*
X110351752Y-73159000I-271248J0D01*
G01*
X109592248Y-73159000D01*
G75*
G02*
X109321000Y-72887752I0J271248D01*
G01*
X109321000Y-71928248D01*
G75*
G02*
X109592248Y-71657000I271248J0D01*
G01*
X110351752Y-71657000D01*
G75*
G02*
X110623000Y-71928248I0J-271248D01*
G01*
G37*
G36*
G01*
X108623000Y-71928248D02*
X108623000Y-72887752D01*
G75*
G02*
X108351752Y-73159000I-271248J0D01*
G01*
X107592248Y-73159000D01*
G75*
G02*
X107321000Y-72887752I0J271248D01*
G01*
X107321000Y-71928248D01*
G75*
G02*
X107592248Y-71657000I271248J0D01*
G01*
X108351752Y-71657000D01*
G75*
G02*
X108623000Y-71928248I0J-271248D01*
G01*
G37*
G36*
G01*
X132971000Y-124437752D02*
X132971000Y-123478248D01*
G75*
G02*
X133242248Y-123207000I271248J0D01*
G01*
X134001752Y-123207000D01*
G75*
G02*
X134273000Y-123478248I0J-271248D01*
G01*
X134273000Y-124437752D01*
G75*
G02*
X134001752Y-124709000I-271248J0D01*
G01*
X133242248Y-124709000D01*
G75*
G02*
X132971000Y-124437752I0J271248D01*
G01*
G37*
G36*
G01*
X134971000Y-124437752D02*
X134971000Y-123478248D01*
G75*
G02*
X135242248Y-123207000I271248J0D01*
G01*
X136001752Y-123207000D01*
G75*
G02*
X136273000Y-123478248I0J-271248D01*
G01*
X136273000Y-124437752D01*
G75*
G02*
X136001752Y-124709000I-271248J0D01*
G01*
X135242248Y-124709000D01*
G75*
G02*
X134971000Y-124437752I0J271248D01*
G01*
G37*
G36*
G01*
X140991000Y-124457752D02*
X140991000Y-123498248D01*
G75*
G02*
X141262248Y-123227000I271248J0D01*
G01*
X142021752Y-123227000D01*
G75*
G02*
X142293000Y-123498248I0J-271248D01*
G01*
X142293000Y-124457752D01*
G75*
G02*
X142021752Y-124729000I-271248J0D01*
G01*
X141262248Y-124729000D01*
G75*
G02*
X140991000Y-124457752I0J271248D01*
G01*
G37*
G36*
G01*
X138991000Y-124457752D02*
X138991000Y-123498248D01*
G75*
G02*
X139262248Y-123227000I271248J0D01*
G01*
X140021752Y-123227000D01*
G75*
G02*
X140293000Y-123498248I0J-271248D01*
G01*
X140293000Y-124457752D01*
G75*
G02*
X140021752Y-124729000I-271248J0D01*
G01*
X139262248Y-124729000D01*
G75*
G02*
X138991000Y-124457752I0J271248D01*
G01*
G37*
G36*
G01*
X145171752Y-100869000D02*
X144212248Y-100869000D01*
G75*
G02*
X143941000Y-100597752I0J271248D01*
G01*
X143941000Y-99838248D01*
G75*
G02*
X144212248Y-99567000I271248J0D01*
G01*
X145171752Y-99567000D01*
G75*
G02*
X145443000Y-99838248I0J-271248D01*
G01*
X145443000Y-100597752D01*
G75*
G02*
X145171752Y-100869000I-271248J0D01*
G01*
G37*
G36*
G01*
X145171752Y-98869000D02*
X144212248Y-98869000D01*
G75*
G02*
X143941000Y-98597752I0J271248D01*
G01*
X143941000Y-97838248D01*
G75*
G02*
X144212248Y-97567000I271248J0D01*
G01*
X145171752Y-97567000D01*
G75*
G02*
X145443000Y-97838248I0J-271248D01*
G01*
X145443000Y-98597752D01*
G75*
G02*
X145171752Y-98869000I-271248J0D01*
G01*
G37*
G36*
G01*
X145221752Y-88299000D02*
X144262248Y-88299000D01*
G75*
G02*
X143991000Y-88027752I0J271248D01*
G01*
X143991000Y-87268248D01*
G75*
G02*
X144262248Y-86997000I271248J0D01*
G01*
X145221752Y-86997000D01*
G75*
G02*
X145493000Y-87268248I0J-271248D01*
G01*
X145493000Y-88027752D01*
G75*
G02*
X145221752Y-88299000I-271248J0D01*
G01*
G37*
G36*
G01*
X145221752Y-90299000D02*
X144262248Y-90299000D01*
G75*
G02*
X143991000Y-90027752I0J271248D01*
G01*
X143991000Y-89268248D01*
G75*
G02*
X144262248Y-88997000I271248J0D01*
G01*
X145221752Y-88997000D01*
G75*
G02*
X145493000Y-89268248I0J-271248D01*
G01*
X145493000Y-90027752D01*
G75*
G02*
X145221752Y-90299000I-271248J0D01*
G01*
G37*
G36*
G01*
X106708248Y-129127000D02*
X107667752Y-129127000D01*
G75*
G02*
X107939000Y-129398248I0J-271248D01*
G01*
X107939000Y-130157752D01*
G75*
G02*
X107667752Y-130429000I-271248J0D01*
G01*
X106708248Y-130429000D01*
G75*
G02*
X106437000Y-130157752I0J271248D01*
G01*
X106437000Y-129398248D01*
G75*
G02*
X106708248Y-129127000I271248J0D01*
G01*
G37*
G36*
G01*
X106708248Y-127127000D02*
X107667752Y-127127000D01*
G75*
G02*
X107939000Y-127398248I0J-271248D01*
G01*
X107939000Y-128157752D01*
G75*
G02*
X107667752Y-128429000I-271248J0D01*
G01*
X106708248Y-128429000D01*
G75*
G02*
X106437000Y-128157752I0J271248D01*
G01*
X106437000Y-127398248D01*
G75*
G02*
X106708248Y-127127000I271248J0D01*
G01*
G37*
G36*
G01*
X114532000Y-104807000D02*
X115332000Y-104807000D01*
G75*
G02*
X115383000Y-104858000I0J-51000D01*
G01*
X115383000Y-109458000D01*
G75*
G02*
X115332000Y-109509000I-51000J0D01*
G01*
X114532000Y-109509000D01*
G75*
G02*
X114481000Y-109458000I0J51000D01*
G01*
X114481000Y-104858000D01*
G75*
G02*
X114532000Y-104807000I51000J0D01*
G01*
G37*
G36*
G01*
X113262000Y-104807000D02*
X114062000Y-104807000D01*
G75*
G02*
X114113000Y-104858000I0J-51000D01*
G01*
X114113000Y-109458000D01*
G75*
G02*
X114062000Y-109509000I-51000J0D01*
G01*
X113262000Y-109509000D01*
G75*
G02*
X113211000Y-109458000I0J51000D01*
G01*
X113211000Y-104858000D01*
G75*
G02*
X113262000Y-104807000I51000J0D01*
G01*
G37*
G36*
G01*
X111992000Y-104807000D02*
X112792000Y-104807000D01*
G75*
G02*
X112843000Y-104858000I0J-51000D01*
G01*
X112843000Y-109458000D01*
G75*
G02*
X112792000Y-109509000I-51000J0D01*
G01*
X111992000Y-109509000D01*
G75*
G02*
X111941000Y-109458000I0J51000D01*
G01*
X111941000Y-104858000D01*
G75*
G02*
X111992000Y-104807000I51000J0D01*
G01*
G37*
G36*
G01*
X110722000Y-104807000D02*
X111522000Y-104807000D01*
G75*
G02*
X111573000Y-104858000I0J-51000D01*
G01*
X111573000Y-109458000D01*
G75*
G02*
X111522000Y-109509000I-51000J0D01*
G01*
X110722000Y-109509000D01*
G75*
G02*
X110671000Y-109458000I0J51000D01*
G01*
X110671000Y-104858000D01*
G75*
G02*
X110722000Y-104807000I51000J0D01*
G01*
G37*
G36*
G01*
X109452000Y-104807000D02*
X110252000Y-104807000D01*
G75*
G02*
X110303000Y-104858000I0J-51000D01*
G01*
X110303000Y-109458000D01*
G75*
G02*
X110252000Y-109509000I-51000J0D01*
G01*
X109452000Y-109509000D01*
G75*
G02*
X109401000Y-109458000I0J51000D01*
G01*
X109401000Y-104858000D01*
G75*
G02*
X109452000Y-104807000I51000J0D01*
G01*
G37*
G36*
G01*
X108182000Y-104807000D02*
X108982000Y-104807000D01*
G75*
G02*
X109033000Y-104858000I0J-51000D01*
G01*
X109033000Y-109458000D01*
G75*
G02*
X108982000Y-109509000I-51000J0D01*
G01*
X108182000Y-109509000D01*
G75*
G02*
X108131000Y-109458000I0J51000D01*
G01*
X108131000Y-104858000D01*
G75*
G02*
X108182000Y-104807000I51000J0D01*
G01*
G37*
G36*
G01*
X106912000Y-104807000D02*
X107712000Y-104807000D01*
G75*
G02*
X107763000Y-104858000I0J-51000D01*
G01*
X107763000Y-109458000D01*
G75*
G02*
X107712000Y-109509000I-51000J0D01*
G01*
X106912000Y-109509000D01*
G75*
G02*
X106861000Y-109458000I0J51000D01*
G01*
X106861000Y-104858000D01*
G75*
G02*
X106912000Y-104807000I51000J0D01*
G01*
G37*
G36*
G01*
X105722000Y-111557000D02*
X116522000Y-111557000D01*
G75*
G02*
X116573000Y-111608000I0J-51000D01*
G01*
X116573000Y-121008000D01*
G75*
G02*
X116522000Y-121059000I-51000J0D01*
G01*
X105722000Y-121059000D01*
G75*
G02*
X105671000Y-121008000I0J51000D01*
G01*
X105671000Y-111608000D01*
G75*
G02*
X105722000Y-111557000I51000J0D01*
G01*
G37*
G36*
G01*
X25818000Y-79086172D02*
X25818000Y-80043828D01*
G75*
G02*
X25545828Y-80316000I-272172J0D01*
G01*
X24838172Y-80316000D01*
G75*
G02*
X24566000Y-80043828I0J272172D01*
G01*
X24566000Y-79086172D01*
G75*
G02*
X24838172Y-78814000I272172J0D01*
G01*
X25545828Y-78814000D01*
G75*
G02*
X25818000Y-79086172I0J-272172D01*
G01*
G37*
G36*
G01*
X23768000Y-79086172D02*
X23768000Y-80043828D01*
G75*
G02*
X23495828Y-80316000I-272172J0D01*
G01*
X22788172Y-80316000D01*
G75*
G02*
X22516000Y-80043828I0J272172D01*
G01*
X22516000Y-79086172D01*
G75*
G02*
X22788172Y-78814000I272172J0D01*
G01*
X23495828Y-78814000D01*
G75*
G02*
X23768000Y-79086172I0J-272172D01*
G01*
G37*
G36*
G01*
X25863000Y-86486172D02*
X25863000Y-87443828D01*
G75*
G02*
X25590828Y-87716000I-272172J0D01*
G01*
X24883172Y-87716000D01*
G75*
G02*
X24611000Y-87443828I0J272172D01*
G01*
X24611000Y-86486172D01*
G75*
G02*
X24883172Y-86214000I272172J0D01*
G01*
X25590828Y-86214000D01*
G75*
G02*
X25863000Y-86486172I0J-272172D01*
G01*
G37*
G36*
G01*
X23813000Y-86486172D02*
X23813000Y-87443828D01*
G75*
G02*
X23540828Y-87716000I-272172J0D01*
G01*
X22833172Y-87716000D01*
G75*
G02*
X22561000Y-87443828I0J272172D01*
G01*
X22561000Y-86486172D01*
G75*
G02*
X22833172Y-86214000I272172J0D01*
G01*
X23540828Y-86214000D01*
G75*
G02*
X23813000Y-86486172I0J-272172D01*
G01*
G37*
G36*
G01*
X23813000Y-93981172D02*
X23813000Y-94938828D01*
G75*
G02*
X23540828Y-95211000I-272172J0D01*
G01*
X22833172Y-95211000D01*
G75*
G02*
X22561000Y-94938828I0J272172D01*
G01*
X22561000Y-93981172D01*
G75*
G02*
X22833172Y-93709000I272172J0D01*
G01*
X23540828Y-93709000D01*
G75*
G02*
X23813000Y-93981172I0J-272172D01*
G01*
G37*
G36*
G01*
X25863000Y-93981172D02*
X25863000Y-94938828D01*
G75*
G02*
X25590828Y-95211000I-272172J0D01*
G01*
X24883172Y-95211000D01*
G75*
G02*
X24611000Y-94938828I0J272172D01*
G01*
X24611000Y-93981172D01*
G75*
G02*
X24883172Y-93709000I272172J0D01*
G01*
X25590828Y-93709000D01*
G75*
G02*
X25863000Y-93981172I0J-272172D01*
G01*
G37*
D13*
X27522000Y-19620000D03*
X25022000Y-19620000D03*
X22522000Y-19620000D03*
G36*
G01*
X19121000Y-20381000D02*
X19121000Y-18859000D01*
G75*
G02*
X19386000Y-18594000I265000J0D01*
G01*
X20658000Y-18594000D01*
G75*
G02*
X20923000Y-18859000I0J-265000D01*
G01*
X20923000Y-20381000D01*
G75*
G02*
X20658000Y-20646000I-265000J0D01*
G01*
X19386000Y-20646000D01*
G75*
G02*
X19121000Y-20381000I0J265000D01*
G01*
G37*
X41122000Y-19620000D03*
X38622000Y-19620000D03*
X36122000Y-19620000D03*
G36*
G01*
X32721000Y-20381000D02*
X32721000Y-18859000D01*
G75*
G02*
X32986000Y-18594000I265000J0D01*
G01*
X34258000Y-18594000D01*
G75*
G02*
X34523000Y-18859000I0J-265000D01*
G01*
X34523000Y-20381000D01*
G75*
G02*
X34258000Y-20646000I-265000J0D01*
G01*
X32986000Y-20646000D01*
G75*
G02*
X32721000Y-20381000I0J265000D01*
G01*
G37*
G36*
G01*
X46321000Y-20381000D02*
X46321000Y-18859000D01*
G75*
G02*
X46586000Y-18594000I265000J0D01*
G01*
X47858000Y-18594000D01*
G75*
G02*
X48123000Y-18859000I0J-265000D01*
G01*
X48123000Y-20381000D01*
G75*
G02*
X47858000Y-20646000I-265000J0D01*
G01*
X46586000Y-20646000D01*
G75*
G02*
X46321000Y-20381000I0J265000D01*
G01*
G37*
X49722000Y-19620000D03*
X52222000Y-19620000D03*
X54722000Y-19620000D03*
G36*
G01*
X119021000Y-20381000D02*
X119021000Y-18859000D01*
G75*
G02*
X119286000Y-18594000I265000J0D01*
G01*
X120558000Y-18594000D01*
G75*
G02*
X120823000Y-18859000I0J-265000D01*
G01*
X120823000Y-20381000D01*
G75*
G02*
X120558000Y-20646000I-265000J0D01*
G01*
X119286000Y-20646000D01*
G75*
G02*
X119021000Y-20381000I0J265000D01*
G01*
G37*
X122422000Y-19620000D03*
X124922000Y-19620000D03*
X127422000Y-19620000D03*
X95622000Y-19620000D03*
X93122000Y-19620000D03*
X90622000Y-19620000D03*
G36*
G01*
X87221000Y-20381000D02*
X87221000Y-18859000D01*
G75*
G02*
X87486000Y-18594000I265000J0D01*
G01*
X88758000Y-18594000D01*
G75*
G02*
X89023000Y-18859000I0J-265000D01*
G01*
X89023000Y-20381000D01*
G75*
G02*
X88758000Y-20646000I-265000J0D01*
G01*
X87486000Y-20646000D01*
G75*
G02*
X87221000Y-20381000I0J265000D01*
G01*
G37*
G36*
G01*
X73521000Y-20381000D02*
X73521000Y-18859000D01*
G75*
G02*
X73786000Y-18594000I265000J0D01*
G01*
X75058000Y-18594000D01*
G75*
G02*
X75323000Y-18859000I0J-265000D01*
G01*
X75323000Y-20381000D01*
G75*
G02*
X75058000Y-20646000I-265000J0D01*
G01*
X73786000Y-20646000D01*
G75*
G02*
X73521000Y-20381000I0J265000D01*
G01*
G37*
X76922000Y-19620000D03*
X79422000Y-19620000D03*
X81922000Y-19620000D03*
D19*
X18712000Y-76110000D03*
G36*
G01*
X19366752Y-78761000D02*
X18057248Y-78761000D01*
G75*
G02*
X17786000Y-78489752I0J271248D01*
G01*
X17786000Y-77730248D01*
G75*
G02*
X18057248Y-77459000I271248J0D01*
G01*
X19366752Y-77459000D01*
G75*
G02*
X19638000Y-77730248I0J-271248D01*
G01*
X19638000Y-78489752D01*
G75*
G02*
X19366752Y-78761000I-271248J0D01*
G01*
G37*
G36*
G01*
X19366752Y-86161000D02*
X18057248Y-86161000D01*
G75*
G02*
X17786000Y-85889752I0J271248D01*
G01*
X17786000Y-85130248D01*
G75*
G02*
X18057248Y-84859000I271248J0D01*
G01*
X19366752Y-84859000D01*
G75*
G02*
X19638000Y-85130248I0J-271248D01*
G01*
X19638000Y-85889752D01*
G75*
G02*
X19366752Y-86161000I-271248J0D01*
G01*
G37*
X18712000Y-83510000D03*
G36*
G01*
X19366752Y-93661000D02*
X18057248Y-93661000D01*
G75*
G02*
X17786000Y-93389752I0J271248D01*
G01*
X17786000Y-92630248D01*
G75*
G02*
X18057248Y-92359000I271248J0D01*
G01*
X19366752Y-92359000D01*
G75*
G02*
X19638000Y-92630248I0J-271248D01*
G01*
X19638000Y-93389752D01*
G75*
G02*
X19366752Y-93661000I-271248J0D01*
G01*
G37*
X18712000Y-91010000D03*
G36*
G01*
X24538500Y-77589752D02*
X24538500Y-76630248D01*
G75*
G02*
X24809748Y-76359000I271248J0D01*
G01*
X25569252Y-76359000D01*
G75*
G02*
X25840500Y-76630248I0J-271248D01*
G01*
X25840500Y-77589752D01*
G75*
G02*
X25569252Y-77861000I-271248J0D01*
G01*
X24809748Y-77861000D01*
G75*
G02*
X24538500Y-77589752I0J271248D01*
G01*
G37*
G36*
G01*
X22538500Y-77589752D02*
X22538500Y-76630248D01*
G75*
G02*
X22809748Y-76359000I271248J0D01*
G01*
X23569252Y-76359000D01*
G75*
G02*
X23840500Y-76630248I0J-271248D01*
G01*
X23840500Y-77589752D01*
G75*
G02*
X23569252Y-77861000I-271248J0D01*
G01*
X22809748Y-77861000D01*
G75*
G02*
X22538500Y-77589752I0J271248D01*
G01*
G37*
G36*
G01*
X25840500Y-74130248D02*
X25840500Y-75089752D01*
G75*
G02*
X25569252Y-75361000I-271248J0D01*
G01*
X24809748Y-75361000D01*
G75*
G02*
X24538500Y-75089752I0J271248D01*
G01*
X24538500Y-74130248D01*
G75*
G02*
X24809748Y-73859000I271248J0D01*
G01*
X25569252Y-73859000D01*
G75*
G02*
X25840500Y-74130248I0J-271248D01*
G01*
G37*
G36*
G01*
X23840500Y-74130248D02*
X23840500Y-75089752D01*
G75*
G02*
X23569252Y-75361000I-271248J0D01*
G01*
X22809748Y-75361000D01*
G75*
G02*
X22538500Y-75089752I0J271248D01*
G01*
X22538500Y-74130248D01*
G75*
G02*
X22809748Y-73859000I271248J0D01*
G01*
X23569252Y-73859000D01*
G75*
G02*
X23840500Y-74130248I0J-271248D01*
G01*
G37*
G36*
G01*
X24538500Y-84989752D02*
X24538500Y-84030248D01*
G75*
G02*
X24809748Y-83759000I271248J0D01*
G01*
X25569252Y-83759000D01*
G75*
G02*
X25840500Y-84030248I0J-271248D01*
G01*
X25840500Y-84989752D01*
G75*
G02*
X25569252Y-85261000I-271248J0D01*
G01*
X24809748Y-85261000D01*
G75*
G02*
X24538500Y-84989752I0J271248D01*
G01*
G37*
G36*
G01*
X22538500Y-84989752D02*
X22538500Y-84030248D01*
G75*
G02*
X22809748Y-83759000I271248J0D01*
G01*
X23569252Y-83759000D01*
G75*
G02*
X23840500Y-84030248I0J-271248D01*
G01*
X23840500Y-84989752D01*
G75*
G02*
X23569252Y-85261000I-271248J0D01*
G01*
X22809748Y-85261000D01*
G75*
G02*
X22538500Y-84989752I0J271248D01*
G01*
G37*
G36*
G01*
X25840500Y-81530248D02*
X25840500Y-82489752D01*
G75*
G02*
X25569252Y-82761000I-271248J0D01*
G01*
X24809748Y-82761000D01*
G75*
G02*
X24538500Y-82489752I0J271248D01*
G01*
X24538500Y-81530248D01*
G75*
G02*
X24809748Y-81259000I271248J0D01*
G01*
X25569252Y-81259000D01*
G75*
G02*
X25840500Y-81530248I0J-271248D01*
G01*
G37*
G36*
G01*
X23840500Y-81530248D02*
X23840500Y-82489752D01*
G75*
G02*
X23569252Y-82761000I-271248J0D01*
G01*
X22809748Y-82761000D01*
G75*
G02*
X22538500Y-82489752I0J271248D01*
G01*
X22538500Y-81530248D01*
G75*
G02*
X22809748Y-81259000I271248J0D01*
G01*
X23569252Y-81259000D01*
G75*
G02*
X23840500Y-81530248I0J-271248D01*
G01*
G37*
G36*
G01*
X22538500Y-92489752D02*
X22538500Y-91530248D01*
G75*
G02*
X22809748Y-91259000I271248J0D01*
G01*
X23569252Y-91259000D01*
G75*
G02*
X23840500Y-91530248I0J-271248D01*
G01*
X23840500Y-92489752D01*
G75*
G02*
X23569252Y-92761000I-271248J0D01*
G01*
X22809748Y-92761000D01*
G75*
G02*
X22538500Y-92489752I0J271248D01*
G01*
G37*
G36*
G01*
X24538500Y-92489752D02*
X24538500Y-91530248D01*
G75*
G02*
X24809748Y-91259000I271248J0D01*
G01*
X25569252Y-91259000D01*
G75*
G02*
X25840500Y-91530248I0J-271248D01*
G01*
X25840500Y-92489752D01*
G75*
G02*
X25569252Y-92761000I-271248J0D01*
G01*
X24809748Y-92761000D01*
G75*
G02*
X24538500Y-92489752I0J271248D01*
G01*
G37*
G36*
G01*
X23840500Y-89030248D02*
X23840500Y-89989752D01*
G75*
G02*
X23569252Y-90261000I-271248J0D01*
G01*
X22809748Y-90261000D01*
G75*
G02*
X22538500Y-89989752I0J271248D01*
G01*
X22538500Y-89030248D01*
G75*
G02*
X22809748Y-88759000I271248J0D01*
G01*
X23569252Y-88759000D01*
G75*
G02*
X23840500Y-89030248I0J-271248D01*
G01*
G37*
G36*
G01*
X25840500Y-89030248D02*
X25840500Y-89989752D01*
G75*
G02*
X25569252Y-90261000I-271248J0D01*
G01*
X24809748Y-90261000D01*
G75*
G02*
X24538500Y-89989752I0J271248D01*
G01*
X24538500Y-89030248D01*
G75*
G02*
X24809748Y-88759000I271248J0D01*
G01*
X25569252Y-88759000D01*
G75*
G02*
X25840500Y-89030248I0J-271248D01*
G01*
G37*
G36*
G01*
X59021000Y-130103063D02*
X59021000Y-128932937D01*
G75*
G02*
X59286937Y-128667000I265937J0D01*
G01*
X62357063Y-128667000D01*
G75*
G02*
X62623000Y-128932937I0J-265937D01*
G01*
X62623000Y-130103063D01*
G75*
G02*
X62357063Y-130369000I-265937J0D01*
G01*
X59286937Y-130369000D01*
G75*
G02*
X59021000Y-130103063I0J265937D01*
G01*
G37*
G36*
G01*
X64421000Y-130103063D02*
X64421000Y-128932937D01*
G75*
G02*
X64686937Y-128667000I265937J0D01*
G01*
X67757063Y-128667000D01*
G75*
G02*
X68023000Y-128932937I0J-265937D01*
G01*
X68023000Y-130103063D01*
G75*
G02*
X67757063Y-130369000I-265937J0D01*
G01*
X64686937Y-130369000D01*
G75*
G02*
X64421000Y-130103063I0J265937D01*
G01*
G37*
G36*
G01*
X59950518Y-123886297D02*
X60663703Y-124599482D01*
G75*
G02*
X60663703Y-124983726I-192122J-192122D01*
G01*
X60144972Y-125502457D01*
G75*
G02*
X59760728Y-125502457I-192122J192122D01*
G01*
X59047543Y-124789272D01*
G75*
G02*
X59047543Y-124405028I192122J192122D01*
G01*
X59566274Y-123886297D01*
G75*
G02*
X59950518Y-123886297I192122J-192122D01*
G01*
G37*
G36*
G01*
X58483272Y-125353543D02*
X59196457Y-126066728D01*
G75*
G02*
X59196457Y-126450972I-192122J-192122D01*
G01*
X58677726Y-126969703D01*
G75*
G02*
X58293482Y-126969703I-192122J192122D01*
G01*
X57580297Y-126256518D01*
G75*
G02*
X57580297Y-125872274I192122J192122D01*
G01*
X58099028Y-125353543D01*
G75*
G02*
X58483272Y-125353543I192122J-192122D01*
G01*
G37*
G36*
G01*
X31098702Y-130107930D02*
X31799331Y-129382407D01*
G75*
G02*
X32183517Y-129375701I195446J-188740D01*
G01*
X32711222Y-129885300D01*
G75*
G02*
X32717928Y-130269486I-188740J-195446D01*
G01*
X32017299Y-130995009D01*
G75*
G02*
X31633113Y-131001715I-195446J188740D01*
G01*
X31105408Y-130492116D01*
G75*
G02*
X31098702Y-130107930I188740J195446D01*
G01*
G37*
G36*
G01*
X29606072Y-128666514D02*
X30306701Y-127940991D01*
G75*
G02*
X30690887Y-127934285I195446J-188740D01*
G01*
X31218592Y-128443884D01*
G75*
G02*
X31225298Y-128828070I-188740J-195446D01*
G01*
X30524669Y-129553593D01*
G75*
G02*
X30140483Y-129560299I-195446J188740D01*
G01*
X29612778Y-129050700D01*
G75*
G02*
X29606072Y-128666514I188740J195446D01*
G01*
G37*
G36*
G01*
X35887063Y-124339000D02*
X34716937Y-124339000D01*
G75*
G02*
X34451000Y-124073063I0J265937D01*
G01*
X34451000Y-121002937D01*
G75*
G02*
X34716937Y-120737000I265937J0D01*
G01*
X35887063Y-120737000D01*
G75*
G02*
X36153000Y-121002937I0J-265937D01*
G01*
X36153000Y-124073063D01*
G75*
G02*
X35887063Y-124339000I-265937J0D01*
G01*
G37*
G36*
G01*
X35887063Y-129739000D02*
X34716937Y-129739000D01*
G75*
G02*
X34451000Y-129473063I0J265937D01*
G01*
X34451000Y-126402937D01*
G75*
G02*
X34716937Y-126137000I265937J0D01*
G01*
X35887063Y-126137000D01*
G75*
G02*
X36153000Y-126402937I0J-265937D01*
G01*
X36153000Y-129473063D01*
G75*
G02*
X35887063Y-129739000I-265937J0D01*
G01*
G37*
G36*
G01*
X28393000Y-126638000D02*
X28393000Y-127738000D01*
G75*
G02*
X28342000Y-127789000I-51000J0D01*
G01*
X25842000Y-127789000D01*
G75*
G02*
X25791000Y-127738000I0J51000D01*
G01*
X25791000Y-126638000D01*
G75*
G02*
X25842000Y-126587000I51000J0D01*
G01*
X28342000Y-126587000D01*
G75*
G02*
X28393000Y-126638000I0J-51000D01*
G01*
G37*
G36*
G01*
X28393000Y-124638000D02*
X28393000Y-125738000D01*
G75*
G02*
X28342000Y-125789000I-51000J0D01*
G01*
X25842000Y-125789000D01*
G75*
G02*
X25791000Y-125738000I0J51000D01*
G01*
X25791000Y-124638000D01*
G75*
G02*
X25842000Y-124587000I51000J0D01*
G01*
X28342000Y-124587000D01*
G75*
G02*
X28393000Y-124638000I0J-51000D01*
G01*
G37*
G36*
G01*
X28393000Y-129138000D02*
X28393000Y-130238000D01*
G75*
G02*
X28342000Y-130289000I-51000J0D01*
G01*
X25842000Y-130289000D01*
G75*
G02*
X25791000Y-130238000I0J51000D01*
G01*
X25791000Y-129138000D01*
G75*
G02*
X25842000Y-129087000I51000J0D01*
G01*
X28342000Y-129087000D01*
G75*
G02*
X28393000Y-129138000I0J-51000D01*
G01*
G37*
G36*
G01*
X28393000Y-122138000D02*
X28393000Y-123238000D01*
G75*
G02*
X28342000Y-123289000I-51000J0D01*
G01*
X25842000Y-123289000D01*
G75*
G02*
X25791000Y-123238000I0J51000D01*
G01*
X25791000Y-122138000D01*
G75*
G02*
X25842000Y-122087000I51000J0D01*
G01*
X28342000Y-122087000D01*
G75*
G02*
X28393000Y-122138000I0J-51000D01*
G01*
G37*
D20*
X24342000Y-131888000D03*
X24342000Y-120488000D03*
D21*
X24342000Y-128488000D03*
X24342000Y-123888000D03*
G36*
G01*
X55538000Y-129378000D02*
X55538000Y-130478000D01*
G75*
G02*
X55487000Y-130529000I-51000J0D01*
G01*
X50887000Y-130529000D01*
G75*
G02*
X50836000Y-130478000I0J51000D01*
G01*
X50836000Y-129378000D01*
G75*
G02*
X50887000Y-129327000I51000J0D01*
G01*
X55487000Y-129327000D01*
G75*
G02*
X55538000Y-129378000I0J-51000D01*
G01*
G37*
G36*
G01*
X55538000Y-126838000D02*
X55538000Y-127938000D01*
G75*
G02*
X55487000Y-127989000I-51000J0D01*
G01*
X50887000Y-127989000D01*
G75*
G02*
X50836000Y-127938000I0J51000D01*
G01*
X50836000Y-126838000D01*
G75*
G02*
X50887000Y-126787000I51000J0D01*
G01*
X55487000Y-126787000D01*
G75*
G02*
X55538000Y-126838000I0J-51000D01*
G01*
G37*
G36*
G01*
X55538000Y-124298000D02*
X55538000Y-125398000D01*
G75*
G02*
X55487000Y-125449000I-51000J0D01*
G01*
X50887000Y-125449000D01*
G75*
G02*
X50836000Y-125398000I0J51000D01*
G01*
X50836000Y-124298000D01*
G75*
G02*
X50887000Y-124247000I51000J0D01*
G01*
X55487000Y-124247000D01*
G75*
G02*
X55538000Y-124298000I0J-51000D01*
G01*
G37*
G36*
G01*
X48788000Y-121988000D02*
X48788000Y-132788000D01*
G75*
G02*
X48737000Y-132839000I-51000J0D01*
G01*
X39337000Y-132839000D01*
G75*
G02*
X39286000Y-132788000I0J51000D01*
G01*
X39286000Y-121988000D01*
G75*
G02*
X39337000Y-121937000I51000J0D01*
G01*
X48737000Y-121937000D01*
G75*
G02*
X48788000Y-121988000I0J-51000D01*
G01*
G37*
D18*
G36*
X97047990Y-137996054D02*
G01*
X97053019Y-138047115D01*
X97067858Y-138096031D01*
X97091952Y-138141110D01*
X97124379Y-138180621D01*
X97163890Y-138213048D01*
X97208969Y-138237142D01*
X97257885Y-138251981D01*
X97308946Y-138257010D01*
X97310572Y-138258175D01*
X97310376Y-138260165D01*
X97308750Y-138261000D01*
X97221140Y-138261000D01*
X97220944Y-138260990D01*
X97181952Y-138257150D01*
X97181567Y-138257074D01*
X97149976Y-138247491D01*
X97149614Y-138247341D01*
X97120500Y-138231779D01*
X97120174Y-138231561D01*
X97094657Y-138210620D01*
X97094380Y-138210343D01*
X97073439Y-138184826D01*
X97073221Y-138184500D01*
X97057659Y-138155386D01*
X97057509Y-138155024D01*
X97047926Y-138123433D01*
X97047850Y-138123048D01*
X97044010Y-138084056D01*
X97044000Y-138083860D01*
X97044000Y-137996250D01*
X97045000Y-137994518D01*
X97047000Y-137994518D01*
X97047990Y-137996054D01*
G37*
G36*
X99149165Y-137994624D02*
G01*
X99150000Y-137996250D01*
X99150000Y-138083860D01*
X99149990Y-138084056D01*
X99146150Y-138123048D01*
X99146074Y-138123433D01*
X99136491Y-138155024D01*
X99136341Y-138155386D01*
X99120779Y-138184500D01*
X99120561Y-138184826D01*
X99099620Y-138210343D01*
X99099343Y-138210620D01*
X99073826Y-138231561D01*
X99073500Y-138231779D01*
X99044386Y-138247341D01*
X99044024Y-138247491D01*
X99012433Y-138257074D01*
X99012048Y-138257150D01*
X98973056Y-138260990D01*
X98972860Y-138261000D01*
X98885250Y-138261000D01*
X98883518Y-138260000D01*
X98883518Y-138258000D01*
X98885054Y-138257010D01*
X98936115Y-138251981D01*
X98985031Y-138237142D01*
X99030110Y-138213048D01*
X99069621Y-138180621D01*
X99102048Y-138141110D01*
X99126142Y-138096031D01*
X99140981Y-138047115D01*
X99146010Y-137996054D01*
X99147175Y-137994428D01*
X99149165Y-137994624D01*
G37*
G36*
X97310482Y-135556000D02*
G01*
X97310482Y-135558000D01*
X97308946Y-135558990D01*
X97257885Y-135564019D01*
X97208969Y-135578858D01*
X97163890Y-135602952D01*
X97124379Y-135635379D01*
X97091952Y-135674890D01*
X97067858Y-135719969D01*
X97053019Y-135768885D01*
X97047990Y-135819946D01*
X97046825Y-135821572D01*
X97044835Y-135821376D01*
X97044000Y-135819750D01*
X97044000Y-135732140D01*
X97044010Y-135731944D01*
X97047850Y-135692952D01*
X97047926Y-135692567D01*
X97057509Y-135660976D01*
X97057659Y-135660614D01*
X97073221Y-135631500D01*
X97073439Y-135631174D01*
X97094380Y-135605657D01*
X97094657Y-135605380D01*
X97120174Y-135584439D01*
X97120500Y-135584221D01*
X97149614Y-135568659D01*
X97149976Y-135568509D01*
X97181567Y-135558926D01*
X97181952Y-135558850D01*
X97220944Y-135555010D01*
X97221140Y-135555000D01*
X97308750Y-135555000D01*
X97310482Y-135556000D01*
G37*
G36*
X98973056Y-135555010D02*
G01*
X99012048Y-135558850D01*
X99012433Y-135558926D01*
X99044024Y-135568509D01*
X99044386Y-135568659D01*
X99073500Y-135584221D01*
X99073826Y-135584439D01*
X99099343Y-135605380D01*
X99099620Y-135605657D01*
X99120561Y-135631174D01*
X99120779Y-135631500D01*
X99136341Y-135660614D01*
X99136491Y-135660976D01*
X99146074Y-135692567D01*
X99146150Y-135692952D01*
X99149990Y-135731944D01*
X99150000Y-135732140D01*
X99150000Y-135819750D01*
X99149000Y-135821482D01*
X99147000Y-135821482D01*
X99146010Y-135819946D01*
X99140981Y-135768885D01*
X99126142Y-135719969D01*
X99102048Y-135674890D01*
X99069621Y-135635379D01*
X99030110Y-135602952D01*
X98985031Y-135578858D01*
X98936115Y-135564019D01*
X98885054Y-135558990D01*
X98883428Y-135557825D01*
X98883624Y-135555835D01*
X98885250Y-135555000D01*
X98972860Y-135555000D01*
X98973056Y-135555010D01*
G37*
G36*
X183907990Y-132324150D02*
G01*
X183913055Y-132375582D01*
X183928003Y-132424856D01*
X183952273Y-132470264D01*
X183984936Y-132510064D01*
X184024736Y-132542727D01*
X184070144Y-132566997D01*
X184119418Y-132581945D01*
X184170850Y-132587010D01*
X184172476Y-132588175D01*
X184172280Y-132590165D01*
X184170654Y-132591000D01*
X184087712Y-132591000D01*
X184087516Y-132590990D01*
X184047244Y-132587024D01*
X184046859Y-132586948D01*
X184014035Y-132576990D01*
X184013673Y-132576840D01*
X183983425Y-132560672D01*
X183983099Y-132560454D01*
X183956583Y-132538694D01*
X183956306Y-132538417D01*
X183934546Y-132511901D01*
X183934328Y-132511575D01*
X183918160Y-132481327D01*
X183918010Y-132480965D01*
X183908052Y-132448141D01*
X183907976Y-132447756D01*
X183904010Y-132407484D01*
X183904000Y-132407288D01*
X183904000Y-132324346D01*
X183905000Y-132322614D01*
X183907000Y-132322614D01*
X183907990Y-132324150D01*
G37*
G36*
X186199165Y-132322720D02*
G01*
X186200000Y-132324346D01*
X186200000Y-132407288D01*
X186199990Y-132407484D01*
X186196024Y-132447756D01*
X186195948Y-132448141D01*
X186185990Y-132480965D01*
X186185840Y-132481327D01*
X186169672Y-132511575D01*
X186169454Y-132511901D01*
X186147694Y-132538417D01*
X186147417Y-132538694D01*
X186120901Y-132560454D01*
X186120575Y-132560672D01*
X186090327Y-132576840D01*
X186089965Y-132576990D01*
X186057141Y-132586948D01*
X186056756Y-132587024D01*
X186016484Y-132590990D01*
X186016288Y-132591000D01*
X185933346Y-132591000D01*
X185931614Y-132590000D01*
X185931614Y-132588000D01*
X185933150Y-132587010D01*
X185984582Y-132581945D01*
X186033856Y-132566997D01*
X186079264Y-132542727D01*
X186119064Y-132510064D01*
X186151727Y-132470264D01*
X186175997Y-132424856D01*
X186190945Y-132375582D01*
X186196010Y-132324150D01*
X186197175Y-132322524D01*
X186199165Y-132322720D01*
G37*
G36*
X184172386Y-130746000D02*
G01*
X184172386Y-130748000D01*
X184170850Y-130748990D01*
X184119418Y-130754055D01*
X184070144Y-130769003D01*
X184024736Y-130793273D01*
X183984936Y-130825936D01*
X183952273Y-130865736D01*
X183928003Y-130911144D01*
X183913055Y-130960418D01*
X183907990Y-131011850D01*
X183906825Y-131013476D01*
X183904835Y-131013280D01*
X183904000Y-131011654D01*
X183904000Y-130928712D01*
X183904010Y-130928516D01*
X183907976Y-130888244D01*
X183908052Y-130887859D01*
X183918010Y-130855035D01*
X183918160Y-130854673D01*
X183934328Y-130824425D01*
X183934546Y-130824099D01*
X183956306Y-130797583D01*
X183956583Y-130797306D01*
X183983099Y-130775546D01*
X183983425Y-130775328D01*
X184013673Y-130759160D01*
X184014035Y-130759010D01*
X184046859Y-130749052D01*
X184047244Y-130748976D01*
X184087516Y-130745010D01*
X184087712Y-130745000D01*
X184170654Y-130745000D01*
X184172386Y-130746000D01*
G37*
G36*
X186016484Y-130745010D02*
G01*
X186056756Y-130748976D01*
X186057141Y-130749052D01*
X186089965Y-130759010D01*
X186090327Y-130759160D01*
X186120575Y-130775328D01*
X186120901Y-130775546D01*
X186147417Y-130797306D01*
X186147694Y-130797583D01*
X186169454Y-130824099D01*
X186169672Y-130824425D01*
X186185840Y-130854673D01*
X186185990Y-130855035D01*
X186195948Y-130887859D01*
X186196024Y-130888244D01*
X186199990Y-130928516D01*
X186200000Y-130928712D01*
X186200000Y-131011654D01*
X186199000Y-131013386D01*
X186197000Y-131013386D01*
X186196010Y-131011850D01*
X186190945Y-130960418D01*
X186175997Y-130911144D01*
X186151727Y-130865736D01*
X186119064Y-130825936D01*
X186079264Y-130793273D01*
X186033856Y-130769003D01*
X185984582Y-130754055D01*
X185933150Y-130748990D01*
X185931524Y-130747825D01*
X185931720Y-130745835D01*
X185933346Y-130745000D01*
X186016288Y-130745000D01*
X186016484Y-130745010D01*
G37*
G36*
X186239165Y-123502720D02*
G01*
X186240000Y-123504346D01*
X186240000Y-123587288D01*
X186239990Y-123587484D01*
X186236024Y-123627756D01*
X186235948Y-123628141D01*
X186225990Y-123660965D01*
X186225840Y-123661327D01*
X186209672Y-123691575D01*
X186209454Y-123691901D01*
X186187694Y-123718417D01*
X186187417Y-123718694D01*
X186160901Y-123740454D01*
X186160575Y-123740672D01*
X186130327Y-123756840D01*
X186129965Y-123756990D01*
X186097141Y-123766948D01*
X186096756Y-123767024D01*
X186056484Y-123770990D01*
X186056288Y-123771000D01*
X185973346Y-123771000D01*
X185971614Y-123770000D01*
X185971614Y-123768000D01*
X185973150Y-123767010D01*
X186024582Y-123761945D01*
X186073856Y-123746997D01*
X186119264Y-123722727D01*
X186159064Y-123690064D01*
X186191727Y-123650264D01*
X186215997Y-123604856D01*
X186230945Y-123555582D01*
X186236010Y-123504150D01*
X186237175Y-123502524D01*
X186239165Y-123502720D01*
G37*
G36*
X183947990Y-123504150D02*
G01*
X183953055Y-123555582D01*
X183968003Y-123604856D01*
X183992273Y-123650264D01*
X184024936Y-123690064D01*
X184064736Y-123722727D01*
X184110144Y-123746997D01*
X184159418Y-123761945D01*
X184210850Y-123767010D01*
X184212476Y-123768175D01*
X184212280Y-123770165D01*
X184210654Y-123771000D01*
X184127712Y-123771000D01*
X184127516Y-123770990D01*
X184087244Y-123767024D01*
X184086859Y-123766948D01*
X184054035Y-123756990D01*
X184053673Y-123756840D01*
X184023425Y-123740672D01*
X184023099Y-123740454D01*
X183996583Y-123718694D01*
X183996306Y-123718417D01*
X183974546Y-123691901D01*
X183974328Y-123691575D01*
X183958160Y-123661327D01*
X183958010Y-123660965D01*
X183948052Y-123628141D01*
X183947976Y-123627756D01*
X183944010Y-123587484D01*
X183944000Y-123587288D01*
X183944000Y-123504346D01*
X183945000Y-123502614D01*
X183947000Y-123502614D01*
X183947990Y-123504150D01*
G37*
G36*
X184212386Y-121926000D02*
G01*
X184212386Y-121928000D01*
X184210850Y-121928990D01*
X184159418Y-121934055D01*
X184110144Y-121949003D01*
X184064736Y-121973273D01*
X184024936Y-122005936D01*
X183992273Y-122045736D01*
X183968003Y-122091144D01*
X183953055Y-122140418D01*
X183947990Y-122191850D01*
X183946825Y-122193476D01*
X183944835Y-122193280D01*
X183944000Y-122191654D01*
X183944000Y-122108712D01*
X183944010Y-122108516D01*
X183947976Y-122068244D01*
X183948052Y-122067859D01*
X183958010Y-122035035D01*
X183958160Y-122034673D01*
X183974328Y-122004425D01*
X183974546Y-122004099D01*
X183996306Y-121977583D01*
X183996583Y-121977306D01*
X184023099Y-121955546D01*
X184023425Y-121955328D01*
X184053673Y-121939160D01*
X184054035Y-121939010D01*
X184086859Y-121929052D01*
X184087244Y-121928976D01*
X184127516Y-121925010D01*
X184127712Y-121925000D01*
X184210654Y-121925000D01*
X184212386Y-121926000D01*
G37*
G36*
X186056484Y-121925010D02*
G01*
X186096756Y-121928976D01*
X186097141Y-121929052D01*
X186129965Y-121939010D01*
X186130327Y-121939160D01*
X186160575Y-121955328D01*
X186160901Y-121955546D01*
X186187417Y-121977306D01*
X186187694Y-121977583D01*
X186209454Y-122004099D01*
X186209672Y-122004425D01*
X186225840Y-122034673D01*
X186225990Y-122035035D01*
X186235948Y-122067859D01*
X186236024Y-122068244D01*
X186239990Y-122108516D01*
X186240000Y-122108712D01*
X186240000Y-122191654D01*
X186239000Y-122193386D01*
X186237000Y-122193386D01*
X186236010Y-122191850D01*
X186230945Y-122140418D01*
X186215997Y-122091144D01*
X186191727Y-122045736D01*
X186159064Y-122005936D01*
X186119264Y-121973273D01*
X186073856Y-121949003D01*
X186024582Y-121934055D01*
X185973150Y-121928990D01*
X185971524Y-121927825D01*
X185971720Y-121925835D01*
X185973346Y-121925000D01*
X186056288Y-121925000D01*
X186056484Y-121925010D01*
G37*
G36*
X173420990Y-20380804D02*
G01*
X173426062Y-20432304D01*
X173441029Y-20481642D01*
X173465332Y-20527110D01*
X173498038Y-20566962D01*
X173537890Y-20599668D01*
X173583358Y-20623971D01*
X173632696Y-20638938D01*
X173684196Y-20644010D01*
X173685822Y-20645175D01*
X173685626Y-20647165D01*
X173684000Y-20648000D01*
X173601903Y-20648000D01*
X173601707Y-20647990D01*
X173561204Y-20644001D01*
X173560819Y-20643925D01*
X173527767Y-20633899D01*
X173527405Y-20633749D01*
X173496954Y-20617472D01*
X173496628Y-20617254D01*
X173469932Y-20595345D01*
X173469655Y-20595068D01*
X173447746Y-20568372D01*
X173447528Y-20568046D01*
X173431251Y-20537595D01*
X173431101Y-20537233D01*
X173421075Y-20504181D01*
X173420999Y-20503796D01*
X173417010Y-20463293D01*
X173417000Y-20463097D01*
X173417000Y-20381000D01*
X173418000Y-20379268D01*
X173420000Y-20379268D01*
X173420990Y-20380804D01*
G37*
G36*
X73522990Y-20380804D02*
G01*
X73528062Y-20432304D01*
X73543029Y-20481642D01*
X73567332Y-20527110D01*
X73600038Y-20566962D01*
X73639890Y-20599668D01*
X73685358Y-20623971D01*
X73734696Y-20638938D01*
X73786196Y-20644010D01*
X73787822Y-20645175D01*
X73787626Y-20647165D01*
X73786000Y-20648000D01*
X73703903Y-20648000D01*
X73703707Y-20647990D01*
X73663204Y-20644001D01*
X73662819Y-20643925D01*
X73629767Y-20633899D01*
X73629405Y-20633749D01*
X73598954Y-20617472D01*
X73598628Y-20617254D01*
X73571932Y-20595345D01*
X73571655Y-20595068D01*
X73549746Y-20568372D01*
X73549528Y-20568046D01*
X73533251Y-20537595D01*
X73533101Y-20537233D01*
X73523075Y-20504181D01*
X73522999Y-20503796D01*
X73519010Y-20463293D01*
X73519000Y-20463097D01*
X73519000Y-20381000D01*
X73520000Y-20379268D01*
X73522000Y-20379268D01*
X73522990Y-20380804D01*
G37*
G36*
X148022165Y-20379374D02*
G01*
X148023000Y-20381000D01*
X148023000Y-20463097D01*
X148022990Y-20463293D01*
X148019001Y-20503796D01*
X148018925Y-20504181D01*
X148008899Y-20537233D01*
X148008749Y-20537595D01*
X147992472Y-20568046D01*
X147992254Y-20568372D01*
X147970345Y-20595068D01*
X147970068Y-20595345D01*
X147943372Y-20617254D01*
X147943046Y-20617472D01*
X147912595Y-20633749D01*
X147912233Y-20633899D01*
X147879181Y-20643925D01*
X147878796Y-20644001D01*
X147838293Y-20647990D01*
X147838097Y-20648000D01*
X147756000Y-20648000D01*
X147754268Y-20647000D01*
X147754268Y-20645000D01*
X147755804Y-20644010D01*
X147807304Y-20638938D01*
X147856642Y-20623971D01*
X147902110Y-20599668D01*
X147941962Y-20566962D01*
X147974668Y-20527110D01*
X147998971Y-20481642D01*
X148013938Y-20432304D01*
X148019010Y-20380804D01*
X148020175Y-20379178D01*
X148022165Y-20379374D01*
G37*
G36*
X59920990Y-20380804D02*
G01*
X59926062Y-20432304D01*
X59941029Y-20481642D01*
X59965332Y-20527110D01*
X59998038Y-20566962D01*
X60037890Y-20599668D01*
X60083358Y-20623971D01*
X60132696Y-20638938D01*
X60184196Y-20644010D01*
X60185822Y-20645175D01*
X60185626Y-20647165D01*
X60184000Y-20648000D01*
X60101903Y-20648000D01*
X60101707Y-20647990D01*
X60061204Y-20644001D01*
X60060819Y-20643925D01*
X60027767Y-20633899D01*
X60027405Y-20633749D01*
X59996954Y-20617472D01*
X59996628Y-20617254D01*
X59969932Y-20595345D01*
X59969655Y-20595068D01*
X59947746Y-20568372D01*
X59947528Y-20568046D01*
X59931251Y-20537595D01*
X59931101Y-20537233D01*
X59921075Y-20504181D01*
X59920999Y-20503796D01*
X59917010Y-20463293D01*
X59917000Y-20463097D01*
X59917000Y-20381000D01*
X59918000Y-20379268D01*
X59920000Y-20379268D01*
X59920990Y-20380804D01*
G37*
G36*
X119022990Y-20380804D02*
G01*
X119028062Y-20432304D01*
X119043029Y-20481642D01*
X119067332Y-20527110D01*
X119100038Y-20566962D01*
X119139890Y-20599668D01*
X119185358Y-20623971D01*
X119234696Y-20638938D01*
X119286196Y-20644010D01*
X119287822Y-20645175D01*
X119287626Y-20647165D01*
X119286000Y-20648000D01*
X119203903Y-20648000D01*
X119203707Y-20647990D01*
X119163204Y-20644001D01*
X119162819Y-20643925D01*
X119129767Y-20633899D01*
X119129405Y-20633749D01*
X119098954Y-20617472D01*
X119098628Y-20617254D01*
X119071932Y-20595345D01*
X119071655Y-20595068D01*
X119049746Y-20568372D01*
X119049528Y-20568046D01*
X119033251Y-20537595D01*
X119033101Y-20537233D01*
X119023075Y-20504181D01*
X119022999Y-20503796D01*
X119019010Y-20463293D01*
X119019000Y-20463097D01*
X119019000Y-20381000D01*
X119020000Y-20379268D01*
X119022000Y-20379268D01*
X119022990Y-20380804D01*
G37*
G36*
X46322990Y-20380804D02*
G01*
X46328062Y-20432304D01*
X46343029Y-20481642D01*
X46367332Y-20527110D01*
X46400038Y-20566962D01*
X46439890Y-20599668D01*
X46485358Y-20623971D01*
X46534696Y-20638938D01*
X46586196Y-20644010D01*
X46587822Y-20645175D01*
X46587626Y-20647165D01*
X46586000Y-20648000D01*
X46503903Y-20648000D01*
X46503707Y-20647990D01*
X46463204Y-20644001D01*
X46462819Y-20643925D01*
X46429767Y-20633899D01*
X46429405Y-20633749D01*
X46398954Y-20617472D01*
X46398628Y-20617254D01*
X46371932Y-20595345D01*
X46371655Y-20595068D01*
X46349746Y-20568372D01*
X46349528Y-20568046D01*
X46333251Y-20537595D01*
X46333101Y-20537233D01*
X46323075Y-20504181D01*
X46322999Y-20503796D01*
X46319010Y-20463293D01*
X46319000Y-20463097D01*
X46319000Y-20381000D01*
X46320000Y-20379268D01*
X46322000Y-20379268D01*
X46322990Y-20380804D01*
G37*
G36*
X159820990Y-20380804D02*
G01*
X159826062Y-20432304D01*
X159841029Y-20481642D01*
X159865332Y-20527110D01*
X159898038Y-20566962D01*
X159937890Y-20599668D01*
X159983358Y-20623971D01*
X160032696Y-20638938D01*
X160084196Y-20644010D01*
X160085822Y-20645175D01*
X160085626Y-20647165D01*
X160084000Y-20648000D01*
X160001903Y-20648000D01*
X160001707Y-20647990D01*
X159961204Y-20644001D01*
X159960819Y-20643925D01*
X159927767Y-20633899D01*
X159927405Y-20633749D01*
X159896954Y-20617472D01*
X159896628Y-20617254D01*
X159869932Y-20595345D01*
X159869655Y-20595068D01*
X159847746Y-20568372D01*
X159847528Y-20568046D01*
X159831251Y-20537595D01*
X159831101Y-20537233D01*
X159821075Y-20504181D01*
X159820999Y-20503796D01*
X159817010Y-20463293D01*
X159817000Y-20463097D01*
X159817000Y-20381000D01*
X159818000Y-20379268D01*
X159820000Y-20379268D01*
X159820990Y-20380804D01*
G37*
G36*
X20924165Y-20379374D02*
G01*
X20925000Y-20381000D01*
X20925000Y-20463097D01*
X20924990Y-20463293D01*
X20921001Y-20503796D01*
X20920925Y-20504181D01*
X20910899Y-20537233D01*
X20910749Y-20537595D01*
X20894472Y-20568046D01*
X20894254Y-20568372D01*
X20872345Y-20595068D01*
X20872068Y-20595345D01*
X20845372Y-20617254D01*
X20845046Y-20617472D01*
X20814595Y-20633749D01*
X20814233Y-20633899D01*
X20781181Y-20643925D01*
X20780796Y-20644001D01*
X20740293Y-20647990D01*
X20740097Y-20648000D01*
X20658000Y-20648000D01*
X20656268Y-20647000D01*
X20656268Y-20645000D01*
X20657804Y-20644010D01*
X20709304Y-20638938D01*
X20758642Y-20623971D01*
X20804110Y-20599668D01*
X20843962Y-20566962D01*
X20876668Y-20527110D01*
X20900971Y-20481642D01*
X20915938Y-20432304D01*
X20921010Y-20380804D01*
X20922175Y-20379178D01*
X20924165Y-20379374D01*
G37*
G36*
X32722990Y-20380804D02*
G01*
X32728062Y-20432304D01*
X32743029Y-20481642D01*
X32767332Y-20527110D01*
X32800038Y-20566962D01*
X32839890Y-20599668D01*
X32885358Y-20623971D01*
X32934696Y-20638938D01*
X32986196Y-20644010D01*
X32987822Y-20645175D01*
X32987626Y-20647165D01*
X32986000Y-20648000D01*
X32903903Y-20648000D01*
X32903707Y-20647990D01*
X32863204Y-20644001D01*
X32862819Y-20643925D01*
X32829767Y-20633899D01*
X32829405Y-20633749D01*
X32798954Y-20617472D01*
X32798628Y-20617254D01*
X32771932Y-20595345D01*
X32771655Y-20595068D01*
X32749746Y-20568372D01*
X32749528Y-20568046D01*
X32733251Y-20537595D01*
X32733101Y-20537233D01*
X32723075Y-20504181D01*
X32722999Y-20503796D01*
X32719010Y-20463293D01*
X32719000Y-20463097D01*
X32719000Y-20381000D01*
X32720000Y-20379268D01*
X32722000Y-20379268D01*
X32722990Y-20380804D01*
G37*
G36*
X48124165Y-20379374D02*
G01*
X48125000Y-20381000D01*
X48125000Y-20463097D01*
X48124990Y-20463293D01*
X48121001Y-20503796D01*
X48120925Y-20504181D01*
X48110899Y-20537233D01*
X48110749Y-20537595D01*
X48094472Y-20568046D01*
X48094254Y-20568372D01*
X48072345Y-20595068D01*
X48072068Y-20595345D01*
X48045372Y-20617254D01*
X48045046Y-20617472D01*
X48014595Y-20633749D01*
X48014233Y-20633899D01*
X47981181Y-20643925D01*
X47980796Y-20644001D01*
X47940293Y-20647990D01*
X47940097Y-20648000D01*
X47858000Y-20648000D01*
X47856268Y-20647000D01*
X47856268Y-20645000D01*
X47857804Y-20644010D01*
X47909304Y-20638938D01*
X47958642Y-20623971D01*
X48004110Y-20599668D01*
X48043962Y-20566962D01*
X48076668Y-20527110D01*
X48100971Y-20481642D01*
X48115938Y-20432304D01*
X48121010Y-20380804D01*
X48122175Y-20379178D01*
X48124165Y-20379374D01*
G37*
G36*
X132620990Y-20380804D02*
G01*
X132626062Y-20432304D01*
X132641029Y-20481642D01*
X132665332Y-20527110D01*
X132698038Y-20566962D01*
X132737890Y-20599668D01*
X132783358Y-20623971D01*
X132832696Y-20638938D01*
X132884196Y-20644010D01*
X132885822Y-20645175D01*
X132885626Y-20647165D01*
X132884000Y-20648000D01*
X132801903Y-20648000D01*
X132801707Y-20647990D01*
X132761204Y-20644001D01*
X132760819Y-20643925D01*
X132727767Y-20633899D01*
X132727405Y-20633749D01*
X132696954Y-20617472D01*
X132696628Y-20617254D01*
X132669932Y-20595345D01*
X132669655Y-20595068D01*
X132647746Y-20568372D01*
X132647528Y-20568046D01*
X132631251Y-20537595D01*
X132631101Y-20537233D01*
X132621075Y-20504181D01*
X132620999Y-20503796D01*
X132617010Y-20463293D01*
X132617000Y-20463097D01*
X132617000Y-20381000D01*
X132618000Y-20379268D01*
X132620000Y-20379268D01*
X132620990Y-20380804D01*
G37*
G36*
X19122990Y-20380804D02*
G01*
X19128062Y-20432304D01*
X19143029Y-20481642D01*
X19167332Y-20527110D01*
X19200038Y-20566962D01*
X19239890Y-20599668D01*
X19285358Y-20623971D01*
X19334696Y-20638938D01*
X19386196Y-20644010D01*
X19387822Y-20645175D01*
X19387626Y-20647165D01*
X19386000Y-20648000D01*
X19303903Y-20648000D01*
X19303707Y-20647990D01*
X19263204Y-20644001D01*
X19262819Y-20643925D01*
X19229767Y-20633899D01*
X19229405Y-20633749D01*
X19198954Y-20617472D01*
X19198628Y-20617254D01*
X19171932Y-20595345D01*
X19171655Y-20595068D01*
X19149746Y-20568372D01*
X19149528Y-20568046D01*
X19133251Y-20537595D01*
X19133101Y-20537233D01*
X19123075Y-20504181D01*
X19122999Y-20503796D01*
X19119010Y-20463293D01*
X19119000Y-20463097D01*
X19119000Y-20381000D01*
X19120000Y-20379268D01*
X19122000Y-20379268D01*
X19122990Y-20380804D01*
G37*
G36*
X175222165Y-20379374D02*
G01*
X175223000Y-20381000D01*
X175223000Y-20463097D01*
X175222990Y-20463293D01*
X175219001Y-20503796D01*
X175218925Y-20504181D01*
X175208899Y-20537233D01*
X175208749Y-20537595D01*
X175192472Y-20568046D01*
X175192254Y-20568372D01*
X175170345Y-20595068D01*
X175170068Y-20595345D01*
X175143372Y-20617254D01*
X175143046Y-20617472D01*
X175112595Y-20633749D01*
X175112233Y-20633899D01*
X175079181Y-20643925D01*
X175078796Y-20644001D01*
X175038293Y-20647990D01*
X175038097Y-20648000D01*
X174956000Y-20648000D01*
X174954268Y-20647000D01*
X174954268Y-20645000D01*
X174955804Y-20644010D01*
X175007304Y-20638938D01*
X175056642Y-20623971D01*
X175102110Y-20599668D01*
X175141962Y-20566962D01*
X175174668Y-20527110D01*
X175198971Y-20481642D01*
X175213938Y-20432304D01*
X175219010Y-20380804D01*
X175220175Y-20379178D01*
X175222165Y-20379374D01*
G37*
G36*
X34524165Y-20379374D02*
G01*
X34525000Y-20381000D01*
X34525000Y-20463097D01*
X34524990Y-20463293D01*
X34521001Y-20503796D01*
X34520925Y-20504181D01*
X34510899Y-20537233D01*
X34510749Y-20537595D01*
X34494472Y-20568046D01*
X34494254Y-20568372D01*
X34472345Y-20595068D01*
X34472068Y-20595345D01*
X34445372Y-20617254D01*
X34445046Y-20617472D01*
X34414595Y-20633749D01*
X34414233Y-20633899D01*
X34381181Y-20643925D01*
X34380796Y-20644001D01*
X34340293Y-20647990D01*
X34340097Y-20648000D01*
X34258000Y-20648000D01*
X34256268Y-20647000D01*
X34256268Y-20645000D01*
X34257804Y-20644010D01*
X34309304Y-20638938D01*
X34358642Y-20623971D01*
X34404110Y-20599668D01*
X34443962Y-20566962D01*
X34476668Y-20527110D01*
X34500971Y-20481642D01*
X34515938Y-20432304D01*
X34521010Y-20380804D01*
X34522175Y-20379178D01*
X34524165Y-20379374D01*
G37*
G36*
X134422165Y-20379374D02*
G01*
X134423000Y-20381000D01*
X134423000Y-20463097D01*
X134422990Y-20463293D01*
X134419001Y-20503796D01*
X134418925Y-20504181D01*
X134408899Y-20537233D01*
X134408749Y-20537595D01*
X134392472Y-20568046D01*
X134392254Y-20568372D01*
X134370345Y-20595068D01*
X134370068Y-20595345D01*
X134343372Y-20617254D01*
X134343046Y-20617472D01*
X134312595Y-20633749D01*
X134312233Y-20633899D01*
X134279181Y-20643925D01*
X134278796Y-20644001D01*
X134238293Y-20647990D01*
X134238097Y-20648000D01*
X134156000Y-20648000D01*
X134154268Y-20647000D01*
X134154268Y-20645000D01*
X134155804Y-20644010D01*
X134207304Y-20638938D01*
X134256642Y-20623971D01*
X134302110Y-20599668D01*
X134341962Y-20566962D01*
X134374668Y-20527110D01*
X134398971Y-20481642D01*
X134413938Y-20432304D01*
X134419010Y-20380804D01*
X134420175Y-20379178D01*
X134422165Y-20379374D01*
G37*
G36*
X120824165Y-20379374D02*
G01*
X120825000Y-20381000D01*
X120825000Y-20463097D01*
X120824990Y-20463293D01*
X120821001Y-20503796D01*
X120820925Y-20504181D01*
X120810899Y-20537233D01*
X120810749Y-20537595D01*
X120794472Y-20568046D01*
X120794254Y-20568372D01*
X120772345Y-20595068D01*
X120772068Y-20595345D01*
X120745372Y-20617254D01*
X120745046Y-20617472D01*
X120714595Y-20633749D01*
X120714233Y-20633899D01*
X120681181Y-20643925D01*
X120680796Y-20644001D01*
X120640293Y-20647990D01*
X120640097Y-20648000D01*
X120558000Y-20648000D01*
X120556268Y-20647000D01*
X120556268Y-20645000D01*
X120557804Y-20644010D01*
X120609304Y-20638938D01*
X120658642Y-20623971D01*
X120704110Y-20599668D01*
X120743962Y-20566962D01*
X120776668Y-20527110D01*
X120800971Y-20481642D01*
X120815938Y-20432304D01*
X120821010Y-20380804D01*
X120822175Y-20379178D01*
X120824165Y-20379374D01*
G37*
G36*
X89024165Y-20379374D02*
G01*
X89025000Y-20381000D01*
X89025000Y-20463097D01*
X89024990Y-20463293D01*
X89021001Y-20503796D01*
X89020925Y-20504181D01*
X89010899Y-20537233D01*
X89010749Y-20537595D01*
X88994472Y-20568046D01*
X88994254Y-20568372D01*
X88972345Y-20595068D01*
X88972068Y-20595345D01*
X88945372Y-20617254D01*
X88945046Y-20617472D01*
X88914595Y-20633749D01*
X88914233Y-20633899D01*
X88881181Y-20643925D01*
X88880796Y-20644001D01*
X88840293Y-20647990D01*
X88840097Y-20648000D01*
X88758000Y-20648000D01*
X88756268Y-20647000D01*
X88756268Y-20645000D01*
X88757804Y-20644010D01*
X88809304Y-20638938D01*
X88858642Y-20623971D01*
X88904110Y-20599668D01*
X88943962Y-20566962D01*
X88976668Y-20527110D01*
X89000971Y-20481642D01*
X89015938Y-20432304D01*
X89021010Y-20380804D01*
X89022175Y-20379178D01*
X89024165Y-20379374D01*
G37*
G36*
X146220990Y-20380804D02*
G01*
X146226062Y-20432304D01*
X146241029Y-20481642D01*
X146265332Y-20527110D01*
X146298038Y-20566962D01*
X146337890Y-20599668D01*
X146383358Y-20623971D01*
X146432696Y-20638938D01*
X146484196Y-20644010D01*
X146485822Y-20645175D01*
X146485626Y-20647165D01*
X146484000Y-20648000D01*
X146401903Y-20648000D01*
X146401707Y-20647990D01*
X146361204Y-20644001D01*
X146360819Y-20643925D01*
X146327767Y-20633899D01*
X146327405Y-20633749D01*
X146296954Y-20617472D01*
X146296628Y-20617254D01*
X146269932Y-20595345D01*
X146269655Y-20595068D01*
X146247746Y-20568372D01*
X146247528Y-20568046D01*
X146231251Y-20537595D01*
X146231101Y-20537233D01*
X146221075Y-20504181D01*
X146220999Y-20503796D01*
X146217010Y-20463293D01*
X146217000Y-20463097D01*
X146217000Y-20381000D01*
X146218000Y-20379268D01*
X146220000Y-20379268D01*
X146220990Y-20380804D01*
G37*
G36*
X161622165Y-20379374D02*
G01*
X161623000Y-20381000D01*
X161623000Y-20463097D01*
X161622990Y-20463293D01*
X161619001Y-20503796D01*
X161618925Y-20504181D01*
X161608899Y-20537233D01*
X161608749Y-20537595D01*
X161592472Y-20568046D01*
X161592254Y-20568372D01*
X161570345Y-20595068D01*
X161570068Y-20595345D01*
X161543372Y-20617254D01*
X161543046Y-20617472D01*
X161512595Y-20633749D01*
X161512233Y-20633899D01*
X161479181Y-20643925D01*
X161478796Y-20644001D01*
X161438293Y-20647990D01*
X161438097Y-20648000D01*
X161356000Y-20648000D01*
X161354268Y-20647000D01*
X161354268Y-20645000D01*
X161355804Y-20644010D01*
X161407304Y-20638938D01*
X161456642Y-20623971D01*
X161502110Y-20599668D01*
X161541962Y-20566962D01*
X161574668Y-20527110D01*
X161598971Y-20481642D01*
X161613938Y-20432304D01*
X161619010Y-20380804D01*
X161620175Y-20379178D01*
X161622165Y-20379374D01*
G37*
G36*
X75324165Y-20379374D02*
G01*
X75325000Y-20381000D01*
X75325000Y-20463097D01*
X75324990Y-20463293D01*
X75321001Y-20503796D01*
X75320925Y-20504181D01*
X75310899Y-20537233D01*
X75310749Y-20537595D01*
X75294472Y-20568046D01*
X75294254Y-20568372D01*
X75272345Y-20595068D01*
X75272068Y-20595345D01*
X75245372Y-20617254D01*
X75245046Y-20617472D01*
X75214595Y-20633749D01*
X75214233Y-20633899D01*
X75181181Y-20643925D01*
X75180796Y-20644001D01*
X75140293Y-20647990D01*
X75140097Y-20648000D01*
X75058000Y-20648000D01*
X75056268Y-20647000D01*
X75056268Y-20645000D01*
X75057804Y-20644010D01*
X75109304Y-20638938D01*
X75158642Y-20623971D01*
X75204110Y-20599668D01*
X75243962Y-20566962D01*
X75276668Y-20527110D01*
X75300971Y-20481642D01*
X75315938Y-20432304D01*
X75321010Y-20380804D01*
X75322175Y-20379178D01*
X75324165Y-20379374D01*
G37*
G36*
X87222990Y-20380804D02*
G01*
X87228062Y-20432304D01*
X87243029Y-20481642D01*
X87267332Y-20527110D01*
X87300038Y-20566962D01*
X87339890Y-20599668D01*
X87385358Y-20623971D01*
X87434696Y-20638938D01*
X87486196Y-20644010D01*
X87487822Y-20645175D01*
X87487626Y-20647165D01*
X87486000Y-20648000D01*
X87403903Y-20648000D01*
X87403707Y-20647990D01*
X87363204Y-20644001D01*
X87362819Y-20643925D01*
X87329767Y-20633899D01*
X87329405Y-20633749D01*
X87298954Y-20617472D01*
X87298628Y-20617254D01*
X87271932Y-20595345D01*
X87271655Y-20595068D01*
X87249746Y-20568372D01*
X87249528Y-20568046D01*
X87233251Y-20537595D01*
X87233101Y-20537233D01*
X87223075Y-20504181D01*
X87222999Y-20503796D01*
X87219010Y-20463293D01*
X87219000Y-20463097D01*
X87219000Y-20381000D01*
X87220000Y-20379268D01*
X87222000Y-20379268D01*
X87222990Y-20380804D01*
G37*
G36*
X61722165Y-20379374D02*
G01*
X61723000Y-20381000D01*
X61723000Y-20463097D01*
X61722990Y-20463293D01*
X61719001Y-20503796D01*
X61718925Y-20504181D01*
X61708899Y-20537233D01*
X61708749Y-20537595D01*
X61692472Y-20568046D01*
X61692254Y-20568372D01*
X61670345Y-20595068D01*
X61670068Y-20595345D01*
X61643372Y-20617254D01*
X61643046Y-20617472D01*
X61612595Y-20633749D01*
X61612233Y-20633899D01*
X61579181Y-20643925D01*
X61578796Y-20644001D01*
X61538293Y-20647990D01*
X61538097Y-20648000D01*
X61456000Y-20648000D01*
X61454268Y-20647000D01*
X61454268Y-20645000D01*
X61455804Y-20644010D01*
X61507304Y-20638938D01*
X61556642Y-20623971D01*
X61602110Y-20599668D01*
X61641962Y-20566962D01*
X61674668Y-20527110D01*
X61698971Y-20481642D01*
X61713938Y-20432304D01*
X61719010Y-20380804D01*
X61720175Y-20379178D01*
X61722165Y-20379374D01*
G37*
G36*
X119287732Y-18593000D02*
G01*
X119287732Y-18595000D01*
X119286196Y-18595990D01*
X119234696Y-18601062D01*
X119185358Y-18616029D01*
X119139890Y-18640332D01*
X119100038Y-18673038D01*
X119067332Y-18712890D01*
X119043029Y-18758358D01*
X119028062Y-18807696D01*
X119022990Y-18859196D01*
X119021825Y-18860822D01*
X119019835Y-18860626D01*
X119019000Y-18859000D01*
X119019000Y-18776903D01*
X119019010Y-18776707D01*
X119022999Y-18736204D01*
X119023075Y-18735819D01*
X119033101Y-18702767D01*
X119033251Y-18702405D01*
X119049528Y-18671954D01*
X119049746Y-18671628D01*
X119071655Y-18644932D01*
X119071932Y-18644655D01*
X119098628Y-18622746D01*
X119098954Y-18622528D01*
X119129405Y-18606251D01*
X119129767Y-18606101D01*
X119162819Y-18596075D01*
X119163204Y-18595999D01*
X119203707Y-18592010D01*
X119203903Y-18592000D01*
X119286000Y-18592000D01*
X119287732Y-18593000D01*
G37*
G36*
X32987732Y-18593000D02*
G01*
X32987732Y-18595000D01*
X32986196Y-18595990D01*
X32934696Y-18601062D01*
X32885358Y-18616029D01*
X32839890Y-18640332D01*
X32800038Y-18673038D01*
X32767332Y-18712890D01*
X32743029Y-18758358D01*
X32728062Y-18807696D01*
X32722990Y-18859196D01*
X32721825Y-18860822D01*
X32719835Y-18860626D01*
X32719000Y-18859000D01*
X32719000Y-18776903D01*
X32719010Y-18776707D01*
X32722999Y-18736204D01*
X32723075Y-18735819D01*
X32733101Y-18702767D01*
X32733251Y-18702405D01*
X32749528Y-18671954D01*
X32749746Y-18671628D01*
X32771655Y-18644932D01*
X32771932Y-18644655D01*
X32798628Y-18622746D01*
X32798954Y-18622528D01*
X32829405Y-18606251D01*
X32829767Y-18606101D01*
X32862819Y-18596075D01*
X32863204Y-18595999D01*
X32903707Y-18592010D01*
X32903903Y-18592000D01*
X32986000Y-18592000D01*
X32987732Y-18593000D01*
G37*
G36*
X46587732Y-18593000D02*
G01*
X46587732Y-18595000D01*
X46586196Y-18595990D01*
X46534696Y-18601062D01*
X46485358Y-18616029D01*
X46439890Y-18640332D01*
X46400038Y-18673038D01*
X46367332Y-18712890D01*
X46343029Y-18758358D01*
X46328062Y-18807696D01*
X46322990Y-18859196D01*
X46321825Y-18860822D01*
X46319835Y-18860626D01*
X46319000Y-18859000D01*
X46319000Y-18776903D01*
X46319010Y-18776707D01*
X46322999Y-18736204D01*
X46323075Y-18735819D01*
X46333101Y-18702767D01*
X46333251Y-18702405D01*
X46349528Y-18671954D01*
X46349746Y-18671628D01*
X46371655Y-18644932D01*
X46371932Y-18644655D01*
X46398628Y-18622746D01*
X46398954Y-18622528D01*
X46429405Y-18606251D01*
X46429767Y-18606101D01*
X46462819Y-18596075D01*
X46463204Y-18595999D01*
X46503707Y-18592010D01*
X46503903Y-18592000D01*
X46586000Y-18592000D01*
X46587732Y-18593000D01*
G37*
G36*
X60185732Y-18593000D02*
G01*
X60185732Y-18595000D01*
X60184196Y-18595990D01*
X60132696Y-18601062D01*
X60083358Y-18616029D01*
X60037890Y-18640332D01*
X59998038Y-18673038D01*
X59965332Y-18712890D01*
X59941029Y-18758358D01*
X59926062Y-18807696D01*
X59920990Y-18859196D01*
X59919825Y-18860822D01*
X59917835Y-18860626D01*
X59917000Y-18859000D01*
X59917000Y-18776903D01*
X59917010Y-18776707D01*
X59920999Y-18736204D01*
X59921075Y-18735819D01*
X59931101Y-18702767D01*
X59931251Y-18702405D01*
X59947528Y-18671954D01*
X59947746Y-18671628D01*
X59969655Y-18644932D01*
X59969932Y-18644655D01*
X59996628Y-18622746D01*
X59996954Y-18622528D01*
X60027405Y-18606251D01*
X60027767Y-18606101D01*
X60060819Y-18596075D01*
X60061204Y-18595999D01*
X60101707Y-18592010D01*
X60101903Y-18592000D01*
X60184000Y-18592000D01*
X60185732Y-18593000D01*
G37*
G36*
X73787732Y-18593000D02*
G01*
X73787732Y-18595000D01*
X73786196Y-18595990D01*
X73734696Y-18601062D01*
X73685358Y-18616029D01*
X73639890Y-18640332D01*
X73600038Y-18673038D01*
X73567332Y-18712890D01*
X73543029Y-18758358D01*
X73528062Y-18807696D01*
X73522990Y-18859196D01*
X73521825Y-18860822D01*
X73519835Y-18860626D01*
X73519000Y-18859000D01*
X73519000Y-18776903D01*
X73519010Y-18776707D01*
X73522999Y-18736204D01*
X73523075Y-18735819D01*
X73533101Y-18702767D01*
X73533251Y-18702405D01*
X73549528Y-18671954D01*
X73549746Y-18671628D01*
X73571655Y-18644932D01*
X73571932Y-18644655D01*
X73598628Y-18622746D01*
X73598954Y-18622528D01*
X73629405Y-18606251D01*
X73629767Y-18606101D01*
X73662819Y-18596075D01*
X73663204Y-18595999D01*
X73703707Y-18592010D01*
X73703903Y-18592000D01*
X73786000Y-18592000D01*
X73787732Y-18593000D01*
G37*
G36*
X87487732Y-18593000D02*
G01*
X87487732Y-18595000D01*
X87486196Y-18595990D01*
X87434696Y-18601062D01*
X87385358Y-18616029D01*
X87339890Y-18640332D01*
X87300038Y-18673038D01*
X87267332Y-18712890D01*
X87243029Y-18758358D01*
X87228062Y-18807696D01*
X87222990Y-18859196D01*
X87221825Y-18860822D01*
X87219835Y-18860626D01*
X87219000Y-18859000D01*
X87219000Y-18776903D01*
X87219010Y-18776707D01*
X87222999Y-18736204D01*
X87223075Y-18735819D01*
X87233101Y-18702767D01*
X87233251Y-18702405D01*
X87249528Y-18671954D01*
X87249746Y-18671628D01*
X87271655Y-18644932D01*
X87271932Y-18644655D01*
X87298628Y-18622746D01*
X87298954Y-18622528D01*
X87329405Y-18606251D01*
X87329767Y-18606101D01*
X87362819Y-18596075D01*
X87363204Y-18595999D01*
X87403707Y-18592010D01*
X87403903Y-18592000D01*
X87486000Y-18592000D01*
X87487732Y-18593000D01*
G37*
G36*
X132885732Y-18593000D02*
G01*
X132885732Y-18595000D01*
X132884196Y-18595990D01*
X132832696Y-18601062D01*
X132783358Y-18616029D01*
X132737890Y-18640332D01*
X132698038Y-18673038D01*
X132665332Y-18712890D01*
X132641029Y-18758358D01*
X132626062Y-18807696D01*
X132620990Y-18859196D01*
X132619825Y-18860822D01*
X132617835Y-18860626D01*
X132617000Y-18859000D01*
X132617000Y-18776903D01*
X132617010Y-18776707D01*
X132620999Y-18736204D01*
X132621075Y-18735819D01*
X132631101Y-18702767D01*
X132631251Y-18702405D01*
X132647528Y-18671954D01*
X132647746Y-18671628D01*
X132669655Y-18644932D01*
X132669932Y-18644655D01*
X132696628Y-18622746D01*
X132696954Y-18622528D01*
X132727405Y-18606251D01*
X132727767Y-18606101D01*
X132760819Y-18596075D01*
X132761204Y-18595999D01*
X132801707Y-18592010D01*
X132801903Y-18592000D01*
X132884000Y-18592000D01*
X132885732Y-18593000D01*
G37*
G36*
X146485732Y-18593000D02*
G01*
X146485732Y-18595000D01*
X146484196Y-18595990D01*
X146432696Y-18601062D01*
X146383358Y-18616029D01*
X146337890Y-18640332D01*
X146298038Y-18673038D01*
X146265332Y-18712890D01*
X146241029Y-18758358D01*
X146226062Y-18807696D01*
X146220990Y-18859196D01*
X146219825Y-18860822D01*
X146217835Y-18860626D01*
X146217000Y-18859000D01*
X146217000Y-18776903D01*
X146217010Y-18776707D01*
X146220999Y-18736204D01*
X146221075Y-18735819D01*
X146231101Y-18702767D01*
X146231251Y-18702405D01*
X146247528Y-18671954D01*
X146247746Y-18671628D01*
X146269655Y-18644932D01*
X146269932Y-18644655D01*
X146296628Y-18622746D01*
X146296954Y-18622528D01*
X146327405Y-18606251D01*
X146327767Y-18606101D01*
X146360819Y-18596075D01*
X146361204Y-18595999D01*
X146401707Y-18592010D01*
X146401903Y-18592000D01*
X146484000Y-18592000D01*
X146485732Y-18593000D01*
G37*
G36*
X160085732Y-18593000D02*
G01*
X160085732Y-18595000D01*
X160084196Y-18595990D01*
X160032696Y-18601062D01*
X159983358Y-18616029D01*
X159937890Y-18640332D01*
X159898038Y-18673038D01*
X159865332Y-18712890D01*
X159841029Y-18758358D01*
X159826062Y-18807696D01*
X159820990Y-18859196D01*
X159819825Y-18860822D01*
X159817835Y-18860626D01*
X159817000Y-18859000D01*
X159817000Y-18776903D01*
X159817010Y-18776707D01*
X159820999Y-18736204D01*
X159821075Y-18735819D01*
X159831101Y-18702767D01*
X159831251Y-18702405D01*
X159847528Y-18671954D01*
X159847746Y-18671628D01*
X159869655Y-18644932D01*
X159869932Y-18644655D01*
X159896628Y-18622746D01*
X159896954Y-18622528D01*
X159927405Y-18606251D01*
X159927767Y-18606101D01*
X159960819Y-18596075D01*
X159961204Y-18595999D01*
X160001707Y-18592010D01*
X160001903Y-18592000D01*
X160084000Y-18592000D01*
X160085732Y-18593000D01*
G37*
G36*
X19387732Y-18593000D02*
G01*
X19387732Y-18595000D01*
X19386196Y-18595990D01*
X19334696Y-18601062D01*
X19285358Y-18616029D01*
X19239890Y-18640332D01*
X19200038Y-18673038D01*
X19167332Y-18712890D01*
X19143029Y-18758358D01*
X19128062Y-18807696D01*
X19122990Y-18859196D01*
X19121825Y-18860822D01*
X19119835Y-18860626D01*
X19119000Y-18859000D01*
X19119000Y-18776903D01*
X19119010Y-18776707D01*
X19122999Y-18736204D01*
X19123075Y-18735819D01*
X19133101Y-18702767D01*
X19133251Y-18702405D01*
X19149528Y-18671954D01*
X19149746Y-18671628D01*
X19171655Y-18644932D01*
X19171932Y-18644655D01*
X19198628Y-18622746D01*
X19198954Y-18622528D01*
X19229405Y-18606251D01*
X19229767Y-18606101D01*
X19262819Y-18596075D01*
X19263204Y-18595999D01*
X19303707Y-18592010D01*
X19303903Y-18592000D01*
X19386000Y-18592000D01*
X19387732Y-18593000D01*
G37*
G36*
X173685732Y-18593000D02*
G01*
X173685732Y-18595000D01*
X173684196Y-18595990D01*
X173632696Y-18601062D01*
X173583358Y-18616029D01*
X173537890Y-18640332D01*
X173498038Y-18673038D01*
X173465332Y-18712890D01*
X173441029Y-18758358D01*
X173426062Y-18807696D01*
X173420990Y-18859196D01*
X173419825Y-18860822D01*
X173417835Y-18860626D01*
X173417000Y-18859000D01*
X173417000Y-18776903D01*
X173417010Y-18776707D01*
X173420999Y-18736204D01*
X173421075Y-18735819D01*
X173431101Y-18702767D01*
X173431251Y-18702405D01*
X173447528Y-18671954D01*
X173447746Y-18671628D01*
X173469655Y-18644932D01*
X173469932Y-18644655D01*
X173496628Y-18622746D01*
X173496954Y-18622528D01*
X173527405Y-18606251D01*
X173527767Y-18606101D01*
X173560819Y-18596075D01*
X173561204Y-18595999D01*
X173601707Y-18592010D01*
X173601903Y-18592000D01*
X173684000Y-18592000D01*
X173685732Y-18593000D01*
G37*
G36*
X134238293Y-18592010D02*
G01*
X134278796Y-18595999D01*
X134279181Y-18596075D01*
X134312233Y-18606101D01*
X134312595Y-18606251D01*
X134343046Y-18622528D01*
X134343372Y-18622746D01*
X134370068Y-18644655D01*
X134370345Y-18644932D01*
X134392254Y-18671628D01*
X134392472Y-18671954D01*
X134408749Y-18702405D01*
X134408899Y-18702767D01*
X134418925Y-18735819D01*
X134419001Y-18736204D01*
X134422990Y-18776707D01*
X134423000Y-18776903D01*
X134423000Y-18859000D01*
X134422000Y-18860732D01*
X134420000Y-18860732D01*
X134419010Y-18859196D01*
X134413938Y-18807696D01*
X134398971Y-18758358D01*
X134374668Y-18712890D01*
X134341962Y-18673038D01*
X134302110Y-18640332D01*
X134256642Y-18616029D01*
X134207304Y-18601062D01*
X134155804Y-18595990D01*
X134154178Y-18594825D01*
X134154374Y-18592835D01*
X134156000Y-18592000D01*
X134238097Y-18592000D01*
X134238293Y-18592010D01*
G37*
G36*
X47940293Y-18592010D02*
G01*
X47980796Y-18595999D01*
X47981181Y-18596075D01*
X48014233Y-18606101D01*
X48014595Y-18606251D01*
X48045046Y-18622528D01*
X48045372Y-18622746D01*
X48072068Y-18644655D01*
X48072345Y-18644932D01*
X48094254Y-18671628D01*
X48094472Y-18671954D01*
X48110749Y-18702405D01*
X48110899Y-18702767D01*
X48120925Y-18735819D01*
X48121001Y-18736204D01*
X48124990Y-18776707D01*
X48125000Y-18776903D01*
X48125000Y-18859000D01*
X48124000Y-18860732D01*
X48122000Y-18860732D01*
X48121010Y-18859196D01*
X48115938Y-18807696D01*
X48100971Y-18758358D01*
X48076668Y-18712890D01*
X48043962Y-18673038D01*
X48004110Y-18640332D01*
X47958642Y-18616029D01*
X47909304Y-18601062D01*
X47857804Y-18595990D01*
X47856178Y-18594825D01*
X47856374Y-18592835D01*
X47858000Y-18592000D01*
X47940097Y-18592000D01*
X47940293Y-18592010D01*
G37*
G36*
X34340293Y-18592010D02*
G01*
X34380796Y-18595999D01*
X34381181Y-18596075D01*
X34414233Y-18606101D01*
X34414595Y-18606251D01*
X34445046Y-18622528D01*
X34445372Y-18622746D01*
X34472068Y-18644655D01*
X34472345Y-18644932D01*
X34494254Y-18671628D01*
X34494472Y-18671954D01*
X34510749Y-18702405D01*
X34510899Y-18702767D01*
X34520925Y-18735819D01*
X34521001Y-18736204D01*
X34524990Y-18776707D01*
X34525000Y-18776903D01*
X34525000Y-18859000D01*
X34524000Y-18860732D01*
X34522000Y-18860732D01*
X34521010Y-18859196D01*
X34515938Y-18807696D01*
X34500971Y-18758358D01*
X34476668Y-18712890D01*
X34443962Y-18673038D01*
X34404110Y-18640332D01*
X34358642Y-18616029D01*
X34309304Y-18601062D01*
X34257804Y-18595990D01*
X34256178Y-18594825D01*
X34256374Y-18592835D01*
X34258000Y-18592000D01*
X34340097Y-18592000D01*
X34340293Y-18592010D01*
G37*
G36*
X175038293Y-18592010D02*
G01*
X175078796Y-18595999D01*
X175079181Y-18596075D01*
X175112233Y-18606101D01*
X175112595Y-18606251D01*
X175143046Y-18622528D01*
X175143372Y-18622746D01*
X175170068Y-18644655D01*
X175170345Y-18644932D01*
X175192254Y-18671628D01*
X175192472Y-18671954D01*
X175208749Y-18702405D01*
X175208899Y-18702767D01*
X175218925Y-18735819D01*
X175219001Y-18736204D01*
X175222990Y-18776707D01*
X175223000Y-18776903D01*
X175223000Y-18859000D01*
X175222000Y-18860732D01*
X175220000Y-18860732D01*
X175219010Y-18859196D01*
X175213938Y-18807696D01*
X175198971Y-18758358D01*
X175174668Y-18712890D01*
X175141962Y-18673038D01*
X175102110Y-18640332D01*
X175056642Y-18616029D01*
X175007304Y-18601062D01*
X174955804Y-18595990D01*
X174954178Y-18594825D01*
X174954374Y-18592835D01*
X174956000Y-18592000D01*
X175038097Y-18592000D01*
X175038293Y-18592010D01*
G37*
G36*
X161438293Y-18592010D02*
G01*
X161478796Y-18595999D01*
X161479181Y-18596075D01*
X161512233Y-18606101D01*
X161512595Y-18606251D01*
X161543046Y-18622528D01*
X161543372Y-18622746D01*
X161570068Y-18644655D01*
X161570345Y-18644932D01*
X161592254Y-18671628D01*
X161592472Y-18671954D01*
X161608749Y-18702405D01*
X161608899Y-18702767D01*
X161618925Y-18735819D01*
X161619001Y-18736204D01*
X161622990Y-18776707D01*
X161623000Y-18776903D01*
X161623000Y-18859000D01*
X161622000Y-18860732D01*
X161620000Y-18860732D01*
X161619010Y-18859196D01*
X161613938Y-18807696D01*
X161598971Y-18758358D01*
X161574668Y-18712890D01*
X161541962Y-18673038D01*
X161502110Y-18640332D01*
X161456642Y-18616029D01*
X161407304Y-18601062D01*
X161355804Y-18595990D01*
X161354178Y-18594825D01*
X161354374Y-18592835D01*
X161356000Y-18592000D01*
X161438097Y-18592000D01*
X161438293Y-18592010D01*
G37*
G36*
X75140293Y-18592010D02*
G01*
X75180796Y-18595999D01*
X75181181Y-18596075D01*
X75214233Y-18606101D01*
X75214595Y-18606251D01*
X75245046Y-18622528D01*
X75245372Y-18622746D01*
X75272068Y-18644655D01*
X75272345Y-18644932D01*
X75294254Y-18671628D01*
X75294472Y-18671954D01*
X75310749Y-18702405D01*
X75310899Y-18702767D01*
X75320925Y-18735819D01*
X75321001Y-18736204D01*
X75324990Y-18776707D01*
X75325000Y-18776903D01*
X75325000Y-18859000D01*
X75324000Y-18860732D01*
X75322000Y-18860732D01*
X75321010Y-18859196D01*
X75315938Y-18807696D01*
X75300971Y-18758358D01*
X75276668Y-18712890D01*
X75243962Y-18673038D01*
X75204110Y-18640332D01*
X75158642Y-18616029D01*
X75109304Y-18601062D01*
X75057804Y-18595990D01*
X75056178Y-18594825D01*
X75056374Y-18592835D01*
X75058000Y-18592000D01*
X75140097Y-18592000D01*
X75140293Y-18592010D01*
G37*
G36*
X147838293Y-18592010D02*
G01*
X147878796Y-18595999D01*
X147879181Y-18596075D01*
X147912233Y-18606101D01*
X147912595Y-18606251D01*
X147943046Y-18622528D01*
X147943372Y-18622746D01*
X147970068Y-18644655D01*
X147970345Y-18644932D01*
X147992254Y-18671628D01*
X147992472Y-18671954D01*
X148008749Y-18702405D01*
X148008899Y-18702767D01*
X148018925Y-18735819D01*
X148019001Y-18736204D01*
X148022990Y-18776707D01*
X148023000Y-18776903D01*
X148023000Y-18859000D01*
X148022000Y-18860732D01*
X148020000Y-18860732D01*
X148019010Y-18859196D01*
X148013938Y-18807696D01*
X147998971Y-18758358D01*
X147974668Y-18712890D01*
X147941962Y-18673038D01*
X147902110Y-18640332D01*
X147856642Y-18616029D01*
X147807304Y-18601062D01*
X147755804Y-18595990D01*
X147754178Y-18594825D01*
X147754374Y-18592835D01*
X147756000Y-18592000D01*
X147838097Y-18592000D01*
X147838293Y-18592010D01*
G37*
G36*
X120640293Y-18592010D02*
G01*
X120680796Y-18595999D01*
X120681181Y-18596075D01*
X120714233Y-18606101D01*
X120714595Y-18606251D01*
X120745046Y-18622528D01*
X120745372Y-18622746D01*
X120772068Y-18644655D01*
X120772345Y-18644932D01*
X120794254Y-18671628D01*
X120794472Y-18671954D01*
X120810749Y-18702405D01*
X120810899Y-18702767D01*
X120820925Y-18735819D01*
X120821001Y-18736204D01*
X120824990Y-18776707D01*
X120825000Y-18776903D01*
X120825000Y-18859000D01*
X120824000Y-18860732D01*
X120822000Y-18860732D01*
X120821010Y-18859196D01*
X120815938Y-18807696D01*
X120800971Y-18758358D01*
X120776668Y-18712890D01*
X120743962Y-18673038D01*
X120704110Y-18640332D01*
X120658642Y-18616029D01*
X120609304Y-18601062D01*
X120557804Y-18595990D01*
X120556178Y-18594825D01*
X120556374Y-18592835D01*
X120558000Y-18592000D01*
X120640097Y-18592000D01*
X120640293Y-18592010D01*
G37*
G36*
X20740293Y-18592010D02*
G01*
X20780796Y-18595999D01*
X20781181Y-18596075D01*
X20814233Y-18606101D01*
X20814595Y-18606251D01*
X20845046Y-18622528D01*
X20845372Y-18622746D01*
X20872068Y-18644655D01*
X20872345Y-18644932D01*
X20894254Y-18671628D01*
X20894472Y-18671954D01*
X20910749Y-18702405D01*
X20910899Y-18702767D01*
X20920925Y-18735819D01*
X20921001Y-18736204D01*
X20924990Y-18776707D01*
X20925000Y-18776903D01*
X20925000Y-18859000D01*
X20924000Y-18860732D01*
X20922000Y-18860732D01*
X20921010Y-18859196D01*
X20915938Y-18807696D01*
X20900971Y-18758358D01*
X20876668Y-18712890D01*
X20843962Y-18673038D01*
X20804110Y-18640332D01*
X20758642Y-18616029D01*
X20709304Y-18601062D01*
X20657804Y-18595990D01*
X20656178Y-18594825D01*
X20656374Y-18592835D01*
X20658000Y-18592000D01*
X20740097Y-18592000D01*
X20740293Y-18592010D01*
G37*
G36*
X88840293Y-18592010D02*
G01*
X88880796Y-18595999D01*
X88881181Y-18596075D01*
X88914233Y-18606101D01*
X88914595Y-18606251D01*
X88945046Y-18622528D01*
X88945372Y-18622746D01*
X88972068Y-18644655D01*
X88972345Y-18644932D01*
X88994254Y-18671628D01*
X88994472Y-18671954D01*
X89010749Y-18702405D01*
X89010899Y-18702767D01*
X89020925Y-18735819D01*
X89021001Y-18736204D01*
X89024990Y-18776707D01*
X89025000Y-18776903D01*
X89025000Y-18859000D01*
X89024000Y-18860732D01*
X89022000Y-18860732D01*
X89021010Y-18859196D01*
X89015938Y-18807696D01*
X89000971Y-18758358D01*
X88976668Y-18712890D01*
X88943962Y-18673038D01*
X88904110Y-18640332D01*
X88858642Y-18616029D01*
X88809304Y-18601062D01*
X88757804Y-18595990D01*
X88756178Y-18594825D01*
X88756374Y-18592835D01*
X88758000Y-18592000D01*
X88840097Y-18592000D01*
X88840293Y-18592010D01*
G37*
G36*
X61538293Y-18592010D02*
G01*
X61578796Y-18595999D01*
X61579181Y-18596075D01*
X61612233Y-18606101D01*
X61612595Y-18606251D01*
X61643046Y-18622528D01*
X61643372Y-18622746D01*
X61670068Y-18644655D01*
X61670345Y-18644932D01*
X61692254Y-18671628D01*
X61692472Y-18671954D01*
X61708749Y-18702405D01*
X61708899Y-18702767D01*
X61718925Y-18735819D01*
X61719001Y-18736204D01*
X61722990Y-18776707D01*
X61723000Y-18776903D01*
X61723000Y-18859000D01*
X61722000Y-18860732D01*
X61720000Y-18860732D01*
X61719010Y-18859196D01*
X61713938Y-18807696D01*
X61698971Y-18758358D01*
X61674668Y-18712890D01*
X61641962Y-18673038D01*
X61602110Y-18640332D01*
X61556642Y-18616029D01*
X61507304Y-18601062D01*
X61455804Y-18595990D01*
X61454178Y-18594825D01*
X61454374Y-18592835D01*
X61456000Y-18592000D01*
X61538097Y-18592000D01*
X61538293Y-18592010D01*
G37*
M02*
