G04 #@! TF.GenerationSoftware,KiCad,Pcbnew,(5.1.7)-1*
G04 #@! TF.CreationDate,2020-12-02T21:57:12+01:00*
G04 #@! TF.ProjectId,TonOfSteppers,546f6e4f-6653-4746-9570-706572732e6b,rev?*
G04 #@! TF.SameCoordinates,Original*
G04 #@! TF.FileFunction,Legend,Bot*
G04 #@! TF.FilePolarity,Positive*
%FSLAX46Y46*%
G04 Gerber Fmt 4.6, Leading zero omitted, Abs format (unit mm)*
G04 Created by KiCad (PCBNEW (5.1.7)-1) date 2020-12-02 21:57:12*
%MOMM*%
%LPD*%
G01*
G04 APERTURE LIST*
%ADD10C,0.120000*%
%ADD11C,0.150000*%
G04 APERTURE END LIST*
D10*
X94968000Y-125594000D02*
X102268000Y-125594000D01*
X94968000Y-121294000D02*
X102268000Y-121294000D01*
X94968000Y-125594000D02*
X94968000Y-121294000D01*
X102800000Y-132580000D02*
X103900000Y-132580000D01*
X102800000Y-132850000D02*
X102800000Y-132580000D01*
X101300000Y-132850000D02*
X102800000Y-132850000D01*
X102800000Y-126220000D02*
X105630000Y-126220000D01*
X102800000Y-125950000D02*
X102800000Y-126220000D01*
X101300000Y-125950000D02*
X102800000Y-125950000D01*
X116660748Y-101498000D02*
X117183252Y-101498000D01*
X116660748Y-102968000D02*
X117183252Y-102968000D01*
X98994936Y-133202000D02*
X100199064Y-133202000D01*
X98994936Y-135022000D02*
X100199064Y-135022000D01*
D11*
X106116095Y-122146380D02*
X106116095Y-121146380D01*
X105878000Y-121146380D01*
X105735142Y-121194000D01*
X105639904Y-121289238D01*
X105592285Y-121384476D01*
X105544666Y-121574952D01*
X105544666Y-121717809D01*
X105592285Y-121908285D01*
X105639904Y-122003523D01*
X105735142Y-122098761D01*
X105878000Y-122146380D01*
X106116095Y-122146380D01*
X104592285Y-122146380D02*
X105163714Y-122146380D01*
X104878000Y-122146380D02*
X104878000Y-121146380D01*
X104973238Y-121289238D01*
X105068476Y-121384476D01*
X105163714Y-121432095D01*
X93520238Y-127052619D02*
X93615476Y-127005000D01*
X93710714Y-126909761D01*
X93853571Y-126766904D01*
X93948809Y-126719285D01*
X94044047Y-126719285D01*
X93996428Y-126957380D02*
X94091666Y-126909761D01*
X94186904Y-126814523D01*
X94234523Y-126624047D01*
X94234523Y-126290714D01*
X94186904Y-126100238D01*
X94091666Y-126005000D01*
X93996428Y-125957380D01*
X93805952Y-125957380D01*
X93710714Y-126005000D01*
X93615476Y-126100238D01*
X93567857Y-126290714D01*
X93567857Y-126624047D01*
X93615476Y-126814523D01*
X93710714Y-126909761D01*
X93805952Y-126957380D01*
X93996428Y-126957380D01*
X93234523Y-125957380D02*
X92567857Y-125957380D01*
X92996428Y-126957380D01*
X119988666Y-102645142D02*
X120036285Y-102692761D01*
X120179142Y-102740380D01*
X120274380Y-102740380D01*
X120417238Y-102692761D01*
X120512476Y-102597523D01*
X120560095Y-102502285D01*
X120607714Y-102311809D01*
X120607714Y-102168952D01*
X120560095Y-101978476D01*
X120512476Y-101883238D01*
X120417238Y-101788000D01*
X120274380Y-101740380D01*
X120179142Y-101740380D01*
X120036285Y-101788000D01*
X119988666Y-101835619D01*
X119512476Y-102740380D02*
X119322000Y-102740380D01*
X119226761Y-102692761D01*
X119179142Y-102645142D01*
X119083904Y-102502285D01*
X119036285Y-102311809D01*
X119036285Y-101930857D01*
X119083904Y-101835619D01*
X119131523Y-101788000D01*
X119226761Y-101740380D01*
X119417238Y-101740380D01*
X119512476Y-101788000D01*
X119560095Y-101835619D01*
X119607714Y-101930857D01*
X119607714Y-102168952D01*
X119560095Y-102264190D01*
X119512476Y-102311809D01*
X119417238Y-102359428D01*
X119226761Y-102359428D01*
X119131523Y-102311809D01*
X119083904Y-102264190D01*
X119036285Y-102168952D01*
X103345333Y-134135571D02*
X103678666Y-134135571D01*
X103678666Y-134659380D02*
X103678666Y-133659380D01*
X103202476Y-133659380D01*
X102297714Y-134659380D02*
X102869142Y-134659380D01*
X102583428Y-134659380D02*
X102583428Y-133659380D01*
X102678666Y-133802238D01*
X102773904Y-133897476D01*
X102869142Y-133945095D01*
M02*
